<svg xmlns="http://www.w3.org/2000/svg" viewBox="0 0 4606 6134" shape-rendering="geometricPrecision" text-rendering="geometricPrecision" image-rendering="optimizeQuality" fill-rule="evenodd" clip-rule="evenodd"><path style="fill:#666;" d="M3421 5305c-279 306-604 580-969 802-45 33-106 37-156 5-539-343-992-755-1348-1203-491-616-800-1299-906-1957-108-667-7-1309 325-1831 131-206 298-394 502-556C1337 192 1872-5 2405-1c513 4 1020 195 1458 595 154 140 283 300 389 474 357 588 434 1338 277 2098-155 751-539 1514-1108 2138zM2303 1185c633 0 1146 513 1146 1146s-513 1146-1146 1146-1146-513-1146-1146 513-1146 1146-1146z"/></svg>