<svg xmlns="http://www.w3.org/2000/svg" width="64" height="64" viewBox="0 0 640 640" shape-rendering="geometricPrecision" text-rendering="geometricPrecision" image-rendering="optimizeQuality" fill-rule="evenodd" clip-rule="evenodd"><path style="fill:#ffffff;" d="M151.679 343.398c-11.858-10.252-13.158-28.181-2.894-40.04 10.264-11.858 28.194-13.157 40.052-2.894l87.533 75.899 173.329-171.522c11.126-11.055 29.114-11.008 40.17.106 11.055 11.126 11.007 29.115-.119 40.17L298.161 434.722c-10.394 10.855-27.602 11.752-39.095 1.807L151.68 343.4zM320 0h.035v.118c88.419.012 168.415 35.8 226.243 93.639v.106c57.804 57.816 93.592 137.754 93.616 226.054H640V320.035h-.106c-.012 88.419-35.812 168.415-93.64 226.243h-.117c-57.816 57.804-137.742 93.592-226.054 93.616V640H319.965v-.106c-88.407-.012-168.404-35.812-226.231-93.64C35.918 488.428.142 408.467.118 320.084H0V319.965h.118c.012-88.407 35.8-168.404 93.64-226.231C151.572 35.918 231.545.142 319.917.118V0H320zm.035 56.847v.118H319.917v-.118c-72.497.024-138.238 29.505-185.884 77.163-47.681 47.658-77.174 113.423-77.186 185.955h.118V320.083h-.118c.024 72.509 29.505 138.238 77.163 185.896 47.658 47.67 113.423 77.174 185.955 77.174v-.106H320.083v.106c72.544-.012 138.297-29.48 185.943-77.092l-.047-.059c47.67-47.658 77.174-113.423 77.174-185.967h-.107V319.917h.107c-.012-72.544-29.48-138.297-77.092-185.943l-.059.06C458.344 86.351 392.58 56.858 320.035 56.846z" fill-rule="nonzero"/></svg>