<svg xmlns="http://www.w3.org/2000/svg" width="64" height="64" viewBox="0 0 640 640" shape-rendering="geometricPrecision" text-rendering="geometricPrecision" image-rendering="optimizeQuality" fill-rule="evenodd" clip-rule="evenodd"><path style="fill:#ffffff;" d="M320 0c176.707 0 320 143.293 320 320S496.707 640 320 640 0 496.707 0 320 143.293 0 320 0zm70.772 188.695c16.194-16.441 42.544-16.524 58.82-.154 16.276 16.359 16.347 42.97.165 59.387l-71.08 72.107 71.151 72.155c16.052 16.323 15.84 42.744-.496 59.055-16.323 16.288-42.579 16.24-58.642-.07l-70.655-71.67-70.808 71.8c-16.193 16.44-42.543 16.523-58.82.153-16.275-16.358-16.346-42.969-.165-59.387l71.08-72.107-71.15-72.154c-16.052-16.323-15.84-42.745.496-59.056 16.323-16.288 42.579-16.24 58.642.07l70.654 71.671 70.808-71.8zM320 49.524c149.364 0 270.476 121.112 270.476 270.476S469.364 590.476 320 590.476 49.524 469.364 49.524 320 170.636 49.524 320 49.524z"/></svg>