<svg xmlns="http://www.w3.org/2000/svg" width="152.01" height="151" viewBox="0 0 152.01 151">
  <g id="Group_8905" data-name="Group 8905" transform="translate(-2066 -3186)">
    <g id="Group_8816" data-name="Group 8816" transform="translate(2066 3186)">
      <g id="Group_6858" data-name="Group 6858" transform="translate(19.006 7.258)">
        <path id="Path_13820" data-name="Path 13820" d="M547.549,466.6q-.479,4.822-.855,9.653c-.5,6.443.507,12.852,1.874,19.127.931,4.273,2.381,8.486,2.654,12.851a47.474,47.474,0,0,1-2.935,19.893c-2.443,6.391-4.192,12.45-3.578,19.408l68.79-.095c.614-6.959-1.135-13.017-3.577-19.408a47.486,47.486,0,0,1-2.936-19.893c.274-4.365,1.724-8.578,2.656-12.851,1.367-6.275,2.374-12.684,1.873-19.126q-.377-4.832-.854-9.653" transform="translate(-525.24 -410.792)" fill="#fff" stroke="#161615" stroke-miterlimit="10" stroke-width="1"/>
        <path id="Path_13821" data-name="Path 13821" d="M676.546,533.8a3.953,3.953,0,1,0,3.182-4.6A3.952,3.952,0,0,0,676.546,533.8Z" transform="translate(-675.667 -435.596)" fill="#ca7e82" stroke="#161615" stroke-miterlimit="10" stroke-width="3"/>
        <path id="Path_13822" data-name="Path 13822" d="M527.994,432.453a47.722,47.722,0,0,1-.927,9.516c-.579,2.892-.868,5.814-1.579,8.7q-.612,2.483-1.416,4.914a18.373,18.373,0,0,1-.6,1.8,5.357,5.357,0,0,0-.381.82,5.833,5.833,0,0,0-.176,1.071,3.64,3.64,0,0,0,1.106.127q.6.052,1.19.111,1.191.12,2.378.267a98.8,98.8,0,0,1,15.948,3.344c5.133,1.527,9.958,3.946,15.094,5.382a19.33,19.33,0,0,0,9.494.376c1.6-.345,3.32-.361,4.943-.638s3.226-.6,4.841-.892a15.229,15.229,0,0,1,6.4-.081c1.978.5,4.259.2,6.3.182a4.522,4.522,0,0,1,1.066.078c.738.174,1.8,1,1.594,1.867-.185.785-1.45,1.454-2.127,1.7a10.718,10.718,0,0,1-2.06.462,29.6,29.6,0,0,0-5.584.968,115.428,115.428,0,0,0,13.326,1.015c.823,0,3.745.323,2.932,1.864-.26.492-1.151.562-1.579.84a4.221,4.221,0,0,0-1.222,1.575,6.58,6.58,0,0,1-2.014,2.4,15.417,15.417,0,0,1-8.36,2.624c-4.358.245-8.71-.576-12.992-1.233a79.021,79.021,0,0,0-12.883-1.022,67.243,67.243,0,0,0-12.383,1.01c-8.511,1.735-17.383.312-25.583-2.26a16.739,16.739,0,0,0-3.841-.919,32.343,32.343,0,0,0-3.728.4,24.121,24.121,0,0,1-2.859-.2,8.277,8.277,0,0,1-2.932-.634,6.975,6.975,0,0,1-2.647-2.459,8.008,8.008,0,0,1-1.553-5.157,41.392,41.392,0,0,0,.37-5.975,58.5,58.5,0,0,1-.092-8.295,60.174,60.174,0,0,1,1.621-12.143q1.7-6.36,3.6-12.664a10.548,10.548,0,0,0,.538-4.119c-.109-1.43-.341-2.85-.379-4.286a47.525,47.525,0,0,1,.279-6.555,17.88,17.88,0,0,1,.265-2.293c.207-.867.443-1.727.714-2.576a26.61,26.61,0,0,1,2.1-4.9,22.66,22.66,0,0,1,6.695-7.144c2.265-1.589,5.448-2.156,8.146-2.5a25.207,25.207,0,0,0,3.052-.405,10.879,10.879,0,0,0,2.416-1.256c1.716-.965,3.453-1.9,5.233-2.739a20.086,20.086,0,0,1,4.17-1.549,7.9,7.9,0,0,1,4.2.083c.51-4.538.873-6.613,1.626-11.117l19.326.141c.754,4.5,1.116,6.578,1.627,11.116a7.9,7.9,0,0,1,4.2-.082,20.038,20.038,0,0,1,4.17,1.549c1.78.843,3.516,1.775,5.233,2.739a10.881,10.881,0,0,0,2.417,1.256,24.958,24.958,0,0,0,3.052.4c2.7.34,5.881.907,8.146,2.5a22.654,22.654,0,0,1,6.694,7.144,26.551,26.551,0,0,1,2.1,4.9c.271.85.507,1.71.714,2.577a17.677,17.677,0,0,1,.263,2.293,47.343,47.343,0,0,1,.281,6.555c-.039,1.436-.271,2.856-.38,4.287a10.532,10.532,0,0,0,.539,4.118q1.894,6.3,3.6,12.665a60.217,60.217,0,0,1,1.622,12.143,58.928,58.928,0,0,1-.175,9.21,15.9,15.9,0,0,1,2.781,6.269,52.946,52.946,0,0,1,1.258,10.749,104.089,104.089,0,0,1-.006,11.4c-.329,5.941-.924,11.867-1.684,17.775l-.168.762h-9.7a109.84,109.84,0,0,0-1.944-16.3,11.574,11.574,0,0,0-.563-2.143c-.356-.881-.815-1.728-1.2-2.59q-.639-1.421-1.193-2.878c-.626-1.654-1.171-3.336-1.676-5.03a29.689,29.689,0,0,1-1.389-5.063c-.173-1.649-.611-3.248-.914-4.892a53.4,53.4,0,0,1-.871-11.056c.021-.812.074-1.615.033-2.424a3.5,3.5,0,0,0-.335-2.01,10,10,0,0,1-.868-2.293q-.8-2.429-1.416-4.914c-.711-2.886-1-5.808-1.579-8.7a47.728,47.728,0,0,1-.927-9.516" transform="translate(-505.166 -376.503)" fill="#fff" stroke="#161615" stroke-miterlimit="10" stroke-width="1"/>
        <path id="Path_13823" data-name="Path 13823" d="M606.765,374.258H579.942l3.388,5.364s6.871,4.894,10.54,5.741a32.062,32.062,0,0,0,9.6-6.024Z" transform="translate(-539.736 -374.258)" fill="#fff" stroke="#161615" stroke-miterlimit="10" stroke-width="1"/>
        <path id="Path_13824" data-name="Path 13824" d="M574.572,441.029s4.518,22.446-26.87,18.775" transform="translate(-488.299 -400.701)" fill="none" stroke="#161615" stroke-miterlimit="10" stroke-width="1"/>
        <line id="Line_284" data-name="Line 284" x1="15.387" y2="3.762" transform="translate(66.158 20.142)" fill="none" stroke="#161615" stroke-miterlimit="10" stroke-width="1"/>
        <path id="Path_13825" data-name="Path 13825" d="M591.172,385.9a19.588,19.588,0,0,1-2.753,14.611" transform="translate(-529.673 -378.87)" fill="none" stroke="#161615" stroke-miterlimit="10" stroke-width="1"/>
        <path id="Path_13826" data-name="Path 13826" d="M574.489,504.994s4.8,4.8,10.375,6.494" transform="translate(-514.543 -426.034)" fill="none" stroke="#161615" stroke-miterlimit="10" stroke-width="1"/>
        <line id="Line_285" data-name="Line 285" x1="6.847" y2="13.129" transform="translate(68.557 111.217)" fill="none" stroke="#161615" stroke-miterlimit="10" stroke-width="1"/>
        <path id="Path_13827" data-name="Path 13827" d="M611.661,441.029s-4.518,22.446,26.869,18.775" transform="translate(-590.521 -400.701)" fill="none" stroke="#161615" stroke-miterlimit="10" stroke-width="1"/>
        <line id="Line_286" data-name="Line 286" x2="15.386" y2="3.762" transform="translate(25.87 20.142)" fill="none" stroke="#161615" stroke-miterlimit="10" stroke-width="1"/>
        <path id="Path_13828" data-name="Path 13828" d="M610.754,385.9a19.583,19.583,0,0,0,2.752,14.611" transform="translate(-564.84 -378.87)" fill="none" stroke="#161615" stroke-miterlimit="10" stroke-width="1"/>
        <path id="Path_13829" data-name="Path 13829" d="M622.706,504.994s-4.8,4.8-10.375,6.494" transform="translate(-575.241 -426.034)" fill="none" stroke="#161615" stroke-miterlimit="10" stroke-width="1"/>
        <line id="Line_287" data-name="Line 287" x2="6.846" y2="13.129" transform="translate(32.009 111.217)" fill="none" stroke="#161615" stroke-miterlimit="10" stroke-width="1"/>
        <path id="Path_13830" data-name="Path 13830" d="M565.489,463.491a1.271,1.271,0,1,0,1.271-1.271A1.271,1.271,0,0,0,565.489,463.491Z" transform="translate(-492.273 -409.094)" fill="none" stroke="#161615" stroke-miterlimit="10" stroke-width="1"/>
        <path id="Path_13831" data-name="Path 13831" d="M633.624,464.192a1.27,1.27,0,1,0,1.271-1.271A1.271,1.271,0,0,0,633.624,464.192Z" transform="translate(-601.558 -409.372)" fill="none" stroke="#161615" stroke-miterlimit="10" stroke-width="1"/>
        <line id="Line_288" data-name="Line 288" x1="3.318" transform="translate(52.676 25.598)" fill="none" stroke="#161615" stroke-miterlimit="10" stroke-width="1"/>
        <path id="Path_13833" data-name="Path 13833" d="M546.153,429.946a3.953,3.953,0,1,0,4.437-3.4A3.953,3.953,0,0,0,546.153,429.946Z" transform="translate(-466.57 -394.951)" fill="#87a075" stroke="#161615" stroke-miterlimit="10" stroke-width="1"/>
        <path id="Path_13834" data-name="Path 13834" d="M553.718,436.635a3.953,3.953,0,1,0,4.436-3.4A3.953,3.953,0,0,0,553.718,436.635Z" transform="translate(-478.704 -397.601)" fill="#e9a04f" stroke="#161615" stroke-miterlimit="10" stroke-width="1"/>
        <path id="Path_13835" data-name="Path 13835" d="M601.188,403.3a23.02,23.02,0,0,1-.223-7.11c-1.515-.32-3.194.344-4.6-.315a5.3,5.3,0,0,1-1.573-1.326l-2.353-2.581c1.291.52,2.279,1.628,3.576,2.134a5.787,5.787,0,0,0,4.036-.116c2.293-.836,4.245-2.677,3.371,1.065Q602.456,399.218,601.188,403.3Z" transform="translate(-544.161 -381.273)" fill="#6c6caf" opacity="0.5"/>
        <path id="Path_13836" data-name="Path 13836" d="M571.777,402.075c-2.057.871-2.862,3.313-4.348,4.98.9-.461,1.753-1,2.667-1.433a15.479,15.479,0,0,1,6.587-1.288c1.706,0,3.989.743,5.576.339C580.886,402.159,574.117,401.083,571.777,402.075Z" transform="translate(-507.674 -385.129)" fill="#6c6caf" opacity="0.5"/>
        <path id="Path_13837" data-name="Path 13837" d="M554.717,471.532c.724,3.8,1.561,7.577,2.154,11.4.685,4.411.93,8.8,2.051,13.146,1.193,4.619,2.843,9.1,4.077,13.711a157.234,157.234,0,0,1,3.631,21.01l-2.516.257c.727-11.226-7.417-21.527-7.037-32.77a7.576,7.576,0,0,0-.144-2.483,15.694,15.694,0,0,0-1.755-2.883c-1.239-2.189-.837-4.886-.882-7.4-.1-5.888-2.734-11.309-4.23-16.9a90.239,90.239,0,0,1-2.672-17.16c-.374,1.918-2.805,2.575-4,4.123-1.417,1.844-.8,4.454-.4,6.745,1.4,8.02-.709,16.19-2.8,24.059q.071-3.8.14-7.6a10.585,10.585,0,0,0-2.1-7.7c-1.567-2.5-3.238-5.1-5.808-6.542-2.215-1.246-4.831-1.483-7.326-1.962a36.014,36.014,0,0,1-9.434-3.217l10.371-.1a47.756,47.756,0,0,0,9.555-.734,16,16,0,0,0,8.388-4.362c3.7-3.931,4.3-9.782,4.538-15.176a6.638,6.638,0,0,1,.48-2.648,2.222,2.222,0,0,1,2.148-1.346A193.564,193.564,0,0,0,554.717,471.532Z" transform="translate(-460.778 -398.306)" fill="#6c6caf" opacity="0.5"/>
        <path id="Path_13838" data-name="Path 13838" d="M596.208,512.592c.5.25,1.107.663.973,1.208a1.142,1.142,0,0,1-.332.5,7.941,7.941,0,0,1-1.607,1.258c.3-1.267-1.1-2.227-2.279-2.774l-9.007-4.164a9.544,9.544,0,0,0-2.137-.788c-1.31-.256-2.695.043-3.979-.316a9.412,9.412,0,0,0,2.043-3.807,2.76,2.76,0,0,1,.724-1.538c.644-.516,1.588-.242,2.359.054,1.271.489,2.95.82,3.9,1.854.763.829,1.181,2,1.958,2.878C590.758,509.131,593.437,511.554,596.208,512.592Z" transform="translate(-528.902 -424.801)" fill="#6c6caf" opacity="0.5"/>
        <path id="Path_13839" data-name="Path 13839" d="M578.565,570.837a17.078,17.078,0,0,1-8.26,4.893,10.419,10.419,0,0,0,4.7-6.807,29.285,29.285,0,0,0,.38-8.474c-.154-2.755-.37-5.618-1.741-8.012-.411-.719-.929-1.606-.476-2.3.387-.6,1.237-.614,1.946-.565,3.319.229,7.5-.052,10.694.9,2.844.846,1.517,3.46.595,5.368C583.952,560.9,582.477,566.619,578.565,570.837Z" transform="translate(-514.678 -443.682)" fill="#6c6caf" opacity="0.5"/>
        <path id="Path_13840" data-name="Path 13840" d="M628.992,574.459q-.566-7.666-1.816-15.26a1.079,1.079,0,0,0-.258-.64,1.139,1.139,0,0,0-.659-.218c-.96-.117-3.758-1.56-4.284-.548-.469.9,1.5,4.646,1.865,5.6A90.068,90.068,0,0,0,628.992,574.459Z" transform="translate(-587.307 -446.803)" fill="#6c6caf" opacity="0.5"/>
        <path id="Path_13841" data-name="Path 13841" d="M661.985,451.833c.49,1.942,1.169,3.992.541,5.893a7.563,7.563,0,0,0-6.035,2.035,6.057,6.057,0,0,1,.533-3.862,63.556,63.556,0,0,0,1.948-6.413,24.251,24.251,0,0,0,.794-9.678c2.433-.589,1.26,3.684,1.286,5.02A31.017,31.017,0,0,0,661.985,451.833Z" transform="translate(-641.891 -400.196)" fill="#6c6caf" opacity="0.5"/>
        <path id="Path_13842" data-name="Path 13842" d="M631.628,526.062c-4.259.013-8.225-1.025-12.379-1.656a51.284,51.284,0,0,0-7.178-1.634,59.581,59.581,0,0,0-9.175-.656c-.75.008-8.818.818-8.777.926a48.8,48.8,0,0,1-2.082-7.069c14.261-1.185,28.14,4.095,41.9,8.028,2.957.846,6.183,1.622,9.04.483a7.8,7.8,0,0,0-.554,1.21C638.822,525.817,635.228,526.051,631.628,526.062Z" transform="translate(-583.25 -430.314)" fill="#6c6caf" opacity="0.5"/>
        <path id="Path_13843" data-name="Path 13843" d="M562.078,544.763a34.611,34.611,0,0,1-10.607-2.415,4.686,4.686,0,0,0,2.171-.722,2.127,2.127,0,0,1,.688-.354,1.813,1.813,0,0,1,1.083.249c4.068,1.853,9.5,3.131,13.953,2.1A13.469,13.469,0,0,1,562.078,544.763Z" transform="translate(-485.141 -440.394)" fill="#6c6caf" opacity="0.5"/>
        <path id="Path_13844" data-name="Path 13844" d="M559.325,587.566a19.307,19.307,0,0,1-6.894.289c2.6.362,3.679-12.084,4.275-13.459C558.55,578.351,559.165,583.228,559.325,587.566Z" transform="translate(-475.682 -453.52)" fill="#6c6caf" opacity="0.5"/>
        <g id="Group_6856" data-name="Group 6856" transform="translate(76.626 14.347)">
          <path id="Path_7463" data-name="Path 7463" d="M542.577,405.451" transform="translate(-529.607 -400.958)" fill="#6b6caf" stroke="#161615" stroke-miterlimit="10" stroke-width="3"/>
          <path id="Path_7464" data-name="Path 7464" d="M564.051,398.012" transform="translate(-564.051 -398.012)" fill="#6b6caf" stroke="#161615" stroke-miterlimit="10" stroke-width="3"/>
        </g>
        <path id="Path_13845" data-name="Path 13845" d="M532.93,481.983l-17.591.059c-.8,0-.317.706-.239,1.5l.075.764c.068.695-.231,1.469.467,1.469l17.118-.227,1.506.292v-2.228A1.358,1.358,0,0,0,532.93,481.983Z" transform="translate(-427.974 -416.921)" fill="#7b7d7d" stroke="#7b7d7d" stroke-miterlimit="10" stroke-width="1"/>
        <rect id="Rectangle_4021" data-name="Rectangle 4021" width="10.066" height="8.694" transform="translate(93.253 72.423) rotate(-95.443)" fill="#fff" stroke="#161615" stroke-miterlimit="10" stroke-width="1"/>
        <path id="Path_13846" data-name="Path 13846" d="M528.835,479.062a1.068,1.068,0,1,0,1.5.2A1.068,1.068,0,0,0,528.835,479.062Z" transform="translate(-432.404 -415.677)" fill="#161615"/>
        <path id="Path_13847" data-name="Path 13847" d="M521.8,552.738h-.371l-16.075.757-.512.544.1.351.256,1.649c.072.508-.088.737.424.716l16.177-.679c.47-.019.519-.386.6-.851l-.148-1.753C522.354,552.846,522.434,552.708,521.8,552.738Z" transform="translate(-410.244 -444.933)" fill="#7b7d7d" stroke="#7b7d7d" stroke-miterlimit="10" stroke-width="1"/>
        <rect id="Rectangle_4022" data-name="Rectangle 4022" width="10.066" height="8.694" transform="matrix(-0.077, -0.997, 0.997, -0.077, 99.462, 114.724)" fill="#fff" stroke="#161615" stroke-miterlimit="10" stroke-width="1"/>
      </g>
      <rect id="Rectangle_4023" data-name="Rectangle 4023" width="151" height="151" fill="none"/>
    </g>
    <g id="Group_8820" data-name="Group 8820" transform="translate(2194.939 3276.749)">
      <path id="Path_7754" data-name="Path 7754" d="M140.458,236.223l-2.32,3.615,4.262.216Z" transform="translate(-138.137 -235.428)" fill="#161615"/>
      <path id="Path_7755" data-name="Path 7755" d="M124.607,235.844s-5.26-4.1-12.059,1.43" transform="translate(-109.299 -234.381)" fill="none" stroke="#161615" stroke-miterlimit="10" stroke-width="1"/>
      <path id="Path_7756" data-name="Path 7756" d="M96.088,236.753a3.086,3.086,0,0,0,4.988,3.455,2.056,2.056,0,0,0,.571-.826,3.086,3.086,0,0,0-4.988-3.454A2.054,2.054,0,0,0,96.088,236.753Z" transform="translate(-79.373 -234.76)" fill="#ca7e82" stroke="#161615" stroke-miterlimit="10" stroke-width="1"/>
    </g>
  </g>
</svg>
