<svg xmlns="http://www.w3.org/2000/svg" width="106" height="103" viewBox="0 0 106 103">
  <g id="Group_7183" data-name="Group 7183" transform="translate(-6193.693 -1519)">
    <g id="New_Layer" data-name="New Layer" transform="translate(6105 2106)">
      <g id="Group_7180" data-name="Group 7180" transform="translate(90 -580.473)">
        <path id="Path_58741" data-name="Path 58741" d="M96.113-580.235c0,.562,2.421,1.54,6.406,2.567a36.288,36.288,0,0,1,8.949,3.13l1.076.587-.831.171c-.9.171-2.1,1-1.834,1.271.1.1.538-.024.978-.269a3.051,3.051,0,0,1,2.69,0c.685.293.489-.318-.245-.734l-.685-.391.978.122a18.472,18.472,0,0,0,2.078.147c1.76,0,2.91.929,4.694,3.668a43.6,43.6,0,0,1,4.352,8.069c.782,2.029.807,2.152.807,5.99a34.287,34.287,0,0,1-.269,5.012,30.624,30.624,0,0,0-.465,4.3c-.245,5.184.831,10.978,3.863,20.856A43.773,43.773,0,0,1,130-520.894a2.912,2.912,0,0,1-1.125-.416,2.91,2.91,0,0,0-1.3-.416c-.171.049.293.391,1,.758,1.2.611,2.249,1.785,2.249,2.518,0,.562-.416.342-.709-.367-.269-.66-1.736-1.785-1.736-1.32,0,.122.293.342.636.489.465.22.587.416.465.782s-.049.489.293.513c.367,0,.342.049-.122.269-.44.22-.856.171-1.907-.147-1.736-.538-2.4-.391-3.937.953a3.022,3.022,0,0,1-2.861,1.1,8.42,8.42,0,0,0-5.012,1.247l-1,.709v-1.247a9.562,9.562,0,0,1,3.007-5.868,7.231,7.231,0,0,1,5.721-1.271,19.171,19.171,0,0,1,2.592.44c.22.1.416.073.416-.073,0-.391-1.369-.758-3.423-.929a7.68,7.68,0,0,0-5.159,1.149,3.055,3.055,0,0,1-.88.465,4.321,4.321,0,0,1-.807-1.663,39.231,39.231,0,0,0-1.98-4.377c-1.663-3.227-1.907-4.5-1.345-7.042a67.41,67.41,0,0,0,1.516-11.247c.171-3.643.171-3.668,1-4.939,1-1.516,1.565-2.054,1.712-1.614a.473.473,0,0,0,.367.318c.244,0,.171-.954-.171-2.567-.049-.269-.171-.978-.245-1.589-.342-2.567-.685-4.157-.88-4.157-.269,0-.269.147.024,1.223.122.465.342,1.932.489,3.252l.245,2.421-.611.489a22.468,22.468,0,0,0-2.347,3.032c-2.152,3.154-5.037,6.162-6.675,6.92a35.465,35.465,0,0,1-4.034,1.32,16.458,16.458,0,0,1-5.77.758c-2.983,0-5.012-.367-5.526-.978-.391-.489-2.176-.416-2.176.122,0,1.051,5.355,1.907,9.047,1.638a31.749,31.749,0,0,0,8.851-2.225,17.23,17.23,0,0,0,3.716-3.154l2.4-2.469-.171,2.934a48.723,48.723,0,0,1-2.885,14.548c-2.592,6.161-3.35,8.851-3.35,11.663,0,.782-.171,2.738-.367,4.352s-.342,4.426-.342,6.235a15.1,15.1,0,0,1-.416,4.523c-.538,1.687-.807,9.536-.318,9.365.269-.1.367-1,.489-3.888a30.581,30.581,0,0,1,.562-5.477,19.338,19.338,0,0,0,.44-4.646c0-1.614.147-4.254.342-5.868s.342-3.619.342-4.474c0-2.763.807-5.77,2.641-9.829.391-.88.782-1.809.88-2.078.147-.391.293-.2.782,1.076a12.77,12.77,0,0,0,.831,1.858,31.4,31.4,0,0,1,2.445,5.379l.562,1.712-.929,1.712a7.81,7.81,0,0,0-1.125,3.765,24.462,24.462,0,0,1-.587,3.276,8.734,8.734,0,0,0,.1,5.184,4.431,4.431,0,0,0,1.589,2.983,3.826,3.826,0,0,0,1.565,1.051c.587,0,2.738-1.174,2.738-1.491s.513-.269,1.32.147c1.027.538,1.638.44,2.665-.391.831-.685.978-.734,1.76-.465.758.245,1,.22,1.98-.245a4.86,4.86,0,0,0,1.614-1.247,1.44,1.44,0,0,1,1.345-.709,4.806,4.806,0,0,0,2.078-.782c1.785-1.051,2.152-1.418,2.152-2-.024-.856-.66-1.443-2.372-2.127l-1.638-.636,1.1-.171a5.66,5.66,0,0,0,1.589-.465,9.587,9.587,0,0,0,2.3-2.616,2.708,2.708,0,0,0-.513-.831c-.416-.513-.709-.636-1.638-.636-1.809,0-2.176-.171-2.2-1a58.846,58.846,0,0,0-1.736-6.284,106.276,106.276,0,0,1-3.668-14.206,38.1,38.1,0,0,1-.147-11.516,37.937,37.937,0,0,0,.122-9.8,36.754,36.754,0,0,0-4.3-9.022c-2.543-4.132-3.4-4.792-6.6-5.11a9.179,9.179,0,0,1-4.132-1.2,32.969,32.969,0,0,0-6.724-2.372,35.134,35.134,0,0,1-6.846-2.078C96.6-580.529,96.113-580.626,96.113-580.235Zm31.492,62.5a3.591,3.591,0,0,0,1.907.22,3.54,3.54,0,0,1,1.883.244,5.976,5.976,0,0,0,1.858.367,5.538,5.538,0,0,1,1.345.147c1.027.391-.22,2.494-1.834,3.13a4.526,4.526,0,0,1-3.056.2c-.709-.465-1.125-2.3-.587-2.616a.312.312,0,0,0,.1-.416c-.269-.416-.831.513-.856,1.369,0,.636-.049.685-.2.269a1.407,1.407,0,0,1-.1-.807.188.188,0,0,0-.171-.293c-.22,0-.269.269-.171.88.122.734.1.831-.2.587s-.367-.22-.367.1c0,.245-.1.367-.22.293-.269-.171-1.491.245-1.491.513,0,.122.587.171,1.271.122a5.129,5.129,0,0,1,2.274.342l.978.44-.807.122c-.954.171-1.051.66-.1.562.611-.049.611-.024.245.269-.245.2-.44.416-.44.513,0,.293.685.147.978-.22a1.239,1.239,0,0,1,.807-.367c.489,0,.489,0,.024.342-.587.44-.318.758.342.416a2.706,2.706,0,0,1,2.738.22c1.027,1.027.342,1.712-1.687,1.712-.685,0-1.247.1-1.247.245,0,.122.147.245.342.245.22,0,.293.171.22.489-.1.367-.342.489-.929.489-.734,0-.807-.049-.929-1.027a2.518,2.518,0,0,0-2.323-2.323c-1.2-.171-1.345-.513-.293-.734.734-.147,1.027-.562.391-.562a9.4,9.4,0,0,0-3.545,1.834,3.075,3.075,0,0,1-1.956.856,5.262,5.262,0,0,0-2.029.611,5.349,5.349,0,0,1-2.078.611c-.954,0-2.567,1-2.225,1.345.1.1.465-.049.831-.342a2.543,2.543,0,0,1,1.051-.513c.22.024.024.171-.416.367-.758.318-1.467,1.491-1.125,1.809.1.073.22,0,.293-.2.367-1.076,2.445-1.883,3.105-1.223a2.281,2.281,0,0,1-.269,3.032c-.587.367-.758.391-1.663.1A3.323,3.323,0,0,1,115.16-506c-.073-.293-.269-.489-.416-.44-.562.1-.416-1.809.245-3.276a2.644,2.644,0,0,0,.342-1.247c-.073-.073-.245.122-.367.44s-.391.978-.611,1.443l-.367.856-.024-1.271a8.972,8.972,0,0,1,.489-2.592c.88-2.323,2.445-3.35,5.477-3.521,1.956-.1,1.98-.1,1.418.342-.318.245-.489.538-.391.636.2.2,1.467-.685,2.91-2.029C125.551-518.229,126.089-518.4,127.6-517.74Zm-1.467,7.457a1.619,1.619,0,0,0-.782.611c-.147.391.122.465.489.122a4.67,4.67,0,0,1,1.174-.513c.929-.293,1-.293,1.54.342.709.831.758,2.225.1,2.592a4.864,4.864,0,0,1-1.418.269c-.831.024-.856.049-.318.22s.489.2-.342.22c-1.174.024-.929.44.342.562l.856.1-.709.293a1.558,1.558,0,0,1-1.394.049c-.562-.244-.66-.465-.782-1.54a2.194,2.194,0,0,0-.758-1.785c-.709-.636-.782-.831-.318-.831a1.412,1.412,0,0,0,.782-.489,1.622,1.622,0,0,1,1.32-.465C126.774-510.5,126.774-510.5,126.138-510.282Zm-5.208,1.932c-.685.758-.245.88.611.147.954-.782,1.565-.807,2.323-.024.88.856.856,2.372,0,2.763a4.423,4.423,0,0,1-1.614.293c-.587,0-.929.1-.831.245a1.293,1.293,0,0,0,.88.245c.391,0,.709.1.709.244,0,.367-.734.293-1.883-.2-1.076-.416-1.418-1.149-.685-1.418.416-.171.513-1.076.122-1.076-.122,0-.245.2-.245.416-.024.391-.049.367-.293-.049a3.569,3.569,0,0,0-.636-.807c-.293-.22-.318-.367-.1-.587.2-.2.367-.2.611,0,.269.22.44.2.782-.2a1.869,1.869,0,0,1,.562-.489C121.321-508.84,121.174-508.62,120.93-508.351ZM115.208-505c.318.391.293.416-.073.1a1.4,1.4,0,0,1-.44-.416C114.7-505.515,114.891-505.392,115.208-505Zm1.687,1.418c.171.2.2.367.049.367a1.049,1.049,0,0,1-.538-.367c-.171-.2-.2-.367-.049-.367A1.049,1.049,0,0,1,116.9-503.583Z" transform="translate(-90 580.473)" fill="#020102" fill-rule="evenodd"/>
        <path id="Path_58742" data-name="Path 58742" d="M200.152-313.2A5.39,5.39,0,0,0,198-311.951c0,.073.513-.1,1.149-.416a5.726,5.726,0,0,1,1.516-.587,1.73,1.73,0,0,0,.758-.245c.293-.2.269-.245-.122-.22A4.482,4.482,0,0,0,200.152-313.2Z" transform="translate(-171.593 378.719)" fill="#020102" fill-rule="evenodd"/>
        <path id="Path_58743" data-name="Path 58743" d="M210.02-309.25c-.465.367-.734.709-.611.709.342,0,1.736-1.149,1.589-1.3C210.925-309.911,210.485-309.642,210.02-309.25Z" transform="translate(-180.191 376.018)" fill="#020102" fill-rule="evenodd"/>
        <path id="Path_58744" data-name="Path 58744" d="M190.356-302.644a3.2,3.2,0,0,0-.2,1.2c.049.2.245-.171.465-.856.2-.66.293-1.2.2-1.2S190.5-303.109,190.356-302.644Z" transform="translate(-165.661 371.221)" fill="#020102" fill-rule="evenodd"/>
        <path id="Path_58745" data-name="Path 58745" d="M191.2-283.52c0,.391.049.538.122.293a1.848,1.848,0,0,0,0-.734C191.249-284.107,191.2-283.935,191.2-283.52Z" transform="translate(-166.456 356.498)" fill="#020102" fill-rule="evenodd"/>
        <path id="Path_58746" data-name="Path 58746" d="M120.613-546.157c-.391.1-3.032.587-5.868,1.076s-5.5.954-5.941,1.027c-1.174.2-.954.636.245.513,1.443-.147,7.14-1.1,9.976-1.687,2.812-.562,3.423-.587,4.059-.1.587.44.831.465.831.024,0-.391-1.443-1.125-2.127-1.1A5.585,5.585,0,0,0,120.613-546.157Z" transform="translate(-103.62 554.733)" fill="#020102" fill-rule="evenodd"/>
        <path id="Path_58747" data-name="Path 58747" d="M96.416-535.741a1.634,1.634,0,0,0-.416.733c0,.416.489.367.636-.073a.864.864,0,0,1,.734-.367c.318,0,.587-.122.587-.245a.226.226,0,0,0-.22-.244,1.8,1.8,0,0,1-.562-.122A.835.835,0,0,0,96.416-535.741Z" transform="translate(-94.533 546.932)" fill="#020102" fill-rule="evenodd"/>
        <path id="Path_58748" data-name="Path 58748" d="M178.585-531.806a9.757,9.757,0,0,0,.856,1.174c1.223,1.418,2.567,5.232,3.154,8.924l.22,1.345.024-1.051c.073-2.543-1.614-7.335-3.521-10C178.512-532.564,177.9-532.858,178.585-531.806Z" transform="translate(-156.702 544.196)" fill="#020102" fill-rule="evenodd"/>
        <path id="Path_58749" data-name="Path 58749" d="M204.085-479.976c0,.269.073.342.147.147a.5.5,0,0,0-.024-.465C204.134-480.392,204.061-480.245,204.085-479.976Z" transform="translate(-176.187 504.811)" fill="#020102" fill-rule="evenodd"/>
        <path id="Path_58750" data-name="Path 58750" d="M204-453.786a33.809,33.809,0,0,0,.831,5.4c.244.245.147-1.369-.2-3.668C204.318-454.226,204-455.082,204-453.786Z" transform="translate(-176.126 485.223)" fill="#020102" fill-rule="evenodd"/>
        <path id="Path_58751" data-name="Path 58751" d="M235.1-439.166c.073,1.614.245,2.225,1.589,5.257,2.861,6.455,3.472,8.753,3.448,13.154a25.529,25.529,0,0,0,.269,3.839,5.728,5.728,0,0,1,.22,1.565c-.122.489.318,1.174,1.027,1.565.66.342,1.369.416,4.426.367,4.132-.073,4.939.073,8.338,1.394a27.85,27.85,0,0,0,11.492,1.589,40.909,40.909,0,0,0,4.157-.391c.685-.122,2.176-.318,3.325-.44,2.347-.22,3.4-.709,7.164-3.325,1.418-1,2.127-1.345,2.763-1.345a7.236,7.236,0,0,0,2.714-1.076,21.828,21.828,0,0,1,2.421-1.223,10.159,10.159,0,0,0,1.76-1.027,5.162,5.162,0,0,1,1.614-.831c.636,0,.416,1.149-.391,2.054-.929,1.076-1.589,1.3-2.2.734-.562-.513-.929-.245-.513.391.245.416.171.562-.611,1.1a4.908,4.908,0,0,1-1.1.611,3.79,3.79,0,0,0-.856.293l-.685.269.978.22a18.435,18.435,0,0,0,2.323.318c1.271.1,1.516,0,4.6-1.614a30.462,30.462,0,0,1,3.35-1.638,20.781,20.781,0,0,1-2.005,2.494c-1.663,1.907-2.372,2.543-3.447,3.007-1.443.685-1.54.685-6.284.073-2.249-.293-3.912-.22-4.792.245-.88.489-.245.685.978.318,1.076-.293,1.565-.293,4.157.024,5.746.758,6.186.611,9.756-3.227,2.029-2.176,2.738-2.763,3.643-3.081a8.786,8.786,0,0,1,1.369-.391c.122,0-.465.782-1.3,1.76a32.151,32.151,0,0,0-2.078,2.616c-1.614,2.494-2.47,3.325-4.279,4.254-1,.513-2.445,1.3-3.2,1.76-1.369.831-1.883.954-8.093,1.956a13.071,13.071,0,0,1-2.934.22c-1.3-.22-5.159.709-9.242,2.225-3.57,1.3-7.7,2.714-10.758,3.643-1.932.587-8,2.029-9.365,2.2a37.41,37.41,0,0,1-13.081-1.1c-1.785-.538-1.76-.538-1.76-.2,0,.122.416.416.929.636A61.651,61.651,0,0,0,245-396.378c4.768,0,11.981-1.809,23.106-5.795,5.575-2,7.555-2.518,9.878-2.518a48.107,48.107,0,0,0,5.966-.709c3.521-.636,4.279-.831,5.5-1.565.758-.465,2.3-1.3,3.4-1.858a7.364,7.364,0,0,0,2.567-1.883,23.215,23.215,0,0,1,3.5-3.007c3.692-2.763,4.352-3.423,4.23-4.328-.049-.587-.22-.758-1-.929-1.809-.465-3.839.122-8.313,2.372-3.521,1.76-4.205,2.029-4.89,1.883l-.782-.171,1.2-.709c2.592-1.565,3.765-3.105,3.4-4.474-.22-.88-1-.856-2.47.049a54,54,0,0,1-7.629,3.594,13.274,13.274,0,0,0-3.007,1.687c-3.423,2.4-3.472,2.421-7.164,2.958-6.8.954-8.411,1.027-11.907.587a26.484,26.484,0,0,1-4.915-1.027c-.954-.318-2.445-.856-3.325-1.174-1.418-.513-2.029-.587-5.624-.587-4.108,0-5.232-.22-5.281-.978a6.574,6.574,0,0,0-.391-1.223,16.777,16.777,0,0,1-.513-4.328c-.244-5.452-.685-7.188-3.423-13.35a19.777,19.777,0,0,1-1.858-5.379L235-441Zm67.434,21a.6.6,0,0,1,.024.587c-.22.587-4.646,4.01-4.866,3.79a10.813,10.813,0,0,1,1.589-2.029c1.247-1.418,1.663-2.078,1.565-2.4-.122-.416-.049-.44.685-.293A3.226,3.226,0,0,1,302.535-418.163Z" transform="translate(-198.791 475.102)" fill="#020102" fill-rule="evenodd"/>
        <path id="Path_58752" data-name="Path 58752" d="M155.94-438.878a1.732,1.732,0,0,1-1.271.489c-.807-.024-1.125.66-.318.709,1.345.1,2.494-.489,2.494-1.247C156.844-439.563,156.6-439.538,155.94-438.878Z" transform="translate(-138.262 473.885)" fill="#020102" fill-rule="evenodd"/>
        <path id="Path_58753" data-name="Path 58753" d="M209.173-416.907c.2,1.809.416,2.738.636,2.738.245,0-.293-3.839-.562-4.083C209.124-418.374,209.1-417.811,209.173-416.907Z" transform="translate(-180.003 457.928)" fill="#020102" fill-rule="evenodd"/>
        <path id="Path_58754" data-name="Path 58754" d="M213.068-388.52c.293,1.858.465,2.4.685,2.152a7.169,7.169,0,0,0-.147-1.565c-.367-2.347-.44-2.567-.66-2.567A5.433,5.433,0,0,0,213.068-388.52Z" transform="translate(-182.847 436.949)" fill="#020102" fill-rule="evenodd"/>
        <path id="Path_58755" data-name="Path 58755" d="M99-386.442a4.209,4.209,0,0,0,1.54.9,7.952,7.952,0,0,1,2.2,1.467,5.8,5.8,0,0,1,1.149,2.812,7.039,7.039,0,0,0,.734,1.394,7.812,7.812,0,0,1,.978,2.2l.22,1.076-.073-1.174a4.4,4.4,0,0,0-.709-2.078,9.337,9.337,0,0,1-1.051-2.421,4.9,4.9,0,0,0-1.076-2.152C102.179-385.121,99-386.784,99-386.442Z" transform="translate(-96.799 433.918)" fill="#020102" fill-rule="evenodd"/>
        <path id="Path_58756" data-name="Path 58756" d="M189-380.395c-.024,1.125,3.325,6.577,4.377,7.115a6.455,6.455,0,0,0,1.932.44l1.32.122-.171-1.125c-.22-1.614-.391-2.225-.587-2.225-.122,0-.1.513,0,1.149.318,1.932.342,1.858-.929,1.687a3.335,3.335,0,0,1-1.736-.709,25.747,25.747,0,0,1-3.448-5.355C189.342-380.15,189.024-380.639,189-380.395Z" transform="translate(-164.794 429.362)" fill="#020102" fill-rule="evenodd"/>
        <path id="Path_58757" data-name="Path 58757" d="M230.233-360.987a4.361,4.361,0,0,1-1.956,2.225c-.2.073-.293.22-.2.318.269.269,1.785-.831,2.249-1.614.44-.758.513-1.443.147-1.443C230.355-361.5,230.233-361.28,230.233-360.987Z" transform="translate(-194.291 415.04)" fill="#020102" fill-rule="evenodd"/>
        <path id="Path_58758" data-name="Path 58758" d="M224.25-355.208c-1.271.685-1.565,1.125-.489.734.734-.269,1.932-1.125,1.76-1.247A3.606,3.606,0,0,0,224.25-355.208Z" transform="translate(-190.557 410.679)" fill="#020102" fill-rule="evenodd"/>
        <path id="Path_58759" data-name="Path 58759" d="M202.741-351.011a1.968,1.968,0,0,0,.856.489c.147-.024,0-.245-.318-.489a1.968,1.968,0,0,0-.856-.489C202.277-351.476,202.424-351.255,202.741-351.011Z" transform="translate(-174.892 407.485)" fill="#020102" fill-rule="evenodd"/>
        <path id="Path_58760" data-name="Path 58760" d="M127.085-342.976c0,.269.073.342.147.147a.5.5,0,0,0-.024-.465C127.134-343.392,127.061-343.245,127.085-342.976Z" transform="translate(-118.014 401.308)" fill="#020102" fill-rule="evenodd"/>
        <path id="Path_58761" data-name="Path 58761" d="M220-338.084c0,.856.318,2.2.513,2.2.269,0,0-1.98-.293-2.323C220.073-338.328,220-338.279,220-338.084Z" transform="translate(-188.214 397.492)" fill="#020102" fill-rule="evenodd"/>
        <path id="Path_58762" data-name="Path 58762" d="M400.907-319.143c-1.1.611-1.834,1.516-1.809,2.249,0,1.051.513,2.421.929,2.543.244.1.293,0,.147-.342a3.992,3.992,0,0,1-.244-2.934,3.942,3.942,0,0,1,2.665-1.32c.342,0,.636-.122.636-.244C403.23-319.51,401.519-319.485,400.907-319.143Z" transform="translate(-323.522 383.246)" fill="#020102" fill-rule="evenodd"/>
      </g>
    </g>
    <rect id="Rectangle_4134" data-name="Rectangle 4134" width="106" height="103" transform="translate(6193.693 1519)" fill="none"/>
  </g>
</svg>
