<svg width="8" height="8" viewBox="0 0 8 8" fill="none" xmlns="http://www.w3.org/2000/svg">
<path d="M4 0C3.20888 0 2.43552 0.234596 1.77772 0.674121C1.11992 1.11365 0.607234 1.73836 0.304484 2.46927C0.00173314 3.20017 -0.0774802 4.00444 0.0768607 4.78036C0.231202 5.55628 0.612164 6.26902 1.17157 6.82843C1.73098 7.38784 2.44372 7.7688 3.21964 7.92314C3.99556 8.07748 4.79983 7.99827 5.53073 7.69552C6.26164 7.39277 6.88635 6.88008 7.32588 6.22228C7.7654 5.56448 8 4.79112 8 4C7.99888 2.93948 7.57709 1.92271 6.82719 1.17281C6.07729 0.422907 5.06052 0.00111993 4 0ZM2.61539 2.76923C2.70667 2.76923 2.7959 2.7963 2.8718 2.84701C2.9477 2.89773 3.00686 2.96981 3.04179 3.05415C3.07672 3.13848 3.08586 3.23128 3.06806 3.32081C3.05025 3.41034 3.00629 3.49258 2.94174 3.55713C2.8772 3.62167 2.79496 3.66563 2.70543 3.68344C2.6159 3.70125 2.5231 3.69211 2.43876 3.65717C2.35443 3.62224 2.28235 3.56308 2.23163 3.48719C2.18092 3.41129 2.15385 3.32205 2.15385 3.23077C2.15385 3.10836 2.20247 2.99097 2.28903 2.90441C2.37558 2.81786 2.49298 2.76923 2.61539 2.76923ZM5.69231 6.11231C5.6217 6.15303 5.53782 6.16408 5.45908 6.14303C5.38033 6.12197 5.31316 6.07053 5.27231 6C4.985 5.50346 4.53346 5.23077 4 5.23077C3.46654 5.23077 3.015 5.50384 2.72769 6C2.70846 6.03677 2.68198 6.06927 2.64986 6.09554C2.61774 6.12182 2.58064 6.14132 2.54078 6.15288C2.50093 6.16445 2.45914 6.16783 2.41795 6.16282C2.37675 6.15782 2.337 6.14453 2.30107 6.12377C2.26514 6.103 2.23379 6.07518 2.20889 6.04198C2.18399 6.00878 2.16607 5.97089 2.15619 5.93058C2.14632 5.89027 2.1447 5.84839 2.15144 5.80744C2.15817 5.76649 2.17312 5.72733 2.19539 5.69231C2.59116 5.00808 3.24885 4.61538 4 4.61538C4.75115 4.61538 5.40885 5.00769 5.80462 5.69231C5.84534 5.76291 5.85639 5.84679 5.83534 5.92554C5.81428 6.00428 5.76284 6.07145 5.69231 6.11231ZM5.38462 3.69231C5.29333 3.69231 5.2041 3.66524 5.1282 3.61452C5.0523 3.56381 4.99314 3.49173 4.95821 3.40739C4.92328 3.32306 4.91414 3.23026 4.93195 3.14073C4.94975 3.0512 4.99371 2.96896 5.05826 2.90441C5.12281 2.83986 5.20504 2.79591 5.29457 2.7781C5.3841 2.76029 5.4769 2.76943 5.56124 2.80436C5.64557 2.8393 5.71766 2.89845 5.76837 2.97435C5.81909 3.05025 5.84615 3.13948 5.84615 3.23077C5.84615 3.35318 5.79753 3.47057 5.71097 3.55713C5.62442 3.64368 5.50702 3.69231 5.38462 3.69231Z" fill="#CC2016"/>
</svg>
