<svg width="8" height="8" viewBox="0 0 8 8" fill="none" xmlns="http://www.w3.org/2000/svg">
<path d="M4 8C2.93913 8 1.92172 7.57857 1.17157 6.82843C0.421427 6.07828 0 5.06087 0 4C0 2.93913 0.421427 1.92172 1.17157 1.17157C1.92172 0.421427 2.93913 0 4 0C5.06087 0 6.07828 0.421427 6.82843 1.17157C7.57857 1.92172 8 2.93913 8 4C8 5.06087 7.57857 6.07828 6.82843 6.82843C6.07828 7.57857 5.06087 8 4 8ZM2.6 3.6C2.75913 3.6 2.91174 3.53679 3.02426 3.42426C3.13679 3.31174 3.2 3.15913 3.2 3C3.2 2.84087 3.13679 2.68826 3.02426 2.57574C2.91174 2.46321 2.75913 2.4 2.6 2.4C2.44087 2.4 2.28826 2.46321 2.17574 2.57574C2.06321 2.68826 2 2.84087 2 3C2 3.15913 2.06321 3.31174 2.17574 3.42426C2.28826 3.53679 2.44087 3.6 2.6 3.6ZM5.4 3.6C5.55913 3.6 5.71174 3.53679 5.82426 3.42426C5.93679 3.31174 6 3.15913 6 3C6 2.84087 5.93679 2.68826 5.82426 2.57574C5.71174 2.46321 5.55913 2.4 5.4 2.4C5.24087 2.4 5.08826 2.46321 4.97574 2.57574C4.86321 2.68826 4.8 2.84087 4.8 3C4.8 3.15913 4.86321 3.31174 4.97574 3.42426C5.08826 3.53679 5.24087 3.6 5.4 3.6ZM6.264 4.8H1.736C1.90091 5.26879 2.20728 5.67483 2.61282 5.96207C3.01835 6.2493 3.50305 6.40357 4 6.40357C4.49695 6.40357 4.98165 6.2493 5.38719 5.96207C5.79272 5.67483 6.09909 5.26879 6.264 4.8Z" fill="#44C02F"/>
</svg>
