<svg xmlns="http://www.w3.org/2000/svg" width="71.031" height="71.031" viewBox="0 0 71.031 71.031">
  <g id="Group_8923" data-name="Group 8923" transform="translate(-998.547 -151.012)">
    <g id="Group_8920" data-name="Group 8920" transform="translate(1011.568 156.538)">
      <path id="Path_8879" data-name="Path 8879" d="M190.151,87.189a4.241,4.241,0,0,1-.943-.49c-.818-.46-1.647-.9-2.506-1.282a6.3,6.3,0,0,0-1.02-.357,3.168,3.168,0,0,0-1.783,0c-.2-1.771-.341-2.58-.635-4.337l-7.54.055c-.295,1.757-.436,2.567-.635,4.337a3.172,3.172,0,0,0-1.787,0,6.343,6.343,0,0,0-1.023.359,34.538,34.538,0,0,0-3.1,1.621,1.4,1.4,0,0,1-.356.152,10.133,10.133,0,0,1-1.176.154,7.241,7.241,0,0,0-3.178.974,8.842,8.842,0,0,0-2.612,2.788,10.367,10.367,0,0,0-.819,1.914c-.106.331-.2.667-.279,1.005a6.937,6.937,0,0,0-.1.895,18.441,18.441,0,0,0-.109,2.558c.015.56.106,1.114.148,1.672a4.109,4.109,0,0,1-.21,1.607q-.739,2.46-1.4,4.941a23.515,23.515,0,0,0-.632,4.738,22.962,22.962,0,0,0,.068,3.594,6.2,6.2,0,0,0-1.085,2.446,20.648,20.648,0,0,0-.491,4.194,40.49,40.49,0,0,0,0,4.449c.128,2.318.361,4.63.657,6.936l.066.3h3.784a42.833,42.833,0,0,1,.793-6.531,3.908,3.908,0,0,1,.238-.79c.13-.3.284-.589.416-.884q.249-.555.465-1.123c.275-.727.511-1.469.728-2.215.2-.679.453-1.808.591-2.5.075-.375.163-.749.233-1.129a20.919,20.919,0,0,0,.283-2.159,20.668,20.668,0,0,0,.044-2.517c-.007-.173,0-.455,0-.628a1.538,1.538,0,0,1,.074-.642c.078-.169.166-.333.228-.509q.417-1.183.718-2.4c.277-1.126.391-2.266.616-3.395a18.617,18.617,0,0,0,.362-3.713" transform="translate(-156.86 -77.183)" fill="none" stroke="#252038" stroke-miterlimit="10" stroke-width="0.4"/>
      <path id="Path_8880" data-name="Path 8880" d="M145.673,166.823q-.187,1.881-.334,3.766a25.745,25.745,0,0,0,.731,7.463,33.844,33.844,0,0,1,1.036,5.014,18.52,18.52,0,0,1-1.145,7.762,16.52,16.52,0,0,0-1.4,7.572l26.84-.037a16.523,16.523,0,0,0-1.4-7.572,18.529,18.529,0,0,1-1.145-7.762,33.85,33.85,0,0,1,1.036-5.014,25.749,25.749,0,0,0,.731-7.463q-.147-1.885-.333-3.766" transform="translate(-135.248 -142.967)" fill="none" stroke="#252038" stroke-miterlimit="10" stroke-width="0.4"/>
      <path id="Path_8881" data-name="Path 8881" d="M105.1,100.244a4.115,4.115,0,0,0,.21-1.607c-.043-.558-.133-1.112-.148-1.672a18.476,18.476,0,0,1,.109-2.558,7.019,7.019,0,0,1,.1-.895c.081-.338.173-.674.279-1.005a10.381,10.381,0,0,1,.818-1.914,8.851,8.851,0,0,1,2.612-2.788,7.246,7.246,0,0,1,3.178-.974,9.782,9.782,0,0,0,1.191-.158,4.255,4.255,0,0,0,.943-.49c.818-.46,1.647-.9,2.506-1.282a6.3,6.3,0,0,1,1.02-.357,3.17,3.17,0,0,1,1.783,0c.2-1.77.341-2.58.635-4.337l7.54.055c.294,1.757.436,2.567.635,4.337a3.17,3.17,0,0,1,1.787,0,6.343,6.343,0,0,1,1.023.359,34.528,34.528,0,0,1,3.1,1.621,1.4,1.4,0,0,0,.356.152,10.129,10.129,0,0,0,1.176.154,7.241,7.241,0,0,1,3.178.974,8.841,8.841,0,0,1,2.612,2.787,10.352,10.352,0,0,1,.819,1.914c.106.331.2.667.279,1.005a6.926,6.926,0,0,1,.1.895,18.436,18.436,0,0,1,.109,2.558c-.015.56-.106,1.114-.148,1.672a4.111,4.111,0,0,0,.21,1.607q.739,2.46,1.4,4.941a23.534,23.534,0,0,1,.633,4.738,22.989,22.989,0,0,1-.069,3.594,6.2,6.2,0,0,1,1.085,2.446,20.646,20.646,0,0,1,.491,4.194,40.5,40.5,0,0,1,0,4.449c-.128,2.318-.361,4.63-.657,6.936l-.065.3h-3.784a42.837,42.837,0,0,0-.793-6.531,3.886,3.886,0,0,0-.238-.79c-.13-.3-.284-.589-.416-.884q-.249-.555-.465-1.123c-.275-.727-.511-1.469-.728-2.215-.2-.68-.453-1.808-.591-2.5-.074-.375-.163-.749-.233-1.129a20.823,20.823,0,0,1-.327-4.675c.007-.173,0-.455,0-.628a1.543,1.543,0,0,0-.074-.642c-.078-.169-.166-.333-.228-.509q-.418-1.183-.718-2.4c-.277-1.126-.391-2.266-.616-3.394a18.623,18.623,0,0,1-.362-3.713" transform="translate(-101.227 -76.79)" fill="none" stroke="#252038" stroke-miterlimit="10" stroke-width="0.4"/>
      <path id="Path_8882" data-name="Path 8882" d="M290.277,204.8" transform="translate(-288.421 -172.02)" fill="none" stroke="#252038" stroke-miterlimit="10" stroke-width="0.4"/>
      <path id="Path_8883" data-name="Path 8883" d="M290.23,219.877" transform="translate(-288.363 -183.547)" fill="none" stroke="#252038" stroke-miterlimit="10" stroke-width="0.4"/>
      <path id="Path_8884" data-name="Path 8884" d="M288.512,238.1" transform="translate(-286.24 -197.473)" fill="none" stroke="#252038" stroke-miterlimit="10" stroke-width="0.4"/>
      <path id="Path_8885" data-name="Path 8885" d="M219.394,248.535" transform="translate(-200.834 -205.451)" fill="none" stroke="#252038" stroke-miterlimit="10" stroke-width="0.4"/>
      <path id="Path_8886" data-name="Path 8886" d="M198.893,246.862" transform="translate(-175.502 -204.173)" fill="none" stroke="#252038" stroke-miterlimit="10" stroke-width="0.4"/>
      <path id="Path_8887" data-name="Path 8887" d="M177.562,248.555" transform="translate(-149.144 -205.467)" fill="none" stroke="#252038" stroke-miterlimit="10" stroke-width="0.4"/>
      <path id="Path_8888" data-name="Path 8888" d="M257.669,211.97" transform="translate(-248.129 -177.503)" fill="none" stroke="#252038" stroke-miterlimit="10" stroke-width="0.4"/>
      <path id="Path_8889" data-name="Path 8889" d="M250.478,221.145" transform="translate(-239.243 -184.516)" fill="none" stroke="#252038" stroke-miterlimit="10" stroke-width="0.4"/>
      <path id="Path_8890" data-name="Path 8890" d="M260.548,208.445" transform="translate(-251.686 -174.809)" fill="none" stroke="#252038" stroke-miterlimit="10" stroke-width="0.4"/>
      <path id="Path_8892" data-name="Path 8892" d="M158.116,141.309s1.762,8.758-10.484,7.326" transform="translate(-122.734 -123.494)" fill="none" stroke="#252038" stroke-miterlimit="10" stroke-width="0.4"/>
      <line id="Line_255" data-name="Line 255" x1="6.004" y2="1.468" transform="translate(27.533 9.94)" fill="none" stroke="#252038" stroke-miterlimit="10" stroke-width="0.4"/>
      <path id="Path_8894" data-name="Path 8894" d="M174.419,205.274a11.425,11.425,0,0,0,4.048,2.534" transform="translate(-149.309 -172.385)" fill="none" stroke="#252038" stroke-miterlimit="10" stroke-width="0.4"/>
      <line id="Line_256" data-name="Line 256" x1="2.671" y2="5.122" transform="translate(28.47 45.475)" fill="none" stroke="#252038" stroke-miterlimit="10" stroke-width="0.4"/>
      <path id="Path_8895" data-name="Path 8895" d="M211.454,141.309s-1.762,8.758,10.484,7.326" transform="translate(-201.486 -123.494)" fill="none" stroke="#252038" stroke-miterlimit="10" stroke-width="0.4"/>
      <line id="Line_257" data-name="Line 257" x2="6.004" y2="1.468" transform="translate(11.814 9.94)" fill="none" stroke="#252038" stroke-miterlimit="10" stroke-width="0.4"/>
      <path id="Path_8897" data-name="Path 8897" d="M216.31,205.274a11.425,11.425,0,0,1-4.049,2.534" transform="translate(-196.069 -172.385)" fill="none" stroke="#252038" stroke-miterlimit="10" stroke-width="0.4"/>
      <line id="Line_258" data-name="Line 258" x2="2.671" y2="5.122" transform="translate(14.21 45.475)" fill="none" stroke="#252038" stroke-miterlimit="10" stroke-width="0.4"/>
      <path id="Path_8898" data-name="Path 8898" d="M165.42,163a.5.5,0,1,0,.5-.5A.5.5,0,0,0,165.42,163Z" transform="translate(-135.132 -139.691)" fill="none" stroke="#252038" stroke-miterlimit="10" stroke-width="0.4"/>
      <path id="Path_8899" data-name="Path 8899" d="M233.554,163.7a.5.5,0,1,0,.5-.5A.5.5,0,0,0,233.554,163.7Z" transform="translate(-219.323 -140.227)" fill="none" stroke="#252038" stroke-miterlimit="10" stroke-width="0.4"/>
      <g id="Group_5930" data-name="Group 5930" transform="translate(33.714 8.176)">
        <path id="Path_8514" data-name="Path 8514" d="M133.614,107.841" transform="translate(-128.554 -106.088)" fill="none" stroke="#252038" stroke-miterlimit="10" stroke-width="0.4"/>
        <path id="Path_8515" data-name="Path 8515" d="M155.088,100.4" transform="translate(-155.088 -100.402)" fill="none" stroke="#252038" stroke-miterlimit="10" stroke-width="0.4"/>
      </g>
      <g id="Group_5931" data-name="Group 5931" transform="translate(42.645 21.098)">
        <path id="Path_8516" data-name="Path 8516" d="M112.861,177.55" transform="translate(-111.842 -172.292)" fill="none" stroke="#252038" stroke-miterlimit="10" stroke-width="0.4"/>
        <path id="Path_8517" data-name="Path 8517" d="M117.185,155.238" transform="translate(-117.185 -155.238)" fill="none" stroke="#252038" stroke-miterlimit="10" stroke-width="0.4"/>
      </g>
      <path id="Path_8913" data-name="Path 8913" d="M251.386,212.078q-.418-1.183-.718-2.4" transform="translate(-240.197 -175.75)" fill="none" stroke="#252038" stroke-miterlimit="10" stroke-width="0.4"/>
      <path id="Path_8914" data-name="Path 8914" d="M286.946,268.869" transform="translate(-284.305 -220.994)" fill="none" stroke="#252038" stroke-miterlimit="10" stroke-width="0.4"/>
      <path id="Path_8915" data-name="Path 8915" d="M284.158,239.438" transform="translate(-280.86 -198.498)" fill="none" stroke="#252038" stroke-miterlimit="10" stroke-width="0.4"/>
      <path id="Path_8916" data-name="Path 8916" d="M260.383,225.3" transform="translate(-251.483 -187.689)" fill="none" stroke="#252038" stroke-miterlimit="10" stroke-width="0.4"/>
      <path id="Path_8917" data-name="Path 8917" d="M162.019,202.856c-.128,2.318-.361,4.63-.657,6.936" transform="translate(-129.784 -170.537)" fill="none" stroke="#252038" stroke-miterlimit="10" stroke-width="0.4"/>
      <path id="Path_8919" data-name="Path 8919" d="M298.155,183.46" transform="translate(-298.156 -155.712)" fill="none" stroke="#252038" stroke-miterlimit="10" stroke-width="0.4"/>
    </g>
    <g id="Group_8922" data-name="Group 8922" transform="translate(886 -61)">
      <path id="Path_3549" data-name="Path 3549" d="M-9.774,0S-29.218,0-29.218,19.444V50.556S-29.218,70-9.774,70H21.338s19.444,0,19.444-19.444V19.444S40.782,0,21.338,0Z" transform="translate(142.281 212.528)" fill="none" stroke="#062545" stroke-width="1.031"/>
    </g>
  </g>
</svg>
