<?xml version="1.0" standalone="no"?>
<!DOCTYPE svg PUBLIC "-//W3C//DTD SVG 20010904//EN"
 "http://www.w3.org/TR/2001/REC-SVG-20010904/DTD/svg10.dtd">
<svg version="1.0" xmlns="http://www.w3.org/2000/svg"

 width="70" height="70" viewBox="0 0 512.000000 512.000000"
 preserveAspectRatio="xMidYMid meet">

<g transform="translate(0.000000,512.000000) scale(0.100000,-0.100000)"
fill="#000000" stroke="none">
<path d="M2273 5033 c9 -2 23 -2 30 0 6 3 -1 5 -18 5 -16 0 -22 -2 -12 -5z"/>
<path d="M2823 5033 c9 -2 23 -2 30 0 6 3 -1 5 -18 5 -16 0 -22 -2 -12 -5z"/>
<path d="M1442 4558 c-5 -7 -25 -62 -42 -123 l-33 -110 12 -122 c24 -248 27
-258 145 -455 58 -98 118 -208 132 -245 39 -98 65 -128 174 -198 158 -103 292
-217 528 -450 122 -121 233 -225 245 -231 30 -16 262 -81 317 -89 102 -15 463
-88 572 -116 124 -31 148 -35 133 -20 -18 16 -410 103 -658 146 -50 9 -155 34
-232 55 l-140 39 -145 148 c-273 279 -411 397 -626 541 -86 57 -141 116 -132
142 2 6 38 -12 80 -40 42 -27 79 -50 83 -50 18 0 -16 28 -97 80 -78 50 -92 64
-113 107 -13 28 -65 120 -116 204 -90 149 -94 157 -111 254 -9 55 -20 140 -24
189 -6 74 -5 88 7 84 8 -3 13 -11 12 -17 -2 -6 4 -11 12 -11 18 0 18 5 5 30
-6 11 -17 17 -25 14 -20 -8 -19 10 5 104 27 103 40 132 56 132 18 0 49 -31 70
-71 20 -40 20 -143 0 -174 -13 -20 -8 -36 63 -201 54 -125 81 -178 92 -177 12
2 85 -54 253 -194 38 -32 27 -39 -29 -18 -56 22 -72 13 -19 -10 45 -19 54 -22
189 -64 105 -32 200 -40 251 -21 43 17 22 21 -39 8 -40 -9 -60 -9 -68 -1 -7 7
2 12 31 17 23 4 62 18 86 31 58 32 64 31 64 -7 0 -24 -10 -40 -42 -70 -48 -45
-35 -52 15 -8 53 46 62 78 42 142 -10 29 -32 80 -48 113 -20 39 -34 83 -38
125 -4 36 -10 97 -14 136 -13 126 8 170 69 143 24 -11 66 -79 66 -107 0 -19
-87 -15 -94 4 -10 25 -7 74 4 74 6 0 10 4 10 10 0 5 -7 7 -15 4 -18 -7 -21
-84 -3 -102 7 -7 28 -12 48 -12 19 0 40 -4 46 -8 6 -4 25 -39 41 -78 16 -39
54 -106 83 -150 49 -72 82 -144 145 -309 33 -87 82 -280 90 -354 9 -78 48
-195 67 -199 8 -1 115 18 239 43 206 42 240 46 424 52 113 3 191 10 180 14
-11 4 -96 5 -190 3 -145 -5 -199 -12 -370 -46 -208 -42 -213 -43 -256 -40 -22
2 -30 11 -48 53 -11 29 -21 68 -21 88 0 79 -93 402 -151 525 -16 34 -29 66
-29 73 0 6 -24 47 -54 90 -66 98 -98 160 -121 238 -26 91 -51 134 -91 152 -26
13 -39 14 -52 7 -27 -17 -44 -82 -38 -144 4 -30 9 -89 12 -130 5 -61 13 -90
45 -152 43 -85 47 -108 22 -130 -41 -36 -61 -40 -111 -23 -26 9 -98 20 -160
25 -126 10 -156 22 -244 100 -35 30 -49 51 -54 78 -10 60 -12 65 -54 110 -36
38 -40 47 -40 96 0 42 -8 69 -35 122 -19 38 -48 98 -64 134 -45 96 -79 152
-112 183 -32 30 -51 34 -67 15z m158 -188 c13 -33 16 -59 12 -152 -1 -32 -6
-58 -11 -58 -4 0 -16 21 -26 46 -14 36 -16 61 -10 120 4 41 10 74 15 74 4 0
13 -14 20 -30z m82 -176 c24 -52 29 -73 24 -105 -3 -21 -1 -60 5 -84 13 -51 6
-67 -17 -44 -25 26 -76 218 -69 262 4 20 11 37 16 37 6 0 24 -29 41 -66z m81
-212 c22 -24 39 -72 32 -90 -5 -13 -8 -12 -24 2 -11 10 -22 30 -26 44 -3 15
-8 35 -11 45 -7 22 8 22 29 -1z m476 -292 c14 -3 26 -11 28 -17 4 -12 -70 -33
-114 -33 -33 0 -133 45 -133 59 0 11 172 4 219 -9z"/>
<path d="M1453 4477 c-6 -23 -14 -51 -18 -61 -6 -13 -5 -17 2 -13 12 7 38 105
31 113 -3 2 -9 -15 -15 -39z"/>
<path d="M2420 4045 c-17 -20 -8 -27 24 -19 22 5 23 8 11 20 -17 18 -20 17
-35 -1z"/>
<path d="M1460 3950 c0 -5 6 -10 14 -10 8 0 16 -5 18 -12 3 -8 9 -8 22 -1 20
11 15 17 -26 27 -17 4 -28 2 -28 -4z"/>
<path d="M2562 3770 c-11 -17 -10 -20 8 -20 21 0 25 7 12 27 -6 9 -11 7 -20
-7z"/>
<path d="M1670 3610 c0 -5 5 -12 10 -15 6 -4 8 -11 5 -16 -4 -5 -2 -9 3 -9 8
0 22 22 22 35 0 1 -9 5 -20 8 -11 3 -20 1 -20 -3z"/>
<path d="M2770 3173 c1 -49 117 -263 142 -263 10 0 4 11 -59 105 -18 27 -42
78 -54 112 -21 64 -29 77 -29 46z"/>
<path d="M826 3125 c-54 -24 -101 -46 -104 -49 -3 -3 6 -14 19 -25 l24 -19
-21 -29 c-75 -102 -109 -230 -107 -403 2 -188 51 -340 151 -472 l36 -48 24 23
c47 43 47 53 3 120 -83 127 -121 249 -121 387 0 126 32 237 92 322 18 27 20
27 44 11 15 -9 29 -12 34 -7 7 8 50 201 50 225 0 16 -24 9 -124 -36z"/>
<path d="M5042 2380 c0 -14 2 -19 5 -12 2 6 2 18 0 25 -3 6 -5 1 -5 -13z"/>
<path d="M914 2060 c-31 -46 -32 -42 48 -95 48 -32 54 -31 73 5 20 38 19 63
-2 76 -10 5 -35 20 -55 33 l-37 22 -27 -41z"/>
<path d="M1770 1902 c-29 -14 -35 -22 -33 -46 3 -40 63 -100 138 -138 33 -17
78 -43 100 -58 26 -19 64 -32 110 -40 93 -15 115 -30 115 -78 0 -47 -3 -51
-69 -100 -29 -22 -77 -69 -107 -105 -58 -71 -102 -96 -207 -123 l-64 -16 -52
27 c-45 24 -58 26 -106 20 -50 -6 -58 -4 -100 25 -31 21 -69 36 -122 46 -42 8
-101 21 -132 29 -31 8 -97 17 -147 21 -97 7 -134 -2 -134 -34 0 -10 30 -58 66
-107 71 -98 136 -148 325 -252 l94 -51 215 -26 c118 -14 244 -35 278 -46 91
-29 125 -26 269 25 196 68 531 136 746 152 59 4 84 9 73 15 -15 9 -87 2 -296
-28 -162 -23 -372 -71 -518 -120 -127 -42 -201 -54 -231 -35 -13 8 16 22 134
62 30 10 35 14 19 17 -11 1 -65 -13 -119 -33 -83 -30 -104 -34 -125 -25 -15 6
-119 21 -232 34 l-206 23 -88 48 c-186 100 -247 147 -318 241 -36 48 -66 95
-66 105 0 25 60 35 112 20 42 -13 128 -84 128 -107 0 -20 7 -22 206 -74 140
-36 184 -45 184 -34 0 7 10 16 23 19 12 2 81 18 152 35 72 16 140 32 153 35
35 8 26 -8 -23 -39 -25 -15 -44 -30 -41 -33 15 -16 278 166 325 225 34 44 66
112 53 112 -5 0 -17 -18 -27 -40 -16 -36 -55 -83 -55 -66 0 4 8 23 19 44 10
20 22 61 26 90 4 28 10 52 14 52 22 0 55 -53 57 -91 3 -58 14 -61 14 -3 0 95
-45 128 -213 160 -47 9 -86 24 -112 43 -22 15 -65 41 -95 56 -63 31 -130 91
-130 116 0 24 38 49 74 49 31 0 96 -20 96 -30 0 -3 -13 -20 -28 -37 -27 -33
-27 -33 -60 -16 -19 9 -38 26 -42 37 l-9 21 0 -21 c-1 -14 12 -28 40 -43 l41
-24 34 37 c37 41 41 42 110 22 54 -16 102 -23 212 -31 41 -3 112 -17 159 -30
47 -14 92 -25 100 -25 30 0 319 -120 373 -155 30 -20 80 -43 110 -52 58 -18
80 -30 80 -44 0 -10 -50 -2 -105 18 -70 25 -79 27 -71 15 20 -32 306 -82 306
-53 0 7 -21 11 -57 11 -31 0 -53 3 -49 7 3 4 100 27 214 50 196 42 218 44 421
50 150 4 208 9 196 16 -11 6 -88 8 -204 4 -163 -5 -208 -10 -361 -43 -96 -20
-187 -39 -202 -41 -49 -9 -179 26 -248 67 -70 42 -301 139 -390 163 -151 42
-225 57 -330 66 -88 8 -139 18 -215 45 -115 41 -128 42 -175 18z m384 -513
c-19 -52 -47 -80 -112 -113 -58 -30 -57 -12 6 61 62 72 111 117 120 109 2 -3
-4 -28 -14 -57z m-906 -68 c20 -11 57 -41 82 -66 l45 -47 -40 7 c-56 10 -77
23 -125 78 -37 42 -39 47 -20 47 11 0 37 -9 58 -19z m175 -32 c21 -6 55 -25
75 -42 20 -18 55 -41 77 -51 34 -15 37 -19 22 -28 -13 -7 -40 -1 -103 21 -108
39 -139 56 -158 83 -30 42 -21 44 87 17z m265 -75 c25 -17 21 -34 -8 -34 -30
0 -101 31 -94 41 9 15 78 10 102 -7z"/>
<path d="M1960 1800 c0 -8 4 -21 8 -28 6 -9 12 -5 20 13 15 33 16 31 -8 31
-11 0 -20 -7 -20 -16z"/>
<path d="M2261 1765 c0 -11 4 -29 8 -40 8 -19 8 -19 19 2 8 14 9 24 2 28 -5 3
-10 3 -11 -2 0 -4 -4 1 -9 12 l-9 20 0 -20z"/>
<path d="M1028 1293 c16 -21 34 -47 40 -58 6 -11 12 -14 12 -7 0 15 -61 101
-73 102 -5 0 4 -17 21 -37z"/>
<path d="M1137 1153 c-13 -12 -7 -18 18 -18 14 0 27 6 30 13 5 13 -36 18 -48
5z"/>
<path d="M3110 1063 c0 -13 5 -23 10 -23 13 0 13 11 0 30 -8 12 -10 11 -10 -7z"/>
<path d="M3164 1031 c4 -6 21 -11 37 -11 40 0 444 -81 596 -119 135 -34 141
-35 127 -21 -14 14 -210 61 -454 109 -256 50 -315 58 -306 42z"/>
<path d="M1477 1000 c-15 -12 -27 -26 -27 -32 0 -6 9 -3 20 7 15 14 20 15 20
4 1 -10 4 -9 11 4 18 30 5 40 -24 17z"/>
<path d="M1864 952 c-10 -15 -7 -20 13 -29 22 -11 23 -10 17 10 -10 33 -18 38
-30 19z"/>
</g>
</svg>
