<svg xmlns="http://www.w3.org/2000/svg" width="106.185" height="106.185" viewBox="0 0 106.185 106.185">
  <g id="Group_4622" data-name="Group 4622" transform="translate(-4799.48 -2317.03)">
    <g id="Group_4620" data-name="Group 4620" transform="translate(-300 142)">
      <path id="path42" d="M431.292-853.038h25.3v-37.7h-25.3Z" transform="translate(4675.028 3101.819)" fill="#d4d4d4"/>
      <path id="path44" d="M454-897.6H427.8v-2.66H454v2.66" transform="translate(4678.069 3110.11)" fill="#707070"/>
      <path id="path46" d="M497.659-726.349H486.683v-18.573h10.976v18.573" transform="translate(4626.798 2974.854)" fill="#ced1d6"/>
      <path id="path48" d="M500.8-722.437h-9.879v-17.209H500.8v17.209" transform="translate(4623.104 2970.26)" fill="#fff"/>
      <path id="path50" d="M527.4-726.349h-.607v-18.573h.607v18.573" transform="translate(4591.876 2974.854)" fill="#ced1d6"/>
      <path id="path52" d="M456.42-834.331h-5.247v-8.7h5.247v8.7" transform="translate(4657.718 3060.284)" fill="#ced1d6"/>
      <path id="path54" d="M457.923-832.5H453.2v-8.065h4.723v8.065" transform="translate(4655.952 3058.132)" fill="#fff"/>
      <path id="path56" d="M470.636-834.331h-.29v-8.7h.29v8.7" transform="translate(4641.023 3060.284)" fill="#ced1d6"/>
      <path id="path58" d="M451.172-810.261v-.311h5.244v.311h-5.244" transform="translate(4657.718 3032.018)" fill="#ced1d6"/>
      <path id="path60" d="M514.089-834.331h-5.247v-8.7h5.247v8.7" transform="translate(4607.503 3060.284)" fill="#ced1d6"/>
      <path id="path62" d="M515.592-832.5h-4.723v-8.065h4.723v8.065" transform="translate(4605.738 3058.132)" fill="#fff"/>
      <path id="path64" d="M528.3-834.331h-.29v-8.7h.29v8.7" transform="translate(4590.809 3060.284)" fill="#ced1d6"/>
      <path id="path66" d="M508.841-810.261v-.311h5.244v.311h-5.244" transform="translate(4607.503 3032.018)" fill="#ced1d6"/>
      <path id="path68" d="M571.757-834.331h-5.247v-8.7h5.247v8.7" transform="translate(4557.291 3060.284)" fill="#ced1d6"/>
      <path id="path70" d="M573.261-832.5h-4.723v-8.065h4.723v8.065" transform="translate(4555.524 3058.132)" fill="#fff"/>
      <path id="path72" d="M585.974-834.331h-.29v-8.7h.29v8.7" transform="translate(4540.595 3060.284)" fill="#ced1d6"/>
      <path id="path74" d="M566.509-810.261v-.311h5.244v.311h-5.244" transform="translate(4557.291 3032.018)" fill="#ced1d6"/>
      <path id="path76" d="M427.8-613.1H454v-2.66H427.8Z" transform="translate(4678.069 2862.387)" fill="#707070"/>
      <path id="path78" d="M948-853.038h25.3v-37.7H948Z" transform="translate(4225.116 3101.819)" fill="#d4d4d4"/>
      <path id="path80" d="M970.707-897.6h-26.2v-2.66h26.2v2.66" transform="translate(4228.157 3110.11)" fill="#707070"/>
      <path id="path82" d="M1014.365-726.349h-10.976v-18.573h10.976v18.573" transform="translate(4176.886 2974.854)" fill="#ced1d6"/>
      <path id="path84" d="M1017.511-722.437h-9.879v-17.209h9.879v17.209" transform="translate(4173.192 2970.26)" fill="#fff"/>
      <path id="path86" d="M1044.1-726.349h-.607v-18.573h.607v18.573" transform="translate(4141.964 2974.854)" fill="#ced1d6"/>
      <path id="path88" d="M973.126-834.331h-5.247v-8.7h5.247v8.7" transform="translate(4207.806 3060.284)" fill="#ced1d6"/>
      <path id="path90" d="M974.63-832.5h-4.723v-8.065h4.723v8.065" transform="translate(4206.04 3058.132)" fill="#fff"/>
      <path id="path92" d="M987.342-834.331h-.29v-8.7h.29v8.7" transform="translate(4191.111 3060.284)" fill="#ced1d6"/>
      <path id="path94" d="M967.879-810.261v-.311h5.244v.311h-5.244" transform="translate(4207.806 3032.018)" fill="#ced1d6"/>
      <path id="path96" d="M1030.8-834.331h-5.247v-8.7h5.247v8.7" transform="translate(4157.592 3060.284)" fill="#ced1d6"/>
      <path id="path98" d="M1032.3-832.5h-4.723v-8.065h4.723v8.065" transform="translate(4155.826 3058.132)" fill="#fff"/>
      <path id="path100" d="M1045.011-834.331h-.29v-8.7h.29v8.7" transform="translate(4140.897 3060.284)" fill="#ced1d6"/>
      <path id="path102" d="M1025.548-810.261v-.311h5.244v.311h-5.244" transform="translate(4157.592 3032.018)" fill="#ced1d6"/>
      <path id="path104" d="M1088.463-834.331h-5.247v-8.7h5.247v8.7" transform="translate(4107.378 3060.284)" fill="#ced1d6"/>
      <path id="path106" d="M1089.967-832.5h-4.723v-8.065h4.723v8.065" transform="translate(4105.613 3058.132)" fill="#fff"/>
      <path id="path108" d="M1102.681-834.331h-.29v-8.7h.29v8.7" transform="translate(4090.683 3060.284)" fill="#ced1d6"/>
      <path id="path110" d="M1083.216-810.261v-.311h5.244v.311h-5.244" transform="translate(4107.378 3032.018)" fill="#ced1d6"/>
      <path id="path112" d="M944.507-613.1h26.2v-2.66h-26.2Z" transform="translate(4228.157 2862.387)" fill="#707070"/>
      <path id="path114" d="M667.824-839.237H650.569a.3.3,0,0,0-.037-.078l-.055-.081a.3.3,0,0,0-.248-.132.3.3,0,0,0-.165.05.3.3,0,0,0-.132.242H636.69a.3.3,0,0,0-.073-.293.3.3,0,0,0-.214-.09.3.3,0,0,0-.209.085l-.07.068a.3.3,0,0,0-.092.231h-5.494a.264.264,0,0,0-.048-.138.263.263,0,0,0-.215-.111.262.262,0,0,0-.152.048l-.07.05a.26.26,0,0,0-.1.151h-4.216v-2.015l.008,0a.222.222,0,0,0,.086-.3.221.221,0,0,0-.094-.09v-.247h-.451V-875.47h8.213a.221.221,0,0,0,.038.1l.042.061a.221.221,0,0,0,.184.1.222.222,0,0,0,.125-.039.223.223,0,0,0,.094-.222h4.639a.262.262,0,0,0,.022.2l.04.076a.263.263,0,0,0,.233.141.263.263,0,0,0,.122-.03.264.264,0,0,0,.11-.356l-.014-.026h3.679a.3.3,0,0,0,.264.157.3.3,0,0,0,.126-.028.3.3,0,0,0,.137-.129h7.411a.3.3,0,0,0,.118.192.3.3,0,0,0,.176.058.3.3,0,0,0,.24-.121l.058-.079a.3.3,0,0,0,.03-.049h15.412V-841.9h-.451v2.66h1.5m-11.792-.7a.251.251,0,0,0-.161.059.251.251,0,0,0-.031.354l.053.064a.25.25,0,0,0,.193.09.249.249,0,0,0,.161-.059.251.251,0,0,0,.032-.354l-.054-.064a.251.251,0,0,0-.192-.09m-11.379-.51a.337.337,0,0,0-.157.039.338.338,0,0,0-.142.457l.053.1a.338.338,0,0,0,.3.18.34.34,0,0,0,.158-.039.339.339,0,0,0,.14-.457l-.052-.1a.339.339,0,0,0-.3-.181m-13.185.069a.263.263,0,0,0-.163.056l-.069.054a.263.263,0,0,0-.044.37.263.263,0,0,0,.207.1.263.263,0,0,0,.163-.056l.069-.054a.263.263,0,0,0,.044-.37.263.263,0,0,0-.207-.1m6.116-.46a.3.3,0,0,0-.22.1l-.067.073a.3.3,0,0,0,.016.423.3.3,0,0,0,.2.08.3.3,0,0,0,.22-.1l.069-.074a.3.3,0,0,0-.018-.423.3.3,0,0,0-.2-.079m11.748-.115a.3.3,0,0,0-.151.041.3.3,0,0,0-.1.408l.051.086a.3.3,0,0,0,.256.145.3.3,0,0,0,.152-.042.3.3,0,0,0,.1-.408l-.05-.084a.3.3,0,0,0-.256-.146m5.819-.1a.249.249,0,0,0-.15.05.251.251,0,0,0-.05.352l.05.067a.251.251,0,0,0,.2.1.25.25,0,0,0,.15-.05.251.251,0,0,0,.05-.351l-.05-.067a.251.251,0,0,0-.2-.1m-22.537-.279a.262.262,0,0,0-.174.066l-.065.057a.263.263,0,0,0-.024.372.262.262,0,0,0,.2.09.263.263,0,0,0,.173-.065l.067-.058a.264.264,0,0,0,.023-.372.264.264,0,0,0-.2-.089m11.2-.832a.338.338,0,0,0-.141.031.338.338,0,0,0-.166.448l.047.1a.339.339,0,0,0,.307.2.338.338,0,0,0,.141-.031.338.338,0,0,0,.165-.449l-.047-.1a.338.338,0,0,0-.307-.2m-5.111.048a.3.3,0,0,0-.23.108l-.064.077a.3.3,0,0,0,.038.422.3.3,0,0,0,.191.069.3.3,0,0,0,.23-.107l.064-.077a.3.3,0,0,0-.038-.422.3.3,0,0,0-.192-.07m15.63-.1a.249.249,0,0,0-.14.043.251.251,0,0,0-.069.349l.046.069a.251.251,0,0,0,.209.111.251.251,0,0,0,.14-.043.251.251,0,0,0,.069-.348l-.047-.07a.251.251,0,0,0-.209-.111m-5.818-.208a.3.3,0,0,0-.138.034.3.3,0,0,0-.125.4l.046.087a.3.3,0,0,0,.263.159.3.3,0,0,0,.138-.034.3.3,0,0,0,.125-.4l-.046-.087a.3.3,0,0,0-.264-.159m-14.805.077a.264.264,0,0,0-.184.074l-.063.061a.264.264,0,0,0-.005.373.262.262,0,0,0,.189.08.264.264,0,0,0,.184-.074l.063-.061a.264.264,0,0,0,.005-.372.262.262,0,0,0-.189-.08m-7,.029a.22.22,0,0,0-.118.034l-.062.039a.222.222,0,0,0-.07.306.222.222,0,0,0,.189.1.22.22,0,0,0,.118-.034l.063-.04a.222.222,0,0,0,.069-.307.222.222,0,0,0-.188-.1m1.047-.7a.222.222,0,0,0-.127.04l-.062.044a.223.223,0,0,0-.052.31.222.222,0,0,0,.181.093.221.221,0,0,0,.129-.041l.059-.042a.222.222,0,0,0,.054-.31.222.222,0,0,0-.182-.095m11.99-.438a.3.3,0,0,0-.24.12l-.06.08a.3.3,0,0,0,.061.419.3.3,0,0,0,.179.06.3.3,0,0,0,.24-.12l.06-.08a.3.3,0,0,0-.061-.419.3.3,0,0,0-.179-.06m-5,.036a.264.264,0,0,0-.194.085l-.059.064a.263.263,0,0,0,.014.372.263.263,0,0,0,.179.07.262.262,0,0,0,.193-.084l.061-.065a.264.264,0,0,0-.016-.372.263.263,0,0,0-.178-.07m18.827,0a.247.247,0,0,0-.128.035.251.251,0,0,0-.089.344l.043.073a.252.252,0,0,0,.216.122.252.252,0,0,0,.128-.035.251.251,0,0,0,.087-.344l-.042-.071a.251.251,0,0,0-.216-.124m-10.511-.507a.334.334,0,0,0-.125.024.338.338,0,0,0-.188.439l.041.1a.338.338,0,0,0,.314.213.341.341,0,0,0,.125-.024.338.338,0,0,0,.189-.439l-.042-.106a.339.339,0,0,0-.314-.213m4.711-.008a.3.3,0,0,0-.125.028.3.3,0,0,0-.145.395l.041.089a.3.3,0,0,0,.27.173.294.294,0,0,0,.124-.027.3.3,0,0,0,.146-.394l-.042-.09a.3.3,0,0,0-.27-.173m-19.006.165a.221.221,0,0,0-.138.048l-.058.046a.223.223,0,0,0-.037.313.223.223,0,0,0,.175.084.222.222,0,0,0,.138-.048l.058-.046a.223.223,0,0,0,.037-.312.223.223,0,0,0-.175-.084m6.962-.771a.264.264,0,0,0-.2.1l-.056.067a.263.263,0,0,0,.034.371.262.262,0,0,0,.168.061.262.262,0,0,0,.2-.1l.056-.068a.263.263,0,0,0-.035-.371.263.263,0,0,0-.168-.06m-5.994-.034a.222.222,0,0,0-.146.055l-.057.05a.222.222,0,0,0-.019.314.221.221,0,0,0,.167.075.221.221,0,0,0,.147-.056l.055-.048a.222.222,0,0,0,.021-.314.221.221,0,0,0-.167-.076m23.146-.085a.249.249,0,0,0-.116.029.251.251,0,0,0-.105.339l.039.075a.251.251,0,0,0,.222.133.251.251,0,0,0,.118-.029.251.251,0,0,0,.1-.34l-.038-.073a.252.252,0,0,0-.223-.134m-12.158-.184a.3.3,0,0,0-.25.134l-.055.083a.3.3,0,0,0,.083.415.3.3,0,0,0,.166.05.3.3,0,0,0,.249-.133l.056-.084a.3.3,0,0,0-.084-.415.3.3,0,0,0-.166-.05m6.392-.638a.3.3,0,0,0-.109.021.3.3,0,0,0-.168.386l.037.094a.3.3,0,0,0,.276.187.3.3,0,0,0,.11-.021.3.3,0,0,0,.166-.387l-.036-.09a.3.3,0,0,0-.277-.188m-16.456.051a.223.223,0,0,0-.156.063l-.052.051a.222.222,0,0,0-.005.314.221.221,0,0,0,.16.068.221.221,0,0,0,.155-.063l.054-.052a.223.223,0,0,0,0-.315.221.221,0,0,0-.159-.067m11.749-.3a.342.342,0,0,0-.108.018.338.338,0,0,0-.213.428l.036.107a.339.339,0,0,0,.321.23.337.337,0,0,0,.108-.018.338.338,0,0,0,.212-.428l-.036-.107a.338.338,0,0,0-.321-.23m-5.758.012a.263.263,0,0,0-.212.106l-.052.07a.264.264,0,0,0,.054.369.262.262,0,0,0,.157.052.263.263,0,0,0,.211-.106l.053-.071a.263.263,0,0,0-.054-.368.26.26,0,0,0-.157-.052m15.607-.22a.25.25,0,0,0-.1.023.251.251,0,0,0-.124.333l.035.076a.251.251,0,0,0,.228.146.251.251,0,0,0,.1-.023.251.251,0,0,0,.123-.333l-.034-.075a.251.251,0,0,0-.229-.147m-10.632-.348a.3.3,0,0,0-.259.148l-.051.086a.3.3,0,0,0,.106.41.3.3,0,0,0,.152.042.3.3,0,0,0,.258-.147l.051-.087a.3.3,0,0,0-.107-.41.3.3,0,0,0-.151-.041m-10.088-.051a.222.222,0,0,0-.164.072l-.049.054a.22.22,0,0,0,.014.312.219.219,0,0,0,.15.058.226.226,0,0,0,.166-.072l.047-.052a.222.222,0,0,0-.014-.314.222.222,0,0,0-.15-.058m5.971-.6a.263.263,0,0,0-.219.117l-.049.073a.263.263,0,0,0,.073.365.261.261,0,0,0,.146.044.263.263,0,0,0,.219-.117l.049-.073a.263.263,0,0,0-.073-.365.264.264,0,0,0-.146-.044m9.032-.128a.3.3,0,0,0-.095.015.3.3,0,0,0-.187.377l.032.094a.3.3,0,0,0,.282.2.307.307,0,0,0,.095-.016.3.3,0,0,0,.187-.377l-.032-.094a.3.3,0,0,0-.282-.2m5.162-.177a.246.246,0,0,0-.093.018.251.251,0,0,0-.14.326l.031.078a.251.251,0,0,0,.233.158.249.249,0,0,0,.093-.018.251.251,0,0,0,.14-.326l-.031-.077a.251.251,0,0,0-.233-.159m-9.851-.318a.335.335,0,0,0-.089.012.338.338,0,0,0-.237.415l.031.11a.338.338,0,0,0,.326.247.34.34,0,0,0,.091-.012.338.338,0,0,0,.246-.357.307.307,0,0,0,.044.028.3.3,0,0,0,.139.035.3.3,0,0,0,.265-.16l.047-.091a.3.3,0,0,0-.129-.4.3.3,0,0,0-.137-.033.3.3,0,0,0-.266.162l-.045.087a.294.294,0,0,0-.028.079.34.34,0,0,0-.257-.118m-9.485.277a.222.222,0,0,0-.172.081l-.048.058a.222.222,0,0,0,.031.313.221.221,0,0,0,.141.05.222.222,0,0,0,.172-.082l.047-.056a.222.222,0,0,0-.03-.313.222.222,0,0,0-.141-.051m5.934-.92a.263.263,0,0,0-.227.129l-.045.075a.263.263,0,0,0,.092.361.26.26,0,0,0,.134.037.263.263,0,0,0,.227-.129l.045-.076a.263.263,0,0,0-.092-.361.262.262,0,0,0-.134-.037m-5.156-.072a.222.222,0,0,0-.179.09l-.045.06a.222.222,0,0,0,.047.311.222.222,0,0,0,.132.044.222.222,0,0,0,.179-.09l.043-.059a.222.222,0,0,0-.045-.311.22.22,0,0,0-.133-.044m12.906-.4a.3.3,0,0,0-.08.011.3.3,0,0,0-.208.366l.027.1a.3.3,0,0,0,.286.217.3.3,0,0,0,.08-.011.3.3,0,0,0,.206-.366l-.026-.094a.3.3,0,0,0-.286-.219m5.165.1a.251.251,0,0,0-.08.013.251.251,0,0,0-.158.318l.027.079a.251.251,0,0,0,.238.172.258.258,0,0,0,.08-.013.251.251,0,0,0,.158-.318l-.027-.08a.251.251,0,0,0-.238-.172m-8.025-.719a.3.3,0,0,0-.273.176l-.04.088a.3.3,0,0,0,.145.4.3.3,0,0,0,.126.028.3.3,0,0,0,.272-.173l.043-.094a.3.3,0,0,0-.149-.4.3.3,0,0,0-.123-.027m-1.8-.123a.34.34,0,0,0-.073.008.338.338,0,0,0-.258.4l.024.111a.338.338,0,0,0,.33.265.344.344,0,0,0,.073-.008.338.338,0,0,0,.258-.4l-.024-.109a.338.338,0,0,0-.33-.266m-7.525.114a.223.223,0,0,0-.185.1l-.042.064a.222.222,0,0,0,.065.308.221.221,0,0,0,.122.036.222.222,0,0,0,.186-.1l.04-.06a.222.222,0,0,0-.061-.309.22.22,0,0,0-.123-.038m5.155-.2a.264.264,0,0,0-.234.142l-.041.079a.264.264,0,0,0,.113.355.265.265,0,0,0,.121.03.264.264,0,0,0,.234-.142l.04-.078a.263.263,0,0,0-.112-.355.263.263,0,0,0-.122-.03m11.779-.431a.253.253,0,0,0-.068.009.251.251,0,0,0-.175.309l.022.081a.251.251,0,0,0,.242.184.252.252,0,0,0,.067-.009.251.251,0,0,0,.175-.309l-.022-.081a.251.251,0,0,0-.241-.184m-5.156-.372a.309.309,0,0,0-.065.007.3.3,0,0,0-.226.354l.021.1a.3.3,0,0,0,.29.233.292.292,0,0,0,.065-.007.3.3,0,0,0,.226-.354l-.021-.1a.3.3,0,0,0-.29-.233m-11.109-.063a.222.222,0,0,0-.192.109l-.037.063a.222.222,0,0,0,.076.305.222.222,0,0,0,.114.032.222.222,0,0,0,.191-.108l.039-.065a.222.222,0,0,0-.078-.3.219.219,0,0,0-.113-.031m9.314-.489a.3.3,0,0,0-.28.19l-.036.093a.3.3,0,0,0,.169.389.3.3,0,0,0,.11.021.3.3,0,0,0,.279-.19l.037-.094a.3.3,0,0,0-.17-.388.3.3,0,0,0-.108-.02m-4.175.01a.263.263,0,0,0-.239.154l-.037.08a.264.264,0,0,0,.13.349.261.261,0,0,0,.109.024.264.264,0,0,0,.24-.154l.036-.08a.263.263,0,0,0-.13-.349.263.263,0,0,0-.109-.024m1.357-.449a.347.347,0,0,0-.053,0,.338.338,0,0,0-.28.388l.018.113a.338.338,0,0,0,.333.283.343.343,0,0,0,.055,0,.338.338,0,0,0,.279-.389l-.018-.11a.339.339,0,0,0-.335-.284m9.428-.018a.253.253,0,0,0-.053.005.251.251,0,0,0-.192.3l.018.083a.251.251,0,0,0,.245.2.256.256,0,0,0,.054-.006.251.251,0,0,0,.191-.3l-.018-.081a.251.251,0,0,0-.246-.2m-15.312-.158a.223.223,0,0,0-.2.12l-.034.065a.222.222,0,0,0,.093.3.22.22,0,0,0,.1.026.223.223,0,0,0,.2-.119l.035-.067a.223.223,0,0,0-.094-.3.221.221,0,0,0-.1-.025m10.184-.488a.3.3,0,0,0-.05,0,.3.3,0,0,0-.245.341l.016.1a.3.3,0,0,0,.293.249.284.284,0,0,0,.048,0,.3.3,0,0,0,.245-.341l-.016-.1a.3.3,0,0,0-.292-.249m-5.076-.264a.264.264,0,0,0-.245.168l-.032.081a.263.263,0,0,0,.148.341.261.261,0,0,0,.1.019.263.263,0,0,0,.245-.167l.033-.083a.263.263,0,0,0-.149-.341.261.261,0,0,0-.1-.018m4.169-.234a.3.3,0,0,0-.284.206l-.031.094a.3.3,0,0,0,.189.379.309.309,0,0,0,.1.015.3.3,0,0,0,.284-.2l.032-.1a.3.3,0,0,0-.191-.378.3.3,0,0,0-.094-.015m-8.726-.149a.223.223,0,0,0-.2.13l-.03.066a.222.222,0,0,0,.109.3.221.221,0,0,0,.093.021.222.222,0,0,0,.2-.129l.032-.069a.223.223,0,0,0-.111-.294.225.225,0,0,0-.092-.02m14.5-.1a.263.263,0,0,0-.042,0,.256.256,0,0,0-.207.294l.012.072a.251.251,0,0,0,.247.21l.042,0a.251.251,0,0,0,.206-.289l-.013-.082a.246.246,0,0,0-.246-.2m-9.653-.4a.338.338,0,0,0-.1.282l.013.114a.338.338,0,0,0,.336.3l.038,0a.338.338,0,0,0,.3-.374l-.012-.11a.336.336,0,0,0-.155-.25.266.266,0,0,0,.028-.059l.028-.084a.263.263,0,0,0-.166-.333.262.262,0,0,0-.084-.014.262.262,0,0,0-.249.18l-.028.084a.264.264,0,0,0,.059.265m4.27-.294a.293.293,0,0,0-.005.1l.011.1a.3.3,0,0,0,.3.264l.034,0a.3.3,0,0,0,.262-.329l-.011-.1a.3.3,0,0,0-.22-.255l.023-.085a.3.3,0,0,0-.211-.367.3.3,0,0,0-.079-.011.3.3,0,0,0-.289.221l-.026.094a.3.3,0,0,0,.208.369l.007,0m-8.624-.373a.223.223,0,0,0-.207.14l-.028.07a.222.222,0,0,0,.126.288.22.22,0,0,0,.081.015.223.223,0,0,0,.207-.141l.027-.069a.223.223,0,0,0-.125-.289.224.224,0,0,0-.081-.015m13.812-.351h-.027a.251.251,0,0,0-.222.277l.009.083a.251.251,0,0,0,.249.223l.028,0a.251.251,0,0,0,.222-.277l-.009-.083a.252.252,0,0,0-.25-.223m-9.383-.982h-.019a.338.338,0,0,0-.32.356l.006.114a.338.338,0,0,0,.337.318h.02a.339.339,0,0,0,.306-.248.26.26,0,0,0,.147.1.256.256,0,0,0,.07.01.263.263,0,0,0,.254-.193l.023-.085a.263.263,0,0,0-.184-.324.266.266,0,0,0-.069-.009.263.263,0,0,0-.252.187.338.338,0,0,0-.32-.231m-4,.145a.223.223,0,0,0-.211.153l-.023.069a.222.222,0,0,0,.139.282.217.217,0,0,0,.071.012.222.222,0,0,0,.211-.151l.024-.073a.223.223,0,0,0-.142-.281.228.228,0,0,0-.07-.011m8.348-.347h-.015a.3.3,0,0,0-.28.316l.005.1a.3.3,0,0,0,.3.28h.018a.3.3,0,0,0,.279-.315l-.006-.1s0-.006,0-.009l.031,0a.3.3,0,0,0,.292-.235l.021-.1a.3.3,0,0,0-.23-.356.3.3,0,0,0-.062-.007.3.3,0,0,0-.294.237l-.02.1a.3.3,0,0,0-.006.1h-.03m4.927-.234h-.018a.251.251,0,0,0-.237.264l0,.084a.251.251,0,0,0,.25.237h.015a.251.251,0,0,0,.236-.265l0-.083a.252.252,0,0,0-.246-.238m-12.91-.625a.224.224,0,0,0-.216.164l-.019.07a.222.222,0,0,0,.155.273.208.208,0,0,0,.06.008.222.222,0,0,0,.214-.163l.02-.073a.223.223,0,0,0-.157-.272.223.223,0,0,0-.056-.007m4.562-.345a.263.263,0,0,0-.257.208l-.018.086a.263.263,0,0,0,.2.313.268.268,0,0,0,.056.006.264.264,0,0,0,.257-.208l.019-.086a.264.264,0,0,0-.2-.313.268.268,0,0,0-.056-.006m-.98-.509a.338.338,0,0,0-.338.338v.115a.338.338,0,0,0,.338.336h0a.338.338,0,0,0,.336-.34v-.111a.338.338,0,0,0-.338-.338m4.352.027a.3.3,0,0,0-.3.3v.1a.3.3,0,0,0,.3.3h0a.3.3,0,0,0,.3-.3v-.1a.3.3,0,0,0-.3-.3h0m4.929.03a.251.251,0,0,0-.25.252v.085a.251.251,0,0,0,.251.249h0a.251.251,0,0,0,.249-.253v-.083a.251.251,0,0,0-.251-.25h0m-4.218-.438a.3.3,0,0,0-.3.252l-.016.1a.3.3,0,0,0,.247.344.294.294,0,0,0,.049,0,.3.3,0,0,0,.295-.251l.016-.1a.3.3,0,0,0-.249-.343.3.3,0,0,0-.047,0m-8.349.01a.222.222,0,0,0-.217.175l-.016.073a.223.223,0,0,0,.171.264.233.233,0,0,0,.047,0,.222.222,0,0,0,.217-.175l.016-.072a.223.223,0,0,0-.17-.265.22.22,0,0,0-.047-.005m4.54-.586a.264.264,0,0,0-.259.222l-.014.087a.263.263,0,0,0,.219.3l.042,0a.264.264,0,0,0,.26-.222l.014-.087a.263.263,0,0,0-.218-.3.235.235,0,0,0-.043,0m8.057-.408a.249.249,0,0,0-.247.239l0,.084a.251.251,0,0,0,.239.262h.012a.251.251,0,0,0,.251-.239l0-.084a.251.251,0,0,0-.239-.263h-.016m-4.919-.292a.3.3,0,0,0-.3.283l0,.1a.3.3,0,0,0,.283.311h.014a.3.3,0,0,0,.3-.283l0-.1a.3.3,0,0,0-.282-.312h-.016m-7.448.048a.221.221,0,0,0-.218.188l-.011.072a.222.222,0,0,0,.183.256l.037,0a.223.223,0,0,0,.219-.186l.012-.075a.223.223,0,0,0-.185-.255l-.036,0m3.1-.306a.339.339,0,0,0-.337.321l-.006.114a.338.338,0,0,0,.322.354h.016a.338.338,0,0,0,.337-.323l.005-.112a.338.338,0,0,0-.321-.354h-.017m5.241-.147a.3.3,0,0,0-.3.268l-.01.1a.3.3,0,0,0,.264.331l.033,0a.3.3,0,0,0,.3-.267l.011-.1a.3.3,0,0,0-.266-.329l-.032,0m-3.836-.373a.264.264,0,0,0-.26.236l-.009.086a.263.263,0,0,0,.232.291l.03,0a.264.264,0,0,0,.261-.234l.01-.089a.263.263,0,0,0-.234-.29l-.03,0m7.975-.347a.251.251,0,0,0-.251.226l-.008.083a.251.251,0,0,0,.225.275h.025a.251.251,0,0,0,.25-.227l.008-.083a.251.251,0,0,0-.225-.275h-.023m-12.314-.075a.221.221,0,0,0-.22.2l-.008.072a.222.222,0,0,0,.2.245h.025a.222.222,0,0,0,.221-.2l.008-.076a.222.222,0,0,0-.2-.244h-.024m7.41-.479a.3.3,0,0,0-.3.268l-.01.1a.3.3,0,0,0,.267.325l.03,0a.3.3,0,0,0,.3-.268l.01-.1a.3.3,0,0,0-.266-.326h-.03m-4.332-.489a.338.338,0,0,0-.335.3l-.011.114a.338.338,0,0,0,.3.37l.034,0a.338.338,0,0,0,.336-.3l.011-.11a.338.338,0,0,0-.3-.372l-.036,0m5.232.072a.3.3,0,0,0-.3.284l-.005.1a.3.3,0,0,0,.282.316h.018a.3.3,0,0,0,.3-.282l.006-.1a.3.3,0,0,0-.284-.315h-.015m-3.85-.168a.26.26,0,0,0-.265.249l0,.086a.264.264,0,0,0,.247.279h.016a.264.264,0,0,0,.263-.248l0-.09a.263.263,0,0,0-.249-.277h-.012m-4.364-.191a.219.219,0,0,0-.218.21l0,.074a.223.223,0,0,0,.21.234h.012a.222.222,0,0,0,.222-.21l0-.074a.222.222,0,0,0-.21-.234h-.016m12.4-.08a.251.251,0,0,0-.248.213l-.013.083a.251.251,0,0,0,.21.286l.039,0a.251.251,0,0,0,.248-.213l.013-.083a.251.251,0,0,0-.21-.286.231.231,0,0,0-.039,0m-4.868-.813a.3.3,0,0,0-.295.252l-.015.1a.3.3,0,0,0,.249.339l.045,0a.3.3,0,0,0,.294-.252l.015-.1a.3.3,0,0,0-.249-.339.3.3,0,0,0-.044,0m.723-.847h0a.3.3,0,0,0-.3.3v.1a.3.3,0,0,0,.042.152.3.3,0,0,0-.041.151v.1a.3.3,0,0,0,.3.3h0a.3.3,0,0,0,.3-.3v-.1a.3.3,0,0,0-.042-.154.3.3,0,0,0,.041-.153v-.1a.306.306,0,0,0-.3-.3m-3.856.085h0a.263.263,0,0,0-.26.267v.086a.26.26,0,0,0,.037.133.263.263,0,0,0-.036.133v.086a.263.263,0,0,0,.262.265h0a.263.263,0,0,0,.263-.262v-.089a.262.262,0,0,0-.037-.135.261.261,0,0,0,.036-.135v-.089a.267.267,0,0,0-.265-.26m-4.366.1a.223.223,0,0,0-.219.226v.072a.222.222,0,0,0,.032.113.218.218,0,0,0-.031.112v.072a.223.223,0,0,0,.221.224h0a.222.222,0,0,0,.222-.221v-.076a.223.223,0,0,0-.032-.115.222.222,0,0,0,.031-.114v-.075a.227.227,0,0,0-.226-.219m3.2-.052a.339.339,0,0,0-.334.285l-.018.113a.338.338,0,0,0,.283.385.337.337,0,0,0,.052,0,.338.338,0,0,0,.334-.287l.017-.109a.338.338,0,0,0-.281-.387.329.329,0,0,0-.053,0m9.428.133a.251.251,0,0,0-.246.2l-.017.083a.251.251,0,0,0,.195.3.245.245,0,0,0,.051.005.251.251,0,0,0,.246-.2l.017-.081a.251.251,0,0,0-.193-.3.247.247,0,0,0-.052-.005m-4.821-1.07a.3.3,0,0,0-.291.236l-.021.1a.3.3,0,0,0,.23.352.3.3,0,0,0,.061.006.3.3,0,0,0,.291-.237l.02-.1a.3.3,0,0,0-.23-.352.3.3,0,0,0-.061-.006m5.154-.305a.261.261,0,0,0-.248.193l-.018.068a.251.251,0,0,0,.179.307.25.25,0,0,0,.064.008.251.251,0,0,0,.243-.187l.021-.08a.245.245,0,0,0-.18-.3.235.235,0,0,0-.062-.008m-13,.037h-.015a.223.223,0,0,0-.208.236l0,.074a.223.223,0,0,0,.222.209h.014a.222.222,0,0,0,.208-.236l0-.074a.223.223,0,0,0-.221-.208m4.355-.328H642.1a.264.264,0,0,0-.245.28l.005.084a.263.263,0,0,0,.263.249h.014a.263.263,0,0,0,.249-.277l-.006-.091a.263.263,0,0,0-.262-.246m-.769-.35a.338.338,0,0,0-.33.269l-.023.111a.338.338,0,0,0,.262.4.344.344,0,0,0,.069.007.338.338,0,0,0,.331-.269l.023-.109a.338.338,0,0,0-.261-.4.332.332,0,0,0-.071-.008m4.613.06h-.016a.3.3,0,0,0-.28.318l.006.1a.3.3,0,0,0,.3.282h.018a.3.3,0,0,0,.281-.316l-.006-.1a.3.3,0,0,0-.3-.28m.041-.752a.3.3,0,0,0-.287.22l-.026.1a.3.3,0,0,0,.212.363.3.3,0,0,0,.076.01.3.3,0,0,0,.287-.222l.025-.094a.3.3,0,0,0-.21-.364.3.3,0,0,0-.077-.01m-8.354.115-.027,0a.222.222,0,0,0-.195.247l.008.072a.222.222,0,0,0,.221.2h.025a.222.222,0,0,0,.2-.246l-.009-.075a.222.222,0,0,0-.22-.2m13.52-.154a.251.251,0,0,0-.239.173l-.026.08a.251.251,0,0,0,.162.316.249.249,0,0,0,.077.012.251.251,0,0,0,.239-.174l.026-.08a.251.251,0,0,0-.161-.316.251.251,0,0,0-.077-.012m-9.345-.352a.263.263,0,0,0-.1.241l.01.084a.263.263,0,0,0,.261.235l.028,0a.263.263,0,0,0,.234-.29l-.01-.091a.264.264,0,0,0-.261-.232l-.028,0a.338.338,0,0,0,.14-.2l.028-.107a.338.338,0,0,0-.238-.415.341.341,0,0,0-.089-.012.338.338,0,0,0-.326.25l-.03.111a.338.338,0,0,0,.24.414.345.345,0,0,0,.087.011.329.329,0,0,0,.055,0m3.988-.547-.035,0a.3.3,0,0,0-.263.332l.012.1a.3.3,0,0,0,.3.265l.035,0a.3.3,0,0,0,.263-.332l-.012-.1a.3.3,0,0,0-.3-.265m-8.343-.194a.223.223,0,0,0-.039,0,.222.222,0,0,0-.181.257l.012.071a.222.222,0,0,0,.219.186l.037,0a.222.222,0,0,0,.182-.256l-.013-.075a.221.221,0,0,0-.218-.184m14.179-.25a.252.252,0,0,0-.234.161l-.03.079a.251.251,0,0,0,.144.325.25.25,0,0,0,.09.017.251.251,0,0,0,.234-.161l.03-.078a.251.251,0,0,0-.144-.325.249.249,0,0,0-.091-.017m-5.165-.233a.3.3,0,0,0-.282.2l-.031.1a.3.3,0,0,0,.192.374.3.3,0,0,0,.091.014.3.3,0,0,0,.283-.206l.03-.093a.3.3,0,0,0-.19-.375.293.293,0,0,0-.093-.015m-4.715-.3a.257.257,0,0,0-.046,0,.263.263,0,0,0-.214.3l.015.085a.259.259,0,0,0,.257.217l.045,0a.266.266,0,0,0,.215-.307l-.014-.081a.264.264,0,0,0-.259-.218m-4.547-.447a.228.228,0,0,0-.049.006.222.222,0,0,0-.168.266l.016.072a.223.223,0,0,0,.217.173.22.22,0,0,0,.049-.005.223.223,0,0,0,.168-.266l-.016-.072a.222.222,0,0,0-.216-.174m8.347-.25a.3.3,0,0,0-.05,0,.3.3,0,0,0-.245.346l.017.1a.3.3,0,0,0,.295.249.307.307,0,0,0,.051,0,.3.3,0,0,0,.245-.346l-.017-.1a.3.3,0,0,0-.3-.249m6.63-.08a.251.251,0,0,0-.229.147l-.035.078a.251.251,0,0,0,.128.331.247.247,0,0,0,.1.022.251.251,0,0,0,.23-.149l.034-.075A.251.251,0,0,0,652.3-868a.252.252,0,0,0-.1-.022m-9.855-.311a.338.338,0,0,0-.322.233l-.035.109a.338.338,0,0,0,.218.426.335.335,0,0,0,.1.017.338.338,0,0,0,.322-.234l.035-.107a.338.338,0,0,0-.217-.426.338.338,0,0,0-.1-.017m4.708-.2a.3.3,0,0,0-.278.19l-.036.093a.3.3,0,0,0,.171.384.3.3,0,0,0,.107.02.3.3,0,0,0,.278-.19l.036-.093a.3.3,0,0,0-.17-.384.294.294,0,0,0-.107-.02m-5.576-.177a.266.266,0,0,0-.059.007.263.263,0,0,0-.2.316l.019.084a.263.263,0,0,0,.257.206.254.254,0,0,0,.058-.007.263.263,0,0,0,.2-.314l-.02-.087a.263.263,0,0,0-.257-.2m-4.568-.2a.214.214,0,0,0-.061.009.222.222,0,0,0-.153.275l.02.069a.222.222,0,0,0,.214.163.226.226,0,0,0,.059-.008.222.222,0,0,0,.155-.274l-.021-.073a.223.223,0,0,0-.214-.161m15.909-.393a.251.251,0,0,0-.224.136l-.039.075a.251.251,0,0,0,.109.338.248.248,0,0,0,.114.028.251.251,0,0,0,.224-.136l.038-.074a.251.251,0,0,0-.108-.338.252.252,0,0,0-.115-.028m-7.581-.3a.3.3,0,0,0-.067.008.3.3,0,0,0-.226.358l.022.1a.3.3,0,0,0,.292.234.291.291,0,0,0,.066-.008.3.3,0,0,0,.226-.358l-.022-.1a.3.3,0,0,0-.291-.234m-2.249-.537a.338.338,0,0,0-.315.217l-.041.107a.338.338,0,0,0,.2.436.336.336,0,0,0,.12.022.339.339,0,0,0,.316-.218l.04-.1a.338.338,0,0,0-.194-.437.339.339,0,0,0-.122-.023m4.714.054a.3.3,0,0,0-.271.175l-.041.092a.3.3,0,0,0,.151.392.3.3,0,0,0,.121.026.3.3,0,0,0,.272-.177l.04-.089a.3.3,0,0,0-.149-.393.293.293,0,0,0-.122-.027m-6.6-.064a.261.261,0,0,0-.072.01.263.263,0,0,0-.182.325l.024.084a.263.263,0,0,0,.253.192.272.272,0,0,0,.072-.01.264.264,0,0,0,.182-.325l-.024-.085a.263.263,0,0,0-.254-.192m-4.575.038a.221.221,0,0,0-.072.012.222.222,0,0,0-.139.282l.024.07a.222.222,0,0,0,.211.151.217.217,0,0,0,.071-.012.222.222,0,0,0,.139-.282l-.024-.07a.223.223,0,0,0-.21-.151m16.973-.44a.251.251,0,0,0-.217.124l-.043.073a.251.251,0,0,0,.092.343.251.251,0,0,0,.126.034.251.251,0,0,0,.218-.125l.042-.071a.251.251,0,0,0-.09-.344.25.25,0,0,0-.127-.034m-8.69-.695a.305.305,0,0,0-.082.011.3.3,0,0,0-.206.37l.027.094a.3.3,0,0,0,.289.22.308.308,0,0,0,.08-.011.3.3,0,0,0,.209-.369l-.028-.1a.3.3,0,0,0-.288-.217m-8.726-.045a.226.226,0,0,0-.084.016.223.223,0,0,0-.122.29l.027.067a.223.223,0,0,0,.207.14.224.224,0,0,0,.082-.016.222.222,0,0,0,.125-.289l-.028-.071a.223.223,0,0,0-.206-.139m12.347-.314a.3.3,0,0,0-.265.161l-.046.09a.3.3,0,0,0,.129.4.3.3,0,0,0,.135.033.3.3,0,0,0,.265-.162l.045-.087a.3.3,0,0,0-.128-.4.3.3,0,0,0-.136-.033m-7.776.032a.262.262,0,0,0-.086.014.264.264,0,0,0-.164.334l.028.082a.264.264,0,0,0,.25.179.258.258,0,0,0,.084-.014.263.263,0,0,0,.166-.333l-.029-.085a.264.264,0,0,0-.249-.178m3.07-.338a.338.338,0,0,0-.308.2l-.047.1a.339.339,0,0,0,.172.447.339.339,0,0,0,.137.029.338.338,0,0,0,.309-.2l.046-.1a.338.338,0,0,0-.169-.447.334.334,0,0,0-.139-.03m10.527.151a.251.251,0,0,0-.209.112l-.047.071a.251.251,0,0,0,.073.348.25.25,0,0,0,.137.041.251.251,0,0,0,.21-.114l.045-.069a.251.251,0,0,0-.07-.348.25.25,0,0,0-.139-.042m-18.67-.682a.221.221,0,0,0-.095.021.222.222,0,0,0-.107.3l.03.065a.223.223,0,0,0,.2.13.224.224,0,0,0,.093-.02.222.222,0,0,0,.109-.3l-.032-.069a.222.222,0,0,0-.2-.128m8.72-.422a.3.3,0,0,0-.1.016.3.3,0,0,0-.185.381l.032.093a.3.3,0,0,0,.284.2.3.3,0,0,0,.1-.016.3.3,0,0,0,.188-.38l-.033-.1a.3.3,0,0,0-.283-.2m10.764-.064a.25.25,0,0,0-.2.1l-.051.068a.251.251,0,0,0,.054.351.25.25,0,0,0,.148.048.251.251,0,0,0,.2-.1l.049-.067a.251.251,0,0,0-.052-.351.249.249,0,0,0-.149-.049m-14.935-.042a.266.266,0,0,0-.1.019.263.263,0,0,0-.144.343l.032.08a.263.263,0,0,0,.245.166.261.261,0,0,0,.1-.019.263.263,0,0,0,.147-.342l-.034-.083a.263.263,0,0,0-.244-.164m9.113-.114a.3.3,0,0,0-.257.147l-.051.087a.3.3,0,0,0,.108.406.3.3,0,0,0,.149.04.3.3,0,0,0,.258-.148l.049-.085a.3.3,0,0,0-.106-.407.3.3,0,0,0-.15-.041m-4.685-.557a.338.338,0,0,0-.3.183l-.052.1a.338.338,0,0,0,.147.455.339.339,0,0,0,.154.037.339.339,0,0,0,.3-.184l.051-.1a.338.338,0,0,0-.145-.456.336.336,0,0,0-.155-.038m-9.54.073a.221.221,0,0,0-.1.026.223.223,0,0,0-.091.3l.034.063a.223.223,0,0,0,.2.119.22.22,0,0,0,.1-.026.222.222,0,0,0,.094-.3l-.036-.067a.222.222,0,0,0-.2-.117m20.923-.483a.252.252,0,0,0-.194.091l-.053.065a.251.251,0,0,0,.035.353.249.249,0,0,0,.159.057.251.251,0,0,0,.195-.092l.053-.064a.251.251,0,0,0-.034-.353.249.249,0,0,0-.159-.057m-16.406-.283a.26.26,0,0,0-.112.025.263.263,0,0,0-.126.35l.035.076a.263.263,0,0,0,.24.154.261.261,0,0,0,.109-.024.263.263,0,0,0,.131-.348l-.039-.083a.263.263,0,0,0-.238-.151m4.171-.12a.294.294,0,0,0-.112.022.3.3,0,0,0-.166.39l.037.092a.3.3,0,0,0,.278.188.3.3,0,0,0,.111-.022.3.3,0,0,0,.167-.389l-.037-.093a.3.3,0,0,0-.278-.188m6.427-.062a.3.3,0,0,0-.249.134l-.055.083a.3.3,0,0,0,.085.412.3.3,0,0,0,.163.049.3.3,0,0,0,.249-.134l.054-.082a.3.3,0,0,0-.085-.412.3.3,0,0,0-.163-.049m-15.739-.144a.22.22,0,0,0-.115.032.222.222,0,0,0-.075.305l.038.063a.222.222,0,0,0,.19.107.221.221,0,0,0,.115-.032.222.222,0,0,0,.075-.305l-.038-.063a.223.223,0,0,0-.191-.107m11.088-.661a.338.338,0,0,0-.292.167l-.057.1a.338.338,0,0,0,.123.462.335.335,0,0,0,.169.046.338.338,0,0,0,.293-.169l.056-.1a.338.338,0,0,0-.121-.463.336.336,0,0,0-.171-.047m11.391.2a.251.251,0,0,0-.185.082l-.057.063a.251.251,0,0,0,.017.355.25.25,0,0,0,.169.065.25.25,0,0,0,.186-.082l.056-.061a.251.251,0,0,0-.016-.355.251.251,0,0,0-.169-.066" transform="translate(4506.337 3088.526)" fill="#e9eaed"/>
      <path id="path116" d="M710.809-839.237h-.658a.3.3,0,0,1,.092-.231l.07-.068a.3.3,0,0,1,.21-.085.3.3,0,0,1,.214.09.3.3,0,0,1,.073.293m.827-.928a.3.3,0,0,1-.2-.08.3.3,0,0,1-.016-.423l.067-.073a.3.3,0,0,1,.22-.1.3.3,0,0,1,.2.079.3.3,0,0,1,.018.423l-.069.074a.3.3,0,0,1-.22.1m1.121-1.274a.3.3,0,0,1-.192-.069.3.3,0,0,1-.038-.422l.064-.077a.3.3,0,0,1,.23-.108.3.3,0,0,1,.192.07.3.3,0,0,1,.038.422l-.064.077a.3.3,0,0,1-.23.108m1.052-1.332a.3.3,0,0,1-.179-.059.3.3,0,0,1-.061-.419l.06-.08a.3.3,0,0,1,.24-.12.3.3,0,0,1,.179.059.3.3,0,0,1,.061.419l-.06.08a.3.3,0,0,1-.24.12m.98-1.386a.3.3,0,0,1-.166-.05.3.3,0,0,1-.083-.415l.055-.083a.3.3,0,0,1,.25-.134.3.3,0,0,1,.166.05.3.3,0,0,1,.084.415l-.056.084a.3.3,0,0,1-.249.133m.906-1.437a.3.3,0,0,1-.152-.042.3.3,0,0,1-.105-.41l.051-.086a.3.3,0,0,1,.259-.148.3.3,0,0,1,.151.041.3.3,0,0,1,.106.41l-.051.087a.3.3,0,0,1-.258.147m.828-1.483a.3.3,0,0,1-.139-.034.305.305,0,0,1-.044-.028.353.353,0,0,0-.011-.06l-.029-.107a.338.338,0,0,0-.069-.131.3.3,0,0,1,.028-.079l.045-.086a.3.3,0,0,1,.266-.162.3.3,0,0,1,.137.034.3.3,0,0,1,.129.4l-.047.091a.3.3,0,0,1-.265.16m.748-1.526a.3.3,0,0,1-.126-.028.3.3,0,0,1-.145-.4l.04-.088a.3.3,0,0,1,.273-.176.3.3,0,0,1,.123.027.3.3,0,0,1,.149.4l-.043.094a.3.3,0,0,1-.272.173m.666-1.564a.3.3,0,0,1-.11-.021.3.3,0,0,1-.169-.389l.036-.093a.3.3,0,0,1,.28-.19.3.3,0,0,1,.108.02.3.3,0,0,1,.17.388l-.037.094a.3.3,0,0,1-.279.19m.581-1.6a.306.306,0,0,1-.1-.015.3.3,0,0,1-.189-.379l.031-.094a.3.3,0,0,1,.284-.206.3.3,0,0,1,.094.015.3.3,0,0,1,.191.378l-.032.1a.3.3,0,0,1-.284.2m.42-1.633-.007,0a.3.3,0,0,1-.208-.369l.026-.094a.3.3,0,0,1,.289-.221.3.3,0,0,1,.079.011.3.3,0,0,1,.211.367l-.023.085a.305.305,0,0,0-.075-.01l-.032,0a.3.3,0,0,0-.258.231m.48-1.638-.031,0a.3.3,0,0,0-.268-.267.3.3,0,0,1,.005-.1l.021-.1a.3.3,0,0,1,.294-.237.291.291,0,0,1,.062.007.3.3,0,0,1,.23.356l-.021.1a.3.3,0,0,1-.292.235m.317-1.667a.292.292,0,0,1-.049,0,.3.3,0,0,1-.247-.344l.016-.1a.3.3,0,0,1,.3-.252.3.3,0,0,1,.047,0,.3.3,0,0,1,.249.343l-.016.1a.3.3,0,0,1-.295.251m.227-1.681-.033,0a.3.3,0,0,1-.264-.331l.01-.1a.3.3,0,0,1,.3-.268l.032,0a.3.3,0,0,1,.266.329l-.011.1a.3.3,0,0,1-.3.266m.139-1.691h-.018a.3.3,0,0,1-.281-.316l.005-.1a.3.3,0,0,1,.3-.284h.015a.3.3,0,0,1,.284.315l-.006.1a.3.3,0,0,1-.3.282m.049-1.7h0a.3.3,0,0,1-.3-.3v-.1a.3.3,0,0,1,.041-.151.3.3,0,0,1-.042-.152v-.1a.3.3,0,0,1,.3-.3h0a.306.306,0,0,1,.3.3v.1a.3.3,0,0,1-.041.153.3.3,0,0,1,.042.154v.1a.3.3,0,0,1-.3.3m-.062-2.1a.3.3,0,0,1-.3-.282l-.006-.1a.3.3,0,0,1,.28-.318h.016a.3.3,0,0,1,.3.28l.006.1a.3.3,0,0,1-.281.317h-.018m-.149-1.69a.3.3,0,0,1-.3-.265l-.012-.1a.3.3,0,0,1,.263-.332l.035,0a.3.3,0,0,1,.3.265l.012.1a.3.3,0,0,1-.263.332l-.035,0m-.239-1.679a.3.3,0,0,1-.295-.249l-.017-.1a.3.3,0,0,1,.245-.346.29.29,0,0,1,.051,0,.3.3,0,0,1,.3.249l.017.1a.3.3,0,0,1-.245.346.3.3,0,0,1-.051,0m-.328-1.664a.3.3,0,0,1-.292-.234l-.022-.1a.3.3,0,0,1,.226-.358.3.3,0,0,1,.067-.008.3.3,0,0,1,.291.234l.022.1a.3.3,0,0,1-.226.358.293.293,0,0,1-.066.008m-.416-1.645a.3.3,0,0,1-.289-.22l-.027-.094a.3.3,0,0,1,.206-.37.307.307,0,0,1,.082-.011.3.3,0,0,1,.288.217l.027.1a.3.3,0,0,1-.209.369.307.307,0,0,1-.08.011m-.5-1.62a.3.3,0,0,1-.284-.2l-.032-.093a.3.3,0,0,1,.186-.381.3.3,0,0,1,.1-.016.3.3,0,0,1,.283.2l.033.1a.3.3,0,0,1-.188.38.3.3,0,0,1-.1.016m-.59-1.591a.3.3,0,0,1-.278-.188l-.037-.092a.3.3,0,0,1,.166-.39.3.3,0,0,1,.112-.022.3.3,0,0,1,.278.188l.037.093a.3.3,0,0,1-.167.389.3.3,0,0,1-.112.022m-.672-1.554a.3.3,0,0,1-.264-.157h.527a.3.3,0,0,1-.138.129.3.3,0,0,1-.126.028" transform="translate(4432.218 3088.526)" fill="#d4d6dc"/>
      <path id="path118" d="M663.677-839.237h-.59a.261.261,0,0,1,.1-.151l.07-.05a.262.262,0,0,1,.152-.048.264.264,0,0,1,.215.111.265.265,0,0,1,.048.138m.863-.56a.262.262,0,0,1-.207-.1.263.263,0,0,1,.044-.37l.069-.054a.263.263,0,0,1,.163-.056.262.262,0,0,1,.207.1.263.263,0,0,1-.044.37l-.069.054a.262.262,0,0,1-.163.056m1.149-.95a.262.262,0,0,1-.2-.09.263.263,0,0,1,.024-.372l.065-.057a.262.262,0,0,1,.174-.066.264.264,0,0,1,.2.089.264.264,0,0,1-.023.372l-.067.059a.263.263,0,0,1-.173.065m1.1-1.01a.263.263,0,0,1-.189-.079.264.264,0,0,1,.005-.373l.063-.061a.263.263,0,0,1,.184-.074.263.263,0,0,1,.189.08.263.263,0,0,1-.005.372l-.063.061a.264.264,0,0,1-.184.074m1.043-1.066a.263.263,0,0,1-.179-.07.263.263,0,0,1-.014-.372l.059-.064a.264.264,0,0,1,.194-.085.263.263,0,0,1,.178.069.264.264,0,0,1,.016.372l-.061.065a.262.262,0,0,1-.193.084m.985-1.12a.262.262,0,0,1-.168-.061.263.263,0,0,1-.034-.371l.056-.067a.263.263,0,0,1,.2-.1.263.263,0,0,1,.168.06.263.263,0,0,1,.035.371l-.056.068a.262.262,0,0,1-.2.1m.925-1.171a.26.26,0,0,1-.157-.052.264.264,0,0,1-.054-.369l.052-.07a.263.263,0,0,1,.212-.106.261.261,0,0,1,.157.052.263.263,0,0,1,.054.368l-.053.071a.263.263,0,0,1-.211.106m.862-1.219a.262.262,0,0,1-.146-.044.263.263,0,0,1-.073-.365l.049-.073a.264.264,0,0,1,.219-.117.264.264,0,0,1,.146.044.263.263,0,0,1,.073.365l-.049.073a.263.263,0,0,1-.219.117m.8-1.263a.261.261,0,0,1-.134-.037.263.263,0,0,1-.092-.361l.045-.075a.262.262,0,0,1,.227-.129.263.263,0,0,1,.134.037.263.263,0,0,1,.092.361l-.045.076a.264.264,0,0,1-.227.129m.728-1.3a.265.265,0,0,1-.121-.029.264.264,0,0,1-.113-.355l.041-.079a.264.264,0,0,1,.234-.142.263.263,0,0,1,.122.03.263.263,0,0,1,.112.355l-.04.078a.263.263,0,0,1-.234.142m.658-1.341a.261.261,0,0,1-.109-.024.264.264,0,0,1-.13-.349l.037-.08a.263.263,0,0,1,.239-.154.261.261,0,0,1,.109.024.263.263,0,0,1,.13.349l-.036.08a.264.264,0,0,1-.24.154m.585-1.375a.262.262,0,0,1-.1-.018.263.263,0,0,1-.148-.341l.032-.081a.263.263,0,0,1,.245-.168.262.262,0,0,1,.1.018.263.263,0,0,1,.149.341l-.033.083a.263.263,0,0,1-.245.167m.32-1.487a.264.264,0,0,1-.059-.265l.028-.084a.263.263,0,0,1,.249-.18.26.26,0,0,1,.084.014.263.263,0,0,1,.166.333l-.028.084a.266.266,0,0,1-.028.059.337.337,0,0,0-.181-.053l-.036,0a.338.338,0,0,0-.2.09m.625-1.346a.254.254,0,0,1-.07-.01.26.26,0,0,1-.147-.1.338.338,0,0,0,.011-.11l-.006-.111a.341.341,0,0,0-.017-.09.264.264,0,0,1,.252-.187.267.267,0,0,1,.069.009.263.263,0,0,1,.184.323l-.023.085a.263.263,0,0,1-.253.193m.357-1.448a.26.26,0,0,1-.056-.006.263.263,0,0,1-.2-.313l.018-.086a.263.263,0,0,1,.257-.208.264.264,0,0,1,.056.006.264.264,0,0,1,.2.313l-.019.086a.264.264,0,0,1-.257.208m.279-1.465-.042,0a.263.263,0,0,1-.218-.3l.014-.087a.264.264,0,0,1,.259-.222.245.245,0,0,1,.043,0,.263.263,0,0,1,.218.3l-.014.087a.263.263,0,0,1-.26.222m.2-1.478-.03,0a.263.263,0,0,1-.232-.291l.009-.086a.264.264,0,0,1,.26-.236l.03,0a.263.263,0,0,1,.234.29l-.01.089a.264.264,0,0,1-.261.234m.122-1.486h-.016a.264.264,0,0,1-.247-.279l0-.086a.26.26,0,0,1,.265-.249h.012a.264.264,0,0,1,.249.277l0,.089a.264.264,0,0,1-.263.248m.043-1.491h0a.263.263,0,0,1-.261-.265v-.086a.263.263,0,0,1,.036-.133.261.261,0,0,1-.037-.133v-.086a.263.263,0,0,1,.26-.266h0a.267.267,0,0,1,.265.26v.089a.261.261,0,0,1-.036.135.261.261,0,0,1,.037.135v.089a.263.263,0,0,1-.263.262m-.054-1.846a.263.263,0,0,1-.263-.249l-.005-.084a.264.264,0,0,1,.245-.28h.018a.262.262,0,0,1,.262.246l.006.091a.263.263,0,0,1-.249.277h-.014m-.132-1.486a.264.264,0,0,1-.262-.235l-.01-.084a.263.263,0,0,1,.1-.242.337.337,0,0,0,.131-.052h.028a.264.264,0,0,1,.261.232l.01.091a.263.263,0,0,1-.234.29h-.028m-.211-1.48a.259.259,0,0,1-.257-.216l-.015-.085a.263.263,0,0,1,.214-.3.262.262,0,0,1,.046,0,.264.264,0,0,1,.259.218l.014.081a.266.266,0,0,1-.215.307l-.045,0m-.286-1.46a.263.263,0,0,1-.257-.206l-.019-.084a.263.263,0,0,1,.2-.316.274.274,0,0,1,.059-.007.263.263,0,0,1,.257.2l.02.087a.263.263,0,0,1-.2.314.259.259,0,0,1-.058.006m-.366-1.446a.263.263,0,0,1-.253-.192l-.024-.084a.263.263,0,0,1,.182-.325.26.26,0,0,1,.071-.01.263.263,0,0,1,.253.191l.024.085a.264.264,0,0,1-.182.325.273.273,0,0,1-.072.01m-.443-1.424a.264.264,0,0,1-.25-.179l-.028-.082a.263.263,0,0,1,.164-.334.261.261,0,0,1,.086-.014.264.264,0,0,1,.249.178l.029.085a.264.264,0,0,1-.166.333.26.26,0,0,1-.084.014m-.519-1.4a.263.263,0,0,1-.245-.166l-.032-.08a.263.263,0,0,1,.144-.343.264.264,0,0,1,.1-.019.263.263,0,0,1,.244.164l.033.083a.263.263,0,0,1-.147.342.262.262,0,0,1-.1.019m-.591-1.366a.263.263,0,0,1-.24-.154l-.035-.076a.263.263,0,0,1,.126-.35.262.262,0,0,1,.112-.025.263.263,0,0,1,.239.151l.038.083a.263.263,0,0,1-.131.349.261.261,0,0,1-.108.024m-.664-1.333a.263.263,0,0,1-.233-.141l-.04-.076a.262.262,0,0,1-.022-.2h.514l.014.026a.264.264,0,0,1-.11.356.262.262,0,0,1-.122.03" transform="translate(4473.197 3088.526)" fill="#d4d6dc"/>
      <path id="path120" d="M630.473-841.252v-.4a.222.222,0,0,1,.094.09.222.222,0,0,1-.086.3l-.008,0m.92-.579a.222.222,0,0,1-.189-.1.222.222,0,0,1,.07-.306l.062-.039a.22.22,0,0,1,.118-.034.223.223,0,0,1,.188.1.222.222,0,0,1-.07.307l-.063.04a.22.22,0,0,1-.118.034m1.049-.7a.222.222,0,0,1-.181-.093.223.223,0,0,1,.052-.31l.062-.044a.222.222,0,0,1,.127-.04.222.222,0,0,1,.182.095.223.223,0,0,1-.054.31l-.059.042a.221.221,0,0,1-.129.041m1.011-.75a.223.223,0,0,1-.175-.084.223.223,0,0,1,.037-.312l.058-.046a.221.221,0,0,1,.138-.048.223.223,0,0,1,.175.084.223.223,0,0,1-.036.313l-.058.046a.223.223,0,0,1-.138.048m.97-.8a.222.222,0,0,1-.167-.075.222.222,0,0,1,.019-.314l.057-.05a.222.222,0,0,1,.146-.055.221.221,0,0,1,.167.076.222.222,0,0,1-.021.314l-.055.048a.221.221,0,0,1-.147.056m.927-.853a.221.221,0,0,1-.16-.068.222.222,0,0,1,.005-.314l.052-.051a.223.223,0,0,1,.156-.063.221.221,0,0,1,.159.067.223.223,0,0,1,0,.315l-.054.052a.221.221,0,0,1-.155.063m.881-.9a.219.219,0,0,1-.15-.058.22.22,0,0,1-.014-.312l.049-.054a.221.221,0,0,1,.164-.072.222.222,0,0,1,.15.058.222.222,0,0,1,.014.314l-.047.052a.226.226,0,0,1-.166.072m.831-.943a.221.221,0,0,1-.141-.05.222.222,0,0,1-.031-.313l.048-.058a.221.221,0,0,1,.172-.081.222.222,0,0,1,.141.051.222.222,0,0,1,.03.313l-.047.056a.222.222,0,0,1-.172.082m.781-.989a.223.223,0,0,1-.132-.044.222.222,0,0,1-.047-.311l.045-.06a.222.222,0,0,1,.179-.09.22.22,0,0,1,.133.044.222.222,0,0,1,.045.311l-.043.059a.222.222,0,0,1-.179.09m.728-1.029a.222.222,0,0,1-.122-.036.222.222,0,0,1-.064-.308l.042-.064a.223.223,0,0,1,.185-.1.22.22,0,0,1,.123.038.222.222,0,0,1,.061.309l-.04.06a.223.223,0,0,1-.186.1m.672-1.067a.22.22,0,0,1-.114-.032.222.222,0,0,1-.076-.3l.037-.063a.222.222,0,0,1,.191-.109.22.22,0,0,1,.113.031.222.222,0,0,1,.078.3l-.039.065a.222.222,0,0,1-.191.108m.615-1.1a.22.22,0,0,1-.1-.026.222.222,0,0,1-.093-.3l.034-.065a.223.223,0,0,1,.2-.12.22.22,0,0,1,.1.025.223.223,0,0,1,.094.3l-.035.067a.222.222,0,0,1-.2.119m.555-1.133a.221.221,0,0,1-.093-.021.222.222,0,0,1-.109-.3l.03-.066a.223.223,0,0,1,.2-.13.225.225,0,0,1,.091.02.223.223,0,0,1,.111.294l-.032.069a.222.222,0,0,1-.2.129m.494-1.161a.222.222,0,0,1-.081-.015.222.222,0,0,1-.126-.288l.028-.07a.223.223,0,0,1,.207-.14.224.224,0,0,1,.081.015.223.223,0,0,1,.125.289l-.027.069a.223.223,0,0,1-.207.141m.431-1.187a.217.217,0,0,1-.071-.012.222.222,0,0,1-.139-.282l.023-.069a.223.223,0,0,1,.211-.153.227.227,0,0,1,.07.011.223.223,0,0,1,.142.281l-.024.073a.222.222,0,0,1-.211.151m.367-1.206a.212.212,0,0,1-.059-.008.222.222,0,0,1-.155-.273l.019-.07a.224.224,0,0,1,.216-.164.222.222,0,0,1,.056.007.222.222,0,0,1,.157.272l-.02.073a.222.222,0,0,1-.214.163m.3-1.223a.232.232,0,0,1-.047,0,.223.223,0,0,1-.171-.264l.016-.073a.222.222,0,0,1,.217-.175.22.22,0,0,1,.047.005.223.223,0,0,1,.17.265l-.016.072a.223.223,0,0,1-.217.175m.235-1.237-.037,0a.222.222,0,0,1-.183-.256l.011-.072a.221.221,0,0,1,.218-.188l.037,0a.223.223,0,0,1,.185.255l-.012.075a.222.222,0,0,1-.219.186m.169-1.248h-.025a.222.222,0,0,1-.2-.245l.008-.072a.221.221,0,0,1,.22-.2h.024a.222.222,0,0,1,.2.244l-.008.076a.222.222,0,0,1-.221.2m.1-1.255H642.5a.222.222,0,0,1-.21-.234l0-.074a.219.219,0,0,1,.218-.21h.016a.222.222,0,0,1,.21.234l0,.074a.223.223,0,0,1-.222.21m.037-1.259h0a.222.222,0,0,1-.221-.224v-.072a.219.219,0,0,1,.031-.112.221.221,0,0,1-.032-.113v-.072a.223.223,0,0,1,.219-.226.227.227,0,0,1,.226.219v.075a.222.222,0,0,1-.031.114.222.222,0,0,1,.032.114v.076a.222.222,0,0,1-.222.221m-.046-1.56a.223.223,0,0,1-.222-.209l0-.074a.223.223,0,0,1,.208-.236h.015a.223.223,0,0,1,.221.208l0,.074a.222.222,0,0,1-.208.236h-.014m-.111-1.255a.223.223,0,0,1-.221-.2l-.008-.072a.222.222,0,0,1,.195-.247l.027,0a.222.222,0,0,1,.22.2l.009.075a.222.222,0,0,1-.2.245h-.025m-.177-1.247a.222.222,0,0,1-.219-.186l-.012-.071a.222.222,0,0,1,.181-.257.222.222,0,0,1,.039,0,.221.221,0,0,1,.218.184l.013.075a.222.222,0,0,1-.183.256l-.037,0m-.244-1.236a.223.223,0,0,1-.217-.173l-.016-.073a.223.223,0,0,1,.168-.266.228.228,0,0,1,.049-.005.222.222,0,0,1,.216.174l.016.072a.223.223,0,0,1-.168.266.219.219,0,0,1-.049.005m-.309-1.221a.223.223,0,0,1-.214-.163l-.02-.069a.222.222,0,0,1,.153-.275.218.218,0,0,1,.061-.009.223.223,0,0,1,.214.161l.021.073a.222.222,0,0,1-.155.274.226.226,0,0,1-.06.008m-.374-1.2a.222.222,0,0,1-.211-.151l-.024-.07a.222.222,0,0,1,.139-.282.221.221,0,0,1,.072-.012.223.223,0,0,1,.211.151l.024.07a.222.222,0,0,1-.139.282.218.218,0,0,1-.071.012m-.438-1.181a.223.223,0,0,1-.207-.14l-.027-.067a.222.222,0,0,1,.122-.29.226.226,0,0,1,.084-.016.222.222,0,0,1,.206.139l.028.071a.222.222,0,0,1-.125.289.226.226,0,0,1-.082.016m-.5-1.154a.223.223,0,0,1-.2-.13l-.03-.065a.222.222,0,0,1,.107-.3.221.221,0,0,1,.095-.021.222.222,0,0,1,.2.128l.032.069a.222.222,0,0,1-.109.3.224.224,0,0,1-.093.02m-.56-1.126a.223.223,0,0,1-.2-.119l-.034-.063a.223.223,0,0,1,.091-.3.221.221,0,0,1,.1-.026.222.222,0,0,1,.2.117l.036.067a.222.222,0,0,1-.094.3.22.22,0,0,1-.1.025m-.619-1.095a.222.222,0,0,1-.19-.107l-.038-.063a.222.222,0,0,1,.075-.305.22.22,0,0,1,.115-.032.223.223,0,0,1,.191.107l.038.063a.223.223,0,0,1-.075.305.222.222,0,0,1-.115.032m-.677-1.06a.221.221,0,0,1-.184-.1l-.042-.061a.219.219,0,0,1-.038-.1h.482a.223.223,0,0,1-.094.222.222.222,0,0,1-.125.039" transform="translate(4501.595 3088.526)" fill="#d4d6dc"/>
      <path id="path122" d="M747.1-838.647a.338.338,0,0,1-.3-.18l-.053-.1a.338.338,0,0,1,.142-.457.337.337,0,0,1,.157-.039.338.338,0,0,1,.3.181l.052.1a.338.338,0,0,1-.14.457.34.34,0,0,1-.158.039m-.847-1.714a.339.339,0,0,1-.307-.2l-.047-.1a.338.338,0,0,1,.167-.448.336.336,0,0,1,.141-.031.338.338,0,0,1,.308.2l.047.1a.338.338,0,0,1-.166.449.337.337,0,0,1-.141.031m-.754-1.757a.338.338,0,0,1-.314-.213l-.041-.1a.338.338,0,0,1,.188-.439.336.336,0,0,1,.125-.024.339.339,0,0,1,.314.213l.042.105a.338.338,0,0,1-.189.439.338.338,0,0,1-.125.024m-.66-1.8a.339.339,0,0,1-.321-.23l-.036-.107a.338.338,0,0,1,.213-.428.342.342,0,0,1,.108-.018.338.338,0,0,1,.321.23l.036.107a.338.338,0,0,1-.212.428.341.341,0,0,1-.108.018m-.563-1.831a.338.338,0,0,1-.326-.247l-.031-.11a.338.338,0,0,1,.237-.415.335.335,0,0,1,.089-.012.34.34,0,0,1,.257.118.338.338,0,0,1,.069.131l.029.107a.357.357,0,0,1,.011.06.338.338,0,0,1-.246.357.336.336,0,0,1-.091.012m-.464-1.859a.338.338,0,0,1-.33-.265l-.024-.111a.338.338,0,0,1,.258-.4.341.341,0,0,1,.073-.008.338.338,0,0,1,.33.266l.024.109a.339.339,0,0,1-.257.4.354.354,0,0,1-.073.008m-.364-1.881a.338.338,0,0,1-.333-.283l-.018-.113a.338.338,0,0,1,.28-.388.353.353,0,0,1,.053,0,.339.339,0,0,1,.335.284l.018.11a.339.339,0,0,1-.279.389.34.34,0,0,1-.055,0m-.263-1.9a.338.338,0,0,1-.336-.3l-.013-.114a.338.338,0,0,1,.1-.282.337.337,0,0,1,.2-.09l.036,0a.336.336,0,0,1,.181.053.336.336,0,0,1,.156.25l.012.11a.338.338,0,0,1-.3.374l-.038,0m-.162-1.909a.338.338,0,0,1-.337-.318l-.007-.114a.339.339,0,0,1,.32-.356h.019a.338.338,0,0,1,.32.231.345.345,0,0,1,.017.09l.006.11a.339.339,0,0,1-.011.11.339.339,0,0,1-.306.248h-.02m-.06-1.915h0a.338.338,0,0,1-.338-.336v-.115a.338.338,0,0,1,.338-.338.338.338,0,0,1,.338.338v.111a.338.338,0,0,1-.336.34m.036-1.915h-.016a.339.339,0,0,1-.322-.354l.006-.114a.339.339,0,0,1,.337-.321h.017a.338.338,0,0,1,.321.354l-.005.112a.338.338,0,0,1-.337.323m.139-1.91-.034,0a.339.339,0,0,1-.3-.37l.012-.114a.338.338,0,0,1,.335-.3l.036,0a.338.338,0,0,1,.3.372l-.011.11a.338.338,0,0,1-.336.3m.239-1.9a.323.323,0,0,1-.052,0,.338.338,0,0,1-.283-.385l.018-.113a.339.339,0,0,1,.334-.285.322.322,0,0,1,.053,0,.338.338,0,0,1,.281.387l-.017.109a.338.338,0,0,1-.334.287m.34-1.885a.341.341,0,0,1-.069-.007.338.338,0,0,1-.262-.4l.024-.111a.338.338,0,0,1,.33-.269.329.329,0,0,1,.071.008.338.338,0,0,1,.261.4l-.023.109a.338.338,0,0,1-.331.269m.44-1.864a.344.344,0,0,1-.087-.011.338.338,0,0,1-.24-.414l.03-.111a.338.338,0,0,1,.326-.25.344.344,0,0,1,.089.012.338.338,0,0,1,.238.415l-.028.107a.338.338,0,0,1-.14.2.338.338,0,0,1-.131.052.336.336,0,0,1-.055,0m.539-1.838a.338.338,0,0,1-.1-.016.338.338,0,0,1-.218-.426l.035-.108a.338.338,0,0,1,.321-.233.337.337,0,0,1,.1.017.338.338,0,0,1,.217.426l-.035.107a.338.338,0,0,1-.322.234m.638-1.811a.339.339,0,0,1-.12-.022.338.338,0,0,1-.2-.436l.041-.107a.339.339,0,0,1,.315-.217.338.338,0,0,1,.122.023.338.338,0,0,1,.194.437l-.04.1a.339.339,0,0,1-.316.217m.735-1.773a.34.34,0,0,1-.137-.029.338.338,0,0,1-.172-.446l.047-.1a.338.338,0,0,1,.308-.2.338.338,0,0,1,.139.03.338.338,0,0,1,.169.447l-.046.1a.338.338,0,0,1-.309.2m.828-1.731a.338.338,0,0,1-.154-.037.338.338,0,0,1-.147-.455l.052-.1a.338.338,0,0,1,.3-.183.335.335,0,0,1,.155.038.338.338,0,0,1,.145.456l-.051.1a.338.338,0,0,1-.3.184m.919-1.684a.334.334,0,0,1-.169-.046.338.338,0,0,1-.123-.462l.057-.1a.338.338,0,0,1,.292-.167.336.336,0,0,1,.171.047.338.338,0,0,1,.121.463l-.056.1a.338.338,0,0,1-.293.169" transform="translate(4403.943 3087.502)" fill="#d4d6dc"/>
      <path id="path124" d="M782.567-839.237h-.637a.3.3,0,0,1,.132-.242.3.3,0,0,1,.165-.05.3.3,0,0,1,.247.132l.054.082a.3.3,0,0,1,.037.078m-1.184-1.036a.3.3,0,0,1-.256-.145l-.051-.086a.3.3,0,0,1,.1-.407.3.3,0,0,1,.151-.041.3.3,0,0,1,.256.146l.05.084a.3.3,0,0,1-.1.408.3.3,0,0,1-.152.042m-.824-1.466a.3.3,0,0,1-.263-.159l-.046-.087a.3.3,0,0,1,.125-.4.3.3,0,0,1,.138-.034.3.3,0,0,1,.264.159l.046.087a.3.3,0,0,1-.125.4.3.3,0,0,1-.138.034m-.744-1.508a.3.3,0,0,1-.27-.173l-.041-.089a.3.3,0,0,1,.145-.394.3.3,0,0,1,.125-.028.3.3,0,0,1,.27.173l.042.09a.3.3,0,0,1-.146.394.3.3,0,0,1-.124.027m-.663-1.544a.3.3,0,0,1-.276-.187l-.037-.094a.3.3,0,0,1,.168-.386.3.3,0,0,1,.109-.021.3.3,0,0,1,.277.188l.036.091a.3.3,0,0,1-.166.387.3.3,0,0,1-.11.021m-.581-1.581a.3.3,0,0,1-.282-.2l-.032-.094a.3.3,0,0,1,.187-.377.3.3,0,0,1,.095-.015.3.3,0,0,1,.282.2l.032.094a.3.3,0,0,1-.187.377.3.3,0,0,1-.095.016m-.5-1.61a.3.3,0,0,1-.286-.217l-.027-.1a.3.3,0,0,1,.208-.366.3.3,0,0,1,.08-.011.3.3,0,0,1,.286.219l.026.094a.3.3,0,0,1-.206.366.3.3,0,0,1-.08.011m-.408-1.634a.3.3,0,0,1-.29-.233l-.021-.1a.3.3,0,0,1,.226-.354.311.311,0,0,1,.065-.007.3.3,0,0,1,.29.233l.021.1a.3.3,0,0,1-.226.354.3.3,0,0,1-.064.007m-.32-1.653a.3.3,0,0,1-.293-.249l-.016-.1a.3.3,0,0,1,.245-.342.3.3,0,0,1,.05,0,.3.3,0,0,1,.292.249l.016.1a.3.3,0,0,1-.245.341.3.3,0,0,1-.048,0m-.232-1.668a.3.3,0,0,1-.3-.264l-.011-.1a.294.294,0,0,1,.005-.1.3.3,0,0,1,.258-.231l.032,0a.3.3,0,0,1,.075.01.3.3,0,0,1,.22.255l.011.1a.3.3,0,0,1-.262.329l-.034,0m-.143-1.678a.3.3,0,0,1-.3-.28l-.005-.095a.3.3,0,0,1,.28-.316H777a.3.3,0,0,1,.268.267v.009l.006.1a.3.3,0,0,1-.279.315h-.018m-.054-1.684a.3.3,0,0,1-.3-.3v-.1a.3.3,0,0,1,.3-.3h0a.3.3,0,0,1,.3.3v.1a.3.3,0,0,1-.3.3h0m.034-1.684h-.014a.3.3,0,0,1-.283-.311l0-.1a.3.3,0,0,1,.3-.283h.016a.3.3,0,0,1,.282.312l0,.1a.3.3,0,0,1-.3.283m.122-1.679-.03,0a.3.3,0,0,1-.266-.325l.01-.1a.3.3,0,0,1,.3-.268h.03a.3.3,0,0,1,.266.326l-.01.1a.3.3,0,0,1-.3.268m.211-1.671-.046,0a.3.3,0,0,1-.249-.339l.015-.1a.3.3,0,0,1,.294-.252.3.3,0,0,1,.044,0,.3.3,0,0,1,.249.339l-.015.1a.3.3,0,0,1-.293.252m.3-1.657a.3.3,0,0,1-.061-.006.3.3,0,0,1-.23-.352l.02-.1a.3.3,0,0,1,.291-.236.293.293,0,0,1,.061.006.3.3,0,0,1,.23.352l-.02.1a.3.3,0,0,1-.291.237m.387-1.639a.3.3,0,0,1-.076-.01.3.3,0,0,1-.212-.363l.026-.1a.3.3,0,0,1,.287-.22.3.3,0,0,1,.077.01.3.3,0,0,1,.21.364l-.025.094a.3.3,0,0,1-.287.222m.474-1.616a.3.3,0,0,1-.091-.015.3.3,0,0,1-.192-.374l.031-.1a.3.3,0,0,1,.282-.2.3.3,0,0,1,.093.015.3.3,0,0,1,.19.375l-.03.093a.3.3,0,0,1-.283.206m.561-1.592a.3.3,0,0,1-.107-.02.3.3,0,0,1-.171-.384l.036-.093a.3.3,0,0,1,.278-.19.3.3,0,0,1,.107.02.3.3,0,0,1,.17.385l-.036.093a.3.3,0,0,1-.278.191m.646-1.559a.3.3,0,0,1-.12-.026.3.3,0,0,1-.151-.392l.041-.092a.3.3,0,0,1,.271-.175.294.294,0,0,1,.122.027.3.3,0,0,1,.149.393l-.04.089a.3.3,0,0,1-.272.177m.728-1.522a.3.3,0,0,1-.135-.033.3.3,0,0,1-.129-.4l.046-.09a.3.3,0,0,1,.265-.161.3.3,0,0,1,.136.033.3.3,0,0,1,.127.4l-.045.087a.3.3,0,0,1-.265.162m.808-1.48a.3.3,0,0,1-.149-.04.3.3,0,0,1-.108-.406l.051-.087a.3.3,0,0,1,.257-.147.3.3,0,0,1,.15.041.3.3,0,0,1,.106.407l-.049.085a.3.3,0,0,1-.257.148m.886-1.435a.3.3,0,0,1-.163-.049.3.3,0,0,1-.086-.412l.055-.083a.3.3,0,0,1,.248-.134.3.3,0,0,1,.163.049.3.3,0,0,1,.085.412l-.054.082a.3.3,0,0,1-.249.134m.96-1.385a.3.3,0,0,1-.176-.058.3.3,0,0,1-.118-.192h.621a.283.283,0,0,1-.03.049l-.058.079a.3.3,0,0,1-.24.121" transform="translate(4374.339 3088.526)" fill="#d4d6dc"/>
      <path id="path126" d="M821.59-837.028a.25.25,0,0,1-.193-.09l-.053-.064a.251.251,0,0,1,.031-.354.25.25,0,0,1,.162-.059.25.25,0,0,1,.192.09l.054.064a.251.251,0,0,1-.031.354.249.249,0,0,1-.161.059m-.884-1.114a.252.252,0,0,1-.2-.1l-.05-.067a.251.251,0,0,1,.05-.352.249.249,0,0,1,.15-.051.252.252,0,0,1,.2.1l.05.067a.251.251,0,0,1-.05.351.249.249,0,0,1-.15.05m-.823-1.158a.251.251,0,0,1-.209-.111l-.046-.069a.251.251,0,0,1,.069-.348.249.249,0,0,1,.14-.043.251.251,0,0,1,.209.111l.047.07a.251.251,0,0,1-.069.348.25.25,0,0,1-.14.043m-.76-1.2a.252.252,0,0,1-.216-.122l-.043-.073a.251.251,0,0,1,.089-.344.248.248,0,0,1,.128-.035.251.251,0,0,1,.216.124l.042.071a.251.251,0,0,1-.087.344.251.251,0,0,1-.128.035m-.7-1.238a.251.251,0,0,1-.222-.133l-.039-.075a.251.251,0,0,1,.105-.339.249.249,0,0,1,.117-.029.252.252,0,0,1,.223.134l.038.073a.251.251,0,0,1-.1.34.25.25,0,0,1-.118.029m-.629-1.273a.251.251,0,0,1-.228-.146l-.035-.076a.251.251,0,0,1,.124-.333.248.248,0,0,1,.1-.023.252.252,0,0,1,.229.147l.034.075a.251.251,0,0,1-.123.333.252.252,0,0,1-.105.023m-.559-1.3a.251.251,0,0,1-.233-.158l-.031-.078a.251.251,0,0,1,.14-.326.247.247,0,0,1,.093-.018.251.251,0,0,1,.233.159l.031.078a.251.251,0,0,1-.14.326.248.248,0,0,1-.093.018m-.49-1.335a.251.251,0,0,1-.238-.172l-.027-.079a.251.251,0,0,1,.158-.318.251.251,0,0,1,.08-.013.251.251,0,0,1,.238.171l.026.08a.251.251,0,0,1-.158.318.257.257,0,0,1-.08.013m-.418-1.359a.251.251,0,0,1-.242-.184l-.023-.081a.251.251,0,0,1,.175-.309.25.25,0,0,1,.068-.01.251.251,0,0,1,.241.184l.022.081a.251.251,0,0,1-.175.309.254.254,0,0,1-.067.009m-.345-1.38a.251.251,0,0,1-.245-.2l-.018-.083a.251.251,0,0,1,.192-.3.254.254,0,0,1,.053-.005.251.251,0,0,1,.246.2l.018.081a.251.251,0,0,1-.191.3.256.256,0,0,1-.054.006m-.27-1.4a.251.251,0,0,1-.247-.21l-.012-.072a.256.256,0,0,1,.207-.294.265.265,0,0,1,.042,0,.245.245,0,0,1,.245.2l.013.082a.251.251,0,0,1-.206.289l-.042,0m-.2-1.409a.251.251,0,0,1-.249-.223l-.009-.083a.251.251,0,0,1,.222-.277h.027a.252.252,0,0,1,.25.223l.009.083a.251.251,0,0,1-.222.277l-.028,0m-.12-1.417a.251.251,0,0,1-.25-.236l0-.084a.251.251,0,0,1,.237-.264h.019a.252.252,0,0,1,.246.238l0,.083a.251.251,0,0,1-.236.265H815.4m-.044-1.422h0a.251.251,0,0,1-.251-.249v-.085a.251.251,0,0,1,.25-.252h0a.251.251,0,0,1,.251.25v.083a.251.251,0,0,1-.249.253m.026-1.422h-.012a.251.251,0,0,1-.239-.262l0-.084a.249.249,0,0,1,.247-.24h.016a.251.251,0,0,1,.239.263l0,.084a.251.251,0,0,1-.251.239m.1-1.418h-.025a.251.251,0,0,1-.225-.275l.008-.083a.251.251,0,0,1,.251-.226h.023a.251.251,0,0,1,.225.275l-.008.083a.251.251,0,0,1-.25.227m.178-1.411-.039,0a.251.251,0,0,1-.21-.287l.013-.083a.251.251,0,0,1,.248-.213.253.253,0,0,1,.039,0,.251.251,0,0,1,.21.286l-.013.083a.251.251,0,0,1-.248.213m.253-1.4a.245.245,0,0,1-.051-.005.251.251,0,0,1-.195-.3l.017-.083a.251.251,0,0,1,.246-.2.243.243,0,0,1,.052.006.251.251,0,0,1,.193.3l-.017.081a.252.252,0,0,1-.246.2m.327-1.384a.251.251,0,0,1-.064-.008.251.251,0,0,1-.179-.307l.018-.068a.261.261,0,0,1,.248-.193.24.24,0,0,1,.062.008.245.245,0,0,1,.18.3l-.021.08a.251.251,0,0,1-.242.187m.4-1.365a.244.244,0,0,1-.077-.012.251.251,0,0,1-.162-.316l.026-.08a.251.251,0,0,1,.239-.173.251.251,0,0,1,.077.012.251.251,0,0,1,.161.316l-.026.08a.251.251,0,0,1-.239.174m.474-1.345a.25.25,0,0,1-.09-.017.251.251,0,0,1-.144-.325l.03-.079a.252.252,0,0,1,.234-.161.25.25,0,0,1,.09.017.251.251,0,0,1,.144.325l-.03.078a.251.251,0,0,1-.234.161m.546-1.317a.251.251,0,0,1-.1-.022.251.251,0,0,1-.127-.331l.035-.078a.251.251,0,0,1,.229-.147.252.252,0,0,1,.1.022.251.251,0,0,1,.125.333l-.034.075a.251.251,0,0,1-.23.149m.615-1.285a.25.25,0,0,1-.114-.028.251.251,0,0,1-.109-.338l.039-.075a.251.251,0,0,1,.224-.136.25.25,0,0,1,.115.028.251.251,0,0,1,.108.338l-.038.074a.251.251,0,0,1-.224.137m.683-1.25a.253.253,0,0,1-.126-.034.251.251,0,0,1-.091-.343l.043-.074a.251.251,0,0,1,.217-.124.25.25,0,0,1,.127.034.251.251,0,0,1,.09.344l-.042.071a.251.251,0,0,1-.218.125m.748-1.212a.25.25,0,0,1-.137-.041.251.251,0,0,1-.073-.348l.047-.071a.252.252,0,0,1,.21-.112.25.25,0,0,1,.139.042.251.251,0,0,1,.07.348l-.045.069a.251.251,0,0,1-.21.114m.811-1.17a.25.25,0,0,1-.148-.048.251.251,0,0,1-.054-.351l.05-.068a.251.251,0,0,1,.2-.1.249.249,0,0,1,.149.05.251.251,0,0,1,.052.351l-.049.067a.251.251,0,0,1-.2.1m.872-1.125a.25.25,0,0,1-.159-.057.251.251,0,0,1-.035-.353l.053-.065a.251.251,0,0,1,.194-.092.25.25,0,0,1,.159.057.251.251,0,0,1,.034.353l-.053.064a.251.251,0,0,1-.195.092m.93-1.077a.249.249,0,0,1-.169-.065.251.251,0,0,1-.017-.355l.057-.062a.251.251,0,0,1,.185-.082.25.25,0,0,1,.169.066.251.251,0,0,1,.016.355l-.056.061a.25.25,0,0,1-.186.082" transform="translate(4340.833 3086.184)" fill="#d4d6dc"/>
      <path id="path128" d="M618.891-841.9h1.046V-875.47h-1.046Z" transform="translate(4511.681 3088.526)" fill="#d4d4d4"/>
      <path id="path130" d="M620.388-613.1h-1.5v-2.66h1.5v2.66" transform="translate(4511.681 2862.388)" fill="#707070"/>
      <path id="path132" d="M948-841.9h1.046V-875.47H948Z" transform="translate(4225.116 3088.526)" fill="#d4d4d4"/>
      <path id="path134" d="M946-613.1h-1.5v-2.66H946v2.66" transform="translate(4228.157 2862.388)" fill="#707070"/>
      <path id="path136" d="M666.081-944H623.746v-51.786h42.334V-944" transform="translate(4507.452 3193.291)" fill="#d4d4d4"/>
      <path id="path138" d="M728.923-731.637H708.5v-16.288h20.422v16.288" transform="translate(4433.654 2977.469)" fill="#ced1d6"/>
      <path id="path140" d="M733.828-727.725H715.117v-14.924h18.711v14.924" transform="translate(4427.894 2972.875)" fill="#fff"/>
      <path id="path142" d="M785.259-731h-.778v-16.066h.778V-731" transform="translate(4367.497 2976.721)" fill="#ced1d6"/>
      <path id="path144" d="M722.648-632.892h-22.61v-2.139h22.61v2.139" transform="translate(4441.023 2879.168)" fill="#707070"/>
      <path id="path146" d="M724.583-748.782H702.648v-1.479h21.935v1.479" transform="translate(4438.751 2979.503)" fill="#707070"/>
      <path id="path148" d="M673.484-830.252h-5.942v-8.3h5.942v8.3" transform="translate(4469.318 3056.378)" fill="#ced1d6"/>
      <path id="path150" d="M675.188-828.5H669.84v-7.687h5.348v7.687" transform="translate(4467.318 3054.325)" fill="#fff"/>
      <path id="path152" d="M689.583-830.252h-.329v-8.3h.329v8.3" transform="translate(4450.413 3056.378)" fill="#ced1d6"/>
      <path id="path154" d="M667.542-807.311v-.3h5.938v.3h-5.938" transform="translate(4469.318 3029.436)" fill="#ced1d6"/>
      <path id="path156" d="M738.128-830.252h-5.942v-8.3h5.942v8.3" transform="translate(4413.031 3056.378)" fill="#ced1d6"/>
      <path id="path158" d="M739.83-828.5h-5.348v-7.687h5.348v7.687" transform="translate(4411.031 3054.325)" fill="#fff"/>
      <path id="path160" d="M754.225-830.252H753.9v-8.3h.329v8.3" transform="translate(4394.127 3056.378)" fill="#ced1d6"/>
      <path id="path162" d="M732.186-807.311v-.3h5.938v.3h-5.938" transform="translate(4413.031 3029.436)" fill="#ced1d6"/>
      <path id="path164" d="M802.771-830.252h-5.942v-8.3h5.942v8.3" transform="translate(4356.745 3056.378)" fill="#ced1d6"/>
      <path id="path166" d="M804.474-828.5h-5.348v-7.687h5.348v7.687" transform="translate(4354.745 3054.325)" fill="#fff"/>
      <path id="path168" d="M818.869-830.252h-.329v-8.3h.329v8.3" transform="translate(4337.839 3056.378)" fill="#ced1d6"/>
      <path id="path170" d="M796.829-807.311v-.3h5.938v.3h-5.938" transform="translate(4356.745 3029.436)" fill="#ced1d6"/>
      <path id="path172" d="M867.414-830.252h-5.942v-8.3h5.942v8.3" transform="translate(4300.457 3056.378)" fill="#ced1d6"/>
      <path id="path174" d="M869.118-828.5H863.77v-7.687h5.348v7.687" transform="translate(4298.457 3054.325)" fill="#fff"/>
      <path id="path176" d="M883.513-830.252h-.329v-8.3h.329v8.3" transform="translate(4281.552 3056.378)" fill="#ced1d6"/>
      <path id="path178" d="M861.473-807.311v-.3h5.938v.3h-5.938" transform="translate(4300.457 3029.436)" fill="#ced1d6"/>
      <path id="path180" d="M666.081-617.978H623.746v-3.384h42.334v3.384" transform="translate(4507.452 2867.267)" fill="#707070"/>
      <path id="path182" d="M662.054-997.737H618.316v-3.455h43.738v3.455" transform="translate(4512.181 3197.996)" fill="#707070"/>
      <path id="path184" d="M747.535-956.249a6.966,6.966,0,0,1-6.966,6.966,6.966,6.966,0,0,1-6.966-6.966,6.966,6.966,0,0,1,6.966-6.966,6.966,6.966,0,0,1,6.966,6.966" transform="translate(4411.796 3164.928)" fill="#fff"/>
      <path id="path186" d="M777.8-937.188h-2.884a.212.212,0,0,1-.211-.211v-9.292a.212.212,0,0,1,.211-.211H777.8a.212.212,0,0,1,.211.211v9.292a.212.212,0,0,1-.211.211" transform="translate(4376.01 3150.725)" fill="#4fbdcc"/>
      <path id="path188" d="M749.916-919.021V-921.9a.212.212,0,0,1,.211-.211h9.293a.212.212,0,0,1,.211.211v2.884a.211.211,0,0,1-.211.211h-9.293a.211.211,0,0,1-.211-.211" transform="translate(4397.594 3129.142)" fill="#4fbdcc"/>
      <path id="path378" d="M397.3-519.706h-2.35a.382.382,0,0,1-.381-.381v-.7a.382.382,0,0,1,.381-.381h2.35a.382.382,0,0,1,.381.381v.7a.382.382,0,0,1-.381.381" transform="translate(4707 2780.026)" fill="#dbdde1"/>
    </g>
    <g id="Group_4621" data-name="Group 4621" transform="translate(4829.198 2317.53)">
      <path id="Path_8" data-name="Path 8" d="M0,0S-29.218,0-29.218,29.218V75.967s0,29.218,29.218,29.218H46.749s29.218,0,29.218-29.218V29.218S75.967,0,46.749,0Z" fill="none" stroke="#062545" stroke-width="1"/>
    </g>
    <text id="Logo_here" data-name="Logo here" transform="translate(4825.311 2402.807)" fill="#707070" font-size="12" font-family="SegoeUI, Segoe UI"><tspan x="0" y="0">Logo here</tspan></text>
  </g>
</svg>
