<svg id="Group_8518" data-name="Group 8518" xmlns="http://www.w3.org/2000/svg" width="70" height="70" viewBox="0 0 70 70">
  <g id="Group_8509" data-name="Group 8509">
    <rect id="Rectangle_2514" data-name="Rectangle 2514" width="70" height="70" fill="#fff"/>
  </g>
  <g id="Group_8510" data-name="Group 8510" transform="translate(9.307 10)">
    <path id="Path_57937" data-name="Path 57937" d="M171.947-711.564c.272.16.744.432,1.043.6a18.03,18.03,0,0,1,1.561,1.135c1.076.863,1.222.983,3.009,2.382.618.488,1.335,1.1,1.594,1.343s.757.727,1.116,1.071a10.485,10.485,0,0,1,.883.959,7.366,7.366,0,0,1,.8,1.863.83.83,0,0,0,.126.376c.232.48.292,1.319.279,3.606l-.013,2-.492,1.2-.492,1.2-.053,2.119c-.027,1.167-.08,2.406-.113,2.758-.093.855-.624,3.893-.917,5.236a34.362,34.362,0,0,0-.963,9.114c-.013,2.278-.007,2.542.1,2.79a9.636,9.636,0,0,0,.864,1.207c.405.512.87,1.127,1.03,1.367a15.27,15.27,0,0,0,1.8,1.943,2.25,2.25,0,0,0,.472.28,2.518,2.518,0,0,1,.644.52,1.615,1.615,0,0,0,1.083.607c.2,0,.4.152.79.608a2.535,2.535,0,0,0,.631.512c.385.2.432.264.432.648a.652.652,0,0,1-.179.488,1.214,1.214,0,0,1-.85.464c-.186,0-.232.032-.232.152,0,.176-.359.568-.518.568-.06,0-.166.112-.226.24-.173.36-.379.448-.8.32-.345-.1-.359-.1-.531.112-.193.232-.312.248-.751.12a.48.48,0,0,0-.558.08,1.2,1.2,0,0,1-1.428-.144,1.687,1.687,0,0,0-.5-.288c-.306-.12-.412-.128-.591-.056a1.755,1.755,0,0,1-1.216-.032,3.28,3.28,0,0,1-1.03-1.135,6.421,6.421,0,0,0-1.574-1.687c-.146-.08-.492-.248-.764-.368a2.3,2.3,0,0,1-1.262-1.383,7.477,7.477,0,0,1,.226-2.414,12.716,12.716,0,0,0,.106-3.71,13.7,13.7,0,0,1,0-2.159c.04-.312.1-.967.139-1.447s.113-1.183.166-1.559.126-1.055.159-1.519a20.837,20.837,0,0,0-.83-5.788,30.937,30.937,0,0,1-.538-4.565,13.334,13.334,0,0,1,.678-4.869c.425-1.2.425-1.223.12-1.375a5.476,5.476,0,0,1-1.634-1.3c-1.269-1.239-1.236-1.215-1.694-1.215a3.857,3.857,0,0,1-2.278-.912,10.422,10.422,0,0,1-2.259-3.35c0-.216.12-.16.232.112a13.816,13.816,0,0,0,1.754,2.614,3.554,3.554,0,0,0,2.7,1.3,8.387,8.387,0,0,1,1.242.2,5.052,5.052,0,0,1,1.873,1.055c.418.4.445.36.166-.312-.146-.352-.159-.464-.04-.464.213,0,.6,1.351.538,1.879a14.725,14.725,0,0,1-.624,2.167,10.828,10.828,0,0,0-.5,2.622,10.872,10.872,0,0,0-.027,2.206,25.173,25.173,0,0,0,.472,3.957c.352,1.591.651,3.11.771,3.877a12.031,12.031,0,0,1-.007,3.278c-.06.376-.139,1.071-.179,1.559s-.106,1.247-.159,1.695a11.358,11.358,0,0,0-.027,2.318c.04.823.08,1.935.093,2.455s.04,1.071.06,1.207a.846.846,0,0,0,.638.7c.272.032.3.152.047.256s-.485-.064-.737-.5l-.206-.344-.086.384a6.914,6.914,0,0,0-.139,1.879,2.017,2.017,0,0,0,.292.584c.2.3.339.4.95.688a5.012,5.012,0,0,1,2.318,2.11c.545.887.977,1.2,1.541,1.127a3.172,3.172,0,0,0,.95-.2c-.12-.016-.1-.248.027-.248a1.727,1.727,0,0,1,.512.448,3.175,3.175,0,0,0,.565.52.918.918,0,0,0,.883-.08l.153-.152-.159-.272c-.159-.288-.352-.328-.425-.088-.06.176.013.264.233.264.106,0,.193.032.193.08,0,.128-.379.1-.492-.048a.408.408,0,0,1-.106-.2.785.785,0,0,1,.339-.408c.146-.056-.1-.432-.392-.616s-.445-.368-.352-.44c.12-.088.85.488.937.752.046.128.166.392.266.591.153.28.232.36.438.4.146.032.319.08.4.1.153.048.359-.144.359-.336,0-.08-.06-.1-.219-.08a.463.463,0,0,1-.418-.8c.2-.152.159-.352-.073-.352-.086,0-.14-.032-.12-.08.053-.1-.007-.1-.173,0-.086.064-.126.056-.126-.008,0-.048.06-.1.133-.128.133-.04.186-.184.073-.184a.9.9,0,0,1-.272-.208c-.332-.344-.139-.408.272-.088a1.691,1.691,0,0,1,.717.935c.246.624.458.911.757,1.015s.6.032.671-.184c.027-.08-.027-.112-.213-.112-.286,0-.365-.056-.472-.3-.12-.272-.086-.424.12-.559.173-.12.186-.16.126-.36s-.086-.224-.312-.176c-.252.056-.232-.08.027-.152.1-.024.086-.04-.053-.048a.775.775,0,0,0-.319.072c-.08.056-.126.056-.126.008s.06-.1.133-.128c.186-.072.166-.168-.066-.336-.2-.136-.272-.344-.12-.344a2.1,2.1,0,0,1,.492.328,1.289,1.289,0,0,1,.591.879,4.113,4.113,0,0,0,.3.727c.12.176.126.176.359.04.133-.072.239-.168.239-.216s-.046-.048-.126.016c-.1.072-.159.064-.3-.04a.327.327,0,0,1-.027-.552c.126-.1.139-.152.08-.392-.053-.216-.1-.264-.213-.256-.193.032-.186-.112,0-.16.086-.016.02-.04-.146-.048-.292-.016-.292-.016-.14-.12l.166-.112-.345-.256c-.345-.256-.432-.4-.246-.4a2.373,2.373,0,0,1,.844.624,1.641,1.641,0,0,1,.286.624c.159.672.5.839,1.03.512a.7.7,0,0,0,.4-.632c0-.208-.292-.232-.618-.04a.431.431,0,0,1-.419.056c-.252-.1-.279-.336-.06-.648l.166-.24-.179-.176a.342.342,0,0,0-.332-.12c-.086.024-.153.008-.153-.04a.081.081,0,0,1,.08-.08c.04,0,.053-.024.033-.048s-.12.008-.213.08c-.166.128-.232.08-.093-.088.047-.056,0-.1-.179-.144a1.687,1.687,0,0,1-.957-.648,2.345,2.345,0,0,0-.591-.472,2.288,2.288,0,0,1-.492-.3,14.352,14.352,0,0,1-1.913-2.11c-.89-1.263-.917-1.3-1.056-1.255-.1.032-.146-.016-.2-.176a2.651,2.651,0,0,0-.259-.512,4.351,4.351,0,0,1-.306-.56,3.231,3.231,0,0,1-.159-1.407,19.4,19.4,0,0,0,.06-2.119,33.646,33.646,0,0,1,1-8.794c.206-.943.578-3.022.757-4.237a21.691,21.691,0,0,0,.239-3.6c0-.855.02-1.687.04-1.839a12.992,12.992,0,0,1,.512-1.439l.478-1.159.013-1.879c.013-2.422-.06-3.158-.352-3.686a1.026,1.026,0,0,1-.186-.5,1.341,1.341,0,0,0-.106-.488,4.392,4.392,0,0,0-1.348-1.943c-.4-.392-.883-.855-1.069-1.039s-.87-.759-1.521-1.279-1.873-1.487-2.71-2.158a23.48,23.48,0,0,0-2.006-1.487c-.266-.152-.724-.408-1.03-.584a1.547,1.547,0,0,1-.545-.408C171.283-711.916,171.4-711.876,171.947-711.564Zm.066,13.167c.12.128,1.322,1.287,1.621,1.559a5.629,5.629,0,0,0,1.069.647,1.73,1.73,0,0,0,.033-.488c0-.448-.013-.48-.133-.432-.093.04-.219-.04-.452-.272a4.58,4.58,0,0,0-1.674-.975C171.934-698.533,171.894-698.533,172.014-698.4Zm13.89,33.673c-.153.232-.093.432.113.432.133,0,.545-.176.545-.24a1.758,1.758,0,0,0-.478-.392C186.056-664.932,185.977-664.836,185.9-664.724Zm-.6,1.271a.169.169,0,0,0,0,.24c.173.256.4.08.252-.2C185.452-663.6,185.405-663.613,185.3-663.453Zm-.864.28c-.073.056-.08.12-.027.3s.113.232.279.248c.246.032.246.032.1-.344C184.675-663.261,184.6-663.3,184.435-663.173Zm-1.269.24c-.159.1-.159.2.007.4.14.168.465.224.465.08a1.554,1.554,0,0,0-.319-.56A1.161,1.161,0,0,0,183.167-662.933Z" transform="translate(-149.498 711.91)" fill="#020102" fill-rule="evenodd"/>
    <path id="Path_57938" data-name="Path 57938" d="M252.384-607.805c-.512.292-.883.578-.883.671,0,.133.159.126.272-.007a3.673,3.673,0,0,1,.6-.405,1.964,1.964,0,0,0,.518-.359C252.9-608.011,252.669-607.964,252.384-607.805Z" transform="translate(-229.86 614.925)" fill="#020102" fill-rule="evenodd"/>
    <path id="Path_57939" data-name="Path 57939" d="M283.83-551.963a1.067,1.067,0,0,1,.066.352,16.786,16.786,0,0,0,.458,2.179,2.314,2.314,0,0,0,.445.385,2.037,2.037,0,0,1,.89,1.541c.159.8.153.751.04.751-.066,0-.133-.159-.206-.518-.219-1.076-.272-1.169-.87-1.614a2.294,2.294,0,0,1-.458-.419,12.469,12.469,0,0,1-.525-2.385C283.624-552.156,283.7-552.3,283.83-551.963Z" transform="translate(-256.385 562.789)" fill="#020102" fill-rule="evenodd"/>
    <path id="Path_57942" data-name="Path 57942" d="M288.9-208.855c-.047.08.146.08.332,0,.113-.046.1-.06-.08-.06C289.041-208.921,288.921-208.894,288.9-208.855Z" transform="translate(-264.346 249.202)" fill="#020102" fill-rule="evenodd"/>
    <path id="Path_57943" data-name="Path 57943" d="M287.5-203.685c0,.04.1.073.219.073a1.509,1.509,0,0,1,.538.159c.332.166.392.08.066-.1C288.085-203.692,287.5-203.785,287.5-203.685Z" transform="translate(-263.002 246.071)" fill="#020102" fill-rule="evenodd"/>
    <path id="Path_57944" data-name="Path 57944" d="M319.376-160.734c-.113.146-.179.266-.139.266s.133-.093.219-.2a.381.381,0,0,1,.359-.2.405.405,0,0,0,.259-.066c.027-.04-.066-.066-.226-.066C319.622-161,319.555-160.967,319.376-160.734Z" transform="translate(-292.201 206.182)" fill="#020102" fill-rule="evenodd"/>
    <path id="Path_57946" data-name="Path 57946" d="M247.685-100.9c.139.106.213.086.139-.027a.189.189,0,0,0-.153-.073C247.572-100.993,247.572-100.987,247.685-100.9Z" transform="translate(-226.37 150.168)" fill="#020102" fill-rule="evenodd"/>
    <path id="Path_57947" data-name="Path 57947" d="M246.914-98.9c.046.06.1.086.113.073.047-.047-.046-.173-.126-.173C246.861-99,246.861-98.96,246.914-98.9Z" transform="translate(-225.709 148.301)" fill="#020102" fill-rule="evenodd"/>
    <rect id="Rectangle_4121" data-name="Rectangle 4121" width="52" height="50.528" transform="translate(0)" fill="none"/>
    <g id="Group_8508" data-name="Group 8508" transform="translate(15.886 18.245)">
      <path id="Path_57940" data-name="Path 57940" d="M270.666-461.618a.386.386,0,0,0,0,.213c.1.266-.173.585-.857.99-.1.06-.106.12-.047.465.04.219.093.618.113.877.06.591.106.6.7.2.79-.531,1.01-.99.8-1.641a3.494,3.494,0,0,0-.565-1.123C270.726-461.711,270.7-461.711,270.666-461.618Z" transform="translate(-259.638 461.691)" fill="#020102" fill-rule="evenodd"/>
      <path id="Path_57941" data-name="Path 57941" d="M134.5-457.689c0,.053.086.452.2.883a7.417,7.417,0,0,0,1.03,2.338c.352.5.5.452.5-.159,0-.159.027-.292.06-.292a1.879,1.879,0,0,1,.365.14,10.761,10.761,0,0,0,4.2.518c1.289-.066,1.182.033,1.129-1.043a9.2,9.2,0,0,0-.066-.93,4.053,4.053,0,0,0-.651.06,15.678,15.678,0,0,1-4.584-.206l-.259-.073.04-.352.047-.352-.326-.047a8.382,8.382,0,0,1-1.561-.538C134.533-457.775,134.5-457.762,134.5-457.689Z" transform="translate(-134.5 458.098)" fill="#020102" fill-rule="evenodd"/>
    </g>
  </g>
</svg>
