<svg xmlns="http://www.w3.org/2000/svg" xmlns:xlink="http://www.w3.org/1999/xlink" width="70" height="70" viewBox="0 0 70 70">
  <defs>
    <clipPath id="clip-path">
      <rect id="Rectangle_4326" data-name="Rectangle 4326" width="15" height="31" transform="translate(0 0.415)" fill="#fff" stroke="#fff" stroke-width="0.1"/>
    </clipPath>
    <clipPath id="clip-path-2">
      <rect id="Rectangle_4327" data-name="Rectangle 4327" width="15.916" height="11.184" fill="#fff"/>
    </clipPath>
  </defs>
  <g id="Group_8513" data-name="Group 8513" transform="translate(1822 -3352)">
    <g id="Group_8509" data-name="Group 8509" transform="translate(152 175)">
      <rect id="Rectangle_2514" data-name="Rectangle 2514" width="70" height="70" transform="translate(-1974 3177)" fill="#fff"/>
    </g>
    <g id="Group_8512" data-name="Group 8512" transform="translate(-149 -73)">
      <g id="Mask_Group_24" data-name="Mask Group 24" transform="translate(-1651 3449.585)" clip-path="url(#clip-path)">
        <g id="Group_7679" data-name="Group 7679" transform="translate(1.338 -11.74)">
          <g id="Group_7678" data-name="Group 7678" transform="translate(0)">
            <path id="Path_57905" data-name="Path 57905" d="M164.812-723.163a7.828,7.828,0,0,0,.914.534,3.349,3.349,0,0,1,1.6,1.581,2.245,2.245,0,0,1,.213,1.314c.007.654-.02.907-.087.987-.073.1-.06.16.127.447l.22.34-.04,1.014a9.19,9.19,0,0,1-.107,1.267c-.047.2-.04.26.033.294a.134.134,0,0,1,.093.113,1.714,1.714,0,0,0,.16.374,5.046,5.046,0,0,1,.507,2.6,11.143,11.143,0,0,0,.187,1.968c.22.947.48,2.281.587,2.935a7.242,7.242,0,0,1-.073,2.6c-.087.554-.193,1.327-.233,1.734s-.133,1.094-.207,1.534-.16,1.1-.193,1.468-.147,1.254-.26,1.968a16.2,16.2,0,0,0,.18,7.471,4.417,4.417,0,0,1,.18,1.434,3.255,3.255,0,0,0,.1,1.034,1.752,1.752,0,0,1,.093.6,1.757,1.757,0,0,1-.273,1.014,3.289,3.289,0,0,1-1.541,1.621c-1.221.72-1.254.754-1.514,1.568a3.852,3.852,0,0,1-.273.647,1.212,1.212,0,0,0-.16.467,1.426,1.426,0,0,1-.127.454,1.676,1.676,0,0,1-1.4,1.047c-.307.013-.367.04-.447.193a1.8,1.8,0,0,1-.794.667,2.342,2.342,0,0,1-2-.207,1.137,1.137,0,0,0-.334-.2.859.859,0,0,1-.36-.253.409.409,0,0,0-.253-.167,1.088,1.088,0,0,1-.42-.267c-.594-.594-.8-.841-.8-.974a.268.268,0,0,0-.133-.207,1,1,0,0,1-.36-.66,1.209,1.209,0,0,1,.6-1.074,3.015,3.015,0,0,0,1.021-1.287,2.306,2.306,0,0,1,.774-.981,8.069,8.069,0,0,0,1.921-2.335,5.646,5.646,0,0,1,.54-.787c.3-.354.38-.6.253-.8a2.126,2.126,0,0,1,.04-.7,20.88,20.88,0,0,0-.273-6.05c-.093-.313-.233-.9-.314-1.3a6.2,6.2,0,0,0-.787-2.028,4.058,4.058,0,0,1-.314-.64c-.067-.187-.187-.514-.273-.734a5.725,5.725,0,0,1-.227-1c-.047-.333-.107-.78-.14-1a24.492,24.492,0,0,1,.047-4.956c.027-.133.038,0-.027-.14-.18,0,.027-.033.027-.067s.068-.406.121-.826.1-.817.119-1.07v-.579h0l-.047-.454a2.917,2.917,0,0,0-.454-1.234,8.478,8.478,0,0,0-1.694-2.308,12.512,12.512,0,0,1-1.894-2.508,4.267,4.267,0,0,1-.287-.867c-.273-1.361-.294-1.641-.14-1.768s.233-.02.233.293a8.342,8.342,0,0,0,.207,1.441,3.9,3.9,0,0,0,.267.767,12.527,12.527,0,0,0,1.888,2.5,7.725,7.725,0,0,1,1.654,2.235,9.131,9.131,0,0,0,.834,1.3c.193.22.334.44.313.494a1.975,1.975,0,0,1-.594.107c.173-.033,0,.007,0,.447a10.557,10.557,0,0,1-.207,1.858c-.053.193.38.15,0,.17v.067l-.08.88a18.481,18.481,0,0,0-.087,3.422c.04.287.133.947.207,1.461a7.829,7.829,0,0,0,1.007,2.935,5.376,5.376,0,0,1,.627,1.741c.087.44.233,1.054.32,1.367a18.512,18.512,0,0,1,.36,4.523c-.027.754-.073,1.521-.113,1.7-.067.333.013.707.16.707a1.368,1.368,0,0,0,.327-.307c.547-.62,1.114-.967,1.114-.667a2.074,2.074,0,0,1-.44.434,2.837,2.837,0,0,0-.574.587c-.073.12-.173.22-.227.22-.093,0-.334.2-.767.634a5.576,5.576,0,0,0-.52.794,9.185,9.185,0,0,1-1.828,2.221,3.129,3.129,0,0,0-.84,1.061,3.51,3.51,0,0,1-1.1,1.321c-.227.187-.307.293-.287.38a.167.167,0,0,1-.073.187c-.08.047-.093.1-.04.28.08.287.227.334.227.073a1.145,1.145,0,0,1,.614-.787,1.157,1.157,0,0,0,.367-.4c.127-.26.307-.28.34-.033.02.127-.087.267-.514.667l-.54.507v.414c0,.294.033.44.113.527.107.1.113.1.153-.013.033-.08,0-.16-.093-.233-.167-.133-.087-.253.087-.147.113.073.133.053.167-.133a1.309,1.309,0,0,1,.407-.58,1.918,1.918,0,0,0,.367-.44.241.241,0,0,1,.093-.153c.067-.06.107-.053.173.027.113.14.033.3-.38.767a1.8,1.8,0,0,0-.507,1.287c.06.294.487.527.487.26,0-.06-.107-.187-.233-.273s-.233-.18-.233-.214c0-.1.213-.067.34.047s.12.093.16-.08c.027-.107.067-.254.093-.327a6.488,6.488,0,0,1,1.1-1.2c.04,0,.08.067.093.147.013.1-.113.28-.44.634l-.467.487-.067.567c-.06.474-.053.58.027.667s.093.08.093-.047c0-.093.127-.253.34-.434a2.3,2.3,0,0,0,.5-.607,1.776,1.776,0,0,1,.827-.747.687.687,0,0,0,.26-.273c.153-.253.294-.273.327-.047.027.193-.28.534-.66.72a1.055,1.055,0,0,0-.534.574,1.575,1.575,0,0,1-.474.574.931.931,0,0,0-.294.3c-.127.407.974.8,1.641.587.153-.047.147-.053-.073-.06-.307-.007-1-.22-.84-.26.12-.027.12-.027,0-.12a.618.618,0,0,0-.307-.093c-.113,0-.18-.033-.18-.1,0-.133.354-.133.567.007a.621.621,0,0,0,.347.08c.253-.027.28-.24.053-.454-.193-.18-.213-.267-.067-.267.3,0,.56.58.354.787-.06.06-.053.08.04.08.12,0,.374-.234.747-.707.12-.14.233-.24.253-.22.08.073-.22.814-.407,1.007-.1.1-.153.187-.127.187.133,0,.467-.333.64-.64.213-.387.494-.64.64-.58.127.047.12.147-.027.307-.107.127-.107.127.053.08a1.391,1.391,0,0,0,1.141-1.167,3.089,3.089,0,0,1,.233-.674,5.818,5.818,0,0,0,.294-.747,4.646,4.646,0,0,1,.947-1.541c.173-.12.34-.06.3.107-.033.12-.027.12.173-.007.12-.073.327-.2.474-.273a2.907,2.907,0,0,0,1.121-1.321,1.677,1.677,0,0,0,.187-1.314c-.06-.133-.06-.133-.1.013-.053.167-.173.233-.3.153-.093-.053-.087-.087.127-.667a3.212,3.212,0,0,0-.02-1.941,18.218,18.218,0,0,1-.474-2.288,26.721,26.721,0,0,1,.267-5.51c.127-.787.273-1.828.327-2.3.14-1.214.347-2.735.554-4.082a9.3,9.3,0,0,0-.107-3.822,16.24,16.24,0,0,1-.607-4.162,3.764,3.764,0,0,0-.173-1.454,4.445,4.445,0,0,0-.26-.674c-.08-.113-.087-.107-.127.033a8.267,8.267,0,0,0-.04.967v.807l-.24.327c-.14.174-.36.44-.494.594a1.988,1.988,0,0,0-.54.994c-.147.44-.273.58-.407.447-.04-.04-.007-.22.107-.54a2.875,2.875,0,0,1,.78-1.314,2.9,2.9,0,0,0,.46-.6,6.492,6.492,0,0,0,.067-1.181,10.584,10.584,0,0,1,.093-1.521,12.51,12.51,0,0,0,.147-1.281l.047-.78-.233-.38c-.133-.214-.327-.567-.44-.787s-.3-.534-.407-.7c-.247-.36-.26-.487-.06-.454.107.013.24.173.454.534a3.211,3.211,0,0,0,.347.52,4.158,4.158,0,0,0-.02-1.414,2.648,2.648,0,0,0-.627-1.221,2.886,2.886,0,0,0-1.014-.714c-.787-.414-1.274-.78-1.194-.907S164.526-723.383,164.812-723.163Zm-3.8,11.78c.053.234.06.234.233.207l.147-.02-.147-.187C161.057-711.617,160.95-711.617,161.01-711.383Z" transform="translate(-156.112 723.361)" fill="#020102" fill-rule="evenodd"/>
          </g>
          <path id="Path_57906" data-name="Path 57906" d="M193.232-712.3a2.2,2.2,0,0,0,.567.273,2.2,2.2,0,0,1,1.468.847c.18.253.2.34.227.9l.02.614-.34-.6a3.057,3.057,0,0,0-1.267-1.367c-.474-.327-1.1-.867-.994-.867A3.25,3.25,0,0,1,193.232-712.3Z" transform="translate(-184.772 713.224)" fill="#020102" fill-rule="evenodd"/>
          <path id="Path_57907" data-name="Path 57907" d="M189.753-634.934a9.7,9.7,0,0,1-.193,1.688,9.918,9.918,0,0,0-.087,1.367c-.027,1.241-.087,1.434-.627,2.035a2.272,2.272,0,0,0-.62.974.436.436,0,0,1-.073.227c-.147.214.013-1.147.187-1.568a11.511,11.511,0,0,0,.58-1.714,9.871,9.871,0,0,1,.3-.967,5.436,5.436,0,0,0,.407-1.621C189.727-635.127,189.747-635.214,189.753-634.934Z" transform="translate(-178.691 640.975)" fill="#817a9f" fill-rule="evenodd"/>
          <path id="Path_57909" data-name="Path 57909" d="M231.327-603.309a13.116,13.116,0,0,0,.514,1.681,4.808,4.808,0,0,0,.627.7c.514.487.654.74.407.74a5.529,5.529,0,0,1-1.307-1.314,6.769,6.769,0,0,1-.534-2.028C231.121-603.676,231.261-603.569,231.327-603.309Z" transform="translate(-224.795 611.584)" fill="#020102" fill-rule="evenodd"/>
          <path id="Path_57910" data-name="Path 57910" d="M169.408-571.881c.013.053.027.667.027,1.367a6.685,6.685,0,0,0,.12,1.668,20.055,20.055,0,0,1,.527,2.8,11.86,11.86,0,0,1,0,3.269c-.073.44-.167,1.161-.207,1.594s-.133,1.1-.207,1.467-.22,1.281-.327,2.015-.267,1.581-.347,1.868a5.873,5.873,0,0,0-.153,1.928,5.576,5.576,0,0,0,.193,2.068,8.494,8.494,0,0,1,.24,1.334,2.666,2.666,0,0,0,.28,1.167c.434.92.434.954.2,1.6l-.107.293-.113-.46a6.294,6.294,0,0,0-.287-.867,6.541,6.541,0,0,1-.38-1.668c-.04-.26-.173-.874-.294-1.367a12.947,12.947,0,0,1-.233-4.369,9.7,9.7,0,0,0,.073-1,19.336,19.336,0,0,1,.267-2.615,13.592,13.592,0,0,0,.127-1.354,18.236,18.236,0,0,1,.2-1.868,19.384,19.384,0,0,0,.113-4.2c-.04-3.148-.033-3.4.087-3.9.067-.294.14-.607.153-.7S169.4-571.934,169.408-571.881Z" transform="translate(-157.806 582.01)" fill="#817a9f" fill-rule="evenodd"/>
          <path id="Path_57911" data-name="Path 57911" d="M251.351-522.353a4.6,4.6,0,0,1-.06,1.474,5.6,5.6,0,0,0,.027,2.181c.073.387.16.907.207,1.167a11.744,11.744,0,0,0,.3,1.367c.127.447.133.887.02.854a.625.625,0,0,1-.133-.36c-.027-.18-.107-.554-.18-.827s-.167-.714-.207-.967-.133-.781-.207-1.167a6.329,6.329,0,0,1-.053-2.135,6.4,6.4,0,0,0,.087-1.014c.007-.487.033-.72.08-.72S251.324-522.433,251.351-522.353Z" transform="translate(-245.058 535.898)" fill="#020102" fill-rule="evenodd"/>
          <path id="Path_57912" data-name="Path 57912" d="M204.809-515.142a3.5,3.5,0,0,1-.207,1.381,8.008,8.008,0,0,0-.227,1.167c-.06.62-.1.74-.2.58a3.859,3.859,0,0,1,.2-1.668c.107-.42.213-.927.24-1.121C204.662-515.155,204.729-515.275,204.809-515.142Z" transform="translate(-194.841 529.081)" fill="#020102" fill-rule="evenodd"/>
          <path id="Path_57913" data-name="Path 57913" d="M214.494-456.153a7.025,7.025,0,0,1-.1.887,28.7,28.7,0,0,0-.173,4.456,13.242,13.242,0,0,1-.047,2.868c-.107.033-.167-.554-.12-1.2.02-.32.007-1.034-.027-1.581a30.382,30.382,0,0,1,.14-4.443c.04-.187.087-.54.113-.794C214.334-456.513,214.494-456.66,214.494-456.153Z" transform="translate(-205.159 474.267)" fill="#020102" fill-rule="evenodd"/>
          <path id="Path_57914" data-name="Path 57914" d="M244.229-391.287c.02.12.087.507.147.854a16.967,16.967,0,0,1,.14,1.794c.033.967.027,1.154-.053,1.127s-.1-.293-.133-1.207c-.027-.64-.06-1.194-.08-1.227a5.179,5.179,0,0,1-.113-.62c-.04-.314-.087-.647-.107-.754-.027-.133-.013-.18.067-.18C244.156-391.5,244.209-391.42,244.229-391.287Z" transform="translate(-237.203 413.637)" fill="#020102" fill-rule="evenodd"/>
          <path id="Path_57915" data-name="Path 57915" d="M242.539-316.649c.047.607.027.694-.1.567a2.091,2.091,0,0,1-.013-1.127C242.473-317.222,242.513-317.029,242.539-316.649Z" transform="translate(-235.119 344.302)" fill="#020102" fill-rule="evenodd"/>
          <path id="Path_57916" data-name="Path 57916" d="M212.17-304.443a1.45,1.45,0,0,1,.047.48,3.4,3.4,0,0,0,.067.674,5.522,5.522,0,0,1,.113.927c.033.58.027.687-.053.66s-.107-.2-.14-.607a7.537,7.537,0,0,0-.113-.914,4.679,4.679,0,0,1-.073-.8C212.017-304.456,212.057-304.563,212.17-304.443Z" transform="translate(-202.949 332.43)" fill="#020102" fill-rule="evenodd"/>
          <path id="Path_57917" data-name="Path 57917" d="M213.777-242.382c.067.113-.02.18-.273.233s-.407-.06-.28-.213C213.3-242.463,213.717-242.476,213.777-242.382Z" transform="translate(-204.409 274.525)" fill="#020102" fill-rule="evenodd"/>
          <path id="Path_57918" data-name="Path 57918" d="M179.632-221.111c.287.46.334.654.147.654a2.155,2.155,0,0,1-.647-1.007C179.225-221.611,179.378-221.5,179.632-221.111Z" transform="translate(-168.23 255.001)" fill="#020102" fill-rule="evenodd"/>
          <path id="Path_57919" data-name="Path 57919" d="M183.985-193.28a1.539,1.539,0,0,1,.033,1.127,2.854,2.854,0,0,1-1.181,1.107,3.714,3.714,0,0,0-.634.434c-.133.113-.307.273-.394.347l-.16.133.113-.18a.437.437,0,0,0,.093-.26c-.013-.04-.113.087-.22.28-.113.213-.147.327-.087.273s-.007.133-.14.4a2.141,2.141,0,0,0-.294,1.007,2.029,2.029,0,0,1-.567,1.381c-.147.12-.227.133-.527.093s-.354-.027-.354.06c0,.107-.18.207-.22.127a.822.822,0,0,1-.02-.3c.007-.2.113-.414.44-.894a6.535,6.535,0,0,1,1.314-1.521.386.386,0,0,0,.2-.12c.107-.107.107-.113,0-.113-.153,0-.147-.06.06-.46.2-.38.287-.474.874-.941a4.461,4.461,0,0,0,1.294-1.6l.3-.6Zm-4.016,5.363c-.307.454-.36.594-.207.534a.861.861,0,0,1,.267-.047c.187,0,.347-.334.4-.834l.04-.334-.133.167C180.263-188.337,180.1-188.11,179.97-187.917Z" transform="translate(-172.47 228.845)" fill="#817a9f" fill-rule="evenodd"/>
          <path id="Path_57920" data-name="Path 57920" d="M290.423-96.377a.194.194,0,0,1-.007.153c-.053.053-.254-.067-.294-.173S290.376-96.49,290.423-96.377Z" transform="translate(-286.178 138.292)" fill="#020102" fill-rule="evenodd"/>
        </g>
      </g>
      <g id="Mask_Group_23" data-name="Mask Group 23" transform="translate(-1647.774 3439)" clip-path="url(#clip-path-2)">
        <g id="Group_7680" data-name="Group 7680" transform="translate(1.769 -0.155)">
          <g id="Group_7678-2" data-name="Group 7678">
            <path id="Path_57905-2" data-name="Path 57905" d="M160.607-723.163a7.827,7.827,0,0,1-.914.534,3.349,3.349,0,0,0-1.6,1.581,2.245,2.245,0,0,0-.213,1.314c-.007.654.02.907.087.987.073.1.06.16-.127.447l-.22.34.04,1.014a9.19,9.19,0,0,0,.107,1.267c.047.2.04.26-.033.294a.134.134,0,0,0-.093.113,1.714,1.714,0,0,1-.16.374,5.046,5.046,0,0,0-.507,2.6,11.141,11.141,0,0,1-.187,1.968c-.22.947-.48,2.281-.587,2.935a7.242,7.242,0,0,0,.073,2.6c.087.554.193,1.327.233,1.734s.133,1.094.207,1.534.16,1.1.193,1.468.147,1.254.26,1.968a16.2,16.2,0,0,1-.18,7.471,4.417,4.417,0,0,0-.18,1.434,3.253,3.253,0,0,1-.1,1.034,1.753,1.753,0,0,0-.093.6,1.758,1.758,0,0,0,.273,1.014,3.289,3.289,0,0,0,1.541,1.621c1.221.72,1.254.754,1.514,1.568a3.849,3.849,0,0,0,.273.647,1.213,1.213,0,0,1,.16.467,1.427,1.427,0,0,0,.127.454,1.676,1.676,0,0,0,1.4,1.047c.307.013.367.04.447.193a1.8,1.8,0,0,0,.794.667,2.343,2.343,0,0,0,2-.207,1.134,1.134,0,0,1,.334-.2.859.859,0,0,0,.36-.253.409.409,0,0,1,.253-.167,1.088,1.088,0,0,0,.42-.267c.594-.594.8-.841.8-.974a.268.268,0,0,1,.133-.207,1,1,0,0,0,.36-.66,1.209,1.209,0,0,0-.6-1.074,3.015,3.015,0,0,1-1.021-1.287,2.306,2.306,0,0,0-.774-.981,8.068,8.068,0,0,1-1.921-2.335,5.643,5.643,0,0,0-.54-.787c-.3-.354-.38-.6-.253-.8a2.126,2.126,0,0,0-.04-.7,20.88,20.88,0,0,1,.273-6.05c.093-.314.233-.9.314-1.3a6.2,6.2,0,0,1,.787-2.028,4.056,4.056,0,0,0,.314-.64c.067-.187.187-.514.273-.734a5.726,5.726,0,0,0,.227-1c.047-.334.107-.78.14-1a24.493,24.493,0,0,0-.047-4.956c-.027-.133-.038,0,.027-.14.18,0-.027-.033-.027-.067s-.068-.406-.121-.826-.1-.816-.119-1.07v-.579h0l.047-.454a2.917,2.917,0,0,1,.454-1.234,8.478,8.478,0,0,1,1.694-2.308,12.511,12.511,0,0,0,1.894-2.508,4.266,4.266,0,0,0,.287-.867c.273-1.361.294-1.641.14-1.768s-.233-.02-.233.293a8.342,8.342,0,0,1-.207,1.441,3.9,3.9,0,0,1-.267.767,12.527,12.527,0,0,1-1.888,2.5,7.726,7.726,0,0,0-1.654,2.235,9.132,9.132,0,0,1-.834,1.3c-.193.22-.334.44-.313.494a1.976,1.976,0,0,0,.594.107c-.173-.033,0,.007,0,.447a10.557,10.557,0,0,0,.207,1.858c.053.193-.38.15,0,.17v.067l.08.88a18.477,18.477,0,0,1,.087,3.422c-.04.287-.133.947-.207,1.461a7.829,7.829,0,0,1-1.007,2.935,5.375,5.375,0,0,0-.627,1.741c-.087.44-.233,1.054-.32,1.367a18.512,18.512,0,0,0-.36,4.523c.027.754.073,1.521.113,1.7.067.333-.013.707-.16.707a1.368,1.368,0,0,1-.327-.307c-.547-.62-1.114-.967-1.114-.667a2.076,2.076,0,0,0,.44.434,2.836,2.836,0,0,1,.574.587c.073.12.173.22.227.22.093,0,.334.2.767.634a5.582,5.582,0,0,1,.52.794,9.185,9.185,0,0,0,1.828,2.221,3.131,3.131,0,0,1,.84,1.061,3.511,3.511,0,0,0,1.1,1.321c.227.187.307.293.287.38a.167.167,0,0,0,.073.187c.08.047.093.1.04.28-.08.287-.227.334-.227.073a1.146,1.146,0,0,0-.614-.787,1.156,1.156,0,0,1-.367-.4c-.127-.26-.307-.28-.34-.033-.02.127.087.267.514.667l.54.507v.414c0,.293-.033.44-.113.527-.107.1-.113.1-.153-.013-.033-.08,0-.16.093-.233.167-.133.087-.254-.087-.147-.113.073-.133.053-.167-.133a1.308,1.308,0,0,0-.407-.58,1.918,1.918,0,0,1-.367-.44.241.241,0,0,0-.093-.153c-.067-.06-.107-.053-.173.027-.113.14-.033.3.38.767a1.8,1.8,0,0,1,.507,1.287c-.06.293-.487.527-.487.26,0-.06.107-.187.233-.273s.233-.18.233-.214c0-.1-.213-.067-.34.047s-.12.093-.16-.08c-.027-.107-.067-.253-.093-.327a6.486,6.486,0,0,0-1.1-1.2c-.04,0-.08.067-.093.147-.013.1.113.28.44.634l.467.487.067.567c.06.474.053.58-.027.667s-.093.08-.093-.047c0-.093-.127-.253-.34-.433a2.306,2.306,0,0,1-.5-.607,1.776,1.776,0,0,0-.827-.747.686.686,0,0,1-.26-.273c-.153-.253-.294-.274-.327-.047-.027.193.28.534.66.72a1.055,1.055,0,0,1,.534.574,1.574,1.574,0,0,0,.474.574.931.931,0,0,1,.294.3c.127.407-.974.8-1.641.587-.153-.047-.147-.053.073-.06.307-.007,1-.22.84-.26-.12-.027-.12-.027,0-.12a.618.618,0,0,1,.307-.093c.113,0,.18-.033.18-.1,0-.133-.354-.133-.567.007a.62.62,0,0,1-.347.08c-.253-.027-.28-.24-.053-.454.193-.18.213-.267.067-.267-.3,0-.56.58-.354.787.06.06.053.08-.04.08-.12,0-.374-.234-.747-.707-.12-.14-.233-.24-.253-.22-.08.073.22.814.407,1.007.1.1.153.187.127.187-.133,0-.467-.333-.64-.64-.213-.387-.494-.64-.64-.58-.127.047-.12.147.027.307.107.127.107.127-.053.08a1.391,1.391,0,0,1-1.141-1.167,3.089,3.089,0,0,0-.233-.674,5.825,5.825,0,0,1-.294-.747,4.648,4.648,0,0,0-.947-1.541c-.173-.12-.34-.06-.3.107.033.12.027.12-.173-.007-.12-.073-.327-.2-.474-.273a2.907,2.907,0,0,1-1.121-1.321,1.677,1.677,0,0,1-.187-1.314c.06-.133.06-.133.1.013.053.167.173.233.3.153.093-.053.087-.087-.127-.667a3.212,3.212,0,0,1,.02-1.941,18.224,18.224,0,0,0,.474-2.288,26.722,26.722,0,0,0-.267-5.51c-.127-.787-.273-1.828-.327-2.3-.14-1.214-.347-2.735-.554-4.082a9.3,9.3,0,0,1,.107-3.822,16.239,16.239,0,0,0,.607-4.162,3.764,3.764,0,0,1,.173-1.454,4.443,4.443,0,0,1,.26-.674c.08-.113.087-.107.127.033a8.267,8.267,0,0,1,.04.967v.807l.24.327c.14.174.36.44.494.594a1.988,1.988,0,0,1,.54.994c.147.44.273.58.407.447.04-.04.007-.22-.107-.54a2.874,2.874,0,0,0-.78-1.314,2.9,2.9,0,0,1-.46-.6,6.492,6.492,0,0,1-.067-1.181,10.584,10.584,0,0,0-.093-1.521,12.514,12.514,0,0,1-.147-1.281l-.047-.78.233-.38c.133-.214.327-.567.44-.787s.3-.534.407-.7c.247-.36.26-.487.06-.454-.107.013-.24.173-.454.534a3.211,3.211,0,0,1-.347.52,4.157,4.157,0,0,1,.02-1.414,2.648,2.648,0,0,1,.627-1.221,2.886,2.886,0,0,1,1.014-.714c.787-.414,1.274-.78,1.194-.907S160.894-723.383,160.607-723.163Zm3.8,11.78c-.053.234-.06.234-.233.207l-.147-.02.147-.187C164.362-711.617,164.469-711.617,164.409-711.383Z" transform="translate(-156.112 723.361)" fill="#020102" fill-rule="evenodd"/>
          </g>
          <path id="Path_57906-2" data-name="Path 57906" d="M195.181-712.3a2.2,2.2,0,0,1-.567.273,2.2,2.2,0,0,0-1.468.847c-.18.253-.2.34-.227.9l-.02.614.34-.6a3.057,3.057,0,0,1,1.267-1.367c.474-.327,1.1-.867.994-.867A3.253,3.253,0,0,0,195.181-712.3Z" transform="translate(-190.446 713.224)" fill="#020102" fill-rule="evenodd"/>
          <path id="Path_57907-2" data-name="Path 57907" d="M188.1-634.934a9.7,9.7,0,0,0,.193,1.688,9.919,9.919,0,0,1,.087,1.367c.027,1.241.087,1.434.627,2.035a2.271,2.271,0,0,1,.62.974.436.436,0,0,0,.073.227c.147.213-.013-1.147-.187-1.568a11.509,11.509,0,0,1-.58-1.714,9.855,9.855,0,0,0-.3-.967,5.436,5.436,0,0,1-.407-1.621C188.122-635.127,188.1-635.214,188.1-634.934Z" transform="translate(-185.962 640.975)" fill="#817a9f" fill-rule="evenodd"/>
          <path id="Path_57909-2" data-name="Path 57909" d="M232.689-603.309a13.118,13.118,0,0,1-.514,1.681,4.806,4.806,0,0,1-.627.7c-.514.487-.654.74-.407.74a5.53,5.53,0,0,0,1.307-1.314,6.769,6.769,0,0,0,.534-2.028C232.9-603.676,232.756-603.569,232.689-603.309Z" transform="translate(-226.026 611.584)" fill="#020102" fill-rule="evenodd"/>
          <path id="Path_57910-2" data-name="Path 57910" d="M169.034-571.881c-.013.053-.027.667-.027,1.367a6.684,6.684,0,0,1-.12,1.668,20.062,20.062,0,0,0-.527,2.8,11.862,11.862,0,0,0,0,3.269c.073.44.167,1.161.207,1.594s.133,1.1.207,1.467.22,1.281.327,2.015.267,1.581.347,1.868a5.873,5.873,0,0,1,.153,1.928,5.577,5.577,0,0,1-.193,2.068,8.5,8.5,0,0,0-.24,1.334,2.665,2.665,0,0,1-.28,1.167c-.434.921-.434.954-.2,1.6l.107.294.113-.46a6.293,6.293,0,0,1,.287-.867,6.541,6.541,0,0,0,.38-1.668c.04-.26.173-.874.294-1.367a12.948,12.948,0,0,0,.233-4.369,9.7,9.7,0,0,1-.073-1,19.333,19.333,0,0,0-.267-2.615,13.585,13.585,0,0,1-.127-1.354,18.24,18.24,0,0,0-.2-1.868,19.386,19.386,0,0,1-.113-4.2c.04-3.148.033-3.4-.087-3.9-.067-.294-.14-.607-.153-.7S169.04-571.934,169.034-571.881Z" transform="translate(-167.44 582.01)" fill="#817a9f" fill-rule="evenodd"/>
          <path id="Path_57911-2" data-name="Path 57911" d="M251.57-522.353a4.6,4.6,0,0,0,.06,1.474,5.6,5.6,0,0,1-.027,2.181c-.073.387-.16.907-.207,1.167a11.746,11.746,0,0,1-.3,1.368c-.127.447-.133.887-.02.854a.626.626,0,0,0,.133-.36c.027-.18.107-.554.18-.827s.167-.714.207-.967.133-.781.207-1.167a6.328,6.328,0,0,0,.053-2.135,6.4,6.4,0,0,1-.087-1.014c-.007-.487-.033-.72-.08-.72S251.6-522.433,251.57-522.353Z" transform="translate(-244.667 535.898)" fill="#020102" fill-rule="evenodd"/>
          <path id="Path_57912-2" data-name="Path 57912" d="M204.161-515.142a3.5,3.5,0,0,0,.207,1.381,8.01,8.01,0,0,1,.227,1.167c.06.62.1.74.2.58a3.86,3.86,0,0,0-.2-1.668c-.107-.42-.213-.927-.24-1.121C204.307-515.155,204.241-515.275,204.161-515.142Z" transform="translate(-200.933 529.081)" fill="#020102" fill-rule="evenodd"/>
          <path id="Path_57913-2" data-name="Path 57913" d="M214-456.153a7.022,7.022,0,0,0,.1.887,28.7,28.7,0,0,1,.173,4.456,13.242,13.242,0,0,0,.047,2.868c.107.033.167-.554.12-1.2-.02-.32-.007-1.034.027-1.581a30.378,30.378,0,0,0-.14-4.443c-.04-.187-.087-.54-.113-.794C214.16-456.513,214-456.66,214-456.153Z" transform="translate(-210.139 474.267)" fill="#020102" fill-rule="evenodd"/>
          <path id="Path_57914-2" data-name="Path 57914" d="M244.322-391.287c-.02.12-.087.507-.147.854a16.966,16.966,0,0,0-.14,1.794c-.033.967-.027,1.154.053,1.127s.1-.293.133-1.207c.027-.64.06-1.194.08-1.227a5.174,5.174,0,0,0,.113-.62c.04-.314.087-.647.107-.754.027-.133.013-.18-.067-.18C244.4-391.5,244.342-391.42,244.322-391.287Z" transform="translate(-238.153 413.637)" fill="#020102" fill-rule="evenodd"/>
          <path id="Path_57915-2" data-name="Path 57915" d="M242.378-316.649c-.047.607-.027.694.1.567a2.092,2.092,0,0,0,.013-1.127C242.445-317.222,242.4-317.029,242.378-316.649Z" transform="translate(-236.602 344.302)" fill="#020102" fill-rule="evenodd"/>
          <path id="Path_57916-2" data-name="Path 57916" d="M212.262-304.443a1.448,1.448,0,0,0-.047.48,3.4,3.4,0,0,1-.067.674,5.523,5.523,0,0,0-.113.927c-.033.58-.027.687.053.66s.107-.2.14-.607a7.527,7.527,0,0,1,.113-.914,4.679,4.679,0,0,0,.073-.8C212.416-304.456,212.376-304.563,212.262-304.443Z" transform="translate(-208.287 332.43)" fill="#020102" fill-rule="evenodd"/>
          <path id="Path_57917-2" data-name="Path 57917" d="M213.2-242.382c-.067.113.02.18.273.233s.407-.06.28-.213C213.671-242.463,213.258-242.476,213.2-242.382Z" transform="translate(-209.369 274.525)" fill="#020102" fill-rule="evenodd"/>
          <path id="Path_57918-2" data-name="Path 57918" d="M179.385-221.111c-.287.46-.334.654-.147.654a2.156,2.156,0,0,0,.647-1.007C179.792-221.611,179.638-221.5,179.385-221.111Z" transform="translate(-177.591 255.001)" fill="#020102" fill-rule="evenodd"/>
          <path id="Path_57919-2" data-name="Path 57919" d="M179.552-193.28a1.539,1.539,0,0,0-.033,1.127,2.854,2.854,0,0,0,1.181,1.107,3.715,3.715,0,0,1,.634.434c.133.113.307.273.394.347l.16.133-.113-.18a.437.437,0,0,1-.093-.26c.013-.04.113.087.22.28.113.213.147.327.087.273s.007.133.14.4a2.141,2.141,0,0,1,.293,1.007,2.029,2.029,0,0,0,.567,1.381c.147.12.227.133.527.093s.354-.027.354.06c0,.107.18.207.22.127a.823.823,0,0,0,.02-.3c-.007-.2-.113-.414-.44-.894a6.535,6.535,0,0,0-1.314-1.521.386.386,0,0,1-.2-.12c-.107-.107-.107-.113,0-.113.153,0,.147-.06-.06-.46-.2-.38-.287-.474-.874-.941a4.461,4.461,0,0,1-1.294-1.6l-.3-.6Zm4.016,5.363c.307.454.36.594.207.534a.86.86,0,0,0-.267-.047c-.187,0-.347-.334-.4-.834l-.04-.334.133.167C183.274-188.337,183.441-188.11,183.567-187.917Z" transform="translate(-177.872 228.845)" fill="#817a9f" fill-rule="evenodd"/>
          <path id="Path_57920-2" data-name="Path 57920" d="M290.131-96.377a.193.193,0,0,0,.007.153c.053.053.253-.067.294-.173S290.178-96.49,290.131-96.377Z" transform="translate(-281.18 138.292)" fill="#020102" fill-rule="evenodd"/>
        </g>
      </g>
      <path id="Path_57908" data-name="Path 57908" d="M2.533,7.584c.4-.233.934-.54,1.181-.68a2.054,2.054,0,0,0,.454-.3A15.376,15.376,0,0,0,2.78,5.13l-.213-.193-.1.24a1.474,1.474,0,0,0-.1.293.234.234,0,0,1-.093.14c-.073.06-.133.047-.28-.08-.233-.2-.193-.387.193-.86.82-1.007,4.036-1.988,7.3-2.221.414-.033.6-.073.587-.127s-.073-.46-.133-.941S9.818.4,9.8.253L9.757,0l-.38.04A25.674,25.674,0,0,0,4.728,1.214,21.014,21.014,0,0,0,1.7,2.688a7.508,7.508,0,0,0-.974.827c-.454.447-.56.594-.654.894A1.166,1.166,0,0,0,.212,5.47,4.672,4.672,0,0,0,1.686,7.144c.113.06.147.127.127.227-.093.387-.12.647-.073.64A8.188,8.188,0,0,0,2.533,7.584Z" transform="translate(-1629.869 3457.131) rotate(-172)" fill="#020102" fill-rule="evenodd"/>
      <rect id="Rectangle_4121" data-name="Rectangle 4121" width="52" height="50.528" transform="translate(-1664.307 3435)" fill="none"/>
    </g>
  </g>
</svg>
