<svg xmlns="http://www.w3.org/2000/svg" width="70" height="70" viewBox="0 0 70 70">
  <g id="Group_8521" data-name="Group 8521" transform="translate(1488 -3213)">
    <g id="Group_8509" data-name="Group 8509" transform="translate(-1488 3213)">
      <rect id="Rectangle_2514" data-name="Rectangle 2514" width="70" height="70" fill="#fff"/>
    </g>
    <g id="Group_7176" data-name="Group 7176" transform="translate(-1482.693 3219)">
      <rect id="Rectangle_4123" data-name="Rectangle 4123" width="58.689" height="57.028" fill="none"/>
      <g id="New_Layer" data-name="New Layer" transform="translate(10.822 1.75)">
        <g id="Group_7113" data-name="Group 7113">
          <path id="Path_58080" data-name="Path 58080" d="M71.22-741.705a4.5,4.5,0,0,1,1.705.71c.795.478,1.134.679,1.2.71.039.016.062-.062.062-.177,0-.262.131-.5.262-.5a1.664,1.664,0,0,1,.494.479,14.394,14.394,0,0,0,2.084,2.022,2.186,2.186,0,0,1,.679.764,4.29,4.29,0,0,0,1.073,1.52c.193.147.857.779,1.489,1.4a8.484,8.484,0,0,0,1.528,1.327,12.021,12.021,0,0,0,1.489.509,27.3,27.3,0,0,1,4.144,1.489,3.936,3.936,0,0,1,1.513,1.142l.687.733,1.327-.023a8.559,8.559,0,0,1,3.133.37,1.27,1.27,0,0,0,.532.116c.023-.023-.062-.185-.185-.37-.193-.27-.27-.324-.463-.309-1.7.131-1.528.139-1.713-.093a1.2,1.2,0,0,1-.216-.417,2.576,2.576,0,0,0-.123-.394,6.783,6.783,0,0,1-.116-1.1l-.046-.9-.332-.147c-.378-.17-.525-.393-.455-.687a6.241,6.241,0,0,1,.363-.887,5.3,5.3,0,0,0,.347-.98c.039-.247.008-.324-.2-.54-.278-.293-.3-.471-.1-.756a2.511,2.511,0,0,0,.239-.787c.1-.617.363-1.2.548-1.2.139,0,.131.031-.108.617a2.513,2.513,0,0,0-.2.756,1.578,1.578,0,0,1-.154.594c-.193.386-.193.417.039.648.316.316.27.795-.162,1.736a3.53,3.53,0,0,0-.324.949c.015.123.123.208.37.3.332.123.347.139.363.463.093,1.767.324,2.632.718,2.678a8.607,8.607,0,0,0,2.045-.448c.255-.093.617-.224.8-.285.37-.131.494-.347.857-1.474.162-.5.278-.64.4-.509a7.646,7.646,0,0,1-.432,1.667c-.17.394-.432.571-1.2.8-.363.116-.679.216-.695.232s.039.108.123.208c.332.355.448.779.193.7a9.639,9.639,0,0,0,1.713.71c.687.224.718.224,1.181,0,.2-.108.641-.3.965-.432a6.64,6.64,0,0,0,.872-.425,6.5,6.5,0,0,1,1.4-.633c.193-.046.232-.139.1-.216a2.956,2.956,0,0,1-.695-.972c0-.247.185-.162.409.2a5.464,5.464,0,0,0,.772.833c.309.262.818.741,1.134,1.065s.749.718.949.88a7.139,7.139,0,0,1,1.952,3.666,14.327,14.327,0,0,1,0,3.9c-.077.378-.17,1-.208,1.389a17.729,17.729,0,0,1-1.181,3.727c-.687,1.351-.826,2.06-.887,4.492a15.5,15.5,0,0,1-.239,2.94l-.177.9.2.918a16.537,16.537,0,0,1,.286,2.115,7.3,7.3,0,0,0,.478,2.932,4.932,4.932,0,0,1,.571,3.427,6.516,6.516,0,0,1-.926,2.477,2.3,2.3,0,0,0-.208,2.47,3.964,3.964,0,0,1,.255,1.636,6.362,6.362,0,0,1-.054,1.026,1.624,1.624,0,0,1-.679.455,5.389,5.389,0,0,1-1.945.517c-.725.116-1.381.232-1.466.27a9.131,9.131,0,0,1-2.74.339c-1.86,0-3.334-.378-3.21-.833a1.756,1.756,0,0,0-.077-.587,4.729,4.729,0,0,1-.108-.88,1.935,1.935,0,0,0-.154-.787.893.893,0,0,1-.108-.448,2.438,2.438,0,0,0-.162-.764,14.879,14.879,0,0,1-.471-2.686,5.516,5.516,0,0,1,.039-1.042c.054-.34.123-.872.162-1.189a2.686,2.686,0,0,1,.147-.656,2.507,2.507,0,0,0,.154-.7c.046-.34.116-.88.154-1.2s.1-1.065.131-1.659A4.553,4.553,0,0,1,93.276-703c.046-.039.023-.247-.062-.594-.147-.617-.147-.664-.077-3.419a12.064,12.064,0,0,0-.116-3.087,9.655,9.655,0,0,0-.316-1.412,9.755,9.755,0,0,1-.069-4.407,4.926,4.926,0,0,0-.039-2.624,3.2,3.2,0,0,1-.193-1.235,8.854,8.854,0,0,1,.394-2.57c.085-.247.17-.494.193-.563.031-.093-.015-.139-.178-.177a12.184,12.184,0,0,1-2.593-1.374c-.841-.563-.98-.633-1.327-.648a4.321,4.321,0,0,1-1.906-.309,1.75,1.75,0,0,0-.779-.255A6.066,6.066,0,0,1,83.3-726.95a16.232,16.232,0,0,1-3.087-2.747c-.293-.363-.725-.9-.965-1.2s-.579-.749-.756-1a5.561,5.561,0,0,0-1.235-1.4,6.134,6.134,0,0,1-.579-.448,1.039,1.039,0,0,0-.718-.3,6.352,6.352,0,0,1-2.616-1.181,13.45,13.45,0,0,0-1.5-.918,3.949,3.949,0,0,1-1.258-.911,8.6,8.6,0,0,1-.764-.957c-.262-.4-.27-.425-.147-.61.062-.1.147-.185.185-.185a9,9,0,0,1,1.242.9c.147.116-.062-.108-.478-.494a4.225,4.225,0,0,1-1.451-2.192c0-.525.286-.988.6-.988a.417.417,0,0,0,.278-.108C70.2-741.883,70.5-741.89,71.22-741.705Zm-.162.556a8.171,8.171,0,0,1,1.158.671c.594.479.887.61,1.15.517.147-.046.262-.054.309-.008.108.108,0,.224-.278.286a.634.634,0,0,0-.347.193c-.116.17-.324.193-.324.046a.313.313,0,0,1,.085-.185c.062-.062.023-.123-.154-.208a3.02,3.02,0,0,1-.486-.347,7.547,7.547,0,0,0-1.1-.656c-.679-.355-.911-.432-1.15-.417-.278.023-.309.046-.424.355-.116.332-.116.34.131.818a5.677,5.677,0,0,0,1.543,1.8c.563.509.756.641.772.54.046-.232.247-.154.247.1,0,.193-.046.255-.262.363-.262.123-.262.123-.679-.177-.224-.162-.594-.448-.818-.633s-.424-.324-.448-.3c-.085.085.216.533.718,1.065.625.656.772.749.9.571.085-.124.116-.108.262.139a1.38,1.38,0,0,0,.563.486,9.343,9.343,0,0,1,1.088.7c1.1.81,2.469,1.3,2.809,1.019.108-.085.139-.085.17-.008a2.53,2.53,0,0,0,.849.864,6.8,6.8,0,0,1,1.559,1.736c.255.34.594.779.749.972s.517.633.779.98a16.847,16.847,0,0,0,2.485,2.331,7.224,7.224,0,0,1,.7.478,6.156,6.156,0,0,0,2.794,1.142h.224l-.278-.347c-.278-.332-.316-.54-.085-.455a3.563,3.563,0,0,1,.54.61c.4.517.455.563.787.61.517.069.872.054.872-.031,0-.231,1,.224,1.976.9a10.434,10.434,0,0,0,2.632,1.32,1.25,1.25,0,0,1,.37.1,7.057,7.057,0,0,0,1.621.316,5.884,5.884,0,0,1,2.817,1.034,3.353,3.353,0,0,0,.656.417,1.766,1.766,0,0,0,.941.239c.37,0,.486.023.486.108,0,.309-.911.232-1.636-.147l-.509-.262-.054.633a10.005,10.005,0,0,0,.208,2.562,3.024,3.024,0,0,0,.857,1.2c.3.216.355.231,1.019.231h.7l.718-.44c.394-.247.934-.625,1.2-.834,1.86-1.466,1.983-1.605,1.976-2.23a1.147,1.147,0,0,1,.069-.424,8.727,8.727,0,0,0,.2-1.15,6.746,6.746,0,0,0-.324-3.627c-.116-.208-.116-.208-.062-.015a10.893,10.893,0,0,1,.085,1.3c.031.9.015,1.1-.069,1.073-.069-.023-.116-.3-.154-1.034-.077-1.551-.347-2.161-1.273-2.863a5.8,5.8,0,0,0-3.187-1.212,1.429,1.429,0,0,0-1.134.293,1.046,1.046,0,0,1-.934.247,9.1,9.1,0,0,1-2.269-.633,9.426,9.426,0,0,0-3.45-.911c-.579-.031-1.142.023-1.011.108.193.116-.023.232-.44.232a2.247,2.247,0,0,1-1.073-.3c-.409-.193-.648-.355-.648-.424a.129.129,0,0,1,.131-.123c.093,0-.031-.162-.355-.494a4.154,4.154,0,0,0-1.351-.918,31.208,31.208,0,0,0-4.345-1.528,5.161,5.161,0,0,1-2.817-1.821,14.619,14.619,0,0,0-1.158-1.111,3.123,3.123,0,0,1-.432-.339c-.154-.147-.7-.633-1.212-1.1-1.489-1.343-1.775-1.636-1.675-1.736.062-.062.3.116.918.679.455.417.918.826,1.019.918l.177.154-.193-.393a2.71,2.71,0,0,0-.841-.9,12.49,12.49,0,0,1-1.952-1.937c-.185-.286-.3-.255-.247.069.031.2.154.37.471.664.4.363.54.61.355.61a1.653,1.653,0,0,1-.448-.332,11.863,11.863,0,0,0-1.976-1.366,6.255,6.255,0,0,0-2.361-.841C70.248-741.582,70.317-741.528,71.058-741.149Zm29.209,11.915a7.029,7.029,0,0,0-.849.417c-.455.255-.424.309.069.154a5.363,5.363,0,0,1,2.006.448,6.462,6.462,0,0,1,3.048,2.284c.61,1.119.671,2.439.255,5.541a1.979,1.979,0,0,1-.733,1.289c-.193.139-.617.486-.934.764a10.9,10.9,0,0,1-2.647,1.69,3.083,3.083,0,0,1-1.489-.054,2.817,2.817,0,0,1-1.212-1.412l-.316-.664.008-1c.008-.556.039-1.227.062-1.5l.054-.509L97.173-722a5.986,5.986,0,0,0-1.983-.6c-.363-.046-.9-.131-1.2-.193-.687-.139-.641-.154-.81.178a7.706,7.706,0,0,0-.478,2.655,3.3,3.3,0,0,0,.185,1.474,4.424,4.424,0,0,1,.008,2.655,8.927,8.927,0,0,0,.123,4.391,14.629,14.629,0,0,1,.293,1.466,24.469,24.469,0,0,1,.054,4.785,4.217,4.217,0,0,0,.139,1.651c.193.779.208.818.587,1.165a5.517,5.517,0,0,0,2.323,1.05,10.885,10.885,0,0,0,2.578.494.657.657,0,0,0,.641-.286,3.768,3.768,0,0,0,.81-1.922c.062-.494.108-.648.2-.648s.108.1.069.633a2.792,2.792,0,0,1-.332,1.212,3.856,3.856,0,0,1-.394.718c-.162.178-.1.178.509-.031a1.383,1.383,0,0,0,1.08-.965c.069-.262.123-.332.224-.316.154.031.147.355-.031.7-.116.216-.116.224.054.17a4.748,4.748,0,0,0,1.235-.625c.116-.131.123-.286.062-1.42a13.506,13.506,0,0,0-.232-2.007,5.053,5.053,0,0,1-.077-2.523,10.637,10.637,0,0,0,.162-2.523,8.224,8.224,0,0,1,.232-2.693,11.048,11.048,0,0,1,.548-1.682,18.746,18.746,0,0,0,1.312-3.967c.039-.386.131-1.026.2-1.428a15.148,15.148,0,0,0,.008-4.051,6.2,6.2,0,0,0-2.4-3.766,1.973,1.973,0,0,1-.417-.448,3.45,3.45,0,0,0-.625-.648l-.432-.34-.386.162C100.8-729.442,100.46-729.311,100.267-729.234Zm-9.932-.023a1.037,1.037,0,0,0,.309,0c.1-.016.039-.031-.131-.031S90.266-729.28,90.335-729.257Zm7.586,1.065-.232.1.232.008a.814.814,0,0,0,.424-.154l.193-.154-.193.054A2.771,2.771,0,0,0,97.921-728.192Zm-4.407,26.478a1.842,1.842,0,0,0,.833.571,1.51,1.51,0,0,1,.54.286,1.668,1.668,0,0,0,1.065.339c.363.039.9.124,1.2.185a10.3,10.3,0,0,0,1.482.17,6.475,6.475,0,0,0,3.141-.61c1.158-.4,1.435-.579,1.435-.911v-.2l-.525.247a10.822,10.822,0,0,1-3.8,1.034c-1.621,0-4.283-.864-5.032-1.636l-.324-.332-.023.378A1.682,1.682,0,0,0,93.515-701.715Zm-.378,2.539a26.019,26.019,0,0,0-.5,3.357,12.713,12.713,0,0,0,.386,2.7c.077.231.17.525.2.656l.054.232.054-.193a12.915,12.915,0,0,0,.069-1.6,5.451,5.451,0,0,1,.093-1.458c.247-.147.255.255.1,3.8-.046,1.057-.039,1.181.085,1.3s.131.224.085.664c-.054.625-.1.586,1.034.841a6.575,6.575,0,0,0,1.814.177,7.843,7.843,0,0,0,2.624-.386,1.008,1.008,0,0,1,.486-.108,17.465,17.465,0,0,0,2.408-.394,3.93,3.93,0,0,0,.656-.286l.386-.208.062-.833a2.843,2.843,0,0,0-.224-1.651,2.8,2.8,0,0,1-.247-1.358,2.243,2.243,0,0,1,.463-1.327,13.282,13.282,0,0,0,.6-1.2,5.725,5.725,0,0,0,.224-3.372,8.528,8.528,0,0,0-.594-1.412.649.649,0,0,0-.2.139,11.52,11.52,0,0,1-1.682.664,6.181,6.181,0,0,1-4.129.4,13.533,13.533,0,0,0-1.466-.2,2.211,2.211,0,0,1-1.289-.448,1.356,1.356,0,0,0-.556-.247.759.759,0,0,1-.44-.247l-.247-.247-.093.772C93.307-700.218,93.206-699.562,93.137-699.176Z" transform="translate(-69.175 741.839)" fill="#020102" fill-rule="evenodd"/>
          <path id="Path_58081" data-name="Path 58081" d="M528.852-728.281c.216.154.293.378.139.378-.139,0-.54-.332-.54-.44C528.45-728.49,528.613-728.467,528.852-728.281Z" transform="translate(-527.987 729.473)" fill="#020102" fill-rule="evenodd"/>
          <path id="Path_58082" data-name="Path 58082" d="M498.491-722.122c.278.185.671.494.888.671a1.376,1.376,0,0,0,.54.332c.208,0,.216.031.069.4s-.386.463-.316.131c.039-.232-.17-.455-1.2-1.219a4.277,4.277,0,0,1-.664-.571C497.758-722.554,497.99-722.469,498.491-722.122Z" transform="translate(-496.639 723.962)" fill="#020102" fill-rule="evenodd"/>
          <path id="Path_58083" data-name="Path 58083" d="M126.958-266.483c0,.17-.239.54-.347.54-.154,0-.147-.116.015-.394C126.758-266.552,126.958-266.645,126.958-266.483Z" transform="translate(-94.855 303.243)" fill="#020102" fill-rule="evenodd"/>
          <path id="Path_58084" data-name="Path 58084" d="M115.075-241.448c.062.062-.008.185-.108.185-.039,0-.069-.054-.069-.116C114.9-241.495,114.991-241.533,115.075-241.448Z" transform="translate(-82.1 280.107)" fill="#020102" fill-rule="evenodd"/>
          <path id="Path_58085" data-name="Path 58085" d="M133.451-729.276a7.058,7.058,0,0,1,2.161,1.5,2.522,2.522,0,0,1,.617,1.335c.1.509.054.88-.123.88-.085,0-.116-.1-.116-.409a2.724,2.724,0,0,0-.579-1.636,6.7,6.7,0,0,0-1.96-1.381,2.461,2.461,0,0,0-1.474-.239,8.479,8.479,0,0,0-3.064.548c-.81.262-1.181.309-1.188.147a15.339,15.339,0,0,1,2.77-.857,9.922,9.922,0,0,1,1.5-.108A2.819,2.819,0,0,1,133.451-729.276Z" transform="translate(-104.272 730.452)" fill="#020102" fill-rule="evenodd"/>
          <path id="Path_58086" data-name="Path 58086" d="M239.612-719.192c.208.208.216.316.015.316-.131,0-.417-.309-.417-.44C239.211-719.478,239.388-719.424,239.612-719.192Z" transform="translate(-216.368 721.14)" fill="#020102" fill-rule="evenodd"/>
          <path id="Path_58087" data-name="Path 58087" d="M237.842-717.16a1.017,1.017,0,0,0,.764.586c.046,0,.085.054.085.116,0,.17-.355.147-.664-.039-.386-.239-.7-1-.417-1A.944.944,0,0,1,237.842-717.16Z" transform="translate(-215.153 719.378)" fill="#020102" fill-rule="evenodd"/>
          <path id="Path_58088" data-name="Path 58088" d="M188.863-691.321a1.338,1.338,0,0,0,.455.347c.448.224.779.586.787.872.008.116,0,.525-.008.918-.015.633,0,.718.147.841.2.177.208.34.023.34-.424,0-.594-.533-.463-1.443.085-.594.085-.656-.062-.849a1.679,1.679,0,0,0-.571-.417c-.4-.2-.679-.533-.579-.687C188.67-691.522,188.77-691.491,188.863-691.321Z" transform="translate(-163.087 695.36)" fill="#020102" fill-rule="evenodd"/>
          <path id="Path_58089" data-name="Path 58089" d="M217.259-680.315c.509.208.671.332.671.478s.015.147-.556-.123a1.534,1.534,0,0,0-1.443-.077c-.378.177-.548.131-.347-.085a2.219,2.219,0,0,1,1.065-.378A2.543,2.543,0,0,1,217.259-680.315Z" transform="translate(-192.695 685.234)" fill="#020102" fill-rule="evenodd"/>
          <path id="Path_58090" data-name="Path 58090" d="M126.231-676.864c.27.448.224,1.034-.193,2.284a4.673,4.673,0,0,0-.37,1.991c-.008.81-.023.926-.139.949s-.131-.062-.108-1.042a4.106,4.106,0,0,1,.27-1.759c.509-1.435.548-1.69.347-2.2C125.861-677.072,126.008-677.234,126.231-676.864Z" transform="translate(-94.213 682.068)" fill="#020102" fill-rule="evenodd"/>
          <path id="Path_58091" data-name="Path 58091" d="M232.706-670.348a.465.465,0,0,0,.3.232c.239.077.332.216.224.324a1.368,1.368,0,0,1-.749-.27.634.634,0,0,1-.062-.27C232.42-670.549,232.652-670.564,232.706-670.348Z" transform="translate(-209.346 676.008)" fill="#020102" fill-rule="evenodd"/>
          <path id="Path_58092" data-name="Path 58092" d="M157.166-669.368a2.1,2.1,0,0,1,.177,2.1,4.646,4.646,0,0,1-.463.772l-.278.363.4.4c.34.347.386.417.27.463-.1.039-.247-.054-.532-.339s-.432-.378-.509-.332-.054.093.116.185c.324.17.6.486.548.625-.031.07-.077.123-.108.123a5.71,5.71,0,0,1-1.258-1.258c-.17-.471.039-.641.239-.193.085.2.147.247.3.232.278-.031.671-.448.949-1.019a1.8,1.8,0,0,0,.247-.965c-.015-1.2-.795-1.52-1.273-.525-.193.417-.386.54-.386.255a1.647,1.647,0,0,1,.509-.918A.845.845,0,0,1,157.166-669.368Z" transform="translate(-127.671 675.144)" fill="#020102" fill-rule="evenodd"/>
          <path id="Path_58093" data-name="Path 58093" d="M161.683-662.389a.772.772,0,0,1,.085.749c-.108.162-.239.023-.239-.255a.788.788,0,0,0-.1-.386c-.093-.123-.108-.123-.239.023-.116.131-.131.193-.054.4a1.313,1.313,0,0,1-.054,1.073c-.208.255-.355.139-.208-.154.131-.255.154-.617.039-.617-.046,0-.077.046-.077.108,0,.146-.147.239-.239.146a2.271,2.271,0,0,1,.355-1.134A.405.405,0,0,1,161.683-662.389Z" transform="translate(-132.358 668.758)" fill="#020102" fill-rule="evenodd"/>
          <path id="Path_58094" data-name="Path 58094" d="M241.94-631.383a.162.162,0,0,1,.1.147c0,.116-.093.131-.37.062-.093-.031-.17-.1-.17-.154C241.5-631.437,241.747-631.468,241.94-631.383Z" transform="translate(-218.812 639.952)" fill="#020102" fill-rule="evenodd"/>
          <path id="Path_58095" data-name="Path 58095" d="M140.959-611.267c.224.231.27.4.108.4a1.069,1.069,0,0,1-.517-.525C140.55-611.552,140.743-611.491,140.959-611.267Z" transform="translate(-110.145 621.541)" fill="#020102" fill-rule="evenodd"/>
          <path id="Path_58096" data-name="Path 58096" d="M148.383-607.286c.123.177.123.2.015.239-.139.054-.424-.17-.424-.332S148.236-607.486,148.383-607.286Z" transform="translate(-118.031 617.846)" fill="#020102" fill-rule="evenodd"/>
          <path id="Path_58097" data-name="Path 58097" d="M178.928-598.4c.015.054.023.517.015,1.026-.015.756-.046.918-.139.918s-.116-.178-.139-1.026c-.015-.88,0-1.019.1-1.019A.185.185,0,0,1,178.928-598.4Z" transform="translate(-150.869 609.562)" fill="#020102" fill-rule="evenodd"/>
          <path id="Path_58098" data-name="Path 58098" d="M147.751-592.587a2.146,2.146,0,0,1,.255.725c0,.062-.069.108-.147.108-.108,0-.185-.1-.278-.347C147.411-592.549,147.527-592.873,147.751-592.587Z" transform="translate(-117.523 604.204)" fill="#020102" fill-rule="evenodd"/>
          <path id="Path_58099" data-name="Path 58099" d="M340.769-533.964c.4,1.366.957,3.071,1.173,3.619.147.378.27.718.27.748s-.123.031-.27.008c-.193-.031-.278-.015-.309.069a3.642,3.642,0,0,0,.116.9,12.243,12.243,0,0,0,3.241,5.981,10.473,10.473,0,0,0,5.186,3.133l.64.139-.031.957c-.015.525-.031.965-.039.972a10.516,10.516,0,0,1-1.651-.409,15.139,15.139,0,0,1-8.767-9.3,14.019,14.019,0,0,1-.432-1.582l-.1-.548-.417.023c-.224.015-.4,0-.378-.031s.278-.833.586-1.79a20.335,20.335,0,0,1,1.08-2.963C340.7-534.072,340.746-534.041,340.769-533.964Z" transform="translate(-335.113 550.088)" fill="#020102" fill-rule="evenodd"/>
          <path id="Path_58100" data-name="Path 58100" d="M297.506-348.12c.031.046.17.44.309.872s.278.849.309.918c.039.093-.046.147-.386.255a4.966,4.966,0,0,1-.841.177l-.417.046-.085-.34c-.046-.185-.17-.625-.262-.972a2.48,2.48,0,0,1-.139-.679.513.513,0,0,1,.239-.039,4.433,4.433,0,0,0,1.1-.27C297.406-348.174,297.483-348.167,297.506-348.12Z" transform="translate(-279.108 378.544)" fill="#020102" fill-rule="evenodd"/>
        </g>
      </g>
    </g>
  </g>
</svg>
