<svg xmlns="http://www.w3.org/2000/svg" width="70" height="70" viewBox="0 0 70 70">
  <g id="shoulderabductionleft" transform="translate(1231 -6135)">
    <rect id="Rectangle_2514" data-name="Rectangle 2514" width="70" height="70" transform="translate(-1231 6135)" fill="#fff"/>
    <g id="Group_8937" data-name="Group 8937" transform="translate(-1097 6119)">
      <g id="Group_8930" data-name="Group 8930" transform="translate(-112.6 20.359)">
        <path id="Path_60254" data-name="Path 60254" d="M54.9,77.39a.47.47,0,0,0,.319.437c.383.187.447.187.255-.125-.128-.187-.128-.187.064-.312a.855.855,0,0,0,.191-.25c0-.124-.064-.062-.255.125-.064.125-.191.187-.319.312-.064,0-.064-.375.064-.437a.226.226,0,0,0,.064-.187,2.466,2.466,0,0,1,.511-.624,10.818,10.818,0,0,0,.766-.874c.383-.687,1.021-1.312,1.4-1.312.255,0,1.021.749,1.212,1.186.128.25.191.375.255.312.128-.062-.319-.937-.766-1.311a1.191,1.191,0,0,0-.766-.312h-.447V72.582a14.924,14.924,0,0,0-.51-4.121,13.877,13.877,0,0,1-.319-2.185l-.128-1.249.255-.624a4.813,4.813,0,0,0,.319-1.374l.064-.686.191.374c.255.375.574.749.7.749s.064-.25-.128-.312a3.417,3.417,0,0,1-.638-.874c-.447-.812-.447-.874-.383-1.5a3.073,3.073,0,0,1,.128-.75c.128-.187.128-.687.064-.687s-.128.062-.064.125c0,.187-.319-.312-.447-.812a7.214,7.214,0,0,1-.255-1.249c-.064-.374-.191-1-.255-1.374a22.649,22.649,0,0,1-.128-3.622v-.874l.574.562a4.178,4.178,0,0,0,1.085.749,11.118,11.118,0,0,0,3.191.624,3.268,3.268,0,0,1,.766.125,7.4,7.4,0,0,1-.191.874,26.653,26.653,0,0,0-.447,3.871,2.78,2.78,0,0,1-.766,2.248c-.319.374-.383.437-.191.374.255-.062.255-.124.064.812a3.1,3.1,0,0,0,.255,2.061,11.975,11.975,0,0,1,.638,2.5,1.744,1.744,0,0,1-.255.812c-.191.437-.383.937-.574,1.374-.128.5-.384,1.186-.511,1.561a4.026,4.026,0,0,0-.255,1.748,3.462,3.462,0,0,0,.191,1.623c.191.5.191.562.064.812-.191.312-.191.5,0,.437.064-.062.191.062.319.437.191.624.128.937-.255,1.124a.706.706,0,0,0-.319.812.776.776,0,0,1-.064.375c-.191.25-.383.312-.319.125.064-.25-.128-.187-.191.062a1.36,1.36,0,0,1-.191.312.785.785,0,0,1-.893-.125c-.255-.25-.255-.25-.064-.5.128-.187.191-.437.064-.437-.064,0-.064.062-.064.125a.469.469,0,0,1-.128.25.469.469,0,0,0-.128.25.243.243,0,0,1-.383.187c-.128-.125,0-.437.255-.562a.844.844,0,0,0,.191-.25c0-.187-.51.187-.574.5a.291.291,0,0,1-.319.25c-.319,0-.319-.312-.064-.438.128-.062.191-.125.191-.25s-.064-.125-.255.063c-.255.249-.383.686-.191.749a3.176,3.176,0,0,0,.766.062,2.076,2.076,0,0,1,.893.187.983.983,0,0,0,1.085-.125c.128-.062.191-.125.191-.062s.128,0,.255-.125c.255-.187.255-.25.319-.686a1,1,0,0,1,.384-.812c.383-.375.447-.624.128-1.311a1.553,1.553,0,0,1-.128-.749,3.594,3.594,0,0,0-.128-.812,5.614,5.614,0,0,1,.128-3.684c.128-.375.319-1,.447-1.373a11.072,11.072,0,0,1,.511-1.312,1.444,1.444,0,0,0,.191-1.249,15.412,15.412,0,0,0-.447-1.623,6.221,6.221,0,0,1-.383-1.561,5.944,5.944,0,0,1,.319-2.372,2.921,2.921,0,0,0,.319-.624,3.89,3.89,0,0,0,.255-1.687c.128-2.248.511-4.558.766-4.745a.666.666,0,0,0,.191-.436c.064-.25.128-.5.191-.687a7.812,7.812,0,0,0,.255-.874c.064-.312.191-.5.255-.5a8.339,8.339,0,0,1,.7,2.123.443.443,0,0,0,.191.375c.319.25.638,2.31.766,4.745a3.569,3.569,0,0,0,.574,2.248,3.993,3.993,0,0,1,.319,1.249c.192,1.124.128,1.249-.383,2.873a6.705,6.705,0,0,0-.382,1.623,1.726,1.726,0,0,0,.255,1.249,4.161,4.161,0,0,1,.447,1.249,5.277,5.277,0,0,0,.383,1.061,5.631,5.631,0,0,1,.319,3.684,2.173,2.173,0,0,0-.191.874,2.448,2.448,0,0,1-.192.937c-.063.25-.127.5-.19.749a.965.965,0,0,0,.382.5c.319.312.383.437.383.749,0,.438.128.624.766.937a.982.982,0,0,0,1.084.062A2.006,2.006,0,0,1,69,77.7a3.2,3.2,0,0,0,.765-.062c.192-.126.064-.5-.191-.812-.255-.25-.255-.25-.255-.062a.342.342,0,0,0,.191.312c.255.125.255.437-.064.437-.127,0-.255-.062-.255-.125,0-.187-.511-.686-.638-.624a.568.568,0,0,0,.191.312c.319.25.382.5.191.563-.255.062-.447-.063-.383-.25.064-.125,0-.187-.064-.187s-.191-.125-.255-.25c-.127-.25-.127-.25-.127-.062a.471.471,0,0,0,.127.312c.128.125.128.187-.064.375a.794.794,0,0,1-.511.25c-.319,0-.638-.25-.638-.5,0-.062-.064-.125-.128-.187s-.063,0-.063.187c.063.25.063.25-.129.125a.976.976,0,0,1-.255-.624,1,1,0,0,0-.384-.812.82.82,0,0,1-.319-.437c0-.312.319-1,.448-1s.19-.125,0-.5a1.239,1.239,0,0,1,.063-.811,7.055,7.055,0,0,0,.191-1.623,4.26,4.26,0,0,0-.319-2c-.191-.5-.384-1.124-.511-1.436-.128-.375-.255-.749-.382-1.061-.384-.749-.384-.812-.319-1.374a13.8,13.8,0,0,1,.828-2.623c.129-.25.129-.437.064-1.186a6.559,6.559,0,0,0-.191-1.124c-.063-.25-.063-.25.128-.062.319.312.255.062-.128-.375a3.046,3.046,0,0,1-.766-2.373,21.808,21.808,0,0,0-.638-4.5c-.064-.125.064-.187.7-.187a13.752,13.752,0,0,0,3.191-.624,6.728,6.728,0,0,0,1.084-.749,5.769,5.769,0,0,1,.638-.562,35.439,35.439,0,0,1-.191,4.5,13.648,13.648,0,0,0-.255,1.374c-.191,1.061-.638,2.122-.766,1.936-.128-.25-.191-.062-.064.624a2.766,2.766,0,0,1-.191,2.248,4.946,4.946,0,0,1-.638.937.665.665,0,0,0-.255.312c.128.124.638-.312.766-.687l.191-.375.128.812a7.175,7.175,0,0,0,.319,1.249,2.539,2.539,0,0,1,.191,1,12.1,12.1,0,0,1-.383,3,12.292,12.292,0,0,0-.511,4v1.686h-.446c-.384,0-.447.062-.893.437-.447.5-.7.874-.7,1.124,0,.125.127,0,.255-.312.384-.687.83-1.061,1.276-1.061.255,0,.384.062.7.375a3.186,3.186,0,0,1,.574.812,9.791,9.791,0,0,0,.766.937c.319.25.574.5.51.562s0,.187.128.312c.128.187.128.25,0,.312s-.128.062-.128-.062c0-.187-.319-.562-.447-.436a.226.226,0,0,0,.064.187c.192.126.192.438.064.438a.061.061,0,0,0-.064.062.122.122,0,0,0,.192,0c.127-.062.19-.125.319-.125.127-.062.19-.125.19-.375,0-.312-.063-.437-.765-1.061A5.07,5.07,0,0,1,69,75.267a4.168,4.168,0,0,0-.446-.687l-.447-.562.064-1.811a12.791,12.791,0,0,1,.255-2.684,22.665,22.665,0,0,0,.638-3.622,2.547,2.547,0,0,0-.191-1.685,3.36,3.36,0,0,1-.256-1.561,9.947,9.947,0,0,1,.064-1.5v-1a1,1,0,0,1,.128-.937,6.932,6.932,0,0,0,.638-1.936A10.282,10.282,0,0,1,69.7,55.91a55.11,55.11,0,0,0,.128-7.243,11.227,11.227,0,0,0-.383-2.935c-.192-.562-.383-1.311-.447-1.561s-.191-.812-.319-1.249a7.956,7.956,0,0,1-.255-1.186,6.815,6.815,0,0,0-.128-1.061,2.657,2.657,0,0,1,0-1,4.752,4.752,0,0,0,.128-1,8.787,8.787,0,0,1,.51-2.872,3.637,3.637,0,0,0,.319-1.436,10.087,10.087,0,0,1,.383-2c.128-.562.319-1.186.319-1.374,0-.25,0-.312-.191-.312a.492.492,0,0,1-.319-.125c-.064-.062-.064-.125,0-.125s.191-.125.255-.375c.191-.437.766-.687,1.786-.749a10.146,10.146,0,0,0,3.063-.874A8.847,8.847,0,0,1,76.787,28a8.759,8.759,0,0,0,3.957-1.124,9.56,9.56,0,0,1,1.851-.749,4.373,4.373,0,0,1,1.786-.187,4.2,4.2,0,0,1,1.276.187,3.229,3.229,0,0,0,1.085.125h1.02c.383.062.383-.187,0-.624a.876.876,0,0,0-.893-.375c-.574,0-.574,0-.638-.187-.064-.312.255-.375,1.532-.562,1.276-.125,1.532-.25,1.532-.562,0-.187-.064-.25-.256-.312l-.319-.062.256-.187c.319-.25.446-.5.319-.624-.064-.062-.319,0-.7.125a7.122,7.122,0,0,1-1.659.375,4.138,4.138,0,0,0-2.105.624,3.433,3.433,0,0,1-1.914.562,19.747,19.747,0,0,1-1.979-.125,10.119,10.119,0,0,0-1.978-.187c-.829,0-.829,0-2.17.624s-1.34.624-1.85.562a9.2,9.2,0,0,0-2.617.062,5.11,5.11,0,0,1-1.4.125,2.456,2.456,0,0,1-1.34-.25,2.644,2.644,0,0,1-.7-.437c-.128-.125-.255-.125-.83-.062A5.5,5.5,0,0,0,66.96,25a1.981,1.981,0,0,1-1.851-.562c-.255-.187-.255-.25-.191-.937a1.61,1.61,0,0,1,.319-1.061c.255-.375.255-.437.255-1.748a14.891,14.891,0,0,0-.064-1.686,2.938,2.938,0,0,0-1.978-1.561,1.6,1.6,0,0,0-.766-.062,3.769,3.769,0,0,0-1.724.874,1.474,1.474,0,0,0-.574.937,3.29,3.29,0,0,0,0,1.124,1.042,1.042,0,0,1,0,.624,2.056,2.056,0,0,0,.064,1.249c.064.125.128.312.255.375s.191.312.191.874c.064.937.064,1-.638,1.311-.7.375-.957.375-1.34.25a7.561,7.561,0,0,0-1.149-.25c-.7-.062-.766-.062-.893.062a.227.227,0,0,1-.128.062v.312c.064,0,.064,0,.128-.062a4.581,4.581,0,0,1-.064.937,12.868,12.868,0,0,0-.128,1.561,1.693,1.693,0,0,1-.064.562,2.246,2.246,0,0,1-.064,1.124c.064.187,0,.312,0,.562l-.128.437-.128-.375c-.064.062-.064.125-.128.187.064.062.128.187.191.25.128.062-.064.187-.319.25-.255,0-.191.188.128,1.623.191.687.255,1.311.384,2a4.212,4.212,0,0,0,.319,1.5,8.788,8.788,0,0,1,.51,2.873,5.3,5.3,0,0,0,.128,1,2.979,2.979,0,0,1,.064.749c-.064.25-.128.75-.191,1.186a9.507,9.507,0,0,1-.255,1.311c-.064.25-.319,1-.447,1.561a13.338,13.338,0,0,1-.447,1.5,4.451,4.451,0,0,0-.255,1.561c-.128,1.5-.128,7.243,0,7.93a15.756,15.756,0,0,0,.766,3.434,1.772,1.772,0,0,1,.191,1.5c-.064.624-.064.812.064,1.062a4.963,4.963,0,0,1-.191,2.559,2.464,2.464,0,0,0-.191,1.5,17.734,17.734,0,0,0,.574,3.683,13.953,13.953,0,0,1,.255,2.81l.064,2-.319.375-.574.749a6.31,6.31,0,0,1-.83,1c-.828.937-.892,1-.892,1.311m9.7-54.636a3.339,3.339,0,0,1-1.212,2.373,1.531,1.531,0,0,1-1.468,0A3.149,3.149,0,0,1,60.9,23.753a4.131,4.131,0,0,1-.128-.874c0-.437-.128-.687-.191-.375,0,.062-.128,0-.191-.187-.191-.312-.255-1.249-.064-1.061s.191.062.064-.5a3.339,3.339,0,0,1-.064-1.124,1.231,1.231,0,0,1,.447-1,4.78,4.78,0,0,1,.893-.687,2.157,2.157,0,0,1,2.043-.062,2.712,2.712,0,0,1,1.34,1.311,3.6,3.6,0,0,1-.191,2c-.064.125-.064.125.128.125.191-.062.191-.062.128.375-.064.624-.255.937-.383.812-.064-.125-.128-.062-.128.25m22.973,1.5.574-.187c.128-.062.7,0,.766.125s-.511.312-1.4.375c-.83.125-.83,0,.064-.312M69.131,30.435c-.064,0-.128-.187-.128-.375-.064-.375,0-.5.319-1.124a2.072,2.072,0,0,1,.638-.874c.128-.062.255-.187.255-.25s-.064-.062-.319.062a1.762,1.762,0,0,0-.7.874l-.128.312-.064-1a16.925,16.925,0,0,0-.192-1.873,4.672,4.672,0,0,1-.063-.937,1.935,1.935,0,0,1,.638.25,3.015,3.015,0,0,0,1.339.312,7.1,7.1,0,0,0,1.66-.187,6.159,6.159,0,0,1,2.616,0c.383.062.51,0,1.723-.562L78,24.44h.83a10.61,10.61,0,0,1,1.978.187,6.892,6.892,0,0,0,1.978.125A3.43,3.43,0,0,0,84.7,24.19a4.031,4.031,0,0,1,1.659-.562l.574-.062-.51.187a4.608,4.608,0,0,0-.447.25,12.683,12.683,0,0,0,2.616-.812c.511-.25.574-.25.319.062A3.509,3.509,0,0,1,87.383,24a4.065,4.065,0,0,0-1.4.874v.437l.064.312.574-.062c.574-.062.574-.062.893.25a1.3,1.3,0,0,1,.255.375,6.64,6.64,0,0,1-2.234-.125,4.2,4.2,0,0,0-1.276-.187A5.758,5.758,0,0,0,82.468,26a11.555,11.555,0,0,0-2.042.812,9.332,9.332,0,0,1-2.872,1.061c-.255,0-.574.062-.766.062s-.255,0-.255-.062c.064-.125-.128-.125-.319,0l-.766.187a3.915,3.915,0,0,0-1.213.375,9.786,9.786,0,0,1-2.935.812,5.029,5.029,0,0,0-.957.125c-.383.125-.447.125-.511,0-.064-.187-.128-.125-.319.437-.255.437-.383.624-.383.624m-1.149,8.429a3.2,3.2,0,0,1-.255,1.311,3.975,3.975,0,0,0-.255.812,2.391,2.391,0,0,1-.957,1.5c-.574.437-1.786.687-3.7.687-2.042,0-3.446-.187-4.084-.624a2.434,2.434,0,0,1-.957-1.436,5.36,5.36,0,0,0-.319-.937,2.752,2.752,0,0,1-.255-1.249,8.5,8.5,0,0,0-.51-2.872,3.637,3.637,0,0,1-.319-1.436,11.691,11.691,0,0,0-.383-2.061c-.319-1.374-.319-1.436-.064-1.5.128,0,.255-.187.384-.375.191-.312.191-.562.255-2a14.55,14.55,0,0,1,.128-2.185,4.626,4.626,0,0,0,.064-.937c0-.187,0-.375.064-.375a7.21,7.21,0,0,1,1.6.312,1.118,1.118,0,0,1,.574.5q.287.375.383.375c.064,0-.064-.187-.191-.375-.064-.125-.191-.187-.191-.312a.921.921,0,0,1,.383-.125l.766-.375a1.609,1.609,0,0,1,.447-.25.777.777,0,0,1,.064.375,1.444,1.444,0,0,0,.128.5c.191.25.191.062.064-.5-.191-.687-.128-.937.064-.562a3.471,3.471,0,0,0,.383.5,3.528,3.528,0,0,1,.511.812,1.472,1.472,0,0,0,.383.562c.128,0,.064-.187-.128-.562l-.191-.375.319.062a1.11,1.11,0,0,0,.638,0c.383-.062.383-.062.191.187s-.255.624-.191.624a3.447,3.447,0,0,0,.574-1.061c0-.062.064-.125.128-.187a1.706,1.706,0,0,0,.447-.5,1.755,1.755,0,0,0,.319-.5,3.126,3.126,0,0,1-.191,1.061q-.1.468,0,.375a.376.376,0,0,0,.191-.375c.128-.562.128-.562.51-.312a2.178,2.178,0,0,0,.766.375,1.616,1.616,0,0,1,.447.187.383.383,0,0,1-.128.25c-.128.125-.191.187-.319.187a8.156,8.156,0,0,0-2.17.812c0,.125.064.062,1.148-.312.83-.312,1.022-.375,1.085-.25s.127.062.319-.187c.446-.562.51-.624,1.851-.812l.383-.062.127,1.061c.064.562.129,1.748.192,2.685.064,1.811.191,2.248.638,2.248.255,0,.319-.125-.128,1.623-.191.687-.255,1.311-.383,2A3.637,3.637,0,0,1,68.3,36.3a13.928,13.928,0,0,0-.32,2.56M56.24,46.045c.128-.375.319-1.061.447-1.561.128-.437.255-.937.383-1.374l.191-.5v.375a1.218,1.218,0,0,0,.766,1.061c.191.062.511.187.7.25.957.375,2.17.562,2.17.375,0-.062-.128-.125-.383-.125a7.948,7.948,0,0,1-2.616-.812c-.447-.187-.511-.437-.511-1.686a9.9,9.9,0,0,1,.064-1.374c.064-.187.128-.187.191.25a2.494,2.494,0,0,0,1.021,1.623c.638.5,1.723.687,4.02.687,2.872,0,3.829-.312,4.6-1.311a2.164,2.164,0,0,0,.382-.874c.064-.25.064-.437.128-.437a3.308,3.308,0,0,1,.191,1.561,3.008,3.008,0,0,0-.063.749,2.178,2.178,0,0,1-.128.624,7.33,7.33,0,0,1-2.936,1.061c-.191,0-.383.062-.383.125,0,.25,1.276,0,2.105-.375l.575-.187a1.938,1.938,0,0,0,.829-.562,1.8,1.8,0,0,0,.128-.624v-.437l.255.624c.127.375.319,1.061.446,1.561s.319,1.186.447,1.561a8.079,8.079,0,0,1,.319,2.623c.128,2.435.128,2.435-.766,3.247a4.085,4.085,0,0,1-2.68,1.125c-1.468.249-2.426.249-2.426,0-.191-.75-.382-1.437-.638-2.185-.064-.126,0-.188.255-.25.382-.125.829-.5.7-.624a.591.591,0,0,0-.319.187,1.409,1.409,0,0,1-1.914-.062c-.128-.125-.255-.187-.319-.125-.128.125.383.5.7.624s.319.125.255.375a7.957,7.957,0,0,0-.383,1.249l-.319,1h-.574a12.92,12.92,0,0,1-3.063-.437,3.589,3.589,0,0,1-1.851-1.311c-.319-.375-.319-.375-.319-1.5a10.27,10.27,0,0,1,.319-4.184" transform="translate(-51.39 -17.359)" fill="#020102"/>
        <path id="Path_60255" data-name="Path 60255" d="M49.591,59.771a5.354,5.354,0,0,0-.191.874c0,.125.447,0,.638-.25l.255-.25.128.25c.191.312.447.312.574-.062a9.121,9.121,0,0,0,.128-1.311c.064-1.249.128-1.561.384-1.561.191,0,.191.062.255.562.064.562.064.624.384.812.319.25.829.312.766.062a.874.874,0,0,0-.128-.375,1.5,1.5,0,0,1-.064-.749,1.209,1.209,0,0,0-.191-.937,11.039,11.039,0,0,1-.383-1.374,6.091,6.091,0,0,1,.574-3.622,8.245,8.245,0,0,0,.83-3.871,6.356,6.356,0,0,1,.255-2.435,11.471,11.471,0,0,0,.574-2.872h-.191a11.877,11.877,0,0,1-.574,3,4.249,4.249,0,0,0-.191.874,4.133,4.133,0,0,1-.128.874c-.064.187-.064.375,0,.375a5.089,5.089,0,0,1-.064,2.185c-.064.312-.383,1.186-.638,1.873a5.581,5.581,0,0,0-.574,3.746,7.175,7.175,0,0,0,.319,1.249,6.264,6.264,0,0,1,.319,2.185c-.128-.062-.255-.187-.383-.25-.319-.25-.319-.312-.319-.812V57.4h-.319a.571.571,0,0,0-.447.062,6.021,6.021,0,0,0-.7,1.436,4.006,4.006,0,0,1-.574,1.436l-.191.188c.064-.312.128-.563.191-.812a5.6,5.6,0,0,0,.447-2.248.7.7,0,0,0-.191.5l-.128.437v-.624a4.18,4.18,0,0,1,.447-1.748,2.962,2.962,0,0,0,.384-1.936,8.312,8.312,0,0,0-.384-1.811A9.816,9.816,0,0,1,50.1,50.4a3.49,3.49,0,0,1,.319-2c.255-.624.447-1.249.511-1.311.064-.125.064-.312-.064-.812a4.957,4.957,0,0,1-.191-2.373,8.5,8.5,0,0,0,0-1.811h-.191c0,.125.064.25.064.375a4.953,4.953,0,0,1,0,1.374,6.524,6.524,0,0,0,.191,2.5c.128.5.128.5-.383,1.873s-.511,1.374-.383,2.185a8.311,8.311,0,0,0,.383,1.811,9.767,9.767,0,0,1,.383,1.873,3.194,3.194,0,0,1-.383,2,4.36,4.36,0,0,0-.447,2c-.128.562-.191,1.124-.319,1.686m.893-.25a.777.777,0,0,0,.064-.375l.191-.562q.191-.468.191-.187v.874c0,.687-.064,1.186-.255,1.186a.964.964,0,0,1-.191-.937" transform="translate(-49.4 -26.651)" fill="#020102"/>
        <path id="Path_60256" data-name="Path 60256" d="M87.156,30.9a.375.375,0,0,0-.255.062c.063.062.19.125.255.062.128,0,.191,0,.064.125s-.129.25,0,.25.319-.375.255-.437c0-.062-.191-.062-.319-.062" transform="translate(-62.97 -22.445)" fill="#020102"/>
        <path id="Path_60257" data-name="Path 60257" d="M80.442,34.575c-.319.062-.893.187-1.531.312-.319.062-.511.125-.511.187,0,.187,1.914-.25,2.106-.437.128-.125.128-.125-.064-.062" transform="translate(-59.894 -23.81)" fill="#020102"/>
        <path id="Path_60258" data-name="Path 60258" d="M83.255,34.821c-.255.125-.319.125-.192.187a.485.485,0,0,0,.319-.062.829.829,0,0,1,.384-.062.488.488,0,0,0,.319-.062c.064-.062,0-.125-.128-.062s-.191,0-.191,0c0-.125-.128-.062-.511.062" transform="translate(-61.558 -23.869)" fill="#020102"/>
        <path id="Path_60259" data-name="Path 60259" d="M81.751,34.81a4.442,4.442,0,0,0-.51.187c-.128.062-.128.062-.064.125.128.125.957-.187.957-.375,0-.125,0-.125-.384.062" transform="translate(-60.883 -23.857)" fill="#020102"/>
        <path id="Path_60260" data-name="Path 60260" d="M62.08,31.055a12.673,12.673,0,0,0,2.17.749c0-.062,0-.062-.064-.062s-.447-.187-.957-.375c-.7-.312-1.34-.5-1.149-.312" transform="translate(-53.976 -22.475)" fill="#020102"/>
        <path id="Path_60261" data-name="Path 60261" d="M67.774,32.5c-.064.062-.191.062-.255.125-.191.062-.191.25,0,.25a.411.411,0,0,0,.383-.312c0-.062-.064-.062-.128-.062" transform="translate(-55.904 -23.046)" fill="#020102"/>
        <path id="Path_60262" data-name="Path 60262" d="M66.081,32.7a.334.334,0,0,0,.255.125c.255,0,.255-.125,0-.25-.319-.062-.319-.062-.255.125" transform="translate(-55.424 -23.061)" fill="#020102"/>
        <path id="Path_60263" data-name="Path 60263" d="M65.4,61.172c0,.125.383.187,1.021.187s1.149-.062,1.149-.187a12.589,12.589,0,0,0-2.17,0" transform="translate(-55.19 -33.797)" fill="#020102"/>
        <path id="Path_60264" data-name="Path 60264" d="M72.9,63.692c0,.062.064.062.255-.062a2.3,2.3,0,0,1,.574-.25.491.491,0,0,0,.319-.125c0-.25-1.021.187-1.148.437" transform="translate(-57.903 -34.569)" fill="#020102"/>
        <path id="Path_60265" data-name="Path 60265" d="M59.4,63.238c0,.062.064.062.128.062l.574.187a1.2,1.2,0,0,0,.447.125c.064-.062-.383-.375-.766-.437-.319-.062-.383-.062-.383.062" transform="translate(-53.018 -34.552)" fill="#020102"/>
        <path id="Path_60266" data-name="Path 60266" d="M72.787,64.2a5.561,5.561,0,0,0-1.978,1.811c-.319.562-.128.5.255-.062a7.223,7.223,0,0,1,1.531-1.561q.288-.187.192-.187" transform="translate(-57.088 -34.952)" fill="#020102"/>
        <path id="Path_60267" data-name="Path 60267" d="M60.137,64.2c-.191,0-.191,0,.447.437a6.267,6.267,0,0,1,1.468,1.685c.064.188.255.25.255.126a5.54,5.54,0,0,0-1.6-1.936,1.313,1.313,0,0,0-.574-.312" transform="translate(-53.245 -34.952)" fill="#020102"/>
        <path id="Path_60268" data-name="Path 60268" d="M81.19,37.559c.064.25.064.437.128.687a1.351,1.351,0,0,0,.191.5c.128.062.128-.062.064-.562a1.635,1.635,0,0,0-.192-.749c-.128-.187-.256-.125-.191.125" transform="translate(-60.897 -24.858)" fill="#020102"/>
        <path id="Path_60269" data-name="Path 60269" d="M81.893,40.523a6.267,6.267,0,0,0,.829,1.748c.192,0,.128-.187-.191-.874a8.627,8.627,0,0,1-.384-.937c-.128-.375-.319-.25-.255.062" transform="translate(-61.153 -25.949)" fill="#020102"/>
        <path id="Path_60270" data-name="Path 60270" d="M96.56,55.9a2.84,2.84,0,0,1-.3-1.356,3.028,3.028,0,0,1,.925-.445,3.349,3.349,0,0,1,.626,1.56,2.617,2.617,0,0,1-.622.209c-.313.06-.536.116-.631.032" transform="translate(-66.356 -31.16)" fill="#020102"/>
        <path id="Path_60271" data-name="Path 60271" d="M99.94,48.323c-.588-.854-.588-.854-.241-1.137a6.868,6.868,0,0,0,1.955-4.831c-.1-1.1-.2-1.272-.688-1.026-.35.195-.408-.024-.27-.826.114-.4.209-1.161.275-1.606.128-.98.219-.984,1.11-.367a7.092,7.092,0,0,1,2.034,1.708.608.608,0,0,1-.521.381c-.181.009-.223.055-.167.273a8.476,8.476,0,0,1-.029,2.831,9.223,9.223,0,0,1-2.378,4.543c-.678.83-.588.826-1.082.056" transform="translate(-67.515 -25.151)" fill="#020102"/>
        <path id="Path_60272" data-name="Path 60272" d="M83.629,44.1c-.191,0-.191.062.191.562a2.572,2.572,0,0,1,.447.687c.064.25.255.25.255,0a1.467,1.467,0,0,0-.382-.687,1.527,1.527,0,0,0-.511-.562" transform="translate(-61.74 -27.402)" fill="#020102"/>
        <path id="Path_60273" data-name="Path 60273" d="M77.461,44.3c-.128.062-.128.062.447.812.384.562.574.687.574.437a4.635,4.635,0,0,0-.447-.749c-.319-.25-.574-.562-.574-.5" transform="translate(-59.529 -27.473)" fill="#020102"/>
        <path id="Path_60274" data-name="Path 60274" d="M79.49,47.09c-.128.125.447,1,.638,1,.064,0,.128,0,.128-.062a4.588,4.588,0,0,0-.447-.749c-.128-.125-.255-.25-.319-.187" transform="translate(-60.281 -28.519)" fill="#020102"/>
        <path id="Path_60275" data-name="Path 60275" d="M85.7,47.9c.255.312.51.687.574.749s.128.125.191.125c.128-.125-.191-.687-.638-1.186-.574-.624-.638-.375-.127.312" transform="translate(-62.411 -28.577)" fill="#020102"/>
        <path id="Path_60276" data-name="Path 60276" d="M80.822,50.2c.127.375.255.562.319.5a1.565,1.565,0,0,0-.255-1.061c-.256-.25-.256,0-.064.562" transform="translate(-60.721 -29.448)" fill="#020102"/>
        <path id="Path_60277" data-name="Path 60277" d="M87.4,50.744c.064.187.064.437.127.624a3.074,3.074,0,0,1,.128.812c0,.187.064.312.128.312s.128-.062.128-.25a12.8,12.8,0,0,0-.319-1.5.1.1,0,0,0-.192,0" transform="translate(-63.15 -29.863)" fill="#020102"/>
        <path id="Path_60278" data-name="Path 60278" d="M81.193,52.465a4.525,4.525,0,0,0,1.085,2.123c.191,0,.064-.25-.255-.812a4.935,4.935,0,0,1-.51-1c-.128-.375-.192-.437-.32-.312" transform="translate(-60.9 -30.522)" fill="#020102"/>
        <path id="Path_60279" data-name="Path 60279" d="M88.34,54.6c-.128,0-.128.187-.064.937.064.687.191.5.191-.25,0-.562,0-.687-.127-.687" transform="translate(-63.452 -31.346)" fill="#020102"/>
        <path id="Path_60280" data-name="Path 60280" d="M83.5,56.218a5.468,5.468,0,0,0,.383.624c.255.375.383.5.511.437.064-.062,0-.312-.447-.937-.255-.25-.446-.375-.446-.125" transform="translate(-61.739 -31.903)" fill="#020102"/>
        <path id="Path_60281" data-name="Path 60281" d="M88.564,57.7c-.064,0-.064.125-.064.437,0,.25.064.562.064.687,0,.187.064.25.128.25.127,0,.127-.062.064-.624a2.6,2.6,0,0,0-.128-.687c.063,0,0-.062-.064-.062" transform="translate(-63.548 -32.511)" fill="#020102"/>
        <path id="Path_60282" data-name="Path 60282" d="M85.423,59.2c-.191,0-.191.125.064.562.191.312.255.437.319.375s.064-.25-.128-.5a.629.629,0,0,0-.255-.437" transform="translate(-62.385 -33.074)" fill="#020102"/>
        <path id="Path_60283" data-name="Path 60283" d="M89,60.923c0,.25.383.937.511.937.191,0,.128-.125-.128-.624-.191-.437-.383-.562-.383-.312" transform="translate(-63.729 -33.673)" fill="#020102"/>
        <path id="Path_60284" data-name="Path 60284" d="M85.408,62.09a1.361,1.361,0,0,1-.064,1.311,2.59,2.59,0,0,0-.255.624,1.971,1.971,0,0,1-.957.937c-.638.312-.191.811.83.811a1.13,1.13,0,0,0,.766-.249c.383-.25.511-.25.7.187a2.046,2.046,0,0,1-.128,1.623c-.319.624-.319,1.062,0,1.187a.493.493,0,0,1,.319.374.4.4,0,0,0,.319.375c.256.062.384-.063.447-.5a4.586,4.586,0,0,1,.957-1.623,1.362,1.362,0,0,0,.319-.75,6.163,6.163,0,0,1,.191-.937,1.68,1.68,0,0,0-.127-1.249c-.384-1.186-.574-1.685-.7-1.685-.064,0-.128.062-.064.124.255.75.511,1.5.7,2.248a6.838,6.838,0,0,1-.191,1,3.067,3.067,0,0,1-.511,1.249l-.319.437L87.577,66.4a4.653,4.653,0,0,0-.191-1.311c-.064-.062-.128.25-.064,1.374a6.881,6.881,0,0,1-.128,2c-.128.5-.191.5-.319.375s-.128-.437-.064-1.437c.064-1.436,0-1.873-.447-2.185-.255-.188-.446-.126-.893.249a.8.8,0,0,1-.638.126,1.039,1.039,0,0,1-.574-.188c-.128-.124-.128-.124.191-.25.383-.187.957-.687.957-.937a1.86,1.86,0,0,1,.255-.624,1.17,1.17,0,0,0,.128-1.124q-.1-.375-.191-.749c-.255-.312-.319-.062-.191.375m1.085,5.62c.128-.188.128-.125.064.124a2.176,2.176,0,0,1-.064.375.062.062,0,0,1-.064.062c-.064,0-.064-.062-.064-.187-.064-.126,0-.25.128-.375" transform="translate(-61.861 -33.966)" fill="#020102"/>
        <path id="Path_60285" data-name="Path 60285" d="M74.095,85.3a2.566,2.566,0,0,0-.447.687c-.256.5-.447.686-.575.749-.19.062-.319.25-.127.25.255,0,.446-.25.829-.874.128-.25.255-.5.384-.749.064-.063,0-.063-.064-.063" transform="translate(-57.886 -42.877)" fill="#020102"/>
        <path id="Path_60286" data-name="Path 60286" d="M59.257,85.3c-.128,0-.128.063.255.624a2.892,2.892,0,0,1,.319.624c0,.125.383.375.511.375.191,0,.128-.126-.064-.188a1.7,1.7,0,0,1-.574-.749,2.566,2.566,0,0,0-.447-.687" transform="translate(-52.939 -42.877)" fill="#020102"/>
        <path id="Path_60287" data-name="Path 60287" d="M55.567,29.7s-3.127.125-4.467,7.805" transform="translate(-50.015 -21.994)" fill="none" stroke="#020102" stroke-miterlimit="10" stroke-width="0.25"/>
      </g>
    </g>
  </g>
</svg>
