<svg xmlns="http://www.w3.org/2000/svg" width="70" height="70" viewBox="0 0 70 70">
  <g id="shoulderadductionright" transform="translate(1173 -6215)">
    <rect id="Rectangle_2514" data-name="Rectangle 2514" width="70" height="70" transform="translate(-1173 6215)" fill="#fff"/>
    <g id="Group_8935" data-name="Group 8935" transform="translate(-1166.578 6218.836)">
      <path id="Path_60219" data-name="Path 60219" d="M74.092,77.133a4.31,4.31,0,0,1-.956-1.008,3.045,3.045,0,0,0-.661-.756l-.368-.378.073-2.014a12.328,12.328,0,0,1,.295-2.834,12.793,12.793,0,0,0,.661-3.715,2.642,2.642,0,0,0-.221-1.512,3.925,3.925,0,0,1-.22-2.581c.147-.253.147-.441.074-1.071a1.827,1.827,0,0,1,.22-1.511,14.237,14.237,0,0,0,.883-3.463,72.458,72.458,0,0,0,0-8,5.529,5.529,0,0,0-.294-1.574,12.216,12.216,0,0,1-.515-1.511,7.6,7.6,0,0,0-.516-1.574,8.621,8.621,0,0,1-.294-1.322,10.591,10.591,0,0,0-.22-1.2.916.916,0,0,1,.074-.756,4.81,4.81,0,0,0,.147-1.008,7.879,7.879,0,0,1,.588-2.9,3.8,3.8,0,0,0,.368-1.511,9.052,9.052,0,0,1,.441-2.015c.442-1.448.442-1.637.149-1.637s-.516-.126-.368-.252c.073-.063.146-.189.219-.252-.073-.063-.073-.126-.146-.189l-.148.378-.146-.441a.744.744,0,0,1,0-.567,1.988,1.988,0,0,1-.074-1.133c0-.189-.074-.378-.074-.567a11.392,11.392,0,0,0-.147-1.574,4.094,4.094,0,0,1-.074-.945c.074,0,.074,0,.147.063V25.5c-.074,0-.074-.063-.147-.063-.147-.126-.221-.126-1.03-.063a9.775,9.775,0,0,0-1.324.252,1.869,1.869,0,0,1-1.545-.252c-.809-.378-.809-.378-.735-1.322.074-.567.147-.819.221-.882a1.3,1.3,0,0,0,.293-.378,1.876,1.876,0,0,0,.074-1.259.918.918,0,0,1,0-.63,2.939,2.939,0,0,0,0-1.133,1.475,1.475,0,0,0-.662-.945,4.6,4.6,0,0,0-1.987-.882,4.163,4.163,0,0,0-.882.063,3.513,3.513,0,0,0-2.281,1.574,13.154,13.154,0,0,0-.074,1.7c0,1.322,0,1.385.294,1.763a1.482,1.482,0,0,1,.368,1.071c.074.693.074.693-.221.945a2.37,2.37,0,0,1-2.132.567,11.512,11.512,0,0,0-1.251-.252c-.662-.063-.809-.063-.955.063a3.146,3.146,0,0,1-.81.441,2.59,2.59,0,0,1-1.544.252A15.374,15.374,0,0,1,55.042,26a9.642,9.642,0,0,0-3.015-.063c-.588.063-.662.063-2.133-.567a4.632,4.632,0,0,0-2.5-.63,13.923,13.923,0,0,0-2.28.189,9.249,9.249,0,0,1-2.28.126,4.372,4.372,0,0,1-2.206-.567,5.279,5.279,0,0,0-2.427-.63,6.382,6.382,0,0,1-1.912-.378c-.515-.189-.735-.189-.809-.126-.147.126,0,.378.368.63l.294.189-.368.063c-.221.063-.294.126-.294.315,0,.315.294.378,1.765.567,1.471.126,1.839.252,1.765.567,0,.189-.074.189-.735.189s-.735,0-1.03.378c-.441.441-.441.692,0,.63h1.177a4.224,4.224,0,0,0,1.25-.126,5.863,5.863,0,0,1,1.471-.189,5.581,5.581,0,0,1,2.059.189,20.065,20.065,0,0,1,2.133.756,10.288,10.288,0,0,0,4.56,1.133,7.1,7.1,0,0,1,2.574.441,13,13,0,0,0,3.53.882c1.177.063,1.839.315,2.059.756.074.189.221.378.294.378s.074.063,0,.126a.614.614,0,0,1-.368.126c-.221,0-.221.063-.221.315a5.625,5.625,0,0,0,.368,1.385,9.9,9.9,0,0,1,.441,2.015,3.288,3.288,0,0,0,.368,1.448,7.88,7.88,0,0,1,.588,2.9,5.48,5.48,0,0,0,.146,1.008,2.3,2.3,0,0,1,0,1.007,6.121,6.121,0,0,0-.146,1.071,7.113,7.113,0,0,1-.294,1.2,10.825,10.825,0,0,0-.368,1.259c-.074.251-.294,1.008-.515,1.574a6.768,6.768,0,0,0-.441,2.959,40.284,40.284,0,0,0,.147,7.305c.074.377.221,1.007.294,1.385a4.93,4.93,0,0,0,.735,1.952.888.888,0,0,1,.147.945,2.325,2.325,0,0,0,0,1.007,8.791,8.791,0,0,1,.074,1.512,2.9,2.9,0,0,1-.294,1.574,2.319,2.319,0,0,0-.221,1.7,16.108,16.108,0,0,0,.735,3.652,11.313,11.313,0,0,1,.295,2.707l.073,1.827-.515.566a2.592,2.592,0,0,0-.515.693,3.5,3.5,0,0,1-.883.881c-.735.693-.883.819-.883,1.071s.074.378.221.378c.147.063.221.063.368.125s.221.064.221,0c.074-.062,0-.062-.074-.062-.147,0-.147-.315.074-.441.074-.062.147-.126.074-.188-.074-.127-.515.252-.515.441,0,.125,0,.125-.147.062-.147-.126-.147-.126,0-.315a.979.979,0,0,0,.147-.315,1.656,1.656,0,0,1,.588-.567,2.9,2.9,0,0,0,.883-.945,9.421,9.421,0,0,1,.662-.819c.368-.315.515-.377.809-.377a2.215,2.215,0,0,1,1.471,1.07c.147.315.294.378.294.315.074-.252-.221-.63-.81-1.133-.441-.378-.514-.441-1.029-.441h-.515v-1.7a10.792,10.792,0,0,0-.588-4.031,10.735,10.735,0,0,1-.441-3.023,2.494,2.494,0,0,1,.221-1.008,8.2,8.2,0,0,0,.368-1.259l.146-.819.221.378c.22.377.735.818.882.692,0-.062-.073-.189-.293-.315a8.237,8.237,0,0,1-.735-.945,2.48,2.48,0,0,1-.221-2.266c.147-.63.147-.882-.074-.63-.147.251-.662-.819-.883-1.953a9.983,9.983,0,0,0-.294-1.385q-.221-2.267-.221-4.533a6.325,6.325,0,0,1,.735.566,4.906,4.906,0,0,0,1.25.756,14.414,14.414,0,0,0,3.677.63c.735.063.883.063.81.189a19.368,19.368,0,0,0-.735,4.534,2.847,2.847,0,0,1-.883,2.393c-.441.441-.588.693-.147.378.22-.19.22-.19.147.062a5.775,5.775,0,0,0-.22,1.133c-.148.756-.074.945.073,1.2a19.087,19.087,0,0,1,.956,2.645c.147.566.074.692-.368,1.385a2.823,2.823,0,0,0-.441,1.071,12.467,12.467,0,0,1-.588,1.448,3.218,3.218,0,0,0-.368,2.015,3.092,3.092,0,0,0,.22,1.638,1.1,1.1,0,0,1,.074.818c-.147.378-.147.5,0,.5s.515.693.515,1.008a.826.826,0,0,1-.368.441.82.82,0,0,0-.441.819c-.074.378-.074.567-.295.63-.22.126-.22.126-.147-.125,0-.19,0-.253-.074-.19s-.147.126-.147.19c0,.251-.441.5-.735.5a.71.71,0,0,1-.588-.252c-.22-.189-.294-.251-.074-.378a.445.445,0,0,0,.147-.315c0-.188,0-.188-.147.063-.074.126-.221.252-.294.252s-.074.063-.074.189c.074.19-.147.315-.441.253-.221-.063-.074-.315.221-.567a.557.557,0,0,0,.221-.315c-.074-.125-.735.441-.735.63,0,.064-.074.126-.294.126-.368,0-.368-.315-.074-.441a.342.342,0,0,0,.22-.315c0-.189,0-.189-.294.064s-.441.692-.22.819a4.2,4.2,0,0,0,.883.062,2.323,2.323,0,0,1,.956.19,1.274,1.274,0,0,0,1.25-.064c.735-.315.883-.5.883-.945,0-.315.074-.441.441-.756a3.519,3.519,0,0,0,.441-.5l-.221-.756a4.348,4.348,0,0,1-.22-.945,1.775,1.775,0,0,0-.221-.881,5.033,5.033,0,0,1,.368-3.716c.147-.377.294-.692.441-1.071a9.211,9.211,0,0,1,.516-1.259,1.566,1.566,0,0,0,.293-1.259,6.779,6.779,0,0,0-.442-1.637c-.661-1.7-.661-1.827-.441-2.9a8.039,8.039,0,0,1,.368-1.259,3.282,3.282,0,0,0,.662-2.268c.146-2.519.514-4.534.882-4.785.074-.126.149-.253.221-.378a10.9,10.9,0,0,1,.809-2.14c.073,0,.147.251.294.5a7.079,7.079,0,0,0,.294.882c.074.251.147.44.22.693a.538.538,0,0,0,.221.441c.294.189.735,2.519.883,4.785a3.359,3.359,0,0,0,.295,1.7,1.854,1.854,0,0,0,.368.63,5.326,5.326,0,0,1,.368,2.392,6.343,6.343,0,0,1-.442,1.574,14.051,14.051,0,0,0-.515,1.638,1.307,1.307,0,0,0,.221,1.259,10.323,10.323,0,0,1,.588,1.322c.147.377.368,1.007.515,1.385a4.67,4.67,0,0,1,.147,3.715,2.78,2.78,0,0,0-.147.819,2.773,2.773,0,0,1-.147.755c-.295.756-.295.945.147,1.323a.966.966,0,0,1,.441.819c.074.377.074.5.368.692a.5.5,0,0,0,.294.126c0-.062.074,0,.221.064a1.263,1.263,0,0,0,1.25.125,2.691,2.691,0,0,1,1.029-.189c.295,0,.589-.062.883-.062.22-.126.074-.5-.221-.756s-.294-.253-.294-.063c0,.125.074.189.221.251.294.127.294.441-.074.441a.37.37,0,0,1-.368-.253c-.074-.251-.662-.692-.662-.5,0,.127.074.189.221.253.221.125.368.44.293.566a.286.286,0,0,1-.441-.189.315.315,0,0,0-.148-.252.314.314,0,0,1-.147-.251.213.213,0,0,0-.073-.127c-.149,0-.149.189.073.441s.221.251-.073.5a1.177,1.177,0,0,1-1.03.127.344.344,0,0,1-.221-.315c-.074-.253-.293-.315-.22-.064.073.19-.148.126-.368-.125-.074-.126-.148-.253-.074-.378a.729.729,0,0,0-.368-.819c-.442-.188-.516-.5-.294-1.133.147-.378.22-.5.368-.441.22.063.22-.062,0-.441-.148-.251-.148-.315.073-.819a3.08,3.08,0,0,0,.221-1.637,3.734,3.734,0,0,0-.294-1.764c-.148-.378-.441-1.07-.588-1.574a4.933,4.933,0,0,0-.662-1.385,1.841,1.841,0,0,1-.294-.819,14.509,14.509,0,0,1,.735-2.519,2.778,2.778,0,0,0,.294-2.078c-.221-.945-.221-.882.074-.819.221.063.147,0-.221-.378-.735-.755-.809-.945-.883-2.267a22.825,22.825,0,0,0-.515-3.9,6.576,6.576,0,0,1-.221-.881,4.22,4.22,0,0,1,.883-.127,17.806,17.806,0,0,0,3.677-.63,4.876,4.876,0,0,0,1.25-.756l.663-.566v.881a20.248,20.248,0,0,1-.148,3.653c-.074.378-.22.945-.294,1.385a7.856,7.856,0,0,1-.293,1.259c-.221.5-.516,1.008-.516.819a.21.21,0,0,0-.074-.126c-.074,0-.074.566.074.692a2.756,2.756,0,0,1,.148.756c.073.692.073.692-.442,1.511-.293.566-.588.881-.735.881-.221.064-.293.315-.147.315s.588-.377.809-.756l.221-.377.074.692a4.842,4.842,0,0,0,.368,1.385l.294.63-.148,1.259a19.69,19.69,0,0,1-.368,2.2,13.55,13.55,0,0,0-.588,4.157v1.448h-.516a1.324,1.324,0,0,0-.882.315c-.516.377-1.03,1.2-.883,1.322.074,0,.221-.126.294-.315a2.991,2.991,0,0,1,1.4-1.2c.441,0,1.176.63,1.617,1.322a3.532,3.532,0,0,0,.883.882,2.574,2.574,0,0,1,.588.63c0,.063.074.125.074.189.074.062.148.441.074.441a.838.838,0,0,1-.368-.315c-.221-.252-.294-.252-.294-.126s.073.189.22.251.148.126.074.315c-.221.315-.074.315.293.126a.484.484,0,0,0,.368-.441,2.593,2.593,0,0,0-1.027-1.322M63.427,22.725c-.147.125-.368-.19-.441-.819-.074-.377-.074-.44.147-.377s.221.062.148-.126a3.16,3.16,0,0,1-.221-2.016,2.972,2.972,0,0,1,1.545-1.322,2.8,2.8,0,0,1,2.354.062,5.55,5.55,0,0,1,1.03.693,1.394,1.394,0,0,1,.514,1.008,2.953,2.953,0,0,1-.073,1.133c-.147.567-.147.756.073.5s.149.755-.073,1.07c-.074.19-.221.253-.221.19-.147-.253-.221-.063-.221.377a3.653,3.653,0,0,1-.147.882,3.232,3.232,0,0,1-1.177,1.385,1.98,1.98,0,0,1-1.69,0,3.251,3.251,0,0,1-1.4-2.392c0-.315,0-.378-.148-.252M37.171,24.8c-.956-.064-1.692-.252-1.618-.378a1.07,1.07,0,0,1,.883-.125l.662.189c1.03.315,1.03.441.074.315m20.961,5.479c-.221-.567-.221-.63-.368-.441-.074.063-.147.063-.588,0a6.515,6.515,0,0,0-1.1-.126A14.5,14.5,0,0,1,52.69,28.9a11.622,11.622,0,0,0-1.4-.378,2.226,2.226,0,0,1-.883-.188c-.294-.127-.515-.127-.368,0,0,.063-.074.063-.294.063s-.588-.063-.883-.063a10.027,10.027,0,0,1-3.31-1.071,14.426,14.426,0,0,0-2.354-.818,4.583,4.583,0,0,0-2.059-.127,5.893,5.893,0,0,0-1.471.19,11.769,11.769,0,0,1-2.574.125c.074-.125.221-.251.294-.377.294-.315.368-.315,1.03-.253l.661.064.074-.315a.468.468,0,0,0,0-.441,5.687,5.687,0,0,0-1.619-.882,7.077,7.077,0,0,1-1.765-.755c-.293-.315-.293-.315.368-.063a16.139,16.139,0,0,0,3.016.818c0-.062-.221-.125-.516-.251l-.588-.189.661.062a5.111,5.111,0,0,1,1.913.567,4.374,4.374,0,0,0,2.206.567c.735,0,1.544-.063,2.28-.127a13.992,13.992,0,0,1,2.28-.188h.956l1.471.63c1.4.567,1.545.63,1.986.567a8.09,8.09,0,0,1,3.015,0,9.843,9.843,0,0,0,1.912.189,3.4,3.4,0,0,0,1.545-.315,3.428,3.428,0,0,1,.735-.253,4.1,4.1,0,0,1-.074.945c-.074.441-.147,1.323-.221,1.889l-.074,1.008-.147-.315c-.294-.5-.515-.819-.809-.882-.294-.127-.368-.127-.368-.063s.147.126.294.251a2.319,2.319,0,0,1,.735.882,1.71,1.71,0,0,1,.368,1.133c0,.252-.074.378-.148.378a1.293,1.293,0,0,1-.441-.63m.956,6.108a3.286,3.286,0,0,1-.368-1.448,9.06,9.06,0,0,0-.441-2.016c-.515-1.763-.515-1.637-.147-1.637.515,0,.662-.378.735-2.267.074-.945.147-2.141.221-2.708l.147-1.07.441.063c1.545.189,1.691.252,2.133.819.221.252.293.315.368.188s.293-.062,1.25.253c1.25.441,1.324.441,1.324.315a11.451,11.451,0,0,0-2.5-.819c-.074.063-.221-.064-.368-.189l-.148-.252a2.106,2.106,0,0,0,.516-.189l.883-.378c.441-.251.441-.251.588.315a.52.52,0,0,0,.22.378q.111,0,0-.378a2.577,2.577,0,0,1-.22-1.07,1.645,1.645,0,0,1,.368.5,1.811,1.811,0,0,0,.515.5c.074,0,.148.062.148.189a3.364,3.364,0,0,0,.661,1.071c.147,0,0-.315-.221-.63s-.22-.315.221-.189a1.455,1.455,0,0,0,.735,0l.368-.064-.221.378c-.22.378-.294.566-.147.566l.442-.566a3.527,3.527,0,0,1,.588-.819c.148-.19.294-.315.441-.5.221-.377.294-.125.074.567-.148.567-.148.756.073.5a1.056,1.056,0,0,0,.148-.5c0-.126.074-.253.074-.378.146.063.368.189.514.252l.884.378c.146.063.293.063.441.126a1.335,1.335,0,0,1-.221.315.915.915,0,0,0-.22.378c0,.063.22-.126.441-.378a1.627,1.627,0,0,1,.663-.5c.588-.126,1.25-.252,1.839-.315.073,0,.073.189.073.378,0,.315.074.63.074.945a14.127,14.127,0,0,1,.147,2.2c.074,1.448.074,1.7.294,2.015.147.189.294.378.441.378.294.063.294.126-.074,1.511a10.479,10.479,0,0,0-.441,2.078,3.288,3.288,0,0,1-.368,1.448,8.146,8.146,0,0,0-.588,2.9,2.476,2.476,0,0,1-.294,1.259,5.009,5.009,0,0,0-.368.945,2.561,2.561,0,0,1-1.1,1.448c-.735.441-2.354.63-4.707.63-2.206,0-3.6-.251-4.266-.692a2.411,2.411,0,0,1-1.1-1.512,2.776,2.776,0,0,0-.294-.818,8.634,8.634,0,0,1-.293-1.322,3.757,3.757,0,0,0-.37-2.582M73.724,50.622c0,1.133,0,1.2-.368,1.511a4.5,4.5,0,0,1-2.133,1.323,12.814,12.814,0,0,1-3.53.44h-.663l-.368-1.007a8.885,8.885,0,0,1-.441-1.259c-.074-.253-.074-.253.293-.378.442-.126.956-.5.81-.63a1.373,1.373,0,0,0-.368.125,1.9,1.9,0,0,1-2.206.064,1.141,1.141,0,0,0-.368-.189c-.148.125.441.5.808.63.295.063.368.125.295.251a19.811,19.811,0,0,0-.735,2.2c0,.315-1.1.315-2.8,0-1.764-.251-2.28-.441-3.089-1.133-.956-.819-1.03-.819-.883-3.275a7.187,7.187,0,0,1,.368-2.644c.147-.378.368-1.071.515-1.574s.368-1.2.515-1.574l.294-.63v.44a.993.993,0,0,0,.148.63,2.832,2.832,0,0,0,.955.567,2.581,2.581,0,0,1,.663.189c1.029.378,2.426.63,2.426.378,0-.063-.147-.126-.441-.126a7.847,7.847,0,0,1-3.383-1.071.91.91,0,0,1-.148-.63,2.662,2.662,0,0,0-.073-.756,2.951,2.951,0,0,1,.22-1.574c.074,0,.074.189.148.441a2.049,2.049,0,0,0,.441.882c.883,1.07,1.987,1.322,5.3,1.322,2.648,0,3.9-.189,4.633-.693a2.774,2.774,0,0,0,1.178-1.637c.074-.441.074-.441.221-.252a4.391,4.391,0,0,1,.073,1.385c0,1.259-.073,1.512-.588,1.7a9.55,9.55,0,0,1-3.015.818c-.221,0-.442.064-.442.127,0,.188,1.325,0,2.5-.378.294-.064.662-.252.808-.252a1.184,1.184,0,0,0,.883-1.071v-.377l.22.5c.148.441.295.882.442,1.385s.368,1.2.515,1.574a16.629,16.629,0,0,1,.368,4.219" transform="translate(-35.422 -17.836)" fill="#020102"/>
      <path id="Path_60220" data-name="Path 60220" d="M90.708,56.028a3.265,3.265,0,0,0-.381-1.741A2.735,2.735,0,0,1,90,52.545a8.63,8.63,0,0,1,.326-1.632,8.136,8.136,0,0,0,.327-1.577,3.493,3.493,0,0,0-.327-1.9c-.38-1.143-.435-1.2-.326-1.632a7.355,7.355,0,0,0,.163-2.176,4.41,4.41,0,0,1,0-1.2.683.683,0,0,1,.055-.326h-.164a7.64,7.64,0,0,0,0,1.578,4.4,4.4,0,0,1-.163,2.067c-.109.436-.109.6-.054.708s.217.6.435,1.143a3.111,3.111,0,0,1,.272,1.741,8.673,8.673,0,0,1-.326,1.632,8.137,8.137,0,0,0-.327,1.577,2.681,2.681,0,0,0,.327,1.687,4.819,4.819,0,0,1,.38,1.523V56.3l-.108-.381a3.842,3.842,0,0,0-.164-.435,6.883,6.883,0,0,0,.381,1.958c.054.218.109.49.163.707a.4.4,0,0,1-.163-.163,4.974,4.974,0,0,1-.49-1.251,3.788,3.788,0,0,0-.6-1.251.479.479,0,0,0-.381-.054h-.272v.49c0,.49,0,.49-.272.707a1.131,1.131,0,0,1-.326.218,7.314,7.314,0,0,1,.272-1.9,3.567,3.567,0,0,0,.272-1.088,5.818,5.818,0,0,0-.49-3.264c-.217-.6-.489-1.36-.544-1.632a4.569,4.569,0,0,1-.054-1.9c.054,0,.054-.163,0-.326a3.21,3.21,0,0,1-.109-.762,1.749,1.749,0,0,0-.163-.762,7.172,7.172,0,0,1-.49-2.611H86.9a9.718,9.718,0,0,0,.49,2.5,5.654,5.654,0,0,1,.217,2.122,6.69,6.69,0,0,0,.708,3.373,5.412,5.412,0,0,1,.489,3.156,4.882,4.882,0,0,1-.326,1.2,2.193,2.193,0,0,0-.163.816,2.624,2.624,0,0,1-.055.653.768.768,0,0,0-.109.326c0,.218.381.163.653-.054s.272-.218.327-.707.054-.49.217-.49c.272,0,.327.218.327,1.36a8.19,8.19,0,0,0,.108,1.142c.109.272.327.327.49.055l.109-.218.217.218c.164.217.544.38.544.217a4.723,4.723,0,0,0-.163-.761,2.377,2.377,0,0,1-.272-1.469m-.762,2.013c-.109,0-.218-.381-.218-1.034v-.762q0-.245.163.164l.163.489c0,.109.055.218.055.327a1.149,1.149,0,0,1-.163.816" transform="translate(-48.562 -25.904)" fill="#020102"/>
      <path id="Path_60221" data-name="Path 60221" d="M55.991,30.954c-.054.109.109.381.218.381s.109-.109,0-.218c-.054-.054-.054-.109.054-.109s.163,0,.218-.054-.054-.054-.218-.054a.408.408,0,0,0-.272.054" transform="translate(-41.154 -23.793)" fill="#020102"/>
      <path id="Path_60222" data-name="Path 60222" d="M62.1,34.691c.163.163,1.8.544,1.8.381,0-.054-.218-.109-.435-.163-.544-.109-1.034-.218-1.306-.272-.218-.109-.218-.109-.054.054" transform="translate(-42.612 -25.462)" fill="#020102"/>
      <path id="Path_60223" data-name="Path 60223" d="M59.354,34.75q0,.082-.163,0c-.109-.054-.163,0-.109.054a.239.239,0,0,0,.272.054.69.69,0,0,1,.326.054.49.49,0,0,0,.272.054q.163,0-.163-.163c-.272-.109-.435-.163-.435-.054" transform="translate(-41.955 -25.521)" fill="#020102"/>
      <path id="Path_60224" data-name="Path 60224" d="M61.1,34.736c0,.109.707.435.816.326.054-.054.054-.109-.054-.109a1.842,1.842,0,0,0-.435-.163c-.326-.163-.326-.163-.326-.054" transform="translate(-42.533 -25.507)" fill="#020102"/>
      <path id="Path_60225" data-name="Path 60225" d="M79.07,31.317a7.637,7.637,0,0,1-.816.326.053.053,0,0,0-.055.054,10.621,10.621,0,0,0,1.85-.653c.218-.163-.326,0-.979.272" transform="translate(-47.004 -23.829)" fill="#020102"/>
      <path id="Path_60226" data-name="Path 60226" d="M75.6,32.554a.353.353,0,0,0,.327.272c.163,0,.163-.109,0-.218a.282.282,0,0,1-.218-.109c-.054,0-.109,0-.109.054" transform="translate(-46.639 -24.522)" fill="#020102"/>
      <path id="Path_60227" data-name="Path 60227" d="M77.263,32.64c-.218.109-.218.218,0,.218a.282.282,0,0,0,.217-.109c.055-.218,0-.218-.217-.109" transform="translate(-47.069 -24.553)" fill="#020102"/>
      <path id="Path_60228" data-name="Path 60228" d="M75.1,61.166c-.054.054.436.163.98.163.489,0,.87-.054.87-.163a10.5,10.5,0,0,0-1.85,0" transform="translate(-46.174 -33.851)" fill="#020102"/>
      <path id="Path_60229" data-name="Path 60229" d="M69.2,63.246c0,.054.109.109.272.109a1.913,1.913,0,0,1,.489.218c.164.109.218.109.218.054-.163-.218-.979-.6-.979-.381" transform="translate(-44.751 -34.591)" fill="#020102"/>
      <path id="Path_60230" data-name="Path 60230" d="M83.149,63.236c-.272.054-.707.326-.653.381a.786.786,0,0,0,.381-.109l.489-.163a.192.192,0,0,0,.11-.054c.054-.163.054-.163-.327-.054" transform="translate(-48.404 -34.586)" fill="#020102"/>
      <path id="Path_60231" data-name="Path 60231" d="M69.963,64.363a5.169,5.169,0,0,1,1.306,1.36c.326.49.544.544.218.054A4.374,4.374,0,0,0,69.8,64.2l.163.163" transform="translate(-44.74 -34.855)" fill="#020102"/>
      <path id="Path_60232" data-name="Path 60232" d="M81.66,64.472a4.379,4.379,0,0,0-1.36,1.687c0,.109.163,0,.217-.109a6.424,6.424,0,0,1,1.252-1.469c.544-.381.49-.381.38-.381a.733.733,0,0,0-.489.272" transform="translate(-47.567 -34.848)" fill="#020102"/>
      <path id="Path_60233" data-name="Path 60233" d="M62.144,37.42a1.449,1.449,0,0,0-.163.653c-.054.435,0,.544.054.49.054,0,.109-.218.163-.435a1.956,1.956,0,0,1,.109-.6c.109-.218,0-.272-.163-.109" transform="translate(-42.839 -25.013)" fill="#020102"/>
      <path id="Path_60234" data-name="Path 60234" d="M61.113,40.365a7.686,7.686,0,0,1-.326.816c-.272.653-.326.762-.163.762a7.755,7.755,0,0,0,.707-1.523c0-.218-.163-.326-.218-.054" transform="translate(-42.383 -26.054)" fill="#020102"/>
      <path id="Path_60235" data-name="Path 60235" d="M59.026,44.59a1.3,1.3,0,0,0-.326.6c0,.218.163.218.218,0a2.246,2.246,0,0,1,.381-.6c.326-.435.326-.49.163-.49-.054,0-.218.218-.435.49" transform="translate(-41.866 -27.507)" fill="#020102"/>
      <path id="Path_60236" data-name="Path 60236" d="M65.181,44.815a4.058,4.058,0,0,0-.381.653c0,.218.163.109.49-.381.49-.653.49-.653.381-.707-.054-.109-.272.163-.49.435" transform="translate(-43.545 -27.602)" fill="#020102"/>
      <path id="Path_60237" data-name="Path 60237" d="M63.481,47.327a4.058,4.058,0,0,0-.381.653.19.19,0,0,0,.109.054c.163,0,.653-.816.544-.87,0-.109-.109,0-.272.163" transform="translate(-43.116 -28.635)" fill="#020102"/>
      <path id="Path_60238" data-name="Path 60238" d="M57.324,47.539c-.381.435-.653.925-.544,1.034.054.054.109,0,.163-.109a6.422,6.422,0,0,1,.49-.653c.435-.6.326-.816-.109-.272" transform="translate(-41.317 -28.653)" fill="#020102"/>
      <path id="Path_60239" data-name="Path 60239" d="M62.706,49.629a1.384,1.384,0,0,0-.218.925c.054.054.109-.054.272-.435.163-.49.109-.707-.054-.49" transform="translate(-42.984 -29.524)" fill="#020102"/>
      <path id="Path_60240" data-name="Path 60240" d="M55.872,50.732a5.586,5.586,0,0,0-.272,1.306c0,.163.054.218.109.218s.109-.054.109-.272a3.154,3.154,0,0,1,.109-.707,1.933,1.933,0,0,0,.109-.544c0-.109-.109-.109-.164,0" transform="translate(-41.057 -29.899)" fill="#020102"/>
      <path id="Path_60241" data-name="Path 60241" d="M61.509,52.8a6.494,6.494,0,0,1-.435.87c-.272.49-.326.707-.218.707a4.248,4.248,0,0,0,.925-1.85c-.109-.163-.163-.109-.272.272" transform="translate(-42.431 -30.537)" fill="#020102"/>
      <path id="Path_60242" data-name="Path 60242" d="M55.2,55.2c0,.653.109.816.163.218.054-.653.054-.816-.054-.816-.054,0-.109.109-.109.6" transform="translate(-40.971 -31.377)" fill="#020102"/>
      <path id="Path_60243" data-name="Path 60243" d="M59.347,56.377c-.381.544-.49.707-.381.816.054.054.163-.054.435-.381.109-.163.218-.381.326-.544,0-.272-.163-.163-.381.109" transform="translate(-41.938 -31.939)" fill="#020102"/>
      <path id="Path_60244" data-name="Path 60244" d="M54.879,57.754c-.054.218-.054.381-.109.6-.054.49-.054.544.054.544s.109-.054.109-.218a2.669,2.669,0,0,1,.054-.6c.054-.218,0-.381-.054-.381.054,0,0,.054-.054.054" transform="translate(-40.832 -32.518)" fill="#020102"/>
      <path id="Path_60245" data-name="Path 60245" d="M57.791,59.481c-.109.272-.163.381-.109.435s.163-.054.272-.326c.163-.381.218-.49.054-.49a3.12,3.12,0,0,0-.218.381" transform="translate(-41.631 -33.059)" fill="#020102"/>
      <path id="Path_60246" data-name="Path 60246" d="M53.929,61.179c-.218.435-.272.544-.109.544.109,0,.435-.653.435-.816.054-.218-.109-.109-.326.272" transform="translate(-40.523 -33.678)" fill="#020102"/>
      <path id="Path_60247" data-name="Path 60247" d="M54.947,61.627a1.449,1.449,0,0,0-.163.653,1.222,1.222,0,0,0,.109.979,2.274,2.274,0,0,1,.218.544c0,.218.49.707.816.816.272.109.272.109.163.218A.878.878,0,0,1,55.6,65a.67.67,0,0,1-.544-.109c-.381-.326-.544-.381-.762-.218-.381.272-.435.653-.381,1.9.054.87.054,1.143-.054,1.251s-.109.109-.272-.326a6.257,6.257,0,0,1-.109-1.741c0-.979,0-1.251-.055-1.2a4.141,4.141,0,0,0-.163,1.143l-.054,1.034-.272-.381a2.684,2.684,0,0,1-.435-1.088c-.054-.272-.109-.544-.163-.87.163-.652.381-1.306.6-1.959.054-.109,0-.109-.054-.109-.109,0-.326.435-.6,1.469a1.837,1.837,0,0,0-.109,1.088c.054.272.109.6.163.816a1.689,1.689,0,0,0,.272.653,4.146,4.146,0,0,1,.816,1.415c.055.436.163.49.381.436a.346.346,0,0,0,.272-.327c.054-.163.109-.272.272-.326.272-.055.272-.435,0-1.034a1.455,1.455,0,0,1-.109-1.414c.163-.381.272-.381.6-.164a1.04,1.04,0,0,0,.653.218c.816,0,1.2-.381.707-.707a1.694,1.694,0,0,1-.816-.816,1.652,1.652,0,0,0-.218-.544,1.4,1.4,0,0,1-.054-1.143c.054-.326,0-.544-.163-.326m-.653,5.6a.238.238,0,0,1-.054.163.053.053,0,0,1-.054-.054.809.809,0,0,0-.054-.326c-.054-.272-.054-.272.054-.109a.773.773,0,0,1,.109.326" transform="translate(-39.685 -33.478)" fill="#020102"/>
      <path id="Path_60248" data-name="Path 60248" d="M68.9,85.254q.162.326.326.653c.326.544.49.762.707.762.163,0,.109-.164-.109-.218-.109-.054-.272-.218-.49-.653a2.254,2.254,0,0,0-.38-.6Z" transform="translate(-44.64 -42.616)" fill="#020102"/>
      <path id="Path_60249" data-name="Path 60249" d="M83.261,85.9a1.487,1.487,0,0,1-.489.652c-.164.055-.218.164-.055.164.109,0,.435-.218.435-.327a1.7,1.7,0,0,1,.272-.544c.326-.544.326-.544.218-.544a5.745,5.745,0,0,0-.381.6" transform="translate(-48.418 -42.658)" fill="#020102"/>
      <path id="Path_60250" data-name="Path 60250" d="M85.8,29.7s2.666.109,3.808,6.8" transform="translate(-48.06 -23.246)" fill="none" stroke="#020102" stroke-miterlimit="10" stroke-width="0.25"/>
      <path id="Path_60251" data-name="Path 60251" d="M38,39.625a1.6,1.6,0,0,0-.147.536,3.106,3.106,0,0,0,.637.263,3.523,3.523,0,0,0,.694.212c.109.008.313-.578.275-.8.014-.218-.04-.221-.622-.48s-.64-.208-.837.268" transform="translate(-36.531 -25.697)" fill="#020102"/>
      <path id="Path_60252" data-name="Path 60252" d="M37.5,44.154a7.393,7.393,0,0,0,1.645,3.771,8.682,8.682,0,0,0,1.906,1.607c.423.194.423.194.3.4-.263.636-.1.7,1.063.4a4.748,4.748,0,0,0,1.958-.681,3.1,3.1,0,0,0-.652-.81c-.357-.353-.761-.818-.913-.992-.3-.4-.462-.414-.543-.038a.882.882,0,0,1-.186.314,3.6,3.6,0,0,1-1.46-.975,5.984,5.984,0,0,1-1.683-3.228c-.071-.551-.071-.551-.885-.608-.764,0-.7-.1-.549.835" transform="translate(-36.327 -26.929)" fill="#020102"/>
    </g>
  </g>
</svg>
