<svg xmlns="http://www.w3.org/2000/svg" width="70" height="70" viewBox="0 0 70 70">
  <g id="shoulderadductionleft" transform="translate(1247 -6139)">
    <path id="Path_60365" data-name="Path 60365" d="M0,0H70V70H0Z" transform="translate(-1247 6139)" fill="#fff"/>
    <g id="Group_8941" data-name="Group 8941" transform="translate(-1276 6126.42)">
      <g id="Group_8941-2" data-name="Group 8941" transform="translate(49.4 17.359)">
        <path id="Path_60324" data-name="Path 60324" d="M54.9,76.255a.469.469,0,0,0,.348.429c.417.184.487.184.278-.123-.139-.184-.139-.184.07-.306a.858.858,0,0,0,.209-.245c0-.122-.07-.061-.278.123-.07.123-.209.184-.348.306-.07,0-.07-.368.07-.429a.208.208,0,0,0,.07-.184,2.491,2.491,0,0,1,.556-.613,11.05,11.05,0,0,0,.834-.857c.417-.674,1.112-1.287,1.53-1.287a2.853,2.853,0,0,1,1.321,1.164c.139.245.209.368.278.306.139-.061-.348-.919-.834-1.286a1.377,1.377,0,0,0-.834-.306H57.68V71.538a13.269,13.269,0,0,0-.556-4.043,12.353,12.353,0,0,1-.348-2.144l-.14-1.225.278-.613a4.334,4.334,0,0,0,.348-1.348l.07-.673.209.367c.278.368.626.735.765.735s.07-.245-.139-.306a3.412,3.412,0,0,1-.7-.858c-.487-.8-.487-.857-.417-1.47a2.743,2.743,0,0,1,.139-.736c.139-.183.139-.674.07-.674s-.139.061-.07.123c0,.184-.348-.306-.487-.8a6.467,6.467,0,0,1-.278-1.225c-.07-.367-.209-.98-.278-1.348a20.026,20.026,0,0,1-.139-3.553v-.858l.626.551a4.6,4.6,0,0,0,1.182.735,13.3,13.3,0,0,0,3.476.613,3.922,3.922,0,0,1,.834.123,6.639,6.639,0,0,1-.208.858,23.664,23.664,0,0,0-.487,3.8,2.573,2.573,0,0,1-.834,2.205c-.348.367-.417.429-.209.367.278-.061.278-.122.07.8a2.772,2.772,0,0,0,.278,2.022,10.812,10.812,0,0,1,.7,2.45,1.594,1.594,0,0,1-.278.8c-.208.429-.417.919-.625,1.348-.14.49-.418,1.164-.556,1.532A3.593,3.593,0,0,0,59.7,70.8a3.084,3.084,0,0,0,.209,1.593c.208.49.208.551.07.8-.209.306-.209.49,0,.429.07-.061.209.061.348.429.209.613.139.919-.278,1.1a.663.663,0,0,0-.348.8.694.694,0,0,1-.07.368c-.209.245-.417.306-.348.123.07-.245-.139-.184-.209.061a1.32,1.32,0,0,1-.209.306.929.929,0,0,1-.973-.123c-.278-.245-.278-.245-.07-.49.139-.184.209-.429.07-.429-.07,0-.07.061-.07.123a.445.445,0,0,1-.139.245.445.445,0,0,0-.139.245.269.269,0,0,1-.417.184c-.14-.123,0-.429.278-.551a.846.846,0,0,0,.208-.245c0-.184-.556.184-.626.49,0,.123-.139.246-.348.246-.348,0-.348-.306-.07-.429.14-.061.209-.123.209-.245s-.07-.123-.278.062c-.278.244-.417.673-.209.735a3.833,3.833,0,0,0,.835.061,2.476,2.476,0,0,1,.973.184,1.166,1.166,0,0,0,1.182-.123c.139-.061.209-.123.209-.061s.139,0,.277-.123c.278-.184.278-.245.348-.673a.948.948,0,0,1,.418-.8c.417-.368.487-.613.139-1.286a1.39,1.39,0,0,1-.139-.735,3.2,3.2,0,0,0-.14-.8,4.994,4.994,0,0,1,.14-3.614c.139-.368.348-.98.487-1.347a10.237,10.237,0,0,1,.556-1.287,1.3,1.3,0,0,0,.208-1.225,13.954,13.954,0,0,0-.487-1.593,5.611,5.611,0,0,1-.417-1.531,5.3,5.3,0,0,1,.348-2.327,2.77,2.77,0,0,0,.348-.613,3.473,3.473,0,0,0,.278-1.655c.139-2.205.556-4.471.834-4.656A.623.623,0,0,0,62.895,52c.07-.246.139-.491.209-.674a7.093,7.093,0,0,0,.278-.857c.07-.306.208-.491.278-.491a7.628,7.628,0,0,1,.765,2.083.423.423,0,0,0,.208.368c.348.245.7,2.267.835,4.656a3.25,3.25,0,0,0,.625,2.205,3.608,3.608,0,0,1,.348,1.225c.209,1.1.14,1.225-.417,2.819a6.038,6.038,0,0,0-.416,1.592,1.557,1.557,0,0,0,.277,1.225,3.828,3.828,0,0,1,.487,1.225,4.854,4.854,0,0,0,.417,1.041,5.019,5.019,0,0,1,.348,3.614,1.954,1.954,0,0,0-.208.858,2.2,2.2,0,0,1-.209.919c-.069.246-.138.49-.207.735a.965.965,0,0,0,.416.49c.348.306.417.429.417.735,0,.429.14.613.835.919a1.169,1.169,0,0,0,1.181.061,2.39,2.39,0,0,1,.9-.184A3.864,3.864,0,0,0,71.1,76.5c.209-.123.07-.491-.208-.8-.278-.245-.278-.245-.278-.061a.333.333,0,0,0,.209.306c.277.123.277.429-.07.429-.138,0-.277-.061-.277-.123,0-.184-.556-.673-.7-.613a.547.547,0,0,0,.209.306c.348.246.416.49.208.552-.277.061-.487-.062-.417-.246.07-.123,0-.184-.07-.184s-.209-.123-.278-.245c-.138-.245-.138-.245-.138-.061a.44.44,0,0,0,.138.306c.14.123.14.184-.07.368a.9.9,0,0,1-.556.245c-.348,0-.7-.245-.7-.49,0-.061-.07-.123-.139-.184s-.069,0-.069.184c.069.245.069.245-.14.123a.915.915,0,0,1-.277-.613.944.944,0,0,0-.418-.8.809.809,0,0,1-.348-.429c0-.306.348-.98.488-.98s.207-.123,0-.491a1.1,1.1,0,0,1,.069-.8,6.267,6.267,0,0,0,.209-1.593,3.808,3.808,0,0,0-.348-1.96c-.209-.49-.418-1.1-.556-1.409-.139-.368-.278-.735-.416-1.041-.418-.735-.418-.8-.348-1.348a12.581,12.581,0,0,1,.9-2.573c.14-.245.14-.429.07-1.164a5.859,5.859,0,0,0-.209-1.1c-.069-.245-.069-.245.139-.061.348.306.278.061-.139-.368a2.813,2.813,0,0,1-.834-2.328,19.411,19.411,0,0,0-.7-4.411c-.07-.123.07-.184.765-.184a16.454,16.454,0,0,0,3.476-.613,7.4,7.4,0,0,0,1.181-.735,6.131,6.131,0,0,1,.7-.551,31.337,31.337,0,0,1-.208,4.411,12.2,12.2,0,0,0-.278,1.348c-.209,1.041-.7,2.082-.835,1.9-.139-.245-.208-.061-.07.613a2.474,2.474,0,0,1-.208,2.205,4.865,4.865,0,0,1-.7.919.664.664,0,0,0-.278.306c.139.122.7-.306.834-.674l.209-.368.139.8a6.478,6.478,0,0,0,.348,1.225,2.276,2.276,0,0,1,.209.98,10.756,10.756,0,0,1-.417,2.941,10.937,10.937,0,0,0-.557,3.921v1.654h-.486c-.418,0-.487.061-.973.429-.487.49-.765.857-.765,1.1,0,.123.138,0,.277-.306.418-.674.9-1.041,1.391-1.041.278,0,.418.061.765.368a3.147,3.147,0,0,1,.625.8,9.889,9.889,0,0,0,.835.919c.348.245.626.49.556.551s0,.184.14.306c.139.184.139.245,0,.306s-.14.061-.14-.061c0-.184-.348-.551-.487-.428a.208.208,0,0,0,.07.183c.209.123.209.429.07.429a.063.063,0,0,0-.07.061.142.142,0,0,0,.209,0,.792.792,0,0,1,.348-.123c.138-.061.207-.123.207-.368,0-.306-.069-.429-.834-1.041a5.178,5.178,0,0,1-.835-.858,4.071,4.071,0,0,0-.486-.674l-.487-.551.07-1.777a11.343,11.343,0,0,1,.278-2.634,20.242,20.242,0,0,0,.7-3.554,2.274,2.274,0,0,0-.208-1.653,3,3,0,0,1-.279-1.531,8.8,8.8,0,0,1,.07-1.471v-.98a.9.9,0,0,1,.14-.919,6.341,6.341,0,0,0,.7-1.9,9.193,9.193,0,0,1,.278-1.348,48.706,48.706,0,0,0,.139-7.106,9.987,9.987,0,0,0-.417-2.879c-.209-.551-.417-1.286-.487-1.532s-.208-.8-.348-1.225a7.14,7.14,0,0,1-.277-1.164,6.054,6.054,0,0,0-.14-1.041,2.352,2.352,0,0,1,0-.98,4.226,4.226,0,0,0,.14-.98,7.858,7.858,0,0,1,.556-2.818,3.273,3.273,0,0,0,.348-1.409,9.027,9.027,0,0,1,.417-1.96c.14-.551.348-1.164.348-1.348,0-.245,0-.306-.208-.306a.569.569,0,0,1-.348-.123c-.07-.061-.07-.123,0-.123s.208-.123.278-.368c.208-.429.834-.674,1.946-.735a12,12,0,0,0,3.337-.858,10.583,10.583,0,0,1,2.433-.429,10.349,10.349,0,0,0,4.311-1.1,11.1,11.1,0,0,1,2.017-.735,5.265,5.265,0,0,1,1.946-.184,5.039,5.039,0,0,1,1.391.184,3.887,3.887,0,0,0,1.183.123H90.7c.417.061.417-.184,0-.613a1,1,0,0,0-.973-.368c-.625,0-.625,0-.7-.184-.07-.306.278-.368,1.669-.551,1.391-.123,1.669-.245,1.669-.551,0-.184-.07-.245-.279-.306l-.348-.061.279-.184c.348-.245.486-.49.348-.613-.07-.061-.348,0-.765.123a8.493,8.493,0,0,1-1.808.368,4.878,4.878,0,0,0-2.294.613,4.045,4.045,0,0,1-2.086.551c-.765,0-1.461-.061-2.156-.123A12.206,12.206,0,0,0,81.11,24a4.281,4.281,0,0,0-2.364.613c-1.46.613-1.46.613-2.016.551a11.112,11.112,0,0,0-2.851.061,6.163,6.163,0,0,1-1.53.123,3.439,3.439,0,0,1-2.225-.674c-.139-.123-.278-.123-.9-.061a6.561,6.561,0,0,0-1.182.245,2.314,2.314,0,0,1-2.016-.551c-.278-.184-.278-.245-.209-.919a1.471,1.471,0,0,1,.348-1.041c.278-.368.278-.429.278-1.715a13.165,13.165,0,0,0-.07-1.654,3.162,3.162,0,0,0-2.155-1.531,1.932,1.932,0,0,0-.834-.061,4.29,4.29,0,0,0-1.878.858,1.432,1.432,0,0,0-.625.919,2.912,2.912,0,0,0,0,1.1.926.926,0,0,1,0,.613,1.828,1.828,0,0,0,.07,1.225c.07.123.139.306.278.368s.208.306.208.858c.07.919.07.98-.7,1.286-.765.368-1.043.368-1.46.245a9.027,9.027,0,0,0-1.251-.245c-.765-.061-.834-.061-.973.061a.257.257,0,0,1-.14.061v.306c.07,0,.07,0,.14-.061a4.056,4.056,0,0,1-.07.919,11.4,11.4,0,0,0-.139,1.532,1.5,1.5,0,0,1-.07.551,1.994,1.994,0,0,1-.07,1.1c.07.184,0,.306,0,.551l-.139.429-.139-.368c-.07.061-.07.123-.14.184.07.061.14.184.209.245.139.061-.07.184-.348.245-.278,0-.209.184.139,1.593a19.881,19.881,0,0,1,.418,1.961,3.784,3.784,0,0,0,.348,1.47,7.859,7.859,0,0,1,.556,2.819,4.707,4.707,0,0,0,.14.98,2.641,2.641,0,0,1,.07.735c-.07.245-.14.736-.209,1.164a8.51,8.51,0,0,1-.278,1.286c-.07.245-.348.98-.487,1.532a12.123,12.123,0,0,1-.487,1.47,3.974,3.974,0,0,0-.278,1.531,71.816,71.816,0,0,0,0,7.78,14.161,14.161,0,0,0,.834,3.369,1.591,1.591,0,0,1,.209,1.47c-.07.613-.07.8.07,1.042a4.41,4.41,0,0,1-.209,2.511,2.2,2.2,0,0,0-.209,1.471,15.808,15.808,0,0,0,.626,3.614,12.369,12.369,0,0,1,.278,2.757l.07,1.96-.348.368-.626.735a6.39,6.39,0,0,1-.9.981c-.9.919-.971.98-.971,1.286m10.568-53.6a3.183,3.183,0,0,1-1.321,2.328,1.831,1.831,0,0,1-1.6,0,3.137,3.137,0,0,1-1.112-1.348,3.679,3.679,0,0,1-.139-.858c0-.429-.139-.674-.209-.368,0,.061-.139,0-.209-.184-.208-.306-.277-1.225-.07-1.041s.209.061.07-.49a2.958,2.958,0,0,1-.07-1.1,1.16,1.16,0,0,1,.487-.98,5.182,5.182,0,0,1,.973-.674,2.579,2.579,0,0,1,2.226-.061,2.834,2.834,0,0,1,1.46,1.286,3.2,3.2,0,0,1-.209,1.96c-.07.123-.07.123.139.123.209-.061.209-.061.139.368-.07.613-.277.919-.417.8-.07-.123-.14-.061-.14.245m25.03,1.47.626-.184c.139-.061.765,0,.834.123s-.556.306-1.53.368c-.9.123-.9,0,.07-.306M70.4,30.187c-.07,0-.139-.184-.139-.368-.07-.368,0-.49.348-1.1a2.057,2.057,0,0,1,.7-.858c.139-.061.278-.184.278-.245s-.07-.061-.348.061a1.787,1.787,0,0,0-.765.858l-.139.306-.07-.98a15.009,15.009,0,0,0-.209-1.838,4.136,4.136,0,0,1-.069-.919,2.25,2.25,0,0,1,.7.245,3.584,3.584,0,0,0,1.459.306,8.558,8.558,0,0,0,1.808-.184,7.436,7.436,0,0,1,2.851,0c.417.061.556,0,1.877-.551l1.391-.613h.9a12.8,12.8,0,0,1,2.155.184,8.32,8.32,0,0,0,2.155.123,4.042,4.042,0,0,0,2.086-.551,4.727,4.727,0,0,1,1.808-.551l.626-.061-.556.184a5.2,5.2,0,0,0-.487.245,14.957,14.957,0,0,0,2.851-.8c.556-.245.626-.245.348.061a4.007,4.007,0,0,1-1.668.735,4.528,4.528,0,0,0-1.53.858v.429l.07.306.626-.061c.626-.061.626-.061.973.245a1.282,1.282,0,0,1,.278.368,8.015,8.015,0,0,1-2.433-.123,5.043,5.043,0,0,0-1.391-.184,6.949,6.949,0,0,0-1.947.123,13.438,13.438,0,0,0-2.225.8,10.9,10.9,0,0,1-3.129,1.041c-.278,0-.626.061-.835.061s-.277,0-.277-.061c.07-.123-.139-.123-.348,0l-.834.184a4.614,4.614,0,0,0-1.322.368,11.591,11.591,0,0,1-3.2.8,6.053,6.053,0,0,0-1.043.123c-.417.123-.487.123-.556,0-.07-.184-.139-.123-.348.429-.278.429-.417.613-.417.613m-1.251,8.27a2.869,2.869,0,0,1-.278,1.286,3.624,3.624,0,0,0-.278.8,2.337,2.337,0,0,1-1.043,1.47c-.626.429-1.946.674-4.033.674-2.225,0-3.754-.184-4.45-.613a2.389,2.389,0,0,1-1.043-1.409,4.909,4.909,0,0,0-.348-.919,2.473,2.473,0,0,1-.278-1.225,7.606,7.606,0,0,0-.556-2.818,3.273,3.273,0,0,1-.348-1.409,10.453,10.453,0,0,0-.417-2.022c-.348-1.348-.348-1.409-.07-1.47.14,0,.278-.184.418-.368.208-.306.208-.551.277-1.96a12.878,12.878,0,0,1,.14-2.144,4.1,4.1,0,0,0,.07-.919c0-.184,0-.368.07-.368a8.627,8.627,0,0,1,1.738.306,1.189,1.189,0,0,1,.626.49q.313.368.417.368c.07,0-.07-.184-.209-.368-.07-.123-.209-.184-.209-.306a1.082,1.082,0,0,1,.417-.123l.835-.368a1.816,1.816,0,0,1,.487-.245.7.7,0,0,1,.07.368,1.3,1.3,0,0,0,.139.49c.209.245.209.061.07-.49-.209-.674-.139-.919.07-.551a3.474,3.474,0,0,0,.417.49,3.433,3.433,0,0,1,.556.8,1.446,1.446,0,0,0,.417.551c.139,0,.07-.184-.139-.551l-.209-.368.348.061a1.338,1.338,0,0,0,.7,0c.417-.061.417-.061.209.184s-.278.613-.209.613a3.292,3.292,0,0,0,.626-1.041c0-.061.07-.123.139-.184a1.748,1.748,0,0,0,.487-.49,1.7,1.7,0,0,0,.348-.49,2.8,2.8,0,0,1-.209,1.041q-.1.459,0,.368a.361.361,0,0,0,.209-.368c.139-.551.139-.551.556-.306a2.491,2.491,0,0,0,.835.368A1.863,1.863,0,0,1,67,25.47a.36.36,0,0,1-.139.245c-.14.123-.209.184-.348.184a9.517,9.517,0,0,0-2.364.8c0,.123.07.061,1.251-.306.9-.306,1.113-.368,1.183-.245s.138.061.348-.184c.486-.551.556-.613,2.016-.8l.417-.061.138,1.041c.07.551.14,1.715.209,2.634.07,1.777.208,2.205.7,2.205.278,0,.348-.123-.14,1.593-.208.674-.277,1.286-.417,1.96a3.273,3.273,0,0,1-.348,1.409,12.38,12.38,0,0,0-.349,2.512M56.36,45.5c.139-.368.348-1.041.487-1.532.139-.429.278-.919.417-1.348l.209-.49V42.5a1.21,1.21,0,0,0,.834,1.041c.209.061.556.184.765.245,1.043.368,2.364.551,2.364.368,0-.061-.139-.123-.417-.123a9.367,9.367,0,0,1-2.851-.8c-.487-.184-.556-.429-.556-1.654a8.756,8.756,0,0,1,.07-1.348c.07-.184.14-.184.209.245A2.432,2.432,0,0,0,59,42.072c.7.49,1.877.674,4.38.674,3.129,0,4.172-.306,5.007-1.286a2.024,2.024,0,0,0,.416-.858c.07-.245.07-.429.14-.429a2.947,2.947,0,0,1,.208,1.532,2.666,2.666,0,0,0-.069.735,1.954,1.954,0,0,1-.14.613,8.555,8.555,0,0,1-3.2,1.041c-.209,0-.417.061-.417.123,0,.245,1.391,0,2.294-.368l.626-.184a2.134,2.134,0,0,0,.9-.551,1.614,1.614,0,0,0,.14-.613v-.429l.278.613c.138.368.348,1.041.486,1.532s.348,1.164.487,1.532a7.2,7.2,0,0,1,.348,2.573c.139,2.389.139,2.389-.835,3.186a4.7,4.7,0,0,1-2.919,1.1c-1.6.244-2.643.244-2.643,0-.208-.736-.416-1.41-.695-2.144-.07-.123,0-.184.278-.246.416-.123.9-.49.764-.613a.665.665,0,0,0-.348.184,1.661,1.661,0,0,1-2.085-.061c-.139-.123-.278-.183-.348-.123-.139.123.417.49.765.613s.348.123.278.368a7.254,7.254,0,0,0-.417,1.225l-.348.98h-.626a15.533,15.533,0,0,1-3.337-.429,3.927,3.927,0,0,1-2.016-1.286c-.348-.368-.348-.368-.348-1.471a9.114,9.114,0,0,1,.348-4.1" transform="translate(-51.076 -17.359)" fill="#020102"/>
        <path id="Path_60325" data-name="Path 60325" d="M49.609,59.437a4.8,4.8,0,0,0-.209.858c0,.123.487,0,.7-.245l.278-.245.139.245c.209.306.487.306.626-.061a8.087,8.087,0,0,0,.139-1.286c.07-1.225.14-1.532.418-1.532.208,0,.208.061.277.551.07.551.07.613.418.8.348.245.9.306.834.061a.8.8,0,0,0-.139-.368,1.333,1.333,0,0,1-.07-.735,1.092,1.092,0,0,0-.208-.919,10,10,0,0,1-.417-1.348,5.449,5.449,0,0,1,.625-3.553,7.408,7.408,0,0,0,.9-3.8,5.649,5.649,0,0,1,.278-2.389,10.279,10.279,0,0,0,.626-2.818h-.209a10.633,10.633,0,0,1-.626,2.94,3.816,3.816,0,0,0-.208.858,3.68,3.68,0,0,1-.14.858c-.07.184-.07.368,0,.368a4.509,4.509,0,0,1-.07,2.144,19.3,19.3,0,0,1-.7,1.838c-.765,1.715-.9,2.45-.626,3.676a6.478,6.478,0,0,0,.348,1.225,5.584,5.584,0,0,1,.348,2.144c-.139-.061-.278-.184-.417-.245-.348-.245-.348-.306-.348-.8v-.551h-.348a.682.682,0,0,0-.487.061,5.686,5.686,0,0,0-.765,1.409,3.716,3.716,0,0,1-.626,1.409l-.209.184c.07-.306.139-.552.209-.8.417-1.225.626-2.205.487-2.205a.651.651,0,0,0-.209.49l-.139.429v-.613a3.781,3.781,0,0,1,.487-1.715c.487-1.1.487-1.1.418-1.9a7.459,7.459,0,0,0-.418-1.777,8.8,8.8,0,0,1-.417-1.838,3.121,3.121,0,0,1,.348-1.96c.278-.613.487-1.225.556-1.286.07-.123.07-.306-.07-.8a4.4,4.4,0,0,1-.209-2.328,7.512,7.512,0,0,0,0-1.777h-.209c0,.123.07.245.07.368a4.38,4.38,0,0,1,0,1.348,5.788,5.788,0,0,0,.208,2.45c.14.49.14.49-.417,1.838s-.556,1.348-.417,2.144a7.458,7.458,0,0,0,.417,1.777,8.754,8.754,0,0,1,.417,1.838c.07.8.07.8-.417,1.96a3.927,3.927,0,0,0-.487,1.96c-.139.551-.209,1.1-.348,1.654m.973-.245a.7.7,0,0,0,.07-.368l.209-.551q.209-.459.209-.184v.858c0,.674-.07,1.164-.278,1.164a.876.876,0,0,1-.209-.919" transform="translate(-49.4 -26.943)" fill="#020102"/>
        <path id="Path_60326" data-name="Path 60326" d="M87.178,30.9a.44.44,0,0,0-.277.061c.069.061.207.123.277.061.139,0,.209,0,.07.123s-.14.245,0,.245.348-.368.277-.429c0-.061-.209-.061-.348-.061" transform="translate(-60.828 -22.605)" fill="#020102"/>
        <path id="Path_60327" data-name="Path 60327" d="M80.625,34.575c-.348.061-.973.184-1.668.306-.348.061-.556.123-.556.184a5.641,5.641,0,0,0,2.294-.429c.139-.123.139-.123-.07-.061" transform="translate(-58.238 -24.012)" fill="#020102"/>
        <path id="Path_60328" data-name="Path 60328" d="M83.278,34.819c-.278.123-.348.123-.209.184a.577.577,0,0,0,.348-.061.994.994,0,0,1,.418-.061.58.58,0,0,0,.348-.061c.07-.061,0-.123-.139-.061s-.209,0-.209,0c0-.123-.139-.061-.556.061" transform="translate(-59.639 -24.073)" fill="#020102"/>
        <path id="Path_60329" data-name="Path 60329" d="M81.806,34.807a5.192,5.192,0,0,0-.556.184c-.14.061-.14.061-.07.123.139.123,1.043-.184,1.043-.368,0-.123,0-.123-.418.061" transform="translate(-59.071 -24.061)" fill="#020102"/>
        <path id="Path_60330" data-name="Path 60330" d="M62.084,31.054a14.867,14.867,0,0,0,2.364.735c0-.061,0-.061-.07-.061s-.487-.184-1.043-.368c-.765-.306-1.46-.49-1.251-.306" transform="translate(-53.254 -22.636)" fill="#020102"/>
        <path id="Path_60331" data-name="Path 60331" d="M67.81,32.5c-.07.061-.209.061-.278.123-.209.061-.209.245,0,.245s.417-.184.417-.306c0-.061-.07-.061-.139-.061" transform="translate(-54.878 -23.224)" fill="#020102"/>
        <path id="Path_60332" data-name="Path 60332" d="M66.084,32.7a.379.379,0,0,0,.278.123c.278,0,.278-.123,0-.245-.348-.061-.348-.061-.278.123" transform="translate(-54.473 -23.24)" fill="#020102"/>
        <path id="Path_60333" data-name="Path 60333" d="M65.4,61.171c0,.123.417.184,1.112.184s1.251-.061,1.251-.184a15.225,15.225,0,0,0-2.364,0" transform="translate(-54.276 -34.314)" fill="#020102"/>
        <path id="Path_60334" data-name="Path 60334" d="M72.9,63.683c0,.061.07.061.277-.061a2.66,2.66,0,0,1,.626-.245.564.564,0,0,0,.348-.123c0-.245-1.112.184-1.251.429" transform="translate(-56.561 -35.11)" fill="#020102"/>
        <path id="Path_60335" data-name="Path 60335" d="M59.4,63.236c0,.061.07.061.139.061l.626.184a1.424,1.424,0,0,0,.487.123c.07-.061-.417-.368-.834-.429-.348-.061-.417-.061-.417.061" transform="translate(-52.447 -35.092)" fill="#020102"/>
        <path id="Path_60336" data-name="Path 60336" d="M72.978,64.2a5.9,5.9,0,0,0-2.155,1.777c-.348.551-.14.49.278-.061a7.508,7.508,0,0,1,1.668-1.532q.314-.184.209-.184" transform="translate(-55.875 -35.505)" fill="#020102"/>
        <path id="Path_60337" data-name="Path 60337" d="M60.147,64.2c-.209,0-.209,0,.487.429a6.393,6.393,0,0,1,1.6,1.653c.07.184.278.246.278.123,0-.306-1.043-1.409-1.738-1.9a1.486,1.486,0,0,0-.626-.306" transform="translate(-52.638 -35.505)" fill="#020102"/>
        <path id="Path_60338" data-name="Path 60338" d="M81.192,37.555c.07.245.07.429.139.674a1.254,1.254,0,0,0,.209.49c.139.061.139-.061.07-.551a1.479,1.479,0,0,0-.209-.735c-.139-.184-.279-.123-.209.123" transform="translate(-59.082 -25.094)" fill="#020102"/>
        <path id="Path_60339" data-name="Path 60339" d="M81.894,40.518a5.9,5.9,0,0,0,.9,1.715c.209,0,.14-.184-.208-.858a8,8,0,0,1-.418-.919c-.139-.368-.348-.245-.277.061" transform="translate(-59.298 -26.219)" fill="#020102"/>
        <path id="Path_60340" data-name="Path 60340" d="M83.64,44.1c-.209,0-.209.061.209.551a2.514,2.514,0,0,1,.487.674c.07.245.277.245.277,0a1.407,1.407,0,0,0-.416-.674,1.581,1.581,0,0,0-.556-.551" transform="translate(-59.792 -27.718)" fill="#020102"/>
        <path id="Path_60341" data-name="Path 60341" d="M77.467,44.295c-.139.061-.139.061.487.8.418.551.626.674.626.429a4.475,4.475,0,0,0-.487-.735c-.348-.245-.626-.551-.626-.49" transform="translate(-57.93 -27.791)" fill="#020102"/>
        <path id="Path_60342" data-name="Path 60342" d="M79.491,47.09c-.139.123.487.98.7.98.07,0,.139,0,.139-.061a4.431,4.431,0,0,0-.487-.735c-.139-.123-.278-.245-.348-.184" transform="translate(-58.564 -28.87)" fill="#020102"/>
        <path id="Path_60343" data-name="Path 60343" d="M85.735,47.884c.277.306.556.674.625.735a.38.38,0,0,0,.209.123c.139-.123-.209-.674-.7-1.164-.625-.613-.7-.368-.138.306" transform="translate(-60.357 -28.93)" fill="#020102"/>
        <path id="Path_60344" data-name="Path 60344" d="M80.835,50.191c.138.368.277.551.348.49A1.418,1.418,0,0,0,80.9,49.64c-.279-.245-.279,0-.07.551" transform="translate(-58.934 -29.828)" fill="#020102"/>
        <path id="Path_60345" data-name="Path 60345" d="M87.4,50.742c.07.184.07.429.138.613a2.742,2.742,0,0,1,.14.8c0,.184.07.306.139.306s.14-.061.14-.245a11.486,11.486,0,0,0-.348-1.47c0-.123-.209-.123-.209,0" transform="translate(-60.98 -30.256)" fill="#020102"/>
        <path id="Path_60346" data-name="Path 60346" d="M81.194,52.464a4.3,4.3,0,0,0,1.182,2.083c.209,0,.07-.245-.278-.8a4.682,4.682,0,0,1-.556-.98c-.14-.368-.209-.429-.348-.306" transform="translate(-59.085 -30.936)" fill="#020102"/>
        <path id="Path_60347" data-name="Path 60347" d="M88.349,54.6c-.14,0-.14.184-.07.919.07.674.209.49.209-.245,0-.551,0-.674-.138-.674" transform="translate(-61.234 -31.786)" fill="#020102"/>
        <path id="Path_60348" data-name="Path 60348" d="M83.5,56.216a5.3,5.3,0,0,0,.417.613c.278.368.417.49.556.429.07-.061,0-.306-.487-.919-.277-.245-.486-.368-.486-.123" transform="translate(-59.791 -32.36)" fill="#020102"/>
        <path id="Path_60349" data-name="Path 60349" d="M88.57,57.7c-.07,0-.07.123-.07.429,0,.245.07.551.07.674,0,.184.07.245.14.245.138,0,.138-.061.07-.613a2.33,2.33,0,0,0-.139-.674c.069,0,0-.061-.07-.061" transform="translate(-61.315 -32.987)" fill="#020102"/>
        <path id="Path_60350" data-name="Path 60350" d="M85.435,59.2c-.209,0-.209.123.07.551.209.306.278.429.348.368s.07-.245-.139-.49c0-.184-.139-.306-.278-.429" transform="translate(-60.336 -33.568)" fill="#020102"/>
        <path id="Path_60351" data-name="Path 60351" d="M89,60.921c0,.245.417.919.556.919.209,0,.139-.123-.139-.613-.209-.429-.417-.551-.417-.306" transform="translate(-61.467 -34.186)" fill="#020102"/>
        <path id="Path_60352" data-name="Path 60352" d="M85.549,62.081a1.221,1.221,0,0,1-.07,1.286,2.4,2.4,0,0,0-.277.613,2.062,2.062,0,0,1-1.043.919c-.7.306-.209.8.9.8a1.323,1.323,0,0,0,.834-.244c.417-.245.556-.245.765.184a1.829,1.829,0,0,1-.14,1.592c-.348.613-.348,1.042,0,1.165a.506.506,0,0,1,.348.367c0,.184.14.306.348.368.279.061.418-.062.487-.491a4.429,4.429,0,0,1,1.043-1.592,1.275,1.275,0,0,0,.348-.736,5.523,5.523,0,0,1,.208-.919,1.5,1.5,0,0,0-.138-1.225C88.747,63,88.539,62.51,88.4,62.51c-.07,0-.139.061-.07.122.278.736.557,1.471.765,2.206a6.116,6.116,0,0,1-.208.98,2.851,2.851,0,0,1-.556,1.225l-.348.429-.07-1.165a4.145,4.145,0,0,0-.208-1.286c-.07-.061-.14.245-.07,1.348a6.1,6.1,0,0,1-.139,1.96c-.14.491-.209.491-.348.368s-.14-.429-.07-1.41c.07-1.409,0-1.837-.487-2.143-.278-.184-.486-.123-.973.244a.951.951,0,0,1-.7.123,1.219,1.219,0,0,1-.625-.184c-.14-.122-.14-.122.208-.245.417-.184,1.043-.674,1.043-.919a1.729,1.729,0,0,1,.278-.613,1.053,1.053,0,0,0,.139-1.1q-.1-.368-.208-.735c-.278-.306-.348-.061-.209.368m1.182,5.513c.139-.184.139-.123.07.122a1.944,1.944,0,0,1-.07.368c0,.061-.07.061-.07.061-.07,0-.07-.061-.07-.183-.07-.123,0-.246.139-.368" transform="translate(-59.894 -34.488)" fill="#020102"/>
        <path id="Path_60353" data-name="Path 60353" d="M74.206,85.3a2.508,2.508,0,0,0-.487.674c-.279.489-.487.673-.626.735-.207.061-.348.245-.138.245.278,0,.486-.245.9-.858.14-.245.278-.49.418-.734.07-.062,0-.062-.07-.062" transform="translate(-56.546 -43.679)" fill="#020102"/>
        <path id="Path_60354" data-name="Path 60354" d="M59.264,85.3c-.139,0-.139.062.278.613a2.742,2.742,0,0,1,.348.613c0,.123.417.368.556.368.209,0,.139-.123-.07-.184a1.7,1.7,0,0,1-.626-.735,2.507,2.507,0,0,0-.487-.674" transform="translate(-52.38 -43.679)" fill="#020102"/>
        <path id="Path_60355" data-name="Path 60355" d="M55.967,29.7s-3.407.123-4.867,7.658" transform="translate(-49.918 -22.14)" fill="none" stroke="#020102" stroke-miterlimit="10" stroke-width="0.25"/>
        <path id="Path_60356" data-name="Path 60356" d="M103.9,39.309c-.793.32-.8.381-.812.564-.019.244.2.934.348.882a4.508,4.508,0,0,0,.857-.254,2.764,2.764,0,0,0,.788-.259,2.019,2.019,0,0,0-.234-.567c-.164-.563-.3-.633-.947-.366" transform="translate(-65.76 -25.804)" fill="#020102"/>
        <path id="Path_60357" data-name="Path 60357" d="M101.667,43.36c-1.051.058-1.051.058-1.169.665a6.312,6.312,0,0,1-2.171,3.614A5.375,5.375,0,0,1,96.5,48.693c-.069,0-.129-.131-.184-.319-.1-.437-.387-.393-.7.018-.154.175-.683.7-1.133,1.1a5.32,5.32,0,0,0-.836.87c-.015.184.873.423,2.519.77,1.507.339,1.725.23,1.362-.469-.119-.253-.119-.253.386-.467a9.751,9.751,0,0,0,2.445-1.815,7.515,7.515,0,0,0,2.08-4.234c.143-.912.207-.847-.774-.785" transform="translate(-62.884 -27.419)" fill="#020102"/>
      </g>
    </g>
  </g>
</svg>
