<svg xmlns="http://www.w3.org/2000/svg" width="70" height="70" viewBox="0 0 70 70">
  <g id="shoulderabductionright" transform="translate(1165 -6134)">
    <path id="Path_60365" data-name="Path 60365" d="M0,0H70V70H0Z" transform="translate(-1165 6134)" fill="#fff"/>
    <g id="Group_8939" data-name="Group 8939" transform="translate(-1234 6106)">
      <g id="Group_8939-2" data-name="Group 8939" transform="translate(78.523 29.837)">
        <path id="Path_60289" data-name="Path 60289" d="M61.554,78.453a4.247,4.247,0,0,1-.89-1.03,3.053,3.053,0,0,0-.617-.772l-.343-.387.068-2.059a13.828,13.828,0,0,1,.275-2.9,14.225,14.225,0,0,0,.617-3.8,2.937,2.937,0,0,0-.206-1.546,4.369,4.369,0,0,1-.2-2.639c.136-.258.136-.451.068-1.095a2.026,2.026,0,0,1,.206-1.544,15.673,15.673,0,0,0,.822-3.541,80.853,80.853,0,0,0,0-8.176,6.114,6.114,0,0,0-.274-1.609,13.334,13.334,0,0,1-.479-1.545,8.292,8.292,0,0,0-.481-1.609,9.646,9.646,0,0,1-.273-1.352,11.925,11.925,0,0,0-.206-1.223,1.023,1.023,0,0,1,.069-.772,5.312,5.312,0,0,0,.138-1.03,8.736,8.736,0,0,1,.548-2.961,4.181,4.181,0,0,0,.343-1.545,10.077,10.077,0,0,1,.411-2.06c.412-1.481.412-1.674.138-1.674s-.48-.129-.343-.257c.068-.064.137-.193.2-.257-.069-.064-.069-.129-.137-.193l-.137.386-.137-.451a.837.837,0,0,1,0-.579,2.227,2.227,0,0,1-.069-1.159c0-.193-.069-.386-.069-.579a12.749,12.749,0,0,0-.138-1.609,4.628,4.628,0,0,1-.068-.966c.068,0,.068,0,.136.064v-.322c-.069,0-.069-.064-.136-.064-.138-.129-.206-.129-.96-.064A8.4,8.4,0,0,0,58.2,25.8c-.412.129-.685.129-1.44-.257s-.754-.386-.685-1.352a2.11,2.11,0,0,1,.206-.9,1.353,1.353,0,0,0,.273-.386,2.1,2.1,0,0,0,.069-1.287,1.024,1.024,0,0,1,0-.644,3.324,3.324,0,0,0,0-1.159A1.516,1.516,0,0,0,56,18.843a4.1,4.1,0,0,0-1.85-.9,3.546,3.546,0,0,0-.822.064,3.291,3.291,0,0,0-2.124,1.609,14.742,14.742,0,0,0-.069,1.738c0,1.352,0,1.416.274,1.8a1.613,1.613,0,0,1,.343,1.094c.069.708.069.708-.206.966a2.075,2.075,0,0,1-1.987.579,9.855,9.855,0,0,0-1.165-.257c-.617-.064-.754-.064-.891.064a2.859,2.859,0,0,1-.754.451,2.228,2.228,0,0,1-1.439.257,13.082,13.082,0,0,1-1.508-.129,8.2,8.2,0,0,0-2.81-.064c-.548.064-.617.064-1.987-.579-1.439-.644-1.439-.644-2.33-.644a11.854,11.854,0,0,0-2.124.193,7.869,7.869,0,0,1-2.124.129,3.792,3.792,0,0,1-2.056-.579,4.584,4.584,0,0,0-2.261-.644,5.488,5.488,0,0,1-1.782-.386c-.48-.193-.685-.193-.754-.129-.138.129,0,.386.343.644l.273.193-.343.064c-.2.064-.273.129-.273.322,0,.322.273.386,1.644.579,1.371.129,1.713.257,1.645.579,0,.193-.069.193-.685.193s-.685,0-.959.386c-.411.451-.411.707,0,.644h1.1a3.6,3.6,0,0,0,1.165-.129,5.008,5.008,0,0,1,1.371-.193,4.761,4.761,0,0,1,1.919.193,17.566,17.566,0,0,1,1.987.772,8.915,8.915,0,0,0,4.25,1.159,6.1,6.1,0,0,1,2.4.451,11.251,11.251,0,0,0,3.289.9c1.1.064,1.713.322,1.919.772.069.193.206.386.274.386s.069.064,0,.129a.542.542,0,0,1-.343.129c-.206,0-.206.064-.206.322a6.245,6.245,0,0,0,.343,1.416,10.967,10.967,0,0,1,.411,2.06,3.635,3.635,0,0,0,.343,1.481,8.736,8.736,0,0,1,.548,2.961,6.049,6.049,0,0,0,.137,1.03,2.577,2.577,0,0,1,0,1.029,6.76,6.76,0,0,0-.137,1.1,7.859,7.859,0,0,1-.274,1.223,11.9,11.9,0,0,0-.343,1.287c-.069.257-.274,1.03-.48,1.609a7.545,7.545,0,0,0-.411,3.025,45.312,45.312,0,0,0,.137,7.468c.069.386.206,1.029.274,1.416a5.349,5.349,0,0,0,.685,2,.976.976,0,0,1,.137.966,2.6,2.6,0,0,0,0,1.029,9.849,9.849,0,0,1,.069,1.546,3.213,3.213,0,0,1-.273,1.609A2.576,2.576,0,0,0,47.3,67.96a17.88,17.88,0,0,0,.685,3.734,12.643,12.643,0,0,1,.274,2.767l.069,1.867-.48.579a2.665,2.665,0,0,0-.48.709,3.431,3.431,0,0,1-.822.9c-.685.709-.822.838-.822,1.094s.069.387.206.387c.137.064.206.064.343.128s.206.065.206,0c.069-.064,0-.064-.069-.064-.137,0-.137-.322.069-.451.069-.064.137-.129.069-.192-.069-.129-.48.257-.48.451,0,.128,0,.128-.137.064-.137-.129-.137-.129,0-.322a1.049,1.049,0,0,0,.137-.322,1.631,1.631,0,0,1,.548-.579,2.878,2.878,0,0,0,.822-.966,9.662,9.662,0,0,1,.617-.837c.343-.322.48-.386.754-.386.412,0,.959.45,1.371,1.094.138.322.274.386.274.322.069-.257-.2-.644-.754-1.159-.411-.386-.48-.451-.959-.451h-.48V74.591a11.989,11.989,0,0,0-.548-4.121,11.967,11.967,0,0,1-.411-3.09,2.76,2.76,0,0,1,.206-1.03,8.923,8.923,0,0,0,.343-1.287l.137-.837.206.387c.206.386.685.836.822.707,0-.064-.069-.193-.274-.322a8.368,8.368,0,0,1-.685-.966,2.746,2.746,0,0,1-.2-2.317c.137-.644.137-.9-.069-.644-.137.257-.616-.838-.822-2a11.069,11.069,0,0,0-.274-1.416q-.206-2.317-.2-4.634a6.056,6.056,0,0,1,.685.579,4.513,4.513,0,0,0,1.165.772,12.354,12.354,0,0,0,3.426.644c.685.064.822.064.754.193a21.656,21.656,0,0,0-.685,4.635A3.062,3.062,0,0,1,51,62.295c-.411.451-.548.709-.138.387.206-.194.206-.194.138.064a6.391,6.391,0,0,0-.206,1.159c-.137.772-.069.966.069,1.223a20.78,20.78,0,0,1,.891,2.7c.137.579.069.707-.343,1.416A3.046,3.046,0,0,0,51,70.342a13.37,13.37,0,0,1-.548,1.481,3.571,3.571,0,0,0-.343,2.06,3.442,3.442,0,0,0,.206,1.674,1.239,1.239,0,0,1,.069.836c-.137.386-.137.515,0,.515s.48.708.48,1.03a.836.836,0,0,1-.343.451.863.863,0,0,0-.411.837c-.069.386-.069.579-.274.644-.206.129-.206.129-.137-.128,0-.194,0-.258-.069-.194s-.138.129-.138.194c0,.257-.411.514-.685.514A.635.635,0,0,1,48.258,80c-.206-.193-.274-.257-.069-.386a.474.474,0,0,0,.137-.322c0-.192,0-.192-.137.064-.069.129-.206.257-.274.257s-.069.064-.069.193c.069.194-.138.322-.412.258-.2-.064-.069-.322.206-.58a.576.576,0,0,0,.206-.322c-.069-.128-.685.451-.685.644,0,.065-.069.129-.274.129-.343,0-.343-.322-.069-.451a.351.351,0,0,0,.206-.322c0-.193,0-.193-.274.065s-.411.707-.206.837a3.581,3.581,0,0,0,.822.064,2,2,0,0,1,.891.194,1.1,1.1,0,0,0,1.165-.065c.685-.322.823-.514.823-.966,0-.322.069-.451.411-.772A3.564,3.564,0,0,0,51.068,78l-.206-.772a4.859,4.859,0,0,1-.206-.966,1.947,1.947,0,0,0-.206-.9,5.6,5.6,0,0,1,.343-3.8c.138-.386.274-.707.411-1.094a9.849,9.849,0,0,1,.48-1.287A1.722,1.722,0,0,0,51.96,67.9a7.468,7.468,0,0,0-.412-1.673c-.616-1.739-.616-1.867-.411-2.961a8.924,8.924,0,0,1,.343-1.287,3.574,3.574,0,0,0,.617-2.318c.137-2.575.48-4.635.822-4.892.069-.129.138-.258.206-.387a11.886,11.886,0,0,1,.754-2.188c.069,0,.138.257.274.515a7.866,7.866,0,0,0,.274.9c.069.257.137.45.206.708a.569.569,0,0,0,.206.451c.274.193.685,2.575.822,4.892a3.738,3.738,0,0,0,.275,1.739,1.957,1.957,0,0,0,.343.644,5.915,5.915,0,0,1,.343,2.446,6.941,6.941,0,0,1-.411,1.609,15.407,15.407,0,0,0-.48,1.674,1.44,1.44,0,0,0,.206,1.287,11.2,11.2,0,0,1,.548,1.352c.138.386.343,1.029.48,1.416a5.2,5.2,0,0,1,.136,3.8,3.09,3.09,0,0,0-.136.838,3.05,3.05,0,0,1-.138.772c-.274.772-.274.966.138,1.352a1.015,1.015,0,0,1,.41.837c.069.386.069.514.343.707a.44.44,0,0,0,.275.129.551.551,0,0,1,.2.065,1.092,1.092,0,0,0,1.166.128,2.313,2.313,0,0,1,.959-.193c.274,0,.548-.064.822-.064.206-.129.069-.516-.2-.772s-.274-.258-.274-.064c0,.128.069.193.2.257.274.129.274.451-.069.451a.347.347,0,0,1-.343-.258c-.068-.257-.617-.707-.617-.515,0,.129.069.193.206.258.2.128.343.45.273.579s-.411,0-.411-.193a.329.329,0,0,0-.137-.257.328.328,0,0,1-.138-.257.222.222,0,0,0-.068-.129c-.138,0-.138.193.068.451s.206.257-.068.514a1.015,1.015,0,0,1-.96.129.353.353,0,0,1-.2-.322c-.069-.258-.274-.322-.206-.065.069.194-.137.129-.343-.128-.069-.129-.137-.258-.069-.387a.771.771,0,0,0-.343-.837c-.411-.192-.48-.514-.274-1.158.138-.387.206-.516.343-.451.206.064.206-.064,0-.451-.137-.257-.137-.322.069-.837a3.436,3.436,0,0,0,.206-1.673,4.14,4.14,0,0,0-.274-1.8c-.137-.386-.411-1.094-.548-1.609a5.272,5.272,0,0,0-.617-1.416,2.012,2.012,0,0,1-.274-.838,16.089,16.089,0,0,1,.685-2.575,3.077,3.077,0,0,0,.274-2.124c-.2-.966-.2-.9.069-.837.206.064.138,0-.2-.386-.685-.772-.754-.966-.823-2.317a25.479,25.479,0,0,0-.479-3.991,7.2,7.2,0,0,1-.206-.9,3.614,3.614,0,0,1,.823-.129,15.269,15.269,0,0,0,3.426-.644,4.494,4.494,0,0,0,1.164-.772l.617-.579v.9a22.767,22.767,0,0,1-.137,3.734c-.069.386-.206.966-.274,1.416a8.7,8.7,0,0,1-.274,1.287c-.206.516-.48,1.031-.48.838a.218.218,0,0,0-.069-.129c-.069,0-.069.579.069.707a3.058,3.058,0,0,1,.137.773c.068.707.068.707-.411,1.545-.274.579-.549.9-.685.9-.206.065-.274.322-.138.322s.549-.386.755-.772l.2-.386.069.707a5.389,5.389,0,0,0,.343,1.416l.274.644-.137,1.287a22.31,22.31,0,0,1-.343,2.253,15.084,15.084,0,0,0-.548,4.249v1.481h-.48a1.173,1.173,0,0,0-.822.322c-.48.386-.959,1.222-.822,1.351.069,0,.206-.129.273-.322.206-.451,1.028-1.222,1.3-1.222.41,0,1.1.644,1.508,1.352a3.455,3.455,0,0,0,.822.9,2.555,2.555,0,0,1,.548.644c0,.064.069.128.069.193.069.064.137.451.069.451a.81.81,0,0,1-.343-.322c-.206-.257-.274-.257-.274-.129s.069.193.206.257.137.129.069.322c-.206.322-.069.322.274.129a.487.487,0,0,0,.343-.451,2.64,2.64,0,0,0-.958-1.351M51.686,22.834c-.138.128-.343-.194-.412-.838-.069-.386-.069-.45.138-.386s.2.064.137-.129a3.517,3.517,0,0,1-.206-2.061,2.859,2.859,0,0,1,1.439-1.351,2.4,2.4,0,0,1,2.193.064,5.173,5.173,0,0,1,.959.709,1.477,1.477,0,0,1,.48,1.03,3.288,3.288,0,0,1-.069,1.158c-.137.58-.137.773.069.516s.136.772-.069,1.094c-.069.194-.2.258-.2.194-.138-.258-.206-.064-.206.386a4.148,4.148,0,0,1-.137.9,3.258,3.258,0,0,1-1.1,1.416,1.7,1.7,0,0,1-1.576,0,3.4,3.4,0,0,1-1.3-2.446c0-.322-.07-.386-.138-.257M27.22,24.959c-.89-.065-1.575-.257-1.508-.387a.923.923,0,0,1,.822-.128l.617.193c.959.322.959.451.069.322m19.531,5.6c-.2-.579-.2-.644-.343-.451-.069.064-.137.064-.548,0a5.557,5.557,0,0,0-1.028-.129,12.531,12.531,0,0,1-3.153-.837,10.068,10.068,0,0,0-1.3-.387,1.924,1.924,0,0,1-.823-.192c-.274-.129-.48-.129-.343,0,0,.064-.069.064-.274.064s-.548-.064-.822-.064a8.774,8.774,0,0,1-3.084-1.1,12.662,12.662,0,0,0-2.193-.836,3.907,3.907,0,0,0-1.919-.129,5.034,5.034,0,0,0-1.371.194,10.008,10.008,0,0,1-2.4.128c.069-.128.206-.257.274-.386.274-.322.343-.322.959-.258l.617.065.069-.322a.52.52,0,0,0,0-.451,5.171,5.171,0,0,0-1.508-.9,6.3,6.3,0,0,1-1.645-.772c-.274-.322-.274-.322.343-.064a13.994,13.994,0,0,0,2.81.836c0-.064-.206-.128-.48-.257l-.548-.193.617.064a4.449,4.449,0,0,1,1.782.58,3.8,3.8,0,0,0,2.056.579c.685,0,1.439-.064,2.124-.129a11.912,11.912,0,0,1,2.124-.192h.891l1.371.644c1.3.579,1.439.644,1.85.579a6.883,6.883,0,0,1,2.81,0,8.393,8.393,0,0,0,1.782.193,2.932,2.932,0,0,0,1.44-.322,3,3,0,0,1,.685-.258,4.538,4.538,0,0,1-.069.966c-.069.451-.137,1.353-.2,1.931l-.069,1.031-.138-.322c-.274-.515-.48-.837-.754-.9-.274-.129-.343-.129-.343-.064s.137.129.274.257a2.326,2.326,0,0,1,.685.9,1.87,1.87,0,0,1,.343,1.159c0,.257-.069.386-.137.386a1.368,1.368,0,0,1-.411-.644m.891,6.244a3.621,3.621,0,0,1-.343-1.48,10.037,10.037,0,0,0-.411-2.061c-.48-1.8-.48-1.673-.137-1.673.48,0,.617-.386.685-2.317.069-.966.137-2.189.206-2.769l.137-1.094.411.064c1.439.193,1.576.257,1.987.837.206.257.274.322.343.192s.274-.064,1.165.258c1.165.451,1.234.451,1.234.322a10.009,10.009,0,0,0-2.33-.837c-.069.064-.206-.065-.343-.193a.388.388,0,0,1-.137-.257,1.849,1.849,0,0,0,.48-.193l.822-.387c.411-.257.411-.257.548.322a.544.544,0,0,0,.206.387q.1,0,0-.387a2.842,2.842,0,0,1-.206-1.094,1.659,1.659,0,0,1,.343.515,1.774,1.774,0,0,0,.48.515c.069,0,.137.064.137.193a3.525,3.525,0,0,0,.617,1.094c.137,0,0-.322-.206-.644s-.2-.322.206-.193a1.24,1.24,0,0,0,.685,0l.343-.065-.206.387c-.2.386-.273.579-.137.579l.411-.579a3.642,3.642,0,0,1,.548-.837c.137-.194.274-.322.412-.516.2-.386.273-.128.068.58-.137.579-.137.772.069.515a1.148,1.148,0,0,0,.138-.515c0-.129.069-.258.069-.386.137.064.343.193.48.257l.822.386c.137.064.275.064.411.129a1.394,1.394,0,0,1-.2.322.966.966,0,0,0-.206.386q.1,0,.412-.386a1.536,1.536,0,0,1,.616-.515,16.085,16.085,0,0,1,1.713-.322c.069,0,.069.193.069.386,0,.322.069.644.069.966a15.821,15.821,0,0,1,.137,2.253c.069,1.481.069,1.738.274,2.06.137.193.274.386.411.386.274.064.274.129-.069,1.545a11.622,11.622,0,0,0-.411,2.124,3.635,3.635,0,0,1-.343,1.481,9.034,9.034,0,0,0-.548,2.961,2.733,2.733,0,0,1-.274,1.287,5.483,5.483,0,0,0-.343.966,2.607,2.607,0,0,1-1.028,1.48c-.685.451-2.193.644-4.386.644-2.056,0-3.358-.257-3.975-.707a2.465,2.465,0,0,1-1.028-1.546,3.066,3.066,0,0,0-.273-.836,9.379,9.379,0,0,1-.274-1.352,4.706,4.706,0,0,0-.345-2.64M61.211,51.352c0,1.159,0,1.222-.343,1.544a4.151,4.151,0,0,1-1.987,1.352,10.949,10.949,0,0,1-3.289.45h-.617l-.343-1.029a9.7,9.7,0,0,1-.41-1.287c-.069-.258-.069-.258.274-.386.411-.129.89-.516.754-.644a1.217,1.217,0,0,0-.343.128,1.643,1.643,0,0,1-2.056.065,1.021,1.021,0,0,0-.343-.193c-.137.128.411.515.754.644.274.064.343.128.274.257a21.99,21.99,0,0,0-.685,2.253c0,.322-1.028.322-2.6,0-1.645-.257-2.124-.451-2.878-1.158-.891-.837-.959-.837-.822-3.348a8,8,0,0,1,.343-2.7c.137-.386.343-1.094.48-1.609s.343-1.223.48-1.609l.274-.644v.45a1.1,1.1,0,0,0,.137.644,2.61,2.61,0,0,0,.891.58,2.233,2.233,0,0,1,.617.193c.959.386,2.261.644,2.261.386,0-.064-.138-.129-.412-.129a6.876,6.876,0,0,1-3.152-1.094,1,1,0,0,1-.137-.644,2.947,2.947,0,0,0-.069-.772,3.277,3.277,0,0,1,.206-1.609c.069,0,.069.193.137.451a2.189,2.189,0,0,0,.411.9c.822,1.094,1.85,1.352,4.934,1.352,2.467,0,3.632-.193,4.317-.708a2.846,2.846,0,0,0,1.1-1.674c.068-.451.068-.451.2-.257a4.893,4.893,0,0,1,.069,1.416c0,1.287-.069,1.546-.548,1.739a8.283,8.283,0,0,1-2.809.836c-.206,0-.412.065-.412.129,0,.192,1.234,0,2.33-.386.274-.065.617-.257.754-.257a1.191,1.191,0,0,0,.822-1.1V43.5l.206.515c.137.451.274.9.412,1.416s.343,1.223.479,1.609a13.274,13.274,0,0,1,.343,4.313" transform="translate(-25.523 -17.837)" fill="#020102"/>
        <path id="Path_60290" data-name="Path 60290" d="M81.8,58.58a3.67,3.67,0,0,0-.48-2.06,3.064,3.064,0,0,1-.411-2.061,9.719,9.719,0,0,1,.411-1.931,9.166,9.166,0,0,0,.412-1.866,3.922,3.922,0,0,0-.412-2.253c-.48-1.353-.548-1.416-.411-1.931a8.191,8.191,0,0,0,.206-2.575,4.9,4.9,0,0,1,0-1.416.771.771,0,0,1,.069-.386h-.206a8.41,8.41,0,0,0,0,1.867,4.906,4.906,0,0,1-.206,2.446c-.137.516-.137.709-.068.838s.273.708.548,1.352a3.47,3.47,0,0,1,.343,2.06,9.67,9.67,0,0,1-.411,1.931,9.118,9.118,0,0,0-.411,1.866,3.01,3.01,0,0,0,.411,2,5.424,5.424,0,0,1,.48,1.8V58.9l-.137-.451a4.27,4.27,0,0,0-.206-.515,7.657,7.657,0,0,0,.48,2.317c.069.258.138.58.206.837A.5.5,0,0,1,81.8,60.9a5.7,5.7,0,0,1-.617-1.48,4.358,4.358,0,0,0-.754-1.481.635.635,0,0,0-.48-.064H79.6v.579c0,.579,0,.579-.343.836a1.438,1.438,0,0,1-.411.258,8.192,8.192,0,0,1,.343-2.253A4,4,0,0,0,79.536,56a6.5,6.5,0,0,0-.617-3.862c-.273-.708-.616-1.609-.685-1.931a5.079,5.079,0,0,1-.069-2.253c.069,0,.069-.193,0-.386a3.585,3.585,0,0,1-.137-.9,1.956,1.956,0,0,0-.206-.9,8.033,8.033,0,0,1-.617-3.089H77a10.888,10.888,0,0,0,.617,2.961,6.3,6.3,0,0,1,.273,2.511,7.506,7.506,0,0,0,.891,3.991,6.058,6.058,0,0,1,.617,3.734,5.53,5.53,0,0,1-.411,1.416,2.448,2.448,0,0,0-.206.966,2.95,2.95,0,0,1-.069.772.873.873,0,0,0-.138.386c0,.257.48.192.823-.064s.343-.258.411-.837.069-.579.274-.579c.343,0,.411.257.411,1.609a9.029,9.029,0,0,0,.137,1.351c.137.322.412.387.617.065l.138-.257.273.257c.206.257.685.45.685.257a5.328,5.328,0,0,0-.206-.9A3.94,3.94,0,0,1,81.8,58.58m-.959,2.382c-.136,0-.273-.451-.273-1.223v-.9q0-.29.2.194c.069.193.138.386.206.579,0,.129.069.258.069.387.136.322,0,.9-.206.966" transform="translate(-41.723 -26.481)" fill="#020102"/>
        <path id="Path_60291" data-name="Path 60291" d="M46.194,30.964c-.069.129.137.451.274.451s.137-.129,0-.257c-.069-.064-.069-.129.069-.129s.206,0,.274-.064-.069-.064-.274-.064c-.137,0-.343,0-.343.064" transform="translate(-32.024 -22.491)" fill="#020102"/>
        <path id="Path_60292" data-name="Path 60292" d="M52.256,34.715a5.256,5.256,0,0,0,2.261.451c0-.064-.274-.129-.548-.193-.685-.129-1.3-.257-1.645-.322-.206-.129-.206-.129-.069.064" transform="translate(-33.906 -23.795)" fill="#020102"/>
        <path id="Path_60293" data-name="Path 60293" d="M49.63,34.761q0,.1-.206,0c-.137-.064-.206,0-.137.064a.315.315,0,0,0,.343.064.919.919,0,0,1,.411.064.652.652,0,0,0,.343.064q.206,0-.206-.193c-.411-.129-.548-.193-.548-.064" transform="translate(-32.993 -23.841)" fill="#020102"/>
        <path id="Path_60294" data-name="Path 60294" d="M51.3,34.75c0,.129.891.515,1.028.386.069-.064.069-.129-.069-.129a2.413,2.413,0,0,0-.548-.193c-.411-.193-.411-.193-.411-.064" transform="translate(-33.635 -23.83)" fill="#020102"/>
        <path id="Path_60295" data-name="Path 60295" d="M69.5,31.379a10.061,10.061,0,0,1-1.028.386.064.064,0,0,0-.069.064,14.018,14.018,0,0,0,2.33-.772c.274-.193-.411,0-1.234.322" transform="translate(-39.017 -22.519)" fill="#020102"/>
        <path id="Path_60296" data-name="Path 60296" d="M65.8,32.564a.437.437,0,0,0,.411.322c.206,0,.206-.129,0-.257a.364.364,0,0,1-.274-.129c-.069,0-.137,0-.137.064" transform="translate(-38.198 -23.061)" fill="#020102"/>
        <path id="Path_60297" data-name="Path 60297" d="M67.506,32.653c-.274.129-.274.257,0,.257a.364.364,0,0,0,.274-.129c0-.257,0-.257-.274-.129" transform="translate(-38.67 -23.085)" fill="#020102"/>
        <path id="Path_60298" data-name="Path 60298" d="M65.2,61.173c-.069.064.548.193,1.234.193.617,0,1.1-.064,1.1-.193a14.07,14.07,0,0,0-2.329,0" transform="translate(-38.007 -33.258)" fill="#020102"/>
        <path id="Path_60299" data-name="Path 60299" d="M59.3,63.257c0,.064.137.129.343.129a2.516,2.516,0,0,1,.617.257c.206.129.274.129.274.064C60.4,63.451,59.3,63,59.3,63.257" transform="translate(-36.153 -33.991)" fill="#020102"/>
        <path id="Path_60300" data-name="Path 60300" d="M73.519,63.25c-.343.064-.892.386-.823.451a1.041,1.041,0,0,0,.48-.129l.616-.193a.244.244,0,0,0,.138-.064c.068-.193,0-.193-.411-.064" transform="translate(-40.367 -33.984)" fill="#020102"/>
        <path id="Path_60301" data-name="Path 60301" d="M60.194,64.393A6.316,6.316,0,0,1,61.838,66c.411.579.685.644.274.064A5.4,5.4,0,0,0,59.988,64.2q-.1,0,.206.193" transform="translate(-36.361 -34.354)" fill="#020102"/>
        <path id="Path_60302" data-name="Path 60302" d="M72.113,64.522a5.246,5.246,0,0,0-1.713,2c0,.129.2,0,.273-.129a7.745,7.745,0,0,1,1.576-1.738c.685-.451.617-.451.48-.451a1.431,1.431,0,0,0-.616.322" transform="translate(-39.646 -34.354)" fill="#020102"/>
        <path id="Path_60303" data-name="Path 60303" d="M52.293,37.438a1.631,1.631,0,0,0-.206.772c-.069.515,0,.644.069.579.069,0,.137-.257.206-.515a2.19,2.19,0,0,1,.137-.708c.137-.257,0-.322-.206-.129" transform="translate(-33.874 -24.78)" fill="#020102"/>
        <path id="Path_60304" data-name="Path 60304" d="M51.364,40.394a8.772,8.772,0,0,1-.411.966c-.343.772-.411.9-.206.9a8.929,8.929,0,0,0,.891-1.8c.069-.257-.137-.386-.274-.064" transform="translate(-33.425 -25.805)" fill="#020102"/>
        <path id="Path_60305" data-name="Path 60305" d="M36.036,55.957a2.565,2.565,0,0,1-.642-.2,2.849,2.849,0,0,1,.637-1.627,1.973,1.973,0,0,1,.947.455,2.764,2.764,0,0,1-.31,1.382,1.043,1.043,0,0,1-.632-.014" transform="translate(-28.629 -30.768)" fill="#020102"/>
        <path id="Path_60306" data-name="Path 60306" d="M30.639,48.733a9.2,9.2,0,0,1-2.592-4.7,10.139,10.139,0,0,1-.019-2.962c.036-.229-.016-.272-.209-.263a.611.611,0,0,1-.509-.431,7.008,7.008,0,0,1,2.231-1.751c.983-.641,1.034-.6,1.187.4.076.5.214,1.221.284,1.627.143.814.056,1-.245.832-.6-.243-.733-.1-.815,1.044a7.007,7.007,0,0,0,2.072,4.957c.356.3.352.211-.275,1.153-.535.847-.439.842-1.111.1" transform="translate(-26.085 -25.09)" fill="#020102"/>
        <path id="Path_60307" data-name="Path 60307" d="M49.311,44.679a1.51,1.51,0,0,0-.411.708c0,.257.206.257.274,0a2.643,2.643,0,0,1,.48-.708c.411-.515.411-.579.206-.579a1.6,1.6,0,0,0-.548.579" transform="translate(-32.88 -27.193)" fill="#020102"/>
        <path id="Path_60308" data-name="Path 60308" d="M55.48,44.9a4.74,4.74,0,0,0-.48.772c0,.257.206.129.617-.451.617-.772.617-.772.48-.837-.069-.129-.343.193-.617.515" transform="translate(-34.8 -27.284)" fill="#020102"/>
        <path id="Path_60309" data-name="Path 60309" d="M53.78,47.364a4.742,4.742,0,0,0-.48.772.244.244,0,0,0,.137.064c.206,0,.822-.966.685-1.03-.069-.129-.206,0-.343.193" transform="translate(-34.265 -28.269)" fill="#020102"/>
        <path id="Path_60310" data-name="Path 60310" d="M47.571,47.6c-.48.515-.822,1.094-.685,1.223.069.064.137,0,.206-.129.069-.064.343-.451.617-.772.548-.708.48-.966-.137-.322" transform="translate(-32.236 -28.307)" fill="#020102"/>
        <path id="Path_60311" data-name="Path 60311" d="M52.966,49.645a1.56,1.56,0,0,0-.274,1.094c.069.064.137-.064.343-.515.137-.579.137-.837-.069-.579" transform="translate(-34.068 -29.133)" fill="#020102"/>
        <path id="Path_60312" data-name="Path 60312" d="M46.043,50.747a6.263,6.263,0,0,0-.343,1.545c0,.193.069.257.137.257s.137-.064.137-.322a3.523,3.523,0,0,1,.138-.837,2.166,2.166,0,0,0,.137-.644c.068-.129-.138-.129-.206,0" transform="translate(-31.873 -29.527)" fill="#020102"/>
        <path id="Path_60313" data-name="Path 60313" d="M51.892,52.865a7.511,7.511,0,0,1-.548,1.03c-.343.579-.411.837-.274.837a4.916,4.916,0,0,0,1.165-2.189c-.137-.193-.206-.129-.343.322" transform="translate(-33.542 -30.165)" fill="#020102"/>
        <path id="Path_60314" data-name="Path 60314" d="M45.4,55.308c0,.772.137.966.206.257.069-.772.069-.966-.069-.966s-.137.129-.137.708" transform="translate(-31.778 -30.934)" fill="#020102"/>
        <path id="Path_60315" data-name="Path 60315" d="M49.657,56.426c-.48.644-.617.837-.48.966.069.064.206-.064.548-.451.137-.193.274-.451.411-.644-.069-.322-.274-.193-.48.129" transform="translate(-32.951 -31.472)" fill="#020102"/>
        <path id="Path_60316" data-name="Path 60316" d="M45.116,57.764c-.069.258-.069.451-.137.708-.069.579-.069.644.069.644s.137-.064.137-.257a2.973,2.973,0,0,1,.069-.708c.069-.257,0-.451-.069-.451Z" transform="translate(-31.632 -32.038)" fill="#020102"/>
        <path id="Path_60317" data-name="Path 60317" d="M47.925,59.551c-.137.322-.206.451-.137.515s.206-.064.343-.386c.206-.451.274-.579.069-.579a2.761,2.761,0,0,1-.274.451" transform="translate(-32.521 -32.537)" fill="#020102"/>
        <path id="Path_60318" data-name="Path 60318" d="M44.182,61.249c-.274.515-.343.644-.137.644.137,0,.548-.772.548-.966.069-.257-.137-.129-.411.322" transform="translate(-31.314 -33.141)" fill="#020102"/>
        <path id="Path_60319" data-name="Path 60319" d="M45.876,61.643a1.631,1.631,0,0,0-.206.772,1.367,1.367,0,0,0,.138,1.159,2.6,2.6,0,0,1,.273.644c0,.257.617.837,1.028.966.343.129.343.129.206.257a1.154,1.154,0,0,1-.617.193.889.889,0,0,1-.685-.129c-.48-.386-.685-.451-.959-.257-.48.322-.548.772-.48,2.253.069,1.03.069,1.352-.069,1.481s-.137.129-.343-.386a6.964,6.964,0,0,1-.137-2.06c0-1.159,0-1.481-.069-1.416a4.625,4.625,0,0,0-.206,1.352l-.069,1.224-.343-.451a3.078,3.078,0,0,1-.548-1.287c-.069-.322-.137-.644-.206-1.03.206-.772.48-1.545.754-2.317.069-.129,0-.129-.069-.129-.137,0-.411.515-.754,1.738a2.052,2.052,0,0,0-.137,1.287c.069.322.137.709.206.966a1.915,1.915,0,0,0,.343.772,4.862,4.862,0,0,1,1.028,1.674c.069.516.206.579.48.516a.417.417,0,0,0,.343-.387.506.506,0,0,1,.343-.386c.343-.065.343-.515,0-1.224a1.631,1.631,0,0,1-.137-1.673c.206-.451.343-.451.754-.194a1.37,1.37,0,0,0,.822.257c1.028,0,1.508-.451.891-.837a2.078,2.078,0,0,1-1.028-.966,1.863,1.863,0,0,0-.274-.644,1.564,1.564,0,0,1-.069-1.352c.069-.386,0-.644-.206-.386m-.822,6.631a.273.273,0,0,1-.069.193.064.064,0,0,1-.069-.064.9.9,0,0,0-.069-.386c-.069-.322-.069-.322.069-.129a.878.878,0,0,1,.137.386" transform="translate(-30.815 -33.406)" fill="#020102"/>
        <path id="Path_60320" data-name="Path 60320" d="M59,85.264l.411.772c.411.644.617.9.891.9.206,0,.137-.194-.137-.258-.137-.064-.343-.257-.617-.772a2.654,2.654,0,0,0-.48-.708c0,.064-.069.064-.069.064" transform="translate(-36.058 -41.835)" fill="#020102"/>
        <path id="Path_60321" data-name="Path 60321" d="M73.628,86.008a1.771,1.771,0,0,1-.617.772c-.2.065-.274.194-.069.194.137,0,.548-.258.548-.387a1.976,1.976,0,0,1,.343-.644c.411-.644.411-.644.273-.644a2.661,2.661,0,0,0-.479.709" transform="translate(-40.407 -41.871)" fill="#020102"/>
        <path id="Path_60322" data-name="Path 60322" d="M75.9,29.7s3.357.129,4.8,8.047" transform="translate(-41.377 -22.063)" fill="none" stroke="#020102" stroke-miterlimit="10" stroke-width="0.25"/>
      </g>
    </g>
  </g>
</svg>
