<svg xmlns="http://www.w3.org/2000/svg" xmlns:xlink="http://www.w3.org/1999/xlink" width="12.291" height="24.029" viewBox="0 0 12.291 24.029">
  <defs>
    <clipPath id="clip-path">
      <rect id="Rectangle_2406" data-name="Rectangle 2406" width="12.291" height="24.029" fill="#fff"/>
    </clipPath>
  </defs>
  <g id="Group_4191" data-name="Group 4191" transform="translate(-256 -341.89)">
    <g id="Group_4184" data-name="Group 4184" transform="translate(256 341.89)">
      <g id="Group_4183" data-name="Group 4183" transform="translate(0)" clip-path="url(#clip-path)">
        <path id="Path_3064" data-name="Path 3064" d="M259.851,346.717a2.414,2.414,0,1,1,2.373-2.486,2.429,2.429,0,0,1-2.373,2.486Zm0,0" transform="translate(-257.133 -341.89)" fill="#fff"/>
        <path id="Path_3065" data-name="Path 3065" d="M256.005,380.278a1.143,1.143,0,0,1,1.135-1.259h3.071a.969.969,0,0,1,.964.876l.773,7.987h4.564a1.748,1.748,0,0,1,1.747,1.749l-.01,6.443a1.305,1.305,0,0,1-1.308,1.3h0a1.307,1.307,0,0,1-1.306-1.309l.008-5.173a.4.4,0,0,0-.4-.4H258.23a1.335,1.335,0,0,1-1.308-1.308l-.916-8.908Zm0,0" transform="translate(-256 -373.443)" fill="#fff"/>
      </g>
    </g>
    <g id="Group_4188" data-name="Group 4188" transform="translate(256 341.89)">
      <g id="Group_4183-2" data-name="Group 4183" transform="translate(0)" clip-path="url(#clip-path)">
        <path id="Path_3064-2" data-name="Path 3064" d="M259.851,346.717a2.414,2.414,0,1,1,2.373-2.486,2.429,2.429,0,0,1-2.373,2.486Zm0,0" transform="translate(-257.133 -341.89)" fill="#fff"/>
        <path id="Path_3065-2" data-name="Path 3065" d="M256.005,380.278a1.143,1.143,0,0,1,1.135-1.259h3.071a.969.969,0,0,1,.964.876l.773,7.987h4.564a1.748,1.748,0,0,1,1.747,1.749l-.01,6.443a1.305,1.305,0,0,1-1.308,1.3h0a1.307,1.307,0,0,1-1.306-1.309l.008-5.173a.4.4,0,0,0-.4-.4H258.23a1.335,1.335,0,0,1-1.308-1.308l-.916-8.908Zm0,0" transform="translate(-256 -373.443)" fill="#fff"/>
      </g>
    </g>
    <g id="Group_4189" data-name="Group 4189" transform="translate(256 341.89)">
      <g id="Group_4183-3" data-name="Group 4183" transform="translate(0)" clip-path="url(#clip-path)">
        <path id="Path_3064-3" data-name="Path 3064" d="M259.851,346.717a2.414,2.414,0,1,1,2.373-2.486,2.429,2.429,0,0,1-2.373,2.486Zm0,0" transform="translate(-257.133 -341.89)" fill="#fff"/>
        <path id="Path_3065-3" data-name="Path 3065" d="M256.005,380.278a1.143,1.143,0,0,1,1.135-1.259h3.071a.969.969,0,0,1,.964.876l.773,7.987h4.564a1.748,1.748,0,0,1,1.747,1.749l-.01,6.443a1.305,1.305,0,0,1-1.308,1.3h0a1.307,1.307,0,0,1-1.306-1.309l.008-5.173a.4.4,0,0,0-.4-.4H258.23a1.335,1.335,0,0,1-1.308-1.308l-.916-8.908Zm0,0" transform="translate(-256 -373.443)" fill="#fff"/>
      </g>
    </g>
  </g>
</svg>
