<svg xmlns="http://www.w3.org/2000/svg" width="10" height="23.663" viewBox="0 0 10 23.663">
  <g id="standing-up-man-" transform="translate(-15.459)">
    <g id="Group_4626" data-name="Group 4626" transform="translate(15.459 0)">
      <circle id="Ellipse_643" data-name="Ellipse 643" cx="1.992" cy="1.992" r="1.992" transform="translate(2.97)" fill="#fff"/>
      <path id="Path_4130" data-name="Path 4130" d="M21.115,11.072a3.626,3.626,0,0,0-1.523.019c-3.311.388-4.387,4.221-4.083,7.144.132,1.264,2.124,1.277,1.99,0A7.586,7.586,0,0,1,18,14.42v4.165c0,.049,0,.1.007.142,0,.023-.007.042-.007.065C18,22.1,18,25.4,17.86,28.7c-.061,1.468,2.216,1.462,2.276,0,.107-2.588.134-5.178.14-7.768a2.634,2.634,0,0,0,.324,0c.007,2.59.033,5.18.139,7.768.061,1.462,2.337,1.468,2.276,0-.137-3.3-.141-6.607-.141-9.912a1.247,1.247,0,0,0-.034-.285c0-1.435-.058-2.871-.041-4.305a7.22,7.22,0,0,1,.622,4.033c-.133,1.276,1.859,1.263,1.99,0C25.72,15.25,24.593,11.318,21.115,11.072Z" transform="translate(-15.459 -6.139)" fill="#fff"/>
    </g>
  </g>
</svg>
