<?xml version="1.0" encoding="UTF-8"?>
<svg xmlns="http://www.w3.org/2000/svg" xmlns:xlink="http://www.w3.org/1999/xlink" width="133pt" height="92pt" viewBox="0 0 133 92" version="1.1">
<g id="surface1">
<path style=" stroke:none;fill-rule:nonzero;fill:rgb(100%,100%,100%);fill-opacity:1;" d="M 127.269531 30.578125 C 127.269531 21.835938 121.652344 20.511719 118.292969 20.511719 L 49.464844 20.511719 C 46.097656 20.511719 40.488281 21.804688 40.488281 30.578125 L 40.488281 43.996094 L 127.269531 43.996094 Z M 127.269531 30.578125 "/>
<path style=" stroke:none;fill-rule:nonzero;fill:rgb(100%,100%,100%);fill-opacity:1;" d="M 23.535156 19.96875 C 30.226562 20.199219 35.472656 25.882812 35.25 32.664062 C 35.027344 39.449219 29.421875 44.765625 22.730469 44.539062 C 16.039062 44.316406 10.796875 38.632812 11.019531 31.847656 C 11.238281 25.0625 16.84375 19.746094 23.535156 19.96875 Z M 23.535156 19.96875 "/>
<path style=" stroke:none;fill-rule:nonzero;fill:rgb(100%,100%,100%);fill-opacity:1;" d="M 0 0 L 8.8125 0 L 8.8125 91.019531 L 0 91.019531 Z M 0 0 "/>
<path style="fill:none;stroke-width:0.1;stroke-linecap:butt;stroke-linejoin:miter;stroke:rgb(100%,100%,100%);stroke-opacity:1;stroke-miterlimit:4;" d="M 0.0513393 0.0506341 L 4.984377 0.0506341 L 4.984377 51.246073 L 0.0513393 51.246073 Z M 0.0513393 0.0506341 " transform="matrix(1.749999,0,0,1.774374,0,0)"/>
<path style=" stroke:none;fill-rule:nonzero;fill:rgb(100%,100%,100%);fill-opacity:1;" d="M 8.261719 46.34375 L 133.269531 46.34375 L 133.269531 68.121094 L 8.261719 68.121094 Z M 8.261719 46.34375 "/>
<path style="fill:none;stroke-width:0.1;stroke-linecap:butt;stroke-linejoin:miter;stroke:rgb(100%,100%,100%);stroke-opacity:1;stroke-miterlimit:4;" d="M 0.0500895 0.0478005 L 71.384937 0.0478005 L 71.384937 12.22199 L 0.0500895 12.22199 Z M 0.0500895 0.0478005 " transform="matrix(1.749999,0,0,1.774374,8.26,46.344872)"/>
<path style=" stroke:none;fill-rule:nonzero;fill:rgb(100%,100%,100%);fill-opacity:1;" d="M 124.464844 46.34375 L 133.273438 46.34375 L 133.273438 91.574219 L 124.464844 91.574219 Z M 124.464844 46.34375 "/>
<path style="fill:none;stroke-width:0.1;stroke-linecap:butt;stroke-linejoin:miter;stroke:rgb(100%,100%,100%);stroke-opacity:1;stroke-miterlimit:4;" d="M 0.048643 0.0478005 L 4.986145 0.0478005 L 4.986145 25.439681 L 0.048643 25.439681 Z M 0.048643 0.0478005 " transform="matrix(1.749999,0,0,1.774374,124.46175,46.344872)"/>
</g>
</svg>
