<?xml version="1.0" standalone="no"?>
<!DOCTYPE svg PUBLIC "-//W3C//DTD SVG 20010904//EN"
 "http://www.w3.org/TR/2001/REC-SVG-20010904/DTD/svg10.dtd">
<svg version="1.0" xmlns="http://www.w3.org/2000/svg"
 width="70" height="70" style="background-color:white" viewBox="0 0 512.000000 512.000000"
 preserveAspectRatio="xMidYMid meet">

<g transform="translate(0.000000,512.000000) scale(0.100000,-0.100000)"
fill="#000000" stroke="none">
<path d="M3333 4638 c-12 -6 -33 -27 -46 -47 -61 -92 -87 -135 -87 -145 0 -5
-23 -57 -52 -115 -41 -83 -53 -118 -56 -166 -4 -54 -8 -64 -43 -100 -29 -31
-41 -53 -49 -93 -12 -67 -8 -62 -83 -118 -84 -63 -104 -70 -238 -82 -64 -6
-135 -18 -159 -26 -38 -13 -47 -13 -72 0 -15 8 -35 26 -44 39 -16 24 -15 28
25 105 27 54 41 94 41 120 0 21 7 72 16 112 22 106 5 210 -37 223 -21 7 -67
-14 -90 -41 -9 -11 -29 -57 -44 -104 -34 -104 -63 -163 -127 -258 -27 -40 -55
-90 -63 -111 -7 -20 -24 -60 -38 -87 -46 -91 -125 -366 -137 -479 -4 -38 -17
-95 -29 -126 l-21 -56 -53 2 c-28 0 -133 18 -232 39 -150 32 -209 39 -351 45
-183 8 -244 5 -244 -11 0 -6 17 -8 42 -4 24 3 120 2 213 -3 157 -9 224 -19
490 -74 39 -8 86 -18 106 -21 l36 -6 26 72 c15 40 31 109 36 153 11 91 81 347
111 405 11 21 31 69 45 107 14 37 50 104 80 149 48 71 72 117 113 217 6 15 20
27 29 28 10 0 31 2 48 2 20 2 33 10 42 27 17 32 13 82 -7 87 -13 4 -13 3 -1
-5 11 -8 12 -20 5 -54 -9 -42 -10 -43 -49 -44 -22 0 -43 1 -47 3 -15 8 25 94
53 114 61 43 93 3 85 -106 -14 -178 -23 -231 -51 -285 -15 -30 -38 -86 -51
-123 l-23 -69 19 -38 c20 -40 76 -87 88 -75 4 4 -2 13 -13 20 -50 35 -74 77
-62 109 4 11 18 8 64 -15 53 -26 86 -36 121 -38 7 -1 10 -6 7 -11 -6 -10 -37
-8 -110 6 -24 5 -28 4 -18 -6 7 -7 45 -15 86 -18 63 -4 88 0 188 31 124 38
244 86 217 87 -10 0 -36 -7 -58 -16 -81 -33 -61 -11 151 161 41 33 82 60 92
60 14 0 28 23 54 85 20 47 55 130 78 184 37 87 41 103 30 120 -36 59 -20 173
31 227 46 48 57 38 88 -81 8 -30 19 -70 25 -89 11 -36 6 -54 -12 -48 -12 4
-36 -20 -37 -35 0 -14 28 -8 34 7 3 8 10 15 16 15 13 0 10 -34 -20 -247 l-19
-132 -72 -118 c-61 -99 -138 -234 -168 -293 -5 -8 -41 -37 -82 -65 -109 -73
-123 -84 -118 -90 3 -3 43 20 89 50 46 30 85 53 88 51 2 -3 -6 -24 -19 -48
-19 -33 -51 -61 -150 -128 -201 -136 -310 -229 -544 -466 l-221 -223 -144 -40
c-80 -22 -174 -45 -210 -51 -320 -56 -695 -140 -714 -161 -8 -9 -3 -10 19 -4
206 50 332 78 500 109 209 39 502 109 546 132 14 7 88 77 165 157 247 256 431
416 624 543 118 78 131 90 154 145 52 123 80 177 163 314 49 83 95 159 101
171 15 28 52 299 52 379 0 94 -61 297 -89 294 -3 0 -16 -5 -28 -11z m-78 -242
c6 -59 4 -84 -10 -120 -10 -25 -21 -46 -25 -46 -5 0 -11 37 -15 83 -6 66 -4
90 10 124 9 24 21 41 25 38 5 -3 11 -39 15 -79z m-62 -111 c7 -44 -46 -230
-74 -260 -18 -19 -19 -17 -13 80 6 110 14 144 44 193 24 39 35 36 43 -13z
m-113 -236 c0 -30 -25 -91 -41 -100 -24 -12 -30 1 -19 41 14 48 60 93 60 59z
m-290 -298 c0 -11 -93 -51 -135 -58 -40 -7 -141 25 -127 39 21 21 262 38 262
19z"/>
<path d="M3351 4592 c-2 -24 21 -102 32 -109 7 -4 8 0 3 13 -5 10 -14 39 -21
64 -7 25 -14 39 -14 32z"/>
<path d="M2340 4105 c-10 -12 -10 -15 3 -15 8 0 23 -3 32 -7 15 -5 16 -3 6 15
-14 26 -24 27 -41 7z"/>
<path d="M3330 4013 c-8 -2 -22 -7 -30 -9 -12 -4 -11 -7 4 -16 15 -8 21 -8 24
0 2 7 13 12 23 12 11 0 17 5 14 10 -7 11 -12 11 -35 3z"/>
<path d="M2206 3834 c-4 -10 -1 -21 6 -26 23 -14 29 -9 17 15 -16 30 -16 30
-23 11z"/>
<path d="M3118 3661 c-14 -5 -14 -9 -3 -24 12 -16 13 -16 18 5 7 26 7 27 -15
19z"/>
<path d="M3900 3256 c0 -19 37 -197 45 -218 9 -22 15 -22 41 -3 19 13 23 12
41 -8 61 -66 93 -182 93 -332 0 -161 -31 -263 -122 -403 l-41 -62 27 -40 c14
-22 30 -40 35 -40 30 0 126 161 166 281 29 85 49 252 40 334 -14 130 -56 255
-109 325 l-27 35 22 18 c29 23 23 28 -92 83 -101 47 -119 52 -119 30z"/>
<path d="M1988 3175 c-9 -34 -39 -94 -65 -135 -66 -100 -65 -100 -56 -100 15
0 93 125 119 189 14 34 24 72 22 84 -2 14 -9 0 -20 -38z"/>
<path d="M3844 2129 c-27 -17 -51 -33 -53 -35 -8 -7 31 -94 41 -94 14 0 103
56 118 75 9 10 6 22 -12 49 -13 20 -28 36 -34 36 -5 0 -32 -14 -60 -31z"/>
<path d="M2956 1824 c-75 -26 -127 -37 -210 -44 -61 -6 -154 -19 -206 -31
-163 -36 -460 -152 -550 -214 -40 -27 -201 -69 -239 -62 -15 2 -107 21 -206
42 -143 29 -216 39 -355 45 -96 5 -190 7 -207 3 -49 -8 -40 -25 10 -18 92 13
376 -12 558 -49 98 -20 202 -36 233 -36 69 0 189 37 247 77 57 39 296 138 381
158 36 8 94 23 129 34 35 11 107 22 159 26 52 3 135 16 184 28 l89 21 34 -39
33 -39 45 22 c31 15 45 28 45 41 0 11 -4 22 -8 25 -5 3 -8 -5 -8 -16 1 -14
-11 -28 -33 -41 l-34 -20 -28 34 c-16 19 -29 37 -29 41 0 10 60 28 94 28 38 0
76 -25 76 -49 0 -29 -70 -91 -141 -126 -37 -18 -82 -44 -100 -57 -20 -15 -60
-30 -99 -37 -36 -7 -93 -21 -128 -32 -54 -18 -65 -26 -82 -60 -21 -40 -27
-114 -10 -124 6 -4 10 13 10 43 0 35 6 57 21 76 31 39 46 33 53 -24 4 -27 16
-71 27 -96 11 -26 18 -49 16 -51 -6 -5 -54 68 -67 101 -15 41 -24 25 -10 -18
22 -69 159 -191 318 -285 73 -43 89 -39 22 6 -30 20 -49 38 -42 41 7 2 91 -15
187 -38 140 -34 172 -45 168 -57 -5 -11 -1 -14 13 -10 10 3 101 27 201 53 181
47 183 48 201 82 27 53 92 95 154 99 36 3 59 0 72 -10 19 -14 17 -18 -51 -108
-80 -108 -96 -121 -253 -211 -176 -101 -163 -97 -370 -119 -105 -11 -212 -26
-238 -33 -44 -11 -53 -10 -155 26 -105 37 -151 47 -131 29 5 -5 45 -20 89 -35
108 -35 118 -43 72 -51 -53 -10 -100 -2 -201 34 -145 52 -383 108 -573 135
-220 31 -268 35 -283 26 -6 -4 56 -15 137 -24 278 -33 547 -91 743 -160 114
-41 159 -43 251 -11 24 9 143 28 264 42 245 29 252 31 445 148 133 81 146 92
208 180 84 118 87 124 67 144 -25 25 -166 19 -311 -13 -178 -40 -187 -43 -235
-75 -40 -27 -49 -30 -101 -24 -49 5 -64 2 -108 -21 l-51 -27 -77 21 c-113 31
-138 46 -204 124 -34 39 -87 91 -120 115 -55 41 -58 46 -58 87 0 24 6 49 15
57 8 8 52 22 98 30 68 13 96 24 142 56 32 23 64 41 70 41 23 0 106 63 131 99
32 48 30 67 -8 91 -45 27 -76 24 -192 -16z m-172 -484 c57 -53 141 -160 124
-160 -18 0 -110 54 -130 76 -22 25 -60 124 -48 124 6 0 30 -18 54 -40z m926
-129 c-48 -46 -73 -61 -118 -74 -31 -9 -58 -14 -60 -12 -2 1 12 12 30 23 18
11 43 34 55 50 24 33 96 72 131 72 20 0 14 -8 -38 -59z m-120 -11 c-23 -33
-52 -50 -115 -70 -22 -7 -59 -22 -82 -32 -27 -13 -52 -18 -68 -14 -33 8 -25
21 23 36 20 7 54 28 74 48 36 34 103 60 161 61 l28 1 -21 -30z m-250 -58 c0
-12 -70 -32 -111 -32 l-34 0 25 20 c25 20 120 29 120 12z"/>
<path d="M2900 1752 c0 -4 9 -18 20 -32 20 -26 20 -26 24 22 1 6 -9 13 -21 14
-13 2 -23 1 -23 -4z"/>
<path d="M2617 1700 c-10 -10 -15 -24 -11 -34 6 -15 8 -15 21 4 21 29 13 52
-10 30z"/>
<path d="M1930 1454 c-47 -17 -86 -24 -142 -24 -45 0 -78 -4 -78 -10 0 -29
285 18 305 51 9 14 -14 9 -85 -17z"/>
<path d="M3886 1212 c-20 -27 -36 -55 -36 -62 0 -8 18 13 41 45 49 70 45 85
-5 17z"/>
<path d="M3780 1083 c0 -6 -9 -9 -20 -6 -24 6 -26 -10 -3 -28 9 -8 14 -9 10
-2 -5 7 0 13 13 15 15 2 17 7 10 18 -5 8 -10 10 -10 3z"/>
<path d="M1750 991 c0 -5 -3 -16 -6 -25 -3 -9 -2 -16 4 -16 13 0 23 38 11 46
-5 3 -9 1 -9 -5z"/>
<path d="M1780 959 c0 -5 5 -7 10 -4 6 3 10 8 10 11 0 2 -4 4 -10 4 -5 0 -10
-5 -10 -11z"/>
<path d="M1640 953 c-116 -20 -455 -89 -535 -109 -163 -41 -175 -44 -175 -53
0 -5 42 2 93 15 108 28 559 120 635 130 28 4 52 10 52 15 0 9 -25 10 -70 2z"/>
<path d="M3410 923 c0 -11 8 -23 18 -27 9 -3 23 -9 30 -12 7 -3 12 1 12 12 0
9 -3 14 -7 11 -3 -4 -17 3 -30 15 -23 21 -23 21 -23 1z"/>
<path d="M3022 863 c-15 -28 -15 -40 -1 -26 6 6 17 9 24 7 7 -3 16 -1 20 5 3
6 0 11 -9 11 -8 0 -16 6 -18 12 -3 8 -9 5 -16 -9z"/>
</g>
</svg>
