<?xml version="1.0" standalone="no"?>
<!DOCTYPE svg PUBLIC "-//W3C//DTD SVG 20010904//EN"
 "http://www.w3.org/TR/2001/REC-SVG-20010904/DTD/svg10.dtd">
<svg version="1.0" xmlns="http://www.w3.org/2000/svg"
 width="70" height="70" style="background-color:white" viewBox="0 0 512.000000 512.000000"
 preserveAspectRatio="xMidYMid meet">

<g transform="translate(0.000000,512.000000) scale(0.100000,-0.100000)"
fill="#000000" stroke="none">
<path d="M1701 4627 c-24 -29 -71 -216 -71 -282 0 -80 37 -351 52 -379 6 -12
52 -88 101 -171 50 -82 112 -199 138 -259 27 -59 56 -114 66 -122 10 -8 61
-42 113 -77 196 -131 378 -290 624 -544 77 -80 151 -150 165 -157 44 -23 337
-93 546 -132 168 -31 294 -59 500 -109 22 -6 27 -5 19 4 -19 21 -394 105 -714
161 -36 6 -130 29 -210 51 l-144 40 -221 223 c-234 237 -343 330 -544 466 -99
67 -131 95 -150 128 -13 24 -21 45 -19 48 3 2 42 -21 88 -51 46 -30 86 -53 89
-50 5 6 -9 17 -118 90 -41 28 -77 57 -82 65 -30 59 -107 194 -168 293 l-72
118 -19 132 c-30 213 -33 247 -20 247 6 0 13 -7 16 -15 6 -15 34 -21 34 -7 -1
15 -25 39 -37 35 -20 -7 -24 14 -9 59 7 24 22 74 32 111 9 38 24 71 31 74 23
9 72 -48 88 -101 16 -52 12 -117 -10 -152 -11 -17 -7 -33 30 -120 23 -54 58
-137 78 -184 26 -62 40 -85 54 -85 17 0 75 -43 230 -174 35 -29 62 -56 59 -58
-3 -3 -23 2 -46 11 -44 18 -70 21 -54 8 14 -13 106 -47 223 -83 89 -27 115
-31 178 -27 41 3 79 11 86 18 10 10 6 11 -18 6 -73 -14 -104 -16 -110 -6 -3 5
0 10 7 11 35 2 68 12 121 38 46 23 60 26 64 15 12 -32 -12 -74 -62 -109 -11
-7 -17 -16 -13 -20 12 -12 68 35 88 75 l19 38 -23 69 c-13 37 -36 93 -51 123
-28 54 -37 107 -51 285 -8 109 24 149 85 106 28 -20 68 -106 53 -115 -4 -2
-25 -3 -47 -2 -39 1 -40 2 -49 44 -7 34 -6 46 5 54 12 8 12 9 -1 5 -20 -5 -24
-55 -7 -87 9 -17 22 -25 42 -27 17 0 38 -2 48 -2 9 -1 23 -13 29 -28 41 -100
65 -146 113 -217 30 -45 66 -112 80 -149 14 -38 34 -86 45 -107 30 -58 100
-314 111 -405 5 -44 21 -113 36 -153 l26 -72 36 6 c20 3 68 13 106 21 266 55
333 65 490 74 94 5 189 6 213 3 25 -4 42 -2 42 4 0 16 -61 19 -244 11 -142 -6
-201 -13 -351 -45 -99 -21 -204 -39 -232 -39 l-53 -2 -21 56 c-12 31 -25 88
-29 126 -12 113 -91 388 -137 479 -14 27 -31 67 -38 87 -8 21 -36 71 -63 111
-64 95 -93 154 -127 258 -15 47 -35 93 -44 104 -23 27 -69 48 -90 41 -42 -13
-59 -117 -37 -223 9 -40 16 -91 16 -112 0 -26 14 -66 41 -120 40 -77 41 -81
25 -105 -9 -13 -29 -31 -44 -39 -25 -13 -34 -13 -71 0 -23 8 -100 20 -170 27
-116 12 -134 17 -178 45 -97 64 -122 92 -133 152 -8 42 -19 64 -49 95 -35 36
-39 46 -43 100 -3 48 -15 83 -56 166 -29 58 -52 109 -52 114 0 8 -39 73 -87
146 -13 20 -35 41 -49 48 -31 14 -29 14 -43 -2z m174 -324 c-4 -45 -10 -83
-15 -83 -4 0 -15 21 -25 46 -14 36 -16 61 -10 117 4 40 9 76 13 82 3 5 15 -10
25 -34 16 -37 18 -57 12 -128z m69 -41 c18 -37 24 -70 29 -156 6 -106 6 -109
-12 -90 -25 25 -83 222 -75 254 11 45 14 51 24 45 6 -4 21 -27 34 -53z m90
-231 c19 -21 38 -80 30 -92 -11 -18 -41 11 -52 49 -20 65 -12 80 22 43z m502
-302 l29 -11 -35 -16 c-51 -23 -126 -20 -187 7 -29 13 -53 28 -53 34 0 13 206
2 246 -14z"/>
<path d="M1713 4547 c-6 -23 -14 -51 -18 -61 -6 -13 -5 -17 2 -13 12 7 38 105
31 113 -3 2 -9 -15 -15 -39z"/>
<path d="M2699 4088 c-10 -18 -9 -20 6 -15 9 4 24 7 32 7 13 0 13 3 3 15 -17
20 -27 19 -41 -7z"/>
<path d="M1715 4000 c-3 -5 3 -10 14 -10 10 0 21 -5 23 -12 3 -8 9 -8 22 -1
20 11 15 17 -26 27 -15 3 -30 2 -33 -4z"/>
<path d="M2852 3815 c-12 -26 -7 -31 17 -16 9 6 10 14 4 25 -8 15 -11 14 -21
-9z"/>
<path d="M1943 3636 c10 -21 13 -22 23 -7 10 13 9 17 -4 23 -28 11 -31 9 -19
-16z"/>
<path d="M3071 3200 c-1 -53 114 -270 143 -270 8 0 4 8 -63 109 -19 29 -45 83
-58 120 -13 39 -22 56 -22 41z"/>
<path d="M1140 3186 c-19 -7 -68 -30 -109 -50 l-73 -37 20 -22 20 -22 -39 -65
c-148 -243 -111 -656 79 -880 26 -31 31 -33 46 -21 10 8 24 28 32 44 15 28 14
31 -25 90 -85 130 -121 249 -121 398 0 142 31 257 91 333 19 25 21 25 45 9 15
-10 29 -12 34 -7 10 10 50 191 50 225 0 22 -3 22 -50 5z"/>
<path d="M1156 2053 c-14 -20 -23 -40 -19 -46 7 -11 109 -77 121 -77 10 0 42
64 42 84 0 13 -92 76 -110 76 -5 0 -20 -17 -34 -37z"/>
<path d="M2033 1890 c-22 -13 -33 -27 -33 -43 0 -38 63 -101 142 -142 40 -21
91 -51 112 -67 21 -15 46 -28 54 -28 42 0 145 -24 157 -37 16 -15 20 -80 7
-99 -4 -7 -31 -30 -60 -52 -29 -21 -79 -71 -112 -109 -64 -77 -89 -92 -202
-123 l-77 -21 -52 27 c-46 23 -60 25 -109 20 -53 -6 -60 -4 -108 27 -34 24
-72 38 -119 47 -37 6 -102 20 -143 30 -164 40 -286 34 -284 -16 0 -10 32 -62
72 -115 72 -98 112 -130 272 -221 158 -89 141 -84 350 -107 107 -12 239 -33
292 -47 53 -13 111 -24 128 -24 18 0 84 18 148 41 201 69 472 126 767 159 55
7 102 14 104 16 20 20 -357 -25 -521 -62 -120 -27 -284 -72 -361 -101 -77 -28
-152 -39 -194 -28 -35 8 -22 17 79 51 43 14 80 30 84 35 8 13 -32 3 -142 -36
-87 -32 -92 -32 -145 -19 -30 7 -138 22 -241 33 l-186 20 -104 57 c-133 73
-226 134 -259 170 -46 51 -129 167 -129 179 0 29 92 34 143 9 40 -20 96 -73
107 -100 7 -17 40 -29 192 -68 100 -26 192 -50 202 -53 14 -4 18 -1 13 10 -4
12 3 17 26 22 18 4 96 23 175 42 79 19 148 33 154 31 6 -2 -12 -19 -41 -37
-61 -39 -61 -52 -1 -21 110 56 287 198 316 252 24 46 34 78 25 78 -5 0 -14
-15 -21 -32 -11 -34 -60 -101 -60 -83 0 6 8 27 19 48 10 20 22 62 26 93 5 44
10 54 22 50 8 -3 16 -6 19 -6 12 0 34 -65 34 -102 0 -31 3 -39 10 -28 16 24
12 67 -10 114 -20 42 -23 44 -108 69 -48 14 -106 29 -129 32 -22 4 -56 18 -75
32 -18 13 -62 40 -99 58 -73 38 -139 99 -139 131 0 24 36 44 79 44 32 0 91
-19 91 -28 0 -4 -13 -22 -28 -41 l-28 -33 -33 16 c-17 10 -36 27 -41 39 l-9
22 0 -22 c-1 -21 51 -63 79 -63 7 0 27 17 45 37 l32 37 89 -21 c49 -12 130
-25 179 -28 50 -3 119 -15 155 -25 36 -10 94 -25 130 -34 87 -20 312 -113 397
-164 37 -22 88 -46 113 -52 46 -12 70 -26 70 -41 0 -11 -52 -1 -115 22 -57 21
-69 23 -60 9 19 -31 293 -77 309 -51 5 8 -13 11 -60 11 -82 0 -77 9 13 25 38
7 138 27 223 45 162 33 450 57 538 44 28 -4 42 -3 42 5 0 13 -21 14 -215 11
-150 -2 -267 -18 -506 -71 -90 -20 -100 -21 -170 -6 -78 16 -113 29 -194 77
-60 36 -330 144 -400 161 -27 6 -72 18 -100 26 -27 8 -111 20 -185 28 -104 10
-160 21 -242 49 -123 42 -141 43 -185 16z m402 -517 c-10 -27 -26 -58 -37 -69
-23 -26 -114 -77 -129 -72 -12 4 82 119 135 166 21 18 41 31 43 28 3 -3 -2
-27 -12 -53z m-939 -77 c33 -18 139 -116 125 -116 -53 0 -102 25 -157 82 l-59
60 35 -7 c19 -4 44 -12 56 -19z m209 -45 c22 -10 49 -28 59 -40 11 -12 40 -31
65 -42 44 -20 45 -22 23 -32 -16 -7 -30 -7 -50 2 -15 7 -58 24 -97 38 -64 23
-135 73 -135 96 0 13 87 -1 135 -22z m247 -67 c24 -12 28 -18 17 -25 -8 -5
-21 -9 -29 -9 -25 0 -100 32 -94 41 9 15 73 10 106 -7z"/>
<path d="M2233 1793 c-3 -6 0 -20 5 -29 9 -15 12 -14 26 14 15 30 15 31 -5 29
-12 -1 -23 -7 -26 -14z"/>
<path d="M2541 1752 c-1 -7 4 -23 10 -34 9 -17 13 -18 20 -7 13 20 11 29 -5
29 -8 0 -17 6 -19 13 -4 9 -6 9 -6 -1z"/>
<path d="M1269 1275 c32 -47 64 -84 52 -60 -5 11 -24 36 -41 55 -27 30 -29 31
-11 5z"/>
<path d="M1384 1121 c-10 -10 -3 -16 20 -17 14 -1 27 4 30 12 4 10 -2 13 -20
12 -14 -2 -27 -4 -30 -7z"/>
<path d="M3410 1026 c0 -8 5 -18 10 -21 6 -3 10 3 10 14 0 12 -4 21 -10 21 -5
0 -10 -6 -10 -14z"/>
<path d="M3380 1010 c0 -5 5 -10 10 -10 6 0 10 5 10 10 0 6 -4 10 -10 10 -5 0
-10 -4 -10 -10z"/>
<path d="M3470 1001 c0 -5 21 -13 48 -16 94 -13 460 -87 596 -121 155 -38 154
-38 140 -24 -15 15 -270 76 -499 120 -270 51 -285 54 -285 41z"/>
<path d="M1736 964 c-27 -24 -30 -48 -3 -26 8 7 17 9 20 5 8 -7 20 22 15 36
-1 5 -16 -2 -32 -15z"/>
<path d="M2131 908 c-11 -18 -11 -20 2 -15 8 3 19 1 25 -5 8 -8 9 -5 5 11 -8
30 -17 33 -32 9z"/>
</g>
</svg>
