<?xml version="1.0" standalone="no"?>
<!DOCTYPE svg PUBLIC "-//W3C//DTD SVG 20010904//EN"
 "http://www.w3.org/TR/2001/REC-SVG-20010904/DTD/svg10.dtd">
<svg version="1.0" xmlns="http://www.w3.org/2000/svg"
 width="70" height="70" style="background-color:white" viewBox="0 0 512.000000 512.000000"
 preserveAspectRatio="xMidYMid meet">

<g transform="translate(0.000000,512.000000) scale(0.100000,-0.100000)"
fill="#000000" stroke="none">
<path d="M2093 4360 c-22 -13 -33 -27 -33 -43 0 -38 63 -101 142 -142 40 -21
91 -51 112 -67 21 -15 46 -28 54 -28 42 0 145 -24 157 -37 16 -15 20 -80 7
-99 -4 -7 -31 -30 -60 -52 -29 -21 -79 -71 -112 -109 -64 -77 -89 -92 -202
-123 l-77 -21 -52 27 c-46 23 -60 25 -109 20 -53 -6 -60 -4 -108 27 -34 24
-72 38 -119 47 -37 6 -102 20 -143 30 -164 40 -286 34 -284 -16 0 -10 32 -62
72 -115 72 -98 112 -130 272 -221 158 -89 141 -84 350 -107 107 -12 239 -33
292 -47 53 -13 111 -24 128 -24 18 0 84 18 148 41 202 69 483 128 762 159 58
6 107 13 109 16 20 19 -356 -25 -521 -62 -129 -29 -321 -83 -387 -109 -65 -25
-153 -33 -180 -16 -13 8 25 26 131 60 46 15 62 35 21 25 -15 -4 -69 -21 -119
-39 -87 -32 -92 -32 -145 -19 -30 7 -138 22 -241 33 l-186 20 -104 57 c-133
73 -226 134 -259 170 -46 51 -129 167 -129 179 0 29 92 34 143 9 40 -20 96
-73 107 -100 7 -17 40 -29 192 -68 100 -26 192 -50 202 -53 14 -4 18 -1 13 10
-4 12 3 17 26 22 18 4 96 23 175 42 79 19 148 33 154 31 6 -2 -12 -19 -41 -37
-61 -39 -61 -52 -1 -21 110 56 287 198 316 252 24 46 34 78 25 78 -5 0 -14
-15 -21 -32 -11 -34 -60 -101 -60 -83 0 6 8 27 19 48 10 20 22 62 26 93 5 44
10 54 22 50 8 -3 16 -6 19 -6 12 0 34 -65 34 -102 0 -31 3 -39 10 -28 16 24
12 67 -10 114 -20 42 -23 44 -108 69 -48 14 -106 29 -129 32 -22 4 -56 18 -75
32 -18 13 -62 40 -99 58 -73 38 -139 99 -139 131 0 24 36 44 79 44 32 0 91
-19 91 -28 0 -4 -13 -22 -28 -41 l-28 -33 -33 16 c-17 10 -36 27 -41 39 l-9
22 0 -22 c-1 -21 51 -63 79 -63 7 0 27 17 45 37 l32 37 89 -21 c49 -12 130
-25 179 -28 50 -3 119 -15 155 -25 36 -10 94 -25 130 -34 87 -20 312 -113 397
-164 37 -22 88 -46 113 -52 46 -12 70 -26 70 -41 0 -11 -52 -1 -115 22 -57 21
-69 23 -60 9 19 -31 293 -77 309 -51 5 8 -13 11 -60 11 -82 0 -77 9 13 25 38
7 138 27 223 45 162 33 450 57 538 44 28 -4 42 -3 42 5 0 13 -21 14 -215 11
-150 -2 -267 -18 -506 -71 -90 -20 -100 -21 -170 -6 -78 16 -113 29 -194 77
-60 36 -330 144 -400 161 -27 6 -72 18 -100 26 -27 8 -111 20 -185 28 -104 10
-160 21 -242 49 -123 42 -141 43 -185 16z m402 -517 c-10 -27 -26 -58 -37 -69
-23 -26 -114 -77 -129 -72 -12 4 82 119 135 166 21 18 41 31 43 28 3 -3 -2
-27 -12 -53z m-939 -77 c33 -18 139 -116 125 -116 -53 0 -102 25 -157 82 l-59
60 35 -7 c19 -4 44 -12 56 -19z m209 -45 c22 -10 49 -28 59 -40 11 -12 40 -31
65 -42 44 -20 45 -22 23 -32 -16 -7 -30 -7 -50 2 -15 7 -58 24 -97 38 -64 23
-135 73 -135 96 0 13 87 -1 135 -22z m247 -67 c24 -12 28 -18 17 -25 -8 -5
-21 -9 -29 -9 -25 0 -100 32 -94 41 9 15 73 10 106 -7z"/>
<path d="M2293 4263 c-3 -6 0 -20 5 -29 9 -15 12 -14 26 14 15 30 15 31 -5 29
-12 -1 -23 -7 -26 -14z"/>
<path d="M2601 4222 c-1 -7 4 -23 10 -34 9 -17 13 -18 20 -7 13 20 11 29 -5
29 -8 0 -17 6 -19 13 -4 9 -6 9 -6 -1z"/>
<path d="M1329 3745 c32 -47 64 -84 52 -60 -5 11 -24 36 -41 55 -27 30 -29 31
-11 5z"/>
<path d="M1444 3591 c-10 -10 -2 -16 21 -16 14 0 27 6 30 12 3 8 -4 12 -21 11
-14 -2 -27 -4 -30 -7z"/>
<path d="M3470 3496 c0 -8 5 -18 10 -21 6 -3 10 3 10 14 0 12 -4 21 -10 21 -5
0 -10 -6 -10 -14z"/>
<path d="M3440 3480 c0 -5 5 -10 10 -10 6 0 10 5 10 10 0 6 -4 10 -10 10 -5 0
-10 -4 -10 -10z"/>
<path d="M3530 3471 c0 -5 21 -13 48 -16 94 -13 460 -87 596 -121 155 -38 154
-38 140 -24 -15 15 -270 76 -499 120 -270 51 -285 54 -285 41z"/>
<path d="M1796 3434 c-27 -24 -30 -48 -3 -26 8 7 17 9 20 5 8 -7 20 22 15 36
-1 5 -16 -2 -32 -15z"/>
<path d="M2191 3378 c-11 -18 -11 -20 2 -15 8 3 19 1 25 -5 8 -8 9 -5 5 11 -8
30 -17 33 -32 9z"/>
<path d="M1134 3065 c-29 -18 -55 -39 -59 -45 -4 -6 5 -29 20 -50 l27 -38 59
35 c50 30 58 39 53 57 -10 34 -34 76 -42 75 -4 0 -30 -15 -58 -34z"/>
<path d="M971 2913 c-48 -57 -119 -203 -143 -290 -16 -60 -21 -109 -22 -213
-1 -161 23 -261 85 -364 21 -36 39 -69 39 -74 0 -5 -10 -16 -22 -25 -22 -15
-21 -16 73 -61 103 -48 149 -63 149 -50 0 22 -43 223 -50 234 -7 11 -14 10
-36 -5 -27 -17 -27 -17 -45 6 -28 38 -67 122 -78 170 -16 66 -13 264 4 337 16
68 57 156 112 238 l35 53 -20 29 c-40 55 -47 57 -81 15z"/>
<path d="M3925 2220 c-181 -27 -382 -53 -445 -59 -87 -7 -146 -19 -243 -50
-70 -23 -142 -41 -158 -41 -17 0 -67 10 -112 22 -115 30 -224 29 -352 -5 -55
-14 -134 -31 -175 -38 -61 -9 -92 -21 -165 -64 -105 -62 -197 -102 -253 -111
-82 -13 -169 -85 -146 -122 6 -9 37 -30 69 -47 56 -29 65 -30 179 -30 111 0
126 3 186 29 87 39 206 48 233 19 16 -19 16 -23 -2 -96 -14 -58 -30 -91 -65
-138 -26 -34 -63 -91 -83 -128 -61 -110 -90 -147 -141 -180 -45 -29 -56 -31
-123 -30 -60 1 -85 -3 -129 -23 -33 -15 -87 -28 -130 -32 -41 -4 -90 -14 -110
-23 -19 -8 -65 -19 -102 -24 -114 -14 -219 -83 -217 -142 0 -18 -2 -44 -6 -59
-9 -34 3 -40 141 -63 80 -13 152 -16 374 -13 l275 4 100 43 c55 24 163 66 239
92 l140 49 115 113 c99 95 242 213 534 437 58 45 80 77 30 45 -96 -64 -497
-388 -589 -477 l-110 -108 -145 -49 c-79 -27 -182 -66 -229 -87 -50 -22 -106
-39 -135 -41 l-50 -3 30 15 c77 38 257 110 317 125 62 17 75 25 172 116 58 54
104 100 101 102 -3 3 -15 -3 -28 -14 -12 -11 -63 -57 -114 -101 -79 -71 -98
-83 -140 -89 -26 -4 -120 -38 -208 -77 -156 -69 -162 -70 -270 -78 -149 -10
-373 0 -390 18 -17 16 -60 33 -83 32 -9 0 1 -7 23 -15 l40 -14 -54 6 c-30 3
-58 7 -63 10 -16 10 -8 33 20 54 48 38 90 50 182 50 97 0 231 20 331 50 39 12
120 52 199 101 139 84 204 119 217 119 4 0 -1 -7 -11 -15 -11 -8 -17 -18 -13
-21 6 -6 120 77 132 96 9 14 3 13 -50 -10 -78 -34 -80 -27 -17 68 61 90 83
151 104 292 6 36 12 67 15 70 10 11 23 -29 24 -75 2 -84 17 -111 18 -32 1 75
-14 120 -55 158 -21 19 -35 23 -102 23 -66 0 -85 -4 -132 -29 -50 -26 -67 -29
-173 -33 -129 -5 -175 6 -232 52 l-30 25 21 22 22 21 11 -21 c7 -11 17 -21 23
-21 6 0 4 10 -5 24 -21 32 -13 38 88 66 49 13 128 48 205 90 108 59 138 71
215 84 50 9 130 27 180 41 49 14 116 25 148 25 63 0 206 -33 327 -76 59 -20
85 -24 125 -19 28 3 57 10 65 16 11 7 1 9 -33 4 -52 -7 -164 12 -151 25 18 17
232 79 294 85 106 10 366 44 495 65 66 10 179 26 250 35 72 10 134 21 140 26
16 15 -37 10 -380 -41z m-1439 -795 c-9 -20 -45 -80 -80 -134 -55 -83 -73
-101 -118 -125 -29 -15 -44 -20 -33 -11 52 41 87 81 112 123 65 116 128 212
131 198 2 -8 -4 -31 -12 -51z m-297 -305 c11 -6 7 -12 -15 -26 -22 -15 -45
-19 -97 -17 -90 2 -105 16 -46 43 34 16 55 19 94 14 28 -3 56 -10 64 -14z
m-209 -55 c41 -4 86 -9 99 -12 23 -6 23 -6 -10 -24 -46 -24 -131 -24 -221 1
-84 23 -90 27 -52 35 16 4 34 8 39 10 6 2 24 2 40 0 17 -2 64 -7 105 -10z
m-132 -56 c40 -12 71 -24 69 -26 -10 -10 -180 -33 -242 -33 -62 0 -106 -8
-192 -35 -48 -15 -22 25 44 70 l68 45 90 0 c63 0 112 -6 163 -21z"/>
<path d="M2680 2058 c0 -10 7 -27 17 -37 16 -19 17 -19 35 4 24 30 23 33 -8
27 -16 -3 -30 1 -35 9 -7 11 -9 10 -9 -3z"/>
<path d="M2340 1950 c0 -22 -5 -30 -17 -30 -14 0 -15 -2 -4 -12 10 -11 15 -9
25 5 12 16 14 14 20 -14 3 -18 8 -30 11 -27 8 8 -16 108 -26 108 -5 0 -9 -13
-9 -30z"/>
<path d="M2085 1830 c12 -41 27 -60 20 -25 -4 17 -11 35 -17 40 -7 7 -8 2 -3
-15z"/>
<path d="M1983 1753 c8 -7 108 -5 116 2 2 3 -24 5 -59 5 -35 0 -60 -3 -57 -7z"/>
<path d="M3460 1659 c0 -34 53 -79 94 -79 88 0 643 -61 699 -76 9 -3 17 -1 17
4 0 17 -87 30 -407 62 -169 17 -321 33 -336 36 -21 4 -33 16 -43 40 -16 39
-24 43 -24 13z"/>
<path d="M3437 1621 c3 -11 11 -26 19 -32 23 -19 18 15 -5 35 -19 17 -19 17
-14 -3z"/>
<path d="M2410 1016 c0 -20 17 -29 23 -14 3 9 11 5 26 -12 l22 -25 -16 33
c-16 33 -55 46 -55 18z"/>
<path d="M2037 859 c-3 -12 -10 -18 -16 -14 -7 3 -8 0 -5 -9 8 -21 34 -20 34
1 0 15 2 14 15 -3 13 -17 13 -16 3 14 -14 37 -23 41 -31 11z"/>
<path d="M1657 833 c-12 -11 -7 -19 12 -19 11 0 17 5 14 13 -6 14 -16 17 -26
6z"/>
</g>
</svg>
