<svg xmlns="http://www.w3.org/2000/svg" width="70" height="70" viewBox="0 0 70 70">
  <g id="Group_8517" data-name="Group 8517" transform="translate(1626 -3202)">
    <g id="Group_8509" data-name="Group 8509" transform="translate(348 25)">
      <rect id="Rectangle_2514" data-name="Rectangle 2514" width="70" height="70" transform="translate(-1974 3177)" fill="#fff"/>
    </g>
    <g id="Group_8516" data-name="Group 8516" transform="translate(-155 5)">
      <path id="path1" d="M71.234,32.99a10.546,10.546,0,0,0-5.466,2.082,5.739,5.739,0,0,0-2.374,4.469l-.038.824-.285.042c-.9.133-.913.138-.695.325a10.4,10.4,0,0,1,1.007,1.533c.658,1.188.913,1.371,1.168.839l.569-1.188c.226-.47.485-1.04.578-1.267s.185-.452.206-.5c.032-.073-.067-.083-.58-.056l-.618.032.028-.736a5,5,0,0,1,2.59-4.054,9.206,9.206,0,0,1,7.253-1.045c.888.264.8.277,1.127-.173.366-.5.378-.461-.2-.652a10.262,10.262,0,0,0-4.27-.477m5.721,1.743c-.455.412-.451.4-.184.579a5.583,5.583,0,0,1,.452.362c.136.122.278.2.317.18a5.065,5.065,0,0,0,.8-.659,3.28,3.28,0,0,0-.93-.817,2.328,2.328,0,0,0-.453.354m9.586,5.494c-.266.266-.432.859-.633,2.26-.138.959-.193,1.071-.345.7-.206-.5-1.071-.913-1.465-.7-.745.4-1.246,2.177-1.328,4.714-.029.907-.083,1.921-.119,2.252s-.1.887-.137,1.235a4.9,4.9,0,0,0,0,1.2c.291,2.494.007,3.629-.389,1.552a12.334,12.334,0,0,1-.075-3.072,15.637,15.637,0,0,0-.248-2.637c-.291-1.37-1.3-1.439-1.683-.116-.075.26-.164.538-.2.618a.947.947,0,0,0-.059.3,3.257,3.257,0,0,1-.088.52c-.048.2-.121.612-.161.908s-.1.71-.131.919a15.891,15.891,0,0,0-.024,3.2,19.742,19.742,0,0,1,.158,2.692,7.723,7.723,0,0,1-.191.887c-.376,1.478-.579,2.366-.673,2.953-.053.327-.124.737-.158.911a11.478,11.478,0,0,0,.1,4.888,1.813,1.813,0,0,1,.095.389,12.621,12.621,0,0,0,.932,2.308,1.5,1.5,0,0,1,.145.274,1.229,1.229,0,0,0,.165.254.907.907,0,0,1,.176.659c.01.4.03.462.2.638l.188.2,0,.962a8.337,8.337,0,0,1-.139,1.668c-.074.389-.167,1.073-.206,1.52s-.091.956-.114,1.13c-.064.471-.022,1.123.071,1.092.049-.016.092-.274.121-.735.025-.39.074-.871.111-1.068a4.6,4.6,0,0,0,.066-.69,3.9,3.9,0,0,1,.062-.638,9.184,9.184,0,0,0,.255-2.212,4.69,4.69,0,0,1,.064-.979c.052-.1.021-.177-.158-.413-.235-.309-.282-.472-.133-.472.174,0,.143-.161-.085-.443a10.809,10.809,0,0,1-1.749-7.919c.056-.3.143-.8.194-1.109s.134-.748.187-.966c.143-.59.289-1.219.35-1.5a6.134,6.134,0,0,1,.364-1.28.358.358,0,0,0,.048-.271,9.607,9.607,0,0,1-.061-1.1,9.579,9.579,0,0,0-.124-1.471,16.937,16.937,0,0,1,.063-3.722,7.146,7.146,0,0,0,.091-.739,3.235,3.235,0,0,1,.088-.554c.048-.2.136-.583.195-.844a5.192,5.192,0,0,1,.229-.752,1.6,1.6,0,0,0,.122-.353c0-.13.285-.351.452-.351.267,0,.474.291.587.824a12.205,12.205,0,0,1,.231,3.231c-.012,2.8.191,3.74.828,3.841.354.057.712-.414.381-.5-.109-.028-.123-.125-.158-1.1-.021-.588-.056-1.289-.078-1.559a21.94,21.94,0,0,1,.206-2.963c.019-.052.058-.822.087-1.71.077-2.37.517-3.941,1.206-4.309.293-.157,1.012.3,1.17.745.059.166.137.364.172.44a.366.366,0,0,1,.025.243,19.685,19.685,0,0,0,.021,2.881c.076.383.094,4.681.027,6.342-.039.964.009,1.261.165,1.009a69.132,69.132,0,0,0,.069-7.478A12.072,12.072,0,0,1,86,43.335c.036-.135.1-.5.138-.816.278-2.16.715-2.768,1.447-2.01.775.8.834,1.149.608,3.546-.113,1.2-.111,1.5.053,6.822.057,1.844.13,3.38.162,3.412.212.212.244-.392.137-2.584-.342-7.015-.207-8.938.638-9.124.822-.181,1.27.388,1.774,2.251a22.124,22.124,0,0,1,.311,2.217c.036.366.1.822.132,1.014a15.443,15.443,0,0,1,.1,1.552,8.507,8.507,0,0,0,.271,2.407,4.243,4.243,0,0,1,.131.816c0,.291.043.723.2,2a15.9,15.9,0,0,1,.084,3.282,4.13,4.13,0,0,0-.093.771c0,.446-.146.6-.622.668a9.125,9.125,0,0,0-4.181,1.549,5.7,5.7,0,0,0-1.912,3.868c0,.279.167.363.214.108.015-.078.073-.408.131-.733a4.824,4.824,0,0,1,2.8-3.736c.205-.072.643-.232.972-.354a6.568,6.568,0,0,1,1.016-.287c1.505-.233,1.618-.287,2.19-1.04a8.284,8.284,0,0,1,.534-.643c.221-.22.244-.348.064-.348-.309,0,.018-.683.53-1.108l.686-.567a9.719,9.719,0,0,1,2.4-1.229c1.675-.4,1.757-.388,1.934.32.059.238-.1.48-.738,1.095a14.273,14.273,0,0,0-2.433,2.62,1.779,1.779,0,0,1-.5.626c-.318.162-.352.2-.269.336a5.549,5.549,0,0,1-1.028,2.057,7.1,7.1,0,0,0-.893,1.491c-.037.121-.124.434-.193.695a10.105,10.105,0,0,1-1.452,3.041,2.591,2.591,0,0,0-.18.237,6.942,6.942,0,0,1-.725.726,4.466,4.466,0,0,0-.6.6c-.109.435,1.4-.94,1.916-1.75a10.463,10.463,0,0,0,1.4-3.24,4.253,4.253,0,0,1,.684-1.317A7.028,7.028,0,0,0,95.1,60.131c-.029-.117,0-.159.156-.224a1.9,1.9,0,0,0,.686-.87A19.528,19.528,0,0,1,98.2,56.683c.883-.843,1.023-1.181.726-1.749-.236-.45-.366-.484-1.2-.313a8.307,8.307,0,0,0-4.266,2.236,1.965,1.965,0,0,0-.554,1.061c-.109.6-.564,1.2-.564.751a3.558,3.558,0,0,1,.106-.583,2.183,2.183,0,0,0,.031-1.027c-.041-.333-.074-.733-.073-.89a38.572,38.572,0,0,0-.536-4.79,6.4,6.4,0,0,1-.151-1.742,9.174,9.174,0,0,0-.065-1.323,3.157,3.157,0,0,1-.071-.6c0-.174-.06-.7-.13-1.172s-.143-1-.16-1.172c-.217-2.164-1.524-3.661-2.487-2.85-.235.2-.264.161-.265-.344a2.68,2.68,0,0,0-.289-1.256c-.571-.872-1.252-1.148-1.707-.693M51.628,42.59c-.385.25-.516.722-.4,1.449l.106.681.037.238h-.3c-.531,0-.657.146-.736.853A10.03,10.03,0,0,0,50.8,49.02a9.03,9.03,0,0,1,.262.905,7.64,7.64,0,0,0,.477,1.323,5.681,5.681,0,0,1,.386,1.027,3.6,3.6,0,0,0,.158.57c.046.1.189.461.318.792a8.156,8.156,0,0,0,.932,1.851c.533.806.612,1.063.328,1.063-.545,0-.956-.543-2.279-3.009-1.5-2.79-1.94-3.266-2.469-2.654-.407.47-.417.83-.056,2.084a25.41,25.41,0,0,0,1.857,4.54,4.388,4.388,0,0,1,.195.461c0,.047.415,1.13.536,1.4.076.169.412,1.272.541,1.774a3.517,3.517,0,0,0,.115.355,4.173,4.173,0,0,1,.14.57,11.877,11.877,0,0,0,.476,1.672,4.084,4.084,0,0,1,.155.475,12.46,12.46,0,0,0,3.4,5.593l.391.379.2.843a7.128,7.128,0,0,1-.34,4.176,17.9,17.9,0,0,0-.546,2.376c-.072.505-.161,1.033-.2,1.172-.118.438-.137.6-.073.6.141,0,.36-.815.459-1.71a11.036,11.036,0,0,1,.251-1.33c.385-1.45.522-1.934.577-2.037a10.829,10.829,0,0,0,.223-1.78c.042-.566.034-.562.469-.269.33.222.6.292.555.143a.666.666,0,0,0-.274-.2c-.6-.283-1.2-1.383-.954-1.766.057-.091-.028-.2-.533-.672a11.126,11.126,0,0,1-2.849-4.065.939.939,0,0,0-.13-.253,7.176,7.176,0,0,1-.31-.855c-.146-.453-.332-1.009-.412-1.235s-.176-.54-.212-.7-.112-.485-.168-.729c-.094-.411-.223-.85-.629-2.154-.087-.279-.248-.721-.357-.982s-.25-.619-.312-.8-.184-.476-.27-.665a21.767,21.767,0,0,1-1.793-4.415c-.056-.2-.126-.435-.157-.522a1.306,1.306,0,0,1,.187-1.344l.178-.2.285.167c.329.193.372.252.847,1.162.194.371.417.778.5.9s.366.656.638,1.179c.8,1.543,1.234,2.148,1.69,2.381.228.116.324.248.18.248-.083,0-.082.171,0,.222.114.071.488-.111.593-.287.151-.256,0-.7-.513-1.473a14.275,14.275,0,0,1-1.37-3.181,7.038,7.038,0,0,0-.4-1.045,7.543,7.543,0,0,1-.436-1.2c-.081-.331-.221-.815-.31-1.074a9.32,9.32,0,0,1-.412-3c.058-.553.165-.679.576-.679.345,0,.286-.1.557,1a9.071,9.071,0,0,0,.392,1.14l.588,1.378a20.159,20.159,0,0,0,1.585,2.962,2.489,2.489,0,0,1,.261.429,5.824,5.824,0,0,0,.424.681,3.691,3.691,0,0,1,.559,1.108,3.649,3.649,0,0,0,.244.567c.252.51.256.555.053.555s-.832.7-1.087,1.212a2.2,2.2,0,0,1-.927,1.071c-.736.562-1.008.94-1.01,1.4a.189.189,0,0,1-.064.146c-.1.061-.075.222.033.222s.195-.177.248-.507a1.389,1.389,0,0,1,.672-.911,3.293,3.293,0,0,0,1.13-1.175,2.49,2.49,0,0,1,1.323-1.381,6.178,6.178,0,0,0,1.407-.886,3.047,3.047,0,0,1,1.257-.592,3.051,3.051,0,0,0,.518-.067,8.266,8.266,0,0,1,1.6-.2c.566-.018.667-.047.593-.166a4.824,4.824,0,0,0-2.238.185c-.439.1-.448.094-.731-.451a7.4,7.4,0,0,0-.519-.91c-.071-.1-.283-.489-.472-.855s-.453-.865-.587-1.109c-.206-.375-1.054-2.083-1.132-2.281-.014-.035-.188-.365-.388-.733a10.039,10.039,0,0,1-.452-.919,10.941,10.941,0,0,0-.691-1.441c-.268-.476-.267-.564.014-.864.442-.473,1.205,0,2.1,1.3.273.4,1.41,1.878,1.7,2.217a6.265,6.265,0,0,1,.564.908,8.889,8.889,0,0,0,.637,1.037c.165.215.421.583.569.818a2.917,2.917,0,0,0,.345.475,6.773,6.773,0,0,1,1.213,1.736,2.018,2.018,0,0,0,.172.359c.07.115.2.358.285.538s.335.6.551.93c.417.639.735,1.162,1.021,1.679.1.174.205.365.242.424.118.191-.3.864-.817,1.33a13.132,13.132,0,0,0-1.434,1.52l-.442.558a3.71,3.71,0,0,0-.624,2.092,6.915,6.915,0,0,0,.456,2.382c.125.077.125-.053,0-.56-.47-1.882-.343-2.925.488-4.009a15.876,15.876,0,0,1,1.329-1.515,3.845,3.845,0,0,0,.941-1.016c.126-.211.349-.554.495-.764a6.1,6.1,0,0,0,.791-1.431c0-.183-.111-.145-.226.076-.287.556-.377-.63-.105-1.4C65.1,51.792,66.7,49.9,67.527,49.9a.714.714,0,0,1,.612.656A20.119,20.119,0,0,1,67.7,53.1a4.5,4.5,0,0,0-.122.841c-.042.574-.066.671-.209.824a5.746,5.746,0,0,0-.5,3.393,1.973,1.973,0,0,1-.031.919,10.451,10.451,0,0,0,0,2.956,6.9,6.9,0,0,1,.1,3.062,3.087,3.087,0,0,1-.861,1.485c-.2.2-.345.381-.325.4.064.064.281-.038.46-.215l.174-.172-.047.253a11.37,11.37,0,0,0,.034,4.451,8.637,8.637,0,0,1,.183,1.061,29.285,29.285,0,0,0,.571,4.054c.029.1.07.268.091.364s.081.174.132.174c.12,0,.118-.032-.026-.585a17.128,17.128,0,0,1-.386-2.281c-.153-1.479-.2-1.886-.294-2.423-.053-.314-.126-.665-.162-.781a9.609,9.609,0,0,1,.421-5.072,6.213,6.213,0,0,0,.222-3.306,8.634,8.634,0,0,1-.08-3.466,1.649,1.649,0,0,0,.028-.836,5.765,5.765,0,0,1,.4-3.246,1.04,1.04,0,0,0,.29-.828A6.569,6.569,0,0,1,68,52.655c.069-.314.161-.812.2-1.109s.1-.644.137-.774a.923.923,0,0,0-.684-1.038c-.877-.165-2.614,1.705-3.288,3.539a3.929,3.929,0,0,0-.149,1.82c.023.492.012.556-.128.744-.21.282-.258.264-.507-.19-.119-.218-.311-.544-.426-.726a3.418,3.418,0,0,1-.21-.355c0-.014-.174-.29-.386-.612s-.545-.9-.739-1.292a16.4,16.4,0,0,0-.9-1.624,17.4,17.4,0,0,1-1.943-2.661,13.578,13.578,0,0,0-1.013-1.52c-.124-.157-.373-.48-.554-.719s-.414-.542-.519-.674-.323-.422-.485-.643A5.415,5.415,0,0,0,55.148,43.5a.84.84,0,0,0-1.262.5c-.056.274-.153.2-.41-.3-.642-1.253-1.158-1.564-1.848-1.116m1.081.254a3.874,3.874,0,0,1,.465.713,15.073,15.073,0,0,0,1,1.618,3.918,3.918,0,0,1,.274.544,1.678,1.678,0,0,0,.25.444,2.5,2.5,0,0,1,.31.507c.112.226.288.568.391.759s.557,1.09,1.008,2,1.052,2.04,1.335,2.521A7.558,7.558,0,0,1,58.5,53.35c-.011.01-.177.092-.369.182a5.309,5.309,0,0,0-.824.544c-.9.716-1.2.808-1.334.4a1.622,1.622,0,0,0-.122-.3,5.121,5.121,0,0,1-.223-.538,6.7,6.7,0,0,0-.579-1.083,4.731,4.731,0,0,1-.4-.676,1.467,1.467,0,0,0-.232-.372,7.125,7.125,0,0,1-.487-.781c-.14-.263-.321-.591-.4-.731a17.061,17.061,0,0,1-.75-1.562c-.025-.082-.174-.433-.33-.782a10.614,10.614,0,0,1-1.031-4.4.752.752,0,0,1,1.3-.408M86.6,45.428c-.193.141-.058.195.5.2a5.392,5.392,0,0,1,.637.032c.158.036.2-.09.068-.219a1.851,1.851,0,0,0-1.206-.013m.257.476c-.327.056-.538.173-.538.3,0,.076.034.088.143.051a3.977,3.977,0,0,1,.713-.063c.5-.012.57-.027.57-.129,0-.185-.355-.248-.887-.158m2.138.3a.107.107,0,0,0,.046.209,3.514,3.514,0,0,1,1.118.505c.3.2.468.243.468.108,0-.3-1.294-.948-1.631-.823m-33.4.272c-.066.042.067.062.428.062.307,0,.523-.025.523-.062a1.855,1.855,0,0,0-.95,0m-1.871.279c-.441.216-.853.548-.853.688,0,.041.043.013.095-.061a3.542,3.542,0,0,1,1.125-.65c.131-.042.222-.1.2-.135-.054-.087-.089-.077-.569.158m30.745-.089c-.629.109-.549.256.126.23.434-.016.489-.032.489-.14,0-.143-.166-.168-.614-.09m4.864.181a2.175,2.175,0,0,0,.78.515c.169,0,.046-.236-.206-.4-.276-.174-.51-.223-.574-.119m-33.276.142a.547.547,0,0,0-.245.127c-.03.049,0,.048.088,0a1.838,1.838,0,0,1,.578-.07c.256,0,.448-.027.448-.063,0-.078-.591-.073-.868.007m-2.035.087c-.329.1-.771.4-.771.513,0,.052.059.029.158-.063a2.606,2.606,0,0,1,.96-.418c.051,0,.076-.029.054-.063-.048-.077-.058-.076-.4.031m30.4,0c-.512.112-.887.276-.887.388s.084.107.544-.037a5.076,5.076,0,0,1,.842-.166c.372-.037.453-.064.437-.147-.026-.138-.407-.153-.937-.037M52.166,48.655a2.184,2.184,0,0,0-.53.663,2.523,2.523,0,0,0,.651-.695c-.009-.025-.064-.01-.121.032m.289.486a1.484,1.484,0,0,0-.532.692c0,.055.053.012.119-.1a1.979,1.979,0,0,1,.36-.394c.255-.21.274-.285.052-.2m28.513.594c-.367.09-.6.206-.6.3q0,.174.477.029a2.264,2.264,0,0,1,.454-.1c.176,0,.243-.106.144-.225s-.058-.105-.473,0m-22.014.777c-.39.063-.887.343-.887.5,0,.044.083,0,.184-.093A1.419,1.419,0,0,1,59.1,50.6c.092,0,.167-.028.167-.063,0-.064-.032-.066-.317-.021m-.074.287a.966.966,0,0,0-.433.208l-.138.147.3-.153a1.477,1.477,0,0,1,.54-.153.445.445,0,0,0,.278-.063c.047-.076-.144-.071-.549.013m28.334.5c-.494.091-.458.309.043.261.194-.019.331,0,.358.04.079.128.353.085.353-.056,0-.07-.011-.127-.024-.127a2.119,2.119,0,0,1-.238-.085.851.851,0,0,0-.492-.033m1.717.446c.032.1.25.164.547.173.251.007.657.186.607.267s-.323.072-.463,0-.323.023-.221.124a1.6,1.6,0,0,0,.729.186c.194,0,.285-.356.142-.561s-1.408-.39-1.34-.187m-32.734.19c-.366.193-.532.335-.536.461,0,.033.051,0,.115-.066a2.263,2.263,0,0,1,.507-.311,1.293,1.293,0,0,0,.39-.235c0-.083-.079-.058-.475.151M84.547,51.8c-.4.047-.76.211-.76.347s.121.118.385-.013A1.833,1.833,0,0,1,84.719,52c.213-.018.334-.057.334-.108,0-.117-.114-.137-.507-.091m2-.01c-.441.094-.206.212.459.23.527.014.649,0,.649-.072,0-.184-.591-.268-1.109-.158m-2.329.517a2.118,2.118,0,0,0-.934.41c-.152.183.006.212.343.063a3.963,3.963,0,0,1,.87-.222c.543-.074.671-.127.6-.247-.048-.078-.425-.079-.876,0m-27.635.075a1.808,1.808,0,0,0-.729.505c0,.039.05.025.113-.032a3.2,3.2,0,0,1,.934-.424c.051,0,.093-.029.093-.063,0-.079-.165-.074-.412.014m24.2.283c-.209.113-.343.261-.346.383s.167.1.365-.038c.094-.065.251-.166.348-.224.338-.205,0-.317-.366-.12m9.6.007c0,.163.486.5.582.406.04-.04-.013-.131-.149-.259-.2-.184-.433-.264-.433-.147m-9.223.292c-.541.235-1.14.733-1.078.9.032.083.087.06.312-.124a3.514,3.514,0,0,1,.65-.394c.5-.224.555-.271.464-.381s-.1-.1-.347,0m-26.991.484a.771.771,0,0,0-.3.222c-.049.127.043.113.21-.032a.877.877,0,0,1,.326-.163c.1-.022.185-.067.185-.1,0-.092-.137-.069-.422.073m-3.906.255a.925.925,0,0,0-.3.256c0,.033.106-.013.236-.1A1.031,1.031,0,0,1,50.5,53.7a.255.255,0,0,0,.151-.1c.139-.168-.078-.113-.4.1m4.045.263a1.624,1.624,0,0,0-.444.586c-.037.182-.033.18.092-.047a3.1,3.1,0,0,1,.891-.821l.156-.108-.145,0c-.095,0-.285.133-.55.393m-3.771-.062c-.284.182-.465.363-.414.414.022.022.06.01.085-.027a1.693,1.693,0,0,1,.345-.242c.165-.1.285-.2.265-.232-.045-.072-.022-.079-.281.086m14.253.349c0,.1.379.378.627.465.326.113.3.016-.035-.132a1.988,1.988,0,0,1-.449-.27c-.079-.074-.143-.1-.143-.064m20.493.273c-.848.112-1.834.278-2.614.441-.81.169-2.042.943-2.042,1.282,0,.166.142.128.308-.082a4.744,4.744,0,0,1,2.509-1.106c.526-.086.919-.141,2.536-.356a10.928,10.928,0,0,1,2.487.066c.235.034.649.092.921.127a1.806,1.806,0,0,1,.931.315.822.822,0,0,0,.222.12,1.55,1.55,0,0,1,.443.389c.251.309.475.412.475.218,0-.444-1.356-1.219-2.269-1.3a5.647,5.647,0,0,1-.835-.122,11.5,11.5,0,0,0-3.072,0m-20.217.464c.2.112.356.137.259.042a.67.67,0,0,0-.25-.1l-.19-.042.181.1m-13.2,1.6c-.073.092-.116.184-.1.2.034.034.347-.269.347-.337,0-.088-.13-.018-.25.134m.338.1a1.3,1.3,0,0,0-.4.611c-.076.266.017.249.124-.022a1.7,1.7,0,0,1,.327-.459,1.332,1.332,0,0,0,.243-.289c0-.1-.107-.039-.29.158m35,.08a4.916,4.916,0,0,1-.59.194,11.272,11.272,0,0,0-2.463,1.193c-.439.277-.582.339-.649.283s-.087-.045-.087.057c0,.132-.254.284-1.837,1.1a2.246,2.246,0,0,1-1.219.351,2.014,2.014,0,0,0-.618.092c0,.028.093.039.206.025s.413-.039.667-.056c.492-.033.337.036,2.342-1.033l.523-.279.054.146.192.519c.076.205.241.584.367.842l.229.469-.18.188c-.1.1-.15.187-.114.187a.381.381,0,0,0,.18-.127c.586-.648.879,2.4.5,5.226-.028.209-.021.233.04.137A13.187,13.187,0,0,0,85.01,63.8a8.415,8.415,0,0,0-.439-2.9l-.118-.244.189-.155a6.322,6.322,0,0,1,1.606-.943,6.661,6.661,0,0,0,1.787-.9l.661-.5a4.2,4.2,0,0,1,.48-.311c.125-.065.182-.124.134-.14-.1-.032-.428.182-1.073.692a5.536,5.536,0,0,1-1.67.945,6.038,6.038,0,0,0-1.7.872,1.4,1.4,0,0,1-.482.284,6.452,6.452,0,0,1-.786-1.815,10.457,10.457,0,0,1,3.041-1.628c.638-.2.9-.316.688-.316a.227.227,0,0,0-.13.033m3.655,1.763c-.192.045-.323.112-.335.171-.022.113,1.166.1,1.284-.014.2-.2-.368-.292-.949-.157m-.113.48a2.855,2.855,0,0,0-.524.223c-.087.057-.182.09-.21.072a1.416,1.416,0,0,0-.457.1c-.223.072-.442.141-.485.154-.149.043-.08.153.1.153a2.876,2.876,0,0,0,.922-.239.343.343,0,0,1,.171-.063,3.953,3.953,0,0,0,1.3-.4c0-.136-.388-.135-.809,0M62.121,67.493a1.157,1.157,0,0,0-.688.58,3,3,0,0,1-1.26,1.374,1.192,1.192,0,0,0-.4.328c0,.433,1.479-.82,1.873-1.583a.9.9,0,0,1,.414-.432l.259-.132.613.131a2.82,2.82,0,0,0,1.459.048c.255-.089.368-.28.124-.21a3.22,3.22,0,0,1-1.386.02,2.738,2.738,0,0,0-1.014-.124m1.949.687a1.181,1.181,0,0,1-.359.053c-.461.023-.4.133.073.133.326,0,.4-.019.416-.111.02-.107-.055-.15-.13-.075m-1.971.578a2.355,2.355,0,0,0-.006.618c.02.316.045.711.055.878.021.354.119.5.215.32a8.229,8.229,0,0,0-.082-1.78.1.1,0,0,0-.182-.036M90.28,69.2a1.787,1.787,0,0,0-.1.265,2.192,2.192,0,0,1-.253.336c-.255.3-.321.493-.174.507a.832.832,0,0,0,.348-.037l.206-.044v.516a11.234,11.234,0,0,0,.121,1.32c.066.442.139,1.188.161,1.659.047.993.156,1.656.281,1.7.07.023.08-.059.049-.438-.021-.257-.063-.913-.1-1.459a9.746,9.746,0,0,0-.092-1.048c-.042-.069-.217-1.857-.214-2.194,0-.223-.056-.314-.239-.378-.034-.012.016-.194.111-.4.2-.439.21-.526.078-.526-.052,0-.137.1-.19.229M62.724,70.251a4.823,4.823,0,0,1-.064,1.206c-.1.653-.093.957.027.831a6.255,6.255,0,0,0,.182-2.484c-.158-.158-.188-.065-.145.448m20.971-.266a2.684,2.684,0,0,1-.644.249c-.211,0-.341.066-.341.172,0,.182.739.016,1.2-.269.442-.272.528-.26.953.131.384.353.577.416.618.2.013-.07-.018-.11-.088-.11a1.326,1.326,0,0,1-.444-.317c-.417-.395-.564-.4-1.258-.059m-24.925.475a1.637,1.637,0,0,1-1.238.064c-.2-.084-.288-.076-.288.03,0,.4,1.816.238,1.949-.178.038-.118-.109-.089-.423.084m4.415,0a1.092,1.092,0,0,0,.191.647c.085.028.094-.09.035-.444-.035-.213-.131-.3-.226-.2M84.325,72.94c0,1.519.011,1.7.1,1.715s.109-.14.15-1.476c.047-1.509.016-1.882-.161-1.916-.08-.015-.093.223-.093,1.677m1.151-.89a5.45,5.45,0,0,0,.047,1.727c.148.123.168-.006.133-.848-.018-.439-.033-.826-.033-.86,0-.07-.086-.081-.148-.019m-.608,1.062a41.9,41.9,0,0,0-.038,4.654.182.182,0,0,0,.143.134c.089,0,.1-.139.07-1.251-.017-.688-.012-1.75.01-2.36.041-1.147,0-1.4-.185-1.177" transform="translate(-1510 3175.721)" fill="#202023" fill-rule="evenodd"/>
    </g>
  </g>
</svg>
