<?xml version="1.0" standalone="no"?>
<!DOCTYPE svg PUBLIC "-//W3C//DTD SVG 20010904//EN"
 "http://www.w3.org/TR/2001/REC-SVG-20010904/DTD/svg10.dtd">
<svg version="1.0" xmlns="http://www.w3.org/2000/svg"
 width="70" height="70" style="background-color:white" viewBox="0 0 512.000000 512.000000"
 preserveAspectRatio="xMidYMid meet">

<g transform="translate(0.000000,512.000000) scale(0.100000,-0.100000)"
fill="#000000" stroke="none">
<path d="M2986 4434 c-75 -26 -127 -37 -210 -44 -61 -6 -154 -19 -206 -31
-163 -36 -460 -152 -550 -214 -40 -27 -201 -69 -239 -62 -15 2 -107 21 -206
42 -146 30 -213 38 -355 45 -167 7 -240 5 -240 -9 0 -3 84 -7 187 -9 189 -3
235 -9 571 -78 88 -18 107 -34 42 -34 -23 0 -40 -5 -40 -11 0 -13 120 -6 195
11 54 12 123 42 108 47 -6 2 -28 -3 -50 -12 -21 -9 -57 -20 -80 -24 -63 -12
-56 13 10 35 60 19 125 50 147 70 28 24 283 125 380 150 52 14 115 31 140 39
25 7 88 17 140 20 52 4 135 16 184 28 l89 21 34 -39 33 -38 40 18 c40 18 60
49 43 66 -6 6 -9 1 -9 -12 1 -15 -10 -29 -33 -42 l-34 -20 -28 34 c-16 19 -29
37 -29 41 0 11 61 28 101 28 40 0 69 -20 69 -49 0 -27 -79 -97 -149 -130 -69
-33 -91 -48 -91 -63 0 -6 15 0 33 12 17 11 52 30 75 41 78 34 152 109 152 152
0 23 -57 57 -95 56 -16 0 -75 -16 -129 -35z"/>
<path d="M2930 4362 c0 -4 7 -16 16 -27 13 -17 16 -18 24 -5 5 8 8 19 7 24 -4
11 -47 19 -47 8z"/>
<path d="M2661 4323 c-1 -7 -8 -13 -16 -13 -16 0 -19 -18 -7 -38 11 -16 37 29
29 50 -4 9 -6 10 -6 1z"/>
<path d="M2845 4180 c-144 -30 -183 -47 -205 -90 -21 -41 -27 -115 -10 -125 6
-4 10 13 10 43 0 35 6 57 21 76 31 40 46 33 54 -26 4 -29 16 -72 26 -96 11
-25 18 -47 15 -49 -5 -5 -37 40 -65 92 -11 22 -21 34 -21 27 0 -27 51 -109 92
-148 79 -75 290 -215 303 -202 3 3 -18 20 -46 39 -29 18 -47 35 -41 37 6 2 87
-15 179 -37 93 -23 172 -41 176 -41 3 0 3 -8 0 -17 -5 -13 -3 -15 12 -9 11 4
101 27 202 53 l182 45 18 36 c10 20 38 50 61 67 38 26 52 30 110 30 100 0 98
-13 -37 -173 -44 -53 -45 -53 -57 -30 -8 13 -13 17 -14 10 0 -10 -5 -10 -20
-2 -26 14 -28 -11 -3 -31 11 -10 14 -10 9 -1 -4 7 -1 12 8 12 32 0 14 -22 -56
-67 -88 -55 -83 -52 -75 -59 5 -5 51 22 155 89 30 20 142 162 172 217 10 18 9
25 -4 39 -22 21 -184 19 -264 -4 -30 -9 -92 -23 -136 -31 -57 -10 -96 -24
-136 -48 -52 -32 -61 -34 -113 -29 -48 5 -63 2 -107 -21 l-51 -27 -77 21
c-113 31 -138 46 -204 124 -34 39 -87 91 -120 115 -55 41 -58 46 -58 87 0 25
6 49 15 58 8 8 49 20 90 27 72 12 105 23 95 32 -3 2 -41 -4 -85 -13z m-9 -252
c65 -68 117 -138 105 -138 -17 0 -70 28 -109 57 -32 24 -72 96 -72 129 0 21
27 4 76 -48z m932 -75 c-14 -16 -36 -41 -49 -56 -21 -25 -123 -66 -135 -54 -9
9 118 117 149 126 56 16 63 13 35 -16z m-148 -43 c-26 -36 -30 -38 -153 -84
-67 -26 -102 -34 -113 -28 -14 8 -14 11 7 26 13 9 29 16 35 16 7 0 33 17 59
39 45 37 98 57 158 60 l28 1 -21 -30z m-250 -56 c0 -14 -94 -45 -118 -39 l-27
7 24 19 c16 13 39 19 72 19 27 0 49 -3 49 -6z"/>
<path d="M3915 3820 c-21 -28 -35 -53 -32 -56 2 -3 21 18 41 47 21 28 35 53
33 55 -3 3 -21 -18 -42 -46z"/>
<path d="M1777 3589 c-3 -13 -1 -19 6 -16 15 5 22 37 9 37 -5 0 -12 -9 -15
-21z"/>
<path d="M1810 3569 c0 -5 5 -7 10 -4 6 3 10 8 10 11 0 2 -4 4 -10 4 -5 0 -10
-5 -10 -11z"/>
<path d="M1880 3570 c-7 -4 39 -13 102 -19 270 -30 530 -84 751 -157 150 -50
183 -52 279 -18 24 8 140 26 258 40 220 25 247 32 348 91 73 42 39 37 -45 -6
-77 -40 -83 -41 -271 -62 -106 -11 -214 -26 -240 -33 -44 -11 -53 -10 -155 26
-105 37 -151 47 -132 29 6 -5 28 -14 50 -21 22 -7 65 -22 95 -33 45 -17 51
-22 35 -28 -44 -17 -108 -8 -237 35 -185 62 -354 101 -553 130 -205 29 -270
35 -285 26z"/>
<path d="M1670 3563 c-116 -20 -455 -89 -535 -109 -163 -41 -175 -44 -175 -53
0 -5 51 4 113 20 121 31 528 114 615 125 28 4 52 10 52 15 0 9 -25 10 -70 2z"/>
<path d="M3440 3533 c0 -11 8 -23 18 -27 9 -3 23 -9 30 -12 7 -3 12 1 12 12 0
9 -3 14 -7 11 -3 -4 -17 3 -30 15 -23 21 -23 21 -23 1z"/>
<path d="M3051 3471 c-9 -16 -7 -18 14 -18 29 0 30 3 10 23 -12 13 -15 12 -24
-5z"/>
<path d="M4075 3172 c-8 -8 -35 -71 -35 -82 0 -5 15 -17 33 -28 19 -11 45 -27
59 -36 25 -16 25 -16 53 26 l28 42 -29 23 c-40 33 -100 64 -109 55z"/>
<path d="M4263 3023 c-7 -2 -22 -20 -34 -39 l-21 -35 35 -52 c44 -68 74 -127
99 -197 25 -69 36 -278 19 -361 -14 -65 -60 -167 -88 -191 -17 -16 -22 -16
-39 -3 -35 26 -36 24 -65 -114 -22 -108 -23 -121 -8 -121 18 0 219 92 219 100
0 4 -7 13 -15 20 -21 18 -20 23 24 96 84 139 110 381 62 569 -36 141 -152 343
-188 328z"/>
<path d="M966 2161 c12 -11 628 -99 844 -121 100 -10 312 -69 325 -90 9 -15
-37 -24 -108 -23 -77 2 -82 -11 -8 -21 39 -5 68 -1 143 23 146 47 252 71 308
71 28 0 104 -13 168 -29 64 -16 149 -34 187 -41 53 -8 93 -24 165 -65 120 -69
168 -89 253 -111 73 -18 88 -33 68 -68 -10 -18 -9 -17 9 3 17 19 23 21 36 11
27 -24 12 -53 -41 -80 -46 -23 -61 -25 -175 -24 -113 0 -130 3 -181 26 -68 32
-163 45 -210 29 -50 -17 -83 -70 -89 -148 -3 -35 -3 -69 1 -74 6 -11 19 63 19
112 0 51 18 40 30 -18 33 -168 51 -216 111 -305 33 -48 56 -88 52 -88 -5 0
-32 9 -61 19 -66 24 -64 10 4 -41 50 -39 76 -50 54 -23 -28 34 23 8 207 -103
183 -111 323 -152 518 -152 101 0 143 -10 193 -47 46 -34 41 -49 -19 -62 -63
-14 -77 -7 -19 9 23 6 40 13 38 15 -7 8 -82 -17 -116 -37 -32 -19 -49 -21
-255 -20 l-222 1 -150 67 c-82 37 -185 76 -227 87 -74 19 -83 25 -175 109 -54
48 -102 88 -108 88 -12 0 170 -171 199 -186 12 -7 41 -15 66 -19 25 -4 74 -22
110 -40 36 -17 102 -46 148 -64 45 -18 82 -36 82 -39 0 -15 -107 12 -195 49
-55 23 -158 61 -230 85 l-130 44 -85 83 c-111 109 -174 162 -415 348 -218 169
-225 174 -225 162 0 -5 46 -44 103 -88 294 -229 402 -317 498 -412 l106 -104
144 -50 c79 -28 187 -69 239 -92 l95 -42 275 -3 c221 -3 295 0 374 13 138 23
150 29 141 63 -4 15 -7 41 -7 59 1 60 -102 127 -216 142 -37 5 -83 16 -102 24
-20 9 -69 18 -110 22 -45 4 -97 17 -130 32 -44 20 -70 25 -131 24 -68 -1 -80
2 -121 29 -53 35 -76 64 -141 178 -27 46 -68 110 -92 143 -25 33 -47 77 -51
97 -3 20 -10 52 -16 70 -8 28 -7 37 9 54 16 18 27 20 93 16 52 -4 95 -14 140
-33 130 -55 338 -40 414 30 l28 25 -19 33 c-23 39 -81 73 -142 82 -54 8 -158
55 -254 114 -38 23 -92 46 -120 52 -29 6 -115 25 -192 42 -168 38 -253 40
-375 8 -104 -28 -140 -25 -280 24 -82 28 -131 38 -220 46 -63 5 -271 32 -462
59 -365 53 -388 55 -372 41z m1861 -853 c28 -46 60 -101 71 -124 12 -23 46
-64 77 -92 60 -55 59 -67 -3 -28 -48 31 -70 55 -125 142 -75 119 -104 184 -79
184 4 0 30 -37 59 -82z m422 -295 c46 -18 31 -29 -49 -37 -55 -5 -70 -3 -99
15 -18 11 -31 22 -29 25 10 9 94 21 118 16 14 -2 40 -11 59 -19z m240 -53 c11
-6 3 -11 -30 -20 -24 -7 -57 -16 -73 -21 -47 -15 -144 -11 -179 7 -31 17 -31
17 -9 25 66 25 253 31 291 9z m204 -46 c99 -51 153 -113 85 -99 -18 4 -37 11
-43 16 -5 5 -33 9 -61 9 -64 0 -273 27 -306 39 -21 8 -19 10 22 20 25 7 54 16
65 21 36 16 203 12 238 -6z"/>
<path d="M2528 1945 c17 -31 24 -34 43 -22 29 18 23 32 -15 32 -20 0 -32 -4
-28 -10z"/>
<path d="M2907 1863 c-3 -10 -8 -36 -11 -58 l-5 -40 14 40 c10 29 14 34 14 17
1 -16 6 -22 18 -20 9 2 18 9 21 16 2 7 -2 11 -10 10 -8 -2 -14 8 -16 25 -4 30
-18 36 -25 10z"/>
<path d="M3171 1733 c-1 -6 -4 -20 -7 -30 -5 -17 -5 -17 6 0 6 10 9 23 6 30
-3 9 -5 9 -5 0z"/>
<path d="M3195 1650 c28 -12 63 -12 70 0 4 6 -12 10 -42 9 -36 0 -43 -3 -28
-9z"/>
<path d="M1783 1537 c-7 -15 -23 -27 -40 -31 -15 -3 -167 -19 -336 -36 -319
-31 -402 -44 -413 -62 -5 -7 1 -9 17 -5 55 14 169 28 424 52 149 14 284 28
302 31 31 5 68 44 61 66 -2 6 -9 -1 -15 -15z"/>
<path d="M1812 1519 c-7 -12 -11 -24 -8 -27 6 -6 35 27 36 41 0 14 -15 7 -28
-14z"/>
<path d="M2810 911 c-14 -27 -12 -39 3 -21 7 8 18 15 26 15 8 0 16 6 19 13 6
20 -36 14 -48 -7z"/>
<path d="M3202 749 c-11 -31 -10 -32 3 -15 13 17 15 18 15 3 0 -21 26 -22 34
-1 9 22 8 26 -5 19 -6 -4 -16 1 -23 11 -12 15 -14 14 -24 -17z"/>
<path d="M3585 730 c-4 -12 -4 -24 -1 -27 3 -4 6 -1 6 5 0 6 7 9 15 6 19 -8
20 10 1 25 -11 10 -16 8 -21 -9z"/>
</g>
</svg>
